<svg width="384" height="343" viewBox="0 0 384 343" fill="none" xmlns="http://www.w3.org/2000/svg">
<path d="M112.58 83.8713L55.1333 135.359L111.718 248.695L169.165 197.208L112.58 83.8713Z" fill="#F5F5F5"/>
<path d="M139.479 191.847L138.829 197.252L110.27 191.737L110.92 186.331L139.479 191.847Z" fill="#E0E0E0"/>
<path d="M125.097 172.563L129.193 173.352L124.651 211.027L120.55 210.231L125.097 172.563Z" fill="#E0E0E0"/>
<path d="M98.8159 124.68C98.8569 124.756 93.102 130.018 85.9596 136.411C78.8172 142.805 72.9958 147.936 72.9548 147.854C72.9138 147.771 78.6687 142.516 85.8111 136.116C92.9535 129.716 98.7494 124.598 98.8159 124.68Z" fill="#E0E0E0"/>
<path d="M119.921 117.574C119.962 117.656 110.387 126.327 98.5397 136.946C86.692 147.566 77.0357 156.106 77.005 156.031C76.9742 155.955 86.5282 147.271 98.3912 136.651C110.254 126.032 119.88 117.491 119.921 117.574Z" fill="#E0E0E0"/>
<path d="M124.155 126.053C124.196 126.135 114.621 134.813 102.774 145.432C90.9259 156.051 81.2696 164.592 81.2388 164.51C81.2081 164.427 90.7723 155.756 102.625 145.13C114.478 134.504 124.114 125.97 124.155 126.053Z" fill="#E0E0E0"/>
<path d="M128.389 134.538C128.43 134.621 118.856 143.299 107.008 153.911C95.1602 164.523 85.5039 173.078 85.5039 172.996C85.5039 172.913 95.0322 164.235 106.885 153.616C118.738 142.997 128.348 134.456 128.389 134.538Z" fill="#E0E0E0"/>
<path d="M132.608 143.024C132.649 143.106 123.075 151.777 111.227 162.397C99.3792 173.016 89.7229 181.557 89.6973 181.474C89.6717 181.392 99.241 172.721 111.104 162.102C122.967 151.482 132.608 142.942 132.608 143.024Z" fill="#E0E0E0"/>
<path d="M304.675 159.814L256.429 203.055L303.95 298.237L352.196 254.995L304.675 159.814Z" fill="#F5F5F5"/>
<path d="M327.27 250.514L326.723 255.055L302.735 250.424L303.288 245.883L327.27 250.514Z" fill="#E0E0E0"/>
<path d="M315.193 234.317L318.633 234.983L314.819 266.621L311.373 265.955L315.193 234.317Z" fill="#E0E0E0"/>
<path d="M293.099 194.138C293.14 194.22 288.312 198.645 282.312 204.016C276.311 209.388 271.416 213.682 271.375 213.62C271.334 213.559 276.168 209.12 282.163 203.742C288.159 198.364 293.058 194.021 293.099 194.138Z" fill="#E0E0E0"/>
<path d="M310.84 188.135C310.881 188.218 302.848 195.517 292.92 204.428C282.993 213.339 274.867 220.515 274.826 220.432C274.785 220.35 282.819 213.051 292.746 204.133C302.674 195.215 310.784 188.053 310.84 188.135Z" fill="#E0E0E0"/>
<path d="M314.399 195.256C314.439 195.339 306.406 202.638 296.479 211.556C286.551 220.474 278.425 227.635 278.384 227.553C278.343 227.471 286.351 220.206 296.304 211.288C306.258 202.37 314.368 195.181 314.399 195.256Z" fill="#E0E0E0"/>
<path d="M317.952 202.37C317.993 202.452 309.954 209.751 300.032 218.669C290.109 227.587 281.979 234.749 281.938 234.667C281.897 234.585 289.93 227.293 299.858 218.368C309.785 209.443 317.916 202.302 317.952 202.37Z" fill="#E0E0E0"/>
<path d="M321.536 209.511C321.577 209.594 313.544 216.886 303.616 225.804C293.689 234.722 285.563 241.884 285.522 241.808C285.481 241.733 293.514 234.427 303.442 225.509C313.37 216.591 321.47 209.429 321.536 209.511Z" fill="#E0E0E0"/>
<path d="M228.348 88.0408L175.705 50.3164L134.247 154.174L186.889 191.898L228.348 88.0408Z" fill="#F5F5F5"/>
<path d="M177.879 159.406L174.541 160.936L166.062 129.537L169.405 128.001L177.879 159.406Z" fill="#E0E0E0"/>
<path d="M182.999 136.878L184.218 141.385L160.942 152.066L159.724 147.559L182.999 136.878Z" fill="#E0E0E0"/>
<path d="M199.537 90.5521C199.496 90.655 194.161 86.9369 187.612 82.2515C181.064 77.5661 175.795 73.6765 175.836 73.5736C175.877 73.4707 181.217 77.1888 187.766 81.8742C194.314 86.5596 199.578 90.4424 199.537 90.5521Z" fill="#E0E0E0"/>
<path d="M212.173 109.232C212.132 109.335 203.295 103.106 192.435 95.3265C181.576 87.5472 172.81 81.1537 172.851 81.0508C172.892 80.9479 181.724 87.1699 192.584 94.956C203.443 102.742 212.214 109.129 212.173 109.232Z" fill="#E0E0E0"/>
<path d="M209.07 117.004C209.029 117.107 200.192 110.885 189.333 103.099C178.473 95.3128 169.708 88.9262 169.749 88.8233C169.79 88.7204 178.622 94.9493 189.481 102.729C200.341 110.508 209.111 116.901 209.07 117.004Z" fill="#E0E0E0"/>
<path d="M205.967 124.777C205.926 124.88 197.089 118.658 186.23 110.878C175.37 103.099 166.605 96.7261 166.646 96.6026C166.687 96.4792 175.519 102.722 186.378 110.501C197.238 118.28 206.008 124.674 205.967 124.777Z" fill="#E0E0E0"/>
<path d="M202.865 132.549C202.824 132.652 193.987 126.43 183.127 118.65C172.268 110.871 163.497 104.478 163.543 104.375C163.589 104.272 172.416 110.494 183.276 118.273C194.135 126.052 202.906 132.446 202.865 132.549Z" fill="#E0E0E0"/>
<path opacity="0.2" d="M203.136 0H201.815V30.1703H203.136V0Z" fill="#9D2222"/>
<path d="M171.638 66.6724H233.313C233.313 66.6724 227.62 30.1841 202.01 30.1841C179.231 30.1841 171.638 66.6724 171.638 66.6724Z" fill="#DA8E1C"/>
<path d="M203.136 0H201.815V30.1703H203.136V0Z" fill="#DA8E1C"/>
<path d="M339.799 301.723C339.799 301.819 273.623 301.902 192.005 301.902C110.387 301.902 44.2012 301.84 44.2012 301.723C44.2012 301.607 110.367 301.545 192.005 301.545C273.644 301.545 339.799 301.62 339.799 301.723Z" fill="#263238"/>
<path d="M60.5646 258.759C61.4302 258.843 62.2744 259.159 63.0468 259.69C63.8191 260.22 64.5038 260.954 65.06 261.846C66.1658 263.642 66.9488 265.755 67.3486 268.02C68.2139 272.356 67.6814 277.48 66.7598 281.795C63.2577 280.114 61.092 275.107 60.1038 272.472C58.5678 268.315 57.6513 259.534 60.5493 258.752" fill="#DA8E1C"/>
<path d="M71.8028 287.057C71.2769 285.964 70.9762 284.704 70.9312 283.405C70.8862 282.107 71.0986 280.815 71.5468 279.662C72.0089 278.519 72.6364 277.512 73.3924 276.698C74.1484 275.884 75.0178 275.28 75.95 274.921C76.805 274.565 77.7983 274.421 78.5407 275.086C78.8753 275.425 79.136 275.878 79.2954 276.398C79.4548 276.918 79.5071 277.486 79.4469 278.043C79.3125 279.157 78.9591 280.204 78.4229 281.075C76.718 284.169 74.6495 286.741 71.7669 287.057" fill="#DA8E1C"/>
<path d="M72.1921 301.552C72.1161 301.261 72.0629 300.959 72.0334 300.653C71.9412 300.008 71.8184 299.178 71.6699 298.184C71.2103 295.46 71.0824 292.655 71.291 289.876C71.5324 287.084 72.3261 284.429 73.5899 282.186C73.976 281.515 74.4213 280.91 74.916 280.382C75.0504 280.239 75.1905 280.106 75.3358 279.984C75.382 279.933 75.4338 279.891 75.4894 279.861C74.8418 280.602 74.2501 281.427 73.723 282.323C72.5258 284.569 71.772 287.184 71.5316 289.924C71.204 293.121 71.6084 296.05 71.844 298.156C71.9668 299.206 72.0692 300.056 72.1256 300.646C72.1659 300.945 72.1881 301.248 72.1921 301.552Z" fill="#263238"/>
<path d="M61.6909 265.365C61.7494 265.474 61.7975 265.591 61.8343 265.715C61.9264 265.99 62.0493 266.333 62.1927 266.765C62.505 267.677 62.9402 269.001 63.4676 270.641C64.5223 273.927 65.9354 278.496 67.41 283.586C68.8845 288.676 70.1389 293.32 70.994 296.702C71.4343 298.39 71.7773 299.762 72.018 300.715C72.1255 301.168 72.2074 301.531 72.274 301.813C72.3105 301.939 72.3363 302.07 72.3508 302.204C72.2988 302.087 72.2576 301.963 72.2279 301.833C72.1511 301.559 72.0538 301.202 71.9258 300.756L70.8455 296.777C69.929 293.423 68.649 288.786 67.1796 283.702C65.7101 278.619 64.3175 274.037 63.3037 270.73C62.7917 269.104 62.3975 267.78 62.1056 266.813C61.9725 266.374 61.865 266.024 61.7831 265.743C61.7446 265.621 61.7138 265.494 61.6909 265.365Z" fill="#263238"/>
<path d="M68.0295 291.962C66.976 289.612 65.5201 287.631 63.7822 286.184C62.0444 284.737 60.0744 283.866 58.0352 283.641C57.0112 283.545 55.7517 283.778 55.2909 285.013C54.8301 286.247 55.4445 287.757 56.1511 288.758C57.6523 290.862 59.5848 292.324 61.7051 292.959C63.8253 293.594 66.0384 293.373 68.0653 292.325" fill="#DA8E1C"/>
<path d="M59.6123 287.359C59.8294 287.344 60.047 287.356 60.2626 287.393C60.515 287.411 60.7663 287.45 61.0152 287.509C61.307 287.585 61.6501 287.626 62.0085 287.763C62.4091 287.877 62.8041 288.023 63.1912 288.202C63.6397 288.395 64.0791 288.624 64.507 288.888C65.4913 289.479 66.4223 290.218 67.2821 291.09C68.1319 291.984 68.9016 293.006 69.5758 294.136C69.867 294.628 70.1354 295.144 70.3797 295.68C70.6005 296.143 70.8021 296.621 70.9838 297.113C71.1377 297.514 71.2744 297.927 71.3934 298.348C71.4961 298.66 71.5833 298.981 71.6546 299.309C71.7304 299.582 71.787 299.865 71.8235 300.152C71.7672 300.152 71.5214 298.973 70.8302 297.216C70.642 296.745 70.4352 296.287 70.2107 295.844C69.9612 295.325 69.6912 294.823 69.4018 294.342C68.0626 292.125 66.3548 290.358 64.4149 289.183C63.9694 288.923 63.5445 288.676 63.1298 288.497C62.749 288.311 62.361 288.153 61.9675 288.024C60.5339 287.496 59.6072 287.434 59.6123 287.359Z" fill="#263238"/>
<path d="M292.024 72.3593C290.519 72.8189 289.787 75.1444 289.643 77.2024C289.5 79.2604 289.695 81.4419 289.049 83.3215C288.322 85.4344 286.587 86.9985 286.53 89.324C286.495 90.7441 287.124 92.068 287.094 93.5018C287.042 95.8342 285.271 97.6178 285.174 99.9227C285.107 101.603 285.942 103.209 285.742 104.869C285.588 106.158 284.836 107.174 284.518 108.409C283.889 110.878 285.153 113.588 286.797 114.974C287.717 115.749 288.753 116.246 289.832 116.43C290.911 116.613 292.007 116.479 293.043 116.036C294.079 115.593 295.031 114.852 295.831 113.865C296.632 112.878 297.261 111.669 297.677 110.322C298.588 107.359 298.388 104.018 298.189 100.828C297.574 90.8767 297.117 80.9114 296.817 70.9324" fill="#263238"/>
<path d="M287.652 107.469C287.962 107.211 288.203 106.829 288.343 106.378C288.491 105.841 288.55 105.268 288.517 104.697C288.461 103.941 288.336 103.197 288.143 102.481C287.898 101.582 287.807 100.621 287.877 99.6688C288.005 98.5987 288.579 97.7206 289.096 96.8562C289.374 96.4332 289.607 95.9598 289.787 95.4499C289.967 94.9343 289.997 94.3467 289.869 93.8035C289.603 92.6854 288.783 91.8622 288.41 90.5656C288.234 89.9238 288.205 89.2262 288.328 88.5625C288.444 87.9402 288.616 87.339 288.84 86.772C289.272 85.7509 289.616 84.6668 289.864 83.541C290.222 81.3663 290.053 79.2878 290.299 77.5796C290.435 76.2116 290.888 74.9352 291.594 73.9301C291.794 73.6594 292.022 73.4284 292.27 73.2441C292.356 73.1843 292.447 73.1405 292.541 73.1138C292.221 73.3505 291.926 73.646 291.666 73.9918C291.012 75.007 290.6 76.2615 290.483 77.5933C290.393 78.5032 290.346 79.4196 290.34 80.3373C290.338 81.4174 290.259 82.4948 290.104 83.5547C289.86 84.7064 289.516 85.8161 289.08 86.8612C288.696 87.9382 288.343 89.2005 288.681 90.3804C289.019 91.5603 289.833 92.3766 290.145 93.6389C290.286 94.2625 290.252 94.9337 290.048 95.5254C289.848 96.0865 289.59 96.6063 289.28 97.0689C288.768 97.9332 288.21 98.7564 288.087 99.7168C288.015 100.628 288.096 101.549 288.323 102.413C288.505 103.15 288.619 103.915 288.66 104.69C288.686 105.287 288.607 105.884 288.43 106.433C288.32 106.777 288.143 107.075 287.918 107.297C287.838 107.376 287.748 107.434 287.652 107.469Z" fill="#455A64"/>
<path d="M283.648 123.734L279.04 141.57L259.768 142.942L256.553 152.546L276.674 155.29C277.625 155.813 278.645 156.072 279.672 156.052C280.7 156.032 281.714 155.733 282.653 155.173C283.592 154.614 284.436 153.805 285.135 152.795C285.834 151.786 286.373 150.597 286.72 149.301L292.091 129.215L283.648 123.734Z" fill="#F8D198"/>
<path d="M323.487 292.03C323.487 292.03 309.366 231.923 309.063 229.975C308.792 228.205 314.183 184.952 314.87 173.723L295.787 174.676V174.93L287.677 175.534L294.937 298.41H303.718L302.848 257.627C308.265 277.103 316.027 296.956 316.027 296.956L323.487 292.03Z" fill="#F8D198"/>
<path d="M303.206 272.26C303.206 271.889 303.099 258.595 303.099 258.595C302.991 259.39 299.735 247.056 299.812 246.308C299.853 245.917 303.206 272.26 303.206 272.26Z" fill="#F5BD69"/>
<path d="M299.443 240.464C299.398 240.708 299.379 240.96 299.387 241.211C299.359 241.897 299.359 242.584 299.387 243.269C299.387 243.702 299.433 244.168 299.474 244.676C299.515 245.183 299.571 245.718 299.658 246.274C299.84 247.488 300.082 248.684 300.38 249.855C301.015 252.345 301.722 254.52 302.218 256.098C302.454 256.784 302.659 257.435 302.833 257.957C302.895 258.199 302.982 258.43 303.089 258.643C303.061 258.406 303.01 258.175 302.935 257.957C302.817 257.504 302.638 256.852 302.423 256.05C301.973 254.444 301.297 252.249 300.667 249.786C300.369 248.632 300.125 247.455 299.935 246.26C299.843 245.712 299.781 245.183 299.725 244.689C299.669 244.195 299.628 243.729 299.602 243.317C299.541 242.467 299.515 241.781 299.5 241.301C299.509 241.019 299.49 240.738 299.443 240.464Z" fill="#F5BD69"/>
<path d="M294.773 299.034V297.93L303.769 297.402L303.795 301.964L303.242 302.012C300.769 302.204 290.672 302.766 289.024 302.101C287.175 301.36 294.773 299.034 294.773 299.034Z" fill="#455A64"/>
<path d="M303.913 301.689C303.862 301.693 303.811 301.693 303.759 301.689L303.319 301.73L301.691 301.826C300.319 301.902 298.419 301.97 296.325 301.984C294.231 301.998 292.326 301.95 290.949 301.895L289.326 301.806H288.881H288.727C288.778 301.8 288.83 301.8 288.881 301.806H289.326L290.954 301.847C292.326 301.847 294.226 301.902 296.32 301.888C298.414 301.874 300.319 301.826 301.691 301.778L303.319 301.723H303.913V301.689Z" fill="#263238"/>
<path d="M291.84 302.073C291.765 301.714 291.662 301.367 291.533 301.037C291.371 300.733 291.183 300.455 290.975 300.207C291.254 300.341 291.486 300.61 291.625 300.962C291.794 301.285 291.871 301.68 291.84 302.073Z" fill="#263238"/>
<path d="M294.492 300.269C294.492 300.269 294.343 300.084 294.21 299.809C294.077 299.535 293.995 299.295 294.021 299.274C294.046 299.254 294.169 299.453 294.302 299.727C294.435 300.002 294.517 300.249 294.492 300.269Z" fill="#263238"/>
<path d="M295.219 299.782C295.219 299.816 295.055 299.686 294.901 299.501C294.748 299.316 294.635 299.144 294.656 299.117C294.676 299.089 294.82 299.213 294.973 299.398C295.127 299.583 295.239 299.72 295.219 299.782Z" fill="#263238"/>
<path d="M295.675 298.616C295.524 298.69 295.363 298.718 295.204 298.698C295.047 298.726 294.887 298.705 294.738 298.636C294.887 298.563 295.046 298.535 295.204 298.554C295.362 298.525 295.524 298.546 295.675 298.616Z" fill="#263238"/>
<path d="M295.828 297.82C295.676 297.953 295.498 298.024 295.316 298.026C295.142 298.057 294.965 298.023 294.804 297.93C294.973 297.892 295.145 297.873 295.316 297.875C295.485 297.835 295.657 297.816 295.828 297.82Z" fill="#263238"/>
<path d="M294.19 299.219C293.999 299.267 293.802 299.267 293.611 299.219C293.404 299.186 293.2 299.126 293.002 299.041C292.879 298.995 292.761 298.931 292.649 298.849C292.581 298.795 292.529 298.71 292.505 298.609C292.496 298.552 292.499 298.492 292.515 298.437C292.53 298.382 292.557 298.335 292.592 298.3C292.734 298.208 292.889 298.159 293.047 298.158C293.204 298.156 293.36 298.201 293.503 298.289C293.646 298.378 293.773 298.508 293.874 298.67C293.975 298.832 294.048 299.022 294.087 299.226C294.098 299.294 294.098 299.364 294.087 299.432C294.029 299.184 293.939 298.952 293.821 298.746C293.685 298.541 293.507 298.393 293.309 298.321C293.083 298.223 292.836 298.247 292.623 298.389C292.536 298.479 292.572 298.623 292.669 298.705C292.774 298.781 292.883 298.843 292.997 298.89C293.189 298.975 293.386 299.041 293.586 299.089C293.97 299.199 294.19 299.199 294.19 299.219Z" fill="#263238"/>
<path d="M294.042 299.261C293.967 299.101 293.941 298.91 293.97 298.726C293.989 298.524 294.043 298.331 294.129 298.163C294.177 298.048 294.245 297.952 294.329 297.882C294.412 297.813 294.507 297.773 294.605 297.765C294.663 297.783 294.714 297.83 294.747 297.896C294.78 297.962 294.793 298.043 294.784 298.122C294.771 298.245 294.738 298.362 294.687 298.465C294.609 298.635 294.518 298.794 294.415 298.938C294.326 299.075 294.214 299.181 294.088 299.247C294.088 299.247 294.2 299.11 294.359 298.863C294.451 298.721 294.532 298.567 294.6 298.403C294.676 298.238 294.733 297.943 294.6 297.909C294.467 297.875 294.313 298.088 294.226 298.238C294.145 298.387 294.089 298.558 294.062 298.739C294.041 298.912 294.034 299.086 294.042 299.261Z" fill="#263238"/>
<path d="M303.724 298.41C303.724 298.41 303.468 298.41 303.063 298.444C302.536 298.529 302.038 298.809 301.624 299.254C301.211 299.7 300.898 300.291 300.723 300.962C300.59 301.476 300.58 301.826 300.559 301.819C300.539 301.812 300.559 301.73 300.559 301.579C300.572 301.358 300.603 301.14 300.652 300.928C300.814 300.225 301.128 299.603 301.553 299.137C301.983 298.68 302.505 298.405 303.053 298.348C303.223 298.321 303.395 298.321 303.565 298.348C303.619 298.36 303.673 298.38 303.724 298.41Z" fill="#263238"/>
<path d="M299.418 300.729C298.988 300.862 298.547 300.92 298.107 300.9C297.669 300.929 297.229 300.879 296.801 300.749C296.801 300.708 297.385 300.749 298.107 300.749C298.829 300.749 299.412 300.687 299.418 300.729Z" fill="#263238"/>
<path d="M301.169 300.708C301.169 300.708 301.123 300.873 301.061 301.051C301 301.23 300.969 301.394 300.938 301.387C300.908 301.38 300.892 301.202 300.964 300.989C301.036 300.777 301.148 300.674 301.169 300.708Z" fill="#263238"/>
<path d="M301.829 299.603C301.829 299.603 301.793 299.754 301.701 299.878C301.609 300.001 301.517 300.084 301.491 300.056C301.466 300.029 301.527 299.905 301.619 299.775C301.711 299.645 301.804 299.569 301.829 299.603Z" fill="#263238"/>
<path d="M302.771 299.096C302.771 299.137 302.648 299.137 302.515 299.199C302.382 299.261 302.29 299.357 302.264 299.329C302.239 299.302 302.315 299.137 302.479 299.062C302.643 298.986 302.781 299.055 302.771 299.096Z" fill="#263238"/>
<path d="M303.442 298.849C303.442 298.89 303.406 298.952 303.329 298.986C303.252 299.02 303.186 299.027 303.176 298.986C303.165 298.945 303.217 298.883 303.288 298.849C303.36 298.815 303.432 298.815 303.442 298.849Z" fill="#263238"/>
<path d="M315.847 297.971L315.509 296.963L323.553 291.55L324.971 295.666L324.459 296.016C322.263 297.546 313.226 303.596 311.516 303.898C309.627 304.262 315.847 297.971 315.847 297.971Z" fill="#455A64"/>
<path d="M325.002 295.371L324.869 295.481L324.475 295.755L323.021 296.743C321.792 297.559 320.082 298.664 318.172 299.83C316.262 300.996 314.511 301.991 313.241 302.698L311.731 303.514L311.321 303.727C311.274 303.756 311.224 303.777 311.173 303.788L311.311 303.699L311.716 303.459L313.211 302.602C314.475 301.874 316.216 300.859 318.126 299.693C320.036 298.527 321.751 297.443 322.99 296.647L324.454 295.707L324.859 295.453L325.002 295.371Z" fill="#263238"/>
<path d="M314.122 302.348C313.945 302.058 313.744 301.796 313.523 301.565C313.283 301.375 313.027 301.223 312.76 301.113C313.054 301.107 313.342 301.223 313.586 301.444C313.829 301.664 314.017 301.98 314.122 302.348Z" fill="#263238"/>
<path d="M315.97 299.247C315.97 299.247 315.776 299.164 315.571 298.986C315.366 298.808 315.218 298.636 315.233 298.602C315.248 298.568 315.428 298.684 315.632 298.863C315.837 299.041 315.986 299.212 315.97 299.247Z" fill="#263238"/>
<path d="M316.472 298.41C316.472 298.444 316.298 298.41 316.099 298.328C315.899 298.245 315.75 298.142 315.755 298.101C315.885 298.085 316.015 298.113 316.134 298.183C316.329 298.245 316.483 298.341 316.472 298.41Z" fill="#263238"/>
<path d="M316.544 297.093C316.544 297.134 316.375 297.278 316.139 297.429C316.003 297.538 315.851 297.606 315.694 297.628C315.694 297.587 315.863 297.443 316.093 297.292C316.231 297.183 316.385 297.115 316.544 297.093Z" fill="#263238"/>
<path d="M316.441 296.283C316.441 296.283 316.293 296.558 316.027 296.757C315.876 296.894 315.697 296.966 315.515 296.962C315.661 296.83 315.817 296.718 315.981 296.626C316.231 296.441 316.416 296.249 316.441 296.283Z" fill="#263238"/>
<path d="M315.392 298.465C315.236 298.608 315.063 298.715 314.88 298.78C314.679 298.859 314.473 298.916 314.266 298.952C314.14 298.973 314.013 298.973 313.887 298.952C313.808 298.944 313.734 298.895 313.682 298.815C313.658 298.766 313.646 298.708 313.646 298.65C313.646 298.591 313.658 298.534 313.682 298.485C313.838 298.233 314.054 298.06 314.294 297.998C314.534 297.935 314.783 297.986 314.998 298.142C315.125 298.231 315.236 298.355 315.325 298.506C315.387 298.616 315.413 298.684 315.407 298.691C315.281 298.502 315.13 298.347 314.962 298.231C314.782 298.118 314.581 298.078 314.383 298.115C314.266 298.131 314.152 298.178 314.049 298.254C313.945 298.329 313.853 298.431 313.779 298.554C313.723 298.684 313.779 298.794 313.917 298.815C314.035 298.828 314.153 298.828 314.271 298.815C314.475 298.787 314.677 298.739 314.875 298.671C315.167 298.561 315.392 298.444 315.392 298.465Z" fill="#263238"/>
<path d="M315.249 298.581C315.134 298.473 315.054 298.312 315.023 298.129C314.978 297.936 314.968 297.731 314.993 297.532C315.001 297.4 315.035 297.274 315.091 297.164C315.146 297.055 315.222 296.967 315.31 296.908C315.438 296.853 315.735 297.203 315.755 297.333C315.776 297.463 315.607 297.395 315.597 297.504C315.58 297.699 315.546 297.89 315.494 298.074C315.457 298.25 315.387 298.411 315.29 298.54C315.29 298.54 315.351 298.355 315.423 298.046C315.459 297.864 315.485 297.678 315.499 297.491C315.499 297.299 315.499 297.004 315.336 297.052C315.172 297.1 315.126 297.367 315.09 297.559C315.059 297.738 315.059 297.923 315.09 298.101C315.132 298.267 315.185 298.428 315.249 298.581Z" fill="#263238"/>
<path d="M323.824 292.483C323.824 292.483 323.579 292.6 323.23 292.881C322.775 293.245 322.405 293.773 322.16 294.404C321.923 295.041 321.822 295.753 321.869 296.462C321.899 297.011 321.997 297.326 321.976 297.34C321.943 297.272 321.917 297.198 321.899 297.12C321.849 296.91 321.813 296.694 321.792 296.475C321.718 295.745 321.813 295.002 322.063 294.345C322.312 293.688 322.705 293.149 323.189 292.798C323.334 292.691 323.487 292.604 323.645 292.538C323.703 292.508 323.763 292.489 323.824 292.483Z" fill="#263238"/>
<path d="M320.604 296.969C319.882 297.642 319.076 298.135 318.223 298.424C318.223 298.383 318.761 298.108 319.416 297.738C320.071 297.367 320.589 296.935 320.604 296.969Z" fill="#263238"/>
<path d="M322.196 295.988C322.222 295.988 322.196 296.16 322.196 296.359C322.196 296.558 322.196 296.722 322.196 296.736C322.196 296.75 322.094 296.585 322.094 296.359C322.094 296.132 322.171 295.968 322.196 295.988Z" fill="#263238"/>
<path d="M322.458 294.616C322.483 294.616 322.458 294.774 322.427 294.939C322.396 295.103 322.319 295.227 322.294 295.213C322.268 295.199 322.294 295.055 322.324 294.891C322.355 294.726 322.427 294.603 322.458 294.616Z" fill="#263238"/>
<path d="M323.164 293.608C323.164 293.649 323.061 293.711 322.959 293.841C322.857 293.971 322.8 294.109 322.775 294.095C322.749 294.081 322.775 293.889 322.887 293.731C323 293.574 323.159 293.608 323.164 293.608Z" fill="#263238"/>
<path d="M323.701 293.045C323.701 293.045 323.701 293.155 323.64 293.231C323.579 293.306 323.522 293.347 323.502 293.32C323.481 293.292 323.502 293.21 323.563 293.135C323.625 293.059 323.681 293.018 323.701 293.045Z" fill="#263238"/>
<path d="M313.631 153.417L312.136 128.927L319.816 129.112C319.816 129.112 320.169 125.497 319.037 117.58C318.341 112.724 315.93 109.746 313.221 107.976V107.908L312.986 107.826C310.756 106.484 308.375 105.652 305.94 105.363L296.494 105.507C296.494 105.507 289.28 104.272 285.302 111.194C283.766 113.849 278.999 132.021 278.999 132.021L290.34 139.334L289.28 129.256C289.28 129.256 289.495 136.562 290.191 138.86C290.575 140.15 291.727 144.156 291.727 144.156L291.579 156.243L313.631 153.417Z" fill="#DA8E1C"/>
<path d="M308.423 125.373L307.021 133.372H320.245L319.375 119.954L308.423 125.373Z" fill="#DA8E1C"/>
<path d="M320.245 133.372C319.668 133.229 319.082 133.151 318.494 133.139C317.409 133.057 315.934 132.981 314.255 132.995C312.576 133.009 311.096 133.105 310.011 133.214C309.423 133.242 308.839 133.338 308.265 133.502C308.851 133.565 309.44 133.565 310.026 133.502C311.106 133.454 312.586 133.4 314.255 133.393C315.924 133.386 317.404 133.393 318.489 133.427C319.075 133.471 319.662 133.453 320.245 133.372Z" fill="#263238"/>
<path d="M307.85 119.892C307.787 120.575 307.773 121.264 307.809 121.95C307.809 123.205 307.85 124.934 307.906 126.848C307.963 128.762 308.029 130.498 308.091 131.746C308.093 132.438 308.148 133.127 308.254 133.804C308.317 133.122 308.331 132.432 308.295 131.746C308.295 130.491 308.254 128.755 308.198 126.841C308.142 124.927 308.075 123.199 308.014 121.943C308.012 121.254 307.957 120.567 307.85 119.892Z" fill="#263238"/>
<g opacity="0.3">
<path d="M295.818 126.821C295.818 126.821 298.757 156.024 307.02 155.249C307.02 155.249 310.743 155.194 311.936 151.88V150.577L295.818 126.821Z" fill="#9D2222"/>
</g>
<g opacity="0.3">
<path d="M307.85 121.614L306.268 135.931L307.292 138.442L308.982 133.53L308.265 133.502L307.85 121.614Z" fill="#9D2222"/>
</g>
<path d="M291.681 144.17C291.583 143.956 291.507 143.725 291.456 143.484C291.328 143.038 291.159 142.386 290.944 141.57C290.431 139.443 290.009 137.278 289.679 135.087C289.35 132.895 289.142 130.673 289.054 128.44C289.024 127.582 289.013 126.889 289.024 126.382C289.011 126.134 289.023 125.885 289.06 125.641C289.101 125.641 289.131 126.697 289.239 128.385C289.383 130.598 289.617 132.799 289.94 134.977C290.319 137.529 290.775 139.814 291.123 141.453C291.287 142.215 291.425 142.866 291.538 143.401C291.608 143.649 291.656 143.907 291.681 144.17Z" fill="#263238"/>
<path d="M295.02 152.559C294.948 152.559 294.743 151.963 294.564 151.187C294.41 150.712 294.341 150.195 294.364 149.678C294.59 150.097 294.746 150.577 294.82 151.085C294.967 151.55 295.035 152.054 295.02 152.559Z" fill="#263238"/>
<path d="M296.161 152.45C295.774 151.074 295.758 149.56 296.115 148.169C296.155 148.882 296.155 149.597 296.115 150.31C296.171 151.02 296.186 151.736 296.161 152.45Z" fill="#263238"/>
<path d="M290.57 139.669C290.534 139.752 287.897 138.078 284.677 135.924C281.457 133.77 278.871 131.945 278.902 131.856C278.932 131.767 281.574 133.447 284.795 135.601C288.015 137.756 290.601 139.58 290.57 139.669Z" fill="#263238"/>
<path d="M295.219 107.873C295.276 104.402 295.291 100.753 295.291 100.753C295.291 100.753 291.968 99.8952 291.389 94.0368C290.837 88.4528 292.383 75.3433 292.383 75.3433C297.237 72.8874 302.28 75.1169 305.603 80.3854L304.778 108.559C304.681 111.832 302.505 114.329 299.894 114.164C297.252 113.993 295.163 111.18 295.219 107.873Z" fill="#F8D198"/>
<path d="M292.127 85.8185C292.122 86.0108 292.173 86.1982 292.268 86.3423C292.363 86.4863 292.496 86.5763 292.639 86.5937C292.711 86.6031 292.785 86.5926 292.854 86.5627C292.924 86.5329 292.988 86.4844 293.043 86.4203C293.098 86.3561 293.143 86.2775 293.175 86.1894C293.206 86.1013 293.224 86.0054 293.228 85.9077C293.232 85.7161 293.181 85.5295 293.086 85.3866C292.991 85.2436 292.858 85.1551 292.716 85.1394C292.643 85.1245 292.568 85.131 292.497 85.1583C292.426 85.1857 292.361 85.2332 292.305 85.2977C292.249 85.3622 292.204 85.4421 292.173 85.532C292.142 85.6219 292.127 85.7196 292.127 85.8185Z" fill="#263238"/>
<path d="M291.922 84.8375C291.988 84.9336 292.434 84.5288 293.023 84.5563C293.612 84.5837 294.047 84.9953 294.118 84.8993C294.19 84.8032 294.088 84.6797 293.898 84.4808C293.642 84.232 293.334 84.0954 293.018 84.0898C292.706 84.0738 292.398 84.1942 292.142 84.4328C291.953 84.618 291.886 84.7895 291.922 84.8375Z" fill="#263238"/>
<path d="M298.225 86.3263C298.219 86.5191 298.269 86.7073 298.364 86.8518C298.46 86.9962 298.593 87.0857 298.737 87.1015C298.81 87.1164 298.885 87.1098 298.956 87.0821C299.027 87.0543 299.093 87.0062 299.149 86.9409C299.205 86.8757 299.25 86.7949 299.281 86.7041C299.311 86.6134 299.326 86.5149 299.325 86.4155C299.331 86.2235 299.281 86.036 299.185 85.8926C299.09 85.7493 298.956 85.6613 298.813 85.6472C298.74 85.6323 298.666 85.6388 298.595 85.6661C298.524 85.6935 298.458 85.741 298.403 85.8055C298.347 85.87 298.302 85.9499 298.271 86.0398C298.24 86.1297 298.224 86.2274 298.225 86.3263Z" fill="#263238"/>
<path d="M298.183 85.3453C298.25 85.4482 298.695 85.0435 299.284 85.0641C299.873 85.0846 300.308 85.5031 300.385 85.4071C300.462 85.311 300.349 85.1875 300.16 84.9955C299.907 84.7401 299.6 84.6005 299.284 84.5976C298.971 84.585 298.663 84.705 298.404 84.9406C298.219 85.1258 298.153 85.2973 298.183 85.3453Z" fill="#263238"/>
<path d="M295.89 91.2378C295.576 91.0931 295.249 91.0031 294.917 90.9703C294.764 90.9703 294.62 90.8948 294.6 90.7576C294.587 90.5432 294.627 90.3291 294.712 90.1471L295.194 88.6036C295.642 87.2918 296.01 85.9336 296.294 84.5425C295.77 85.803 295.322 87.1174 294.953 88.4733C294.794 89.0152 294.636 89.5366 294.487 90.0305C294.388 90.2756 294.355 90.5593 294.395 90.8331C294.415 90.9075 294.448 90.9746 294.49 91.0294C294.533 91.0841 294.584 91.1249 294.641 91.1487C294.726 91.1816 294.813 91.2001 294.902 91.2035C295.229 91.271 295.561 91.2825 295.89 91.2378Z" fill="#263238"/>
<path d="M295.291 100.753C297.339 100.863 299.37 100.21 301.158 98.8662C301.158 98.8662 299.668 102.824 295.321 102.132L295.291 100.753Z" fill="#F5BD69"/>
<path d="M300.109 83.006C299.986 83.2598 299.525 83.15 299.013 83.006C298.501 82.8619 298.051 82.7453 297.989 82.4503C297.928 82.1553 298.465 81.7643 299.151 81.9495C299.837 82.1348 300.232 82.7865 300.109 83.006Z" fill="#263238"/>
<path d="M294.134 81.8397C294.088 82.1347 293.596 82.2444 293.033 82.2787C292.47 82.313 291.973 82.2787 291.907 81.9769C291.84 81.675 292.316 81.2497 292.997 81.2086C293.678 81.1674 294.18 81.5584 294.134 81.8397Z" fill="#263238"/>
<path d="M295.9 93.1657C295.835 93.1452 295.767 93.1543 295.707 93.1916C295.646 93.2289 295.597 93.2923 295.567 93.3715C295.538 93.4415 295.523 93.5204 295.523 93.6005C295.524 93.6806 295.54 93.7591 295.571 93.8282C295.601 93.8973 295.644 93.9546 295.696 93.9944C295.748 94.0342 295.807 94.0552 295.866 94.0552C295.926 94.0552 295.985 94.0342 296.037 93.9944C296.089 93.9546 296.132 93.8973 296.162 93.8282C296.193 93.7591 296.209 93.6806 296.209 93.6005C296.21 93.5204 296.195 93.4415 296.166 93.3715C296.129 93.2794 296.07 93.2067 295.999 93.1656C295.927 93.1244 295.847 93.1172 295.772 93.1451" fill="#F5BD69"/>
<path d="M296.038 93.248C296.038 93.2137 295.941 93.0147 295.68 93.0902C295.602 93.1175 295.53 93.1718 295.473 93.2476C295.415 93.3235 295.374 93.4182 295.352 93.5224C295.325 93.6537 295.327 93.793 295.359 93.9226C295.391 94.0521 295.451 94.1659 295.531 94.2495C295.616 94.3277 295.717 94.3695 295.82 94.3695C295.924 94.3695 296.025 94.3277 296.11 94.2495C296.178 94.1881 296.231 94.1018 296.264 94.0009C296.297 93.9 296.307 93.7887 296.294 93.6802C296.243 93.3166 296.043 93.2617 296.033 93.3097C296.023 93.3577 296.105 93.4812 296.089 93.6939C296.086 93.7464 296.073 93.797 296.051 93.8413C296.03 93.8855 296.001 93.9221 295.966 93.9477C295.927 93.9784 295.882 93.9946 295.836 93.9946C295.79 93.9946 295.745 93.9784 295.705 93.9477C295.67 93.9071 295.642 93.8548 295.626 93.7959C295.61 93.737 295.606 93.6735 295.613 93.6116C295.619 93.5574 295.635 93.5059 295.659 93.4617C295.683 93.4174 295.715 93.3818 295.751 93.3577C295.895 93.2411 296.023 93.296 296.038 93.248Z" fill="#263238"/>
<path d="M303.616 87.2661C303.104 88.8714 301.834 90.113 302.008 91.8486C302.121 92.9668 302.659 94.0095 302.556 95.1345C302.423 96.5065 301.332 97.5218 301.174 98.9281C300.984 100.65 302.239 101.988 302.735 103.593C303.468 105.939 302.536 108.573 302.51 111.139C302.54 113.087 303.096 114.954 304.075 116.394C305.055 117.835 306.39 118.751 307.835 118.973C309.002 119.103 310.318 118.63 310.907 117.285C311.419 116.174 311.306 114.761 311.603 113.533C312.054 111.695 313.359 110.35 313.651 108.457C314.163 105.027 311.04 102.145 311.245 98.6331C311.332 97.1308 312.023 95.8274 312.315 94.3731C312.501 93.4173 312.515 92.4162 312.357 91.4516C312.198 90.487 311.872 89.5863 311.404 88.8233C310.63 87.5954 309.514 86.7653 308.844 85.4482C308.101 83.9322 308.076 82.0182 307.82 80.2278C307.476 78.0515 306.726 76.0275 305.64 74.345C304.554 72.6625 303.167 71.3765 301.609 70.607C300.051 69.8375 298.373 69.6097 296.732 69.945C295.091 70.2802 293.54 71.1675 292.224 72.524C292.224 72.524 291.482 77.0447 294.948 77.8062C298.414 78.5676 300.017 77.6896 300.406 79.5486C300.314 80.3145 300.359 81.0985 300.537 81.8366C300.715 82.5747 301.021 83.2458 301.43 83.795C302.843 85.8392 304.189 85.4002 303.616 87.2661Z" fill="#263238"/>
<path d="M309.12 118.623C309.013 118.628 308.906 118.614 308.802 118.582C308.502 118.511 308.207 118.403 307.922 118.26C306.865 117.716 305.937 116.799 305.239 115.605C304.749 114.781 304.365 113.853 304.102 112.861C303.803 111.73 303.646 110.541 303.636 109.342C303.626 108.019 303.75 106.702 304.005 105.424C304.145 104.75 304.316 104.088 304.517 103.442C304.728 102.799 304.915 102.142 305.075 101.473C305.216 100.814 305.216 100.115 305.075 99.4563C304.925 98.8075 304.732 98.1783 304.497 97.5766C304.259 96.98 304.059 96.3582 303.897 95.7176C303.74 95.0835 303.703 94.4068 303.79 93.7487C303.995 92.4591 304.578 91.4987 304.927 90.5177C305.258 89.6096 305.417 88.6055 305.387 87.5953C305.341 86.117 304.941 84.6979 304.246 83.5479C303.976 83.1451 303.687 82.7669 303.38 82.416C303.739 82.6863 304.06 83.0393 304.328 83.4587C305.073 84.607 305.513 86.055 305.577 87.5747C305.619 88.629 305.464 89.6806 305.126 90.6343C304.773 91.6496 304.205 92.6168 304.031 93.7968C303.857 94.9767 304.271 96.2183 304.727 97.412C304.975 98.0309 305.178 98.6812 305.331 99.3534C305.482 100.071 305.482 100.831 305.331 101.549C305.161 102.241 304.964 102.921 304.742 103.586C304.541 104.218 304.37 104.866 304.23 105.527C303.976 106.772 303.85 108.058 303.857 109.348C303.841 111.546 304.37 113.689 305.362 115.44C306.025 116.619 306.908 117.544 307.922 118.122C308.685 118.52 309.125 118.582 309.12 118.623Z" fill="#455A64"/>
<path d="M308.608 84.0075C308.358 84.094 308.103 84.1446 307.845 84.1584C307.143 84.2591 306.433 84.2337 305.736 84.0829C305.207 83.978 304.699 83.7329 304.242 83.3618C303.785 82.9908 303.387 82.5013 303.073 81.922C302.78 81.1891 302.547 80.4164 302.377 79.6171C302.158 78.8186 301.748 78.1404 301.21 77.6894C300.088 76.7359 298.772 76.6192 297.626 76.434C296.568 76.3634 295.541 75.9338 294.641 75.1855C294.038 74.6504 293.602 73.8376 293.417 72.9011C293.372 72.6473 293.36 72.3852 293.381 72.1259C293.381 71.9476 293.412 71.8584 293.422 71.8584C293.428 72.1982 293.461 72.5362 293.519 72.8668C293.731 73.7424 294.166 74.4903 294.748 74.9797C295.632 75.6703 296.629 76.0568 297.651 76.1047C298.798 76.2831 300.16 76.3723 301.358 77.3876C301.944 77.8809 302.391 78.6219 302.628 79.4936C302.788 80.2727 303.01 81.0269 303.288 81.7437C303.885 82.8398 304.778 83.5787 305.777 83.8017C306.452 83.9698 307.139 84.0319 307.825 83.9869C308.086 83.9672 308.348 83.9741 308.608 84.0075Z" fill="#455A64"/>
<path d="M307.338 78.4235C307.145 78.5099 306.942 78.5494 306.739 78.5401C305.785 78.5487 304.866 78.0562 304.179 77.1681C303.866 76.7473 303.599 76.2692 303.386 75.7481C302.925 74.7053 302.479 73.4225 301.522 72.8875C300.6 72.4728 299.617 72.3576 298.655 72.5513C297.843 72.7041 297.019 72.7041 296.207 72.5513C295.643 72.4463 295.111 72.1328 294.671 71.6458C294.558 71.5132 294.458 71.3609 294.374 71.193C294.313 71.0741 294.287 71.0124 294.298 71.0078C294.298 71.0078 294.441 71.2273 294.738 71.536C295.176 71.9532 295.684 72.2173 296.218 72.3044C297.015 72.4248 297.82 72.4063 298.614 72.2495C299.618 72.0297 300.647 72.1476 301.609 72.5925C302.103 72.8902 302.527 73.3649 302.833 73.9645C303.103 74.4993 303.35 75.0535 303.575 75.6246C303.777 76.1232 304.027 76.5844 304.317 76.9966C304.574 77.3451 304.87 77.6389 305.193 77.8678C305.669 78.201 306.193 78.395 306.729 78.4372C307.123 78.4303 307.333 78.3892 307.338 78.4235Z" fill="#455A64"/>
<path d="M310.645 117.141C310.62 117.141 310.784 116.689 310.973 115.838C311.23 114.644 311.344 113.403 311.311 112.161C311.274 110.323 310.899 108.525 310.221 106.927C309.847 106.028 309.278 105.226 308.813 104.238C308.566 103.735 308.392 103.174 308.301 102.584C308.22 101.964 308.259 101.327 308.413 100.732C308.7 99.5455 309.212 98.5508 309.325 97.4601C309.437 96.3693 309.048 95.4021 308.659 94.4897C308.458 94.0457 308.275 93.5877 308.111 93.1177C307.961 92.6618 307.863 92.1786 307.819 91.6839C307.771 90.8122 307.792 89.9362 307.881 89.0703C308.044 87.8462 307.96 86.5857 307.635 85.4207C307.49 85.0127 307.284 84.6485 307.031 84.3506C307.031 84.3506 307.056 84.3506 307.092 84.3917C307.153 84.4321 307.208 84.4854 307.256 84.5495C307.456 84.773 307.619 85.0514 307.732 85.3659C308.103 86.5408 308.218 87.832 308.065 89.0908C307.994 89.9406 307.986 90.7976 308.039 91.6496C308.166 92.6081 308.449 93.5171 308.869 94.3113C309.087 94.7749 309.274 95.264 309.427 95.7725C309.588 96.3214 309.641 96.9169 309.581 97.5012C309.458 98.7017 308.93 99.717 308.664 100.835C308.524 101.375 308.487 101.952 308.557 102.516C308.646 103.061 308.809 103.579 309.038 104.046C309.473 104.999 310.062 105.816 310.436 106.755C311.122 108.408 311.488 110.264 311.501 112.154C311.517 113.42 311.371 114.679 311.07 115.879C310.989 116.204 310.889 116.52 310.773 116.826C310.742 116.939 310.699 117.045 310.645 117.141Z" fill="#455A64"/>
<path d="M289.792 244.964C289.792 244.964 286.341 201.169 286.141 184.987C285.942 168.804 291.574 152.834 291.574 152.834L313.631 151.606C313.631 151.606 317.993 168.022 318.07 174.93C318.223 188.334 315.412 201.567 315.735 212.2L316.472 244.991" fill="#263238"/>
<path d="M317.214 191.12C317.099 191.254 316.978 191.377 316.851 191.49L316.651 191.675L316.436 191.957C316.247 192.176 316.075 192.422 315.924 192.691C315.213 193.857 314.695 195.949 314.199 198.549C313.945 199.991 313.571 201.39 313.083 202.72C312.934 203.084 312.763 203.431 312.571 203.756C312.478 203.92 312.391 204.099 312.284 204.257L311.946 204.709C311.462 205.315 310.9 205.799 310.287 206.136C309.053 206.863 307.655 207.206 306.386 208.064C305.085 209.002 304.08 210.536 303.554 212.386C302.93 214.245 302.53 216.193 302.018 218.018C301.506 219.842 300.815 221.585 299.714 222.696C298.662 223.676 297.412 224.205 296.13 224.212C294.942 224.308 293.842 224.26 292.854 224.459C291.964 224.583 291.114 225.013 290.386 225.708C289.854 226.265 289.455 227.018 289.239 227.875C289.101 228.416 289.072 228.995 289.152 229.556C289.213 229.94 289.29 230.126 289.275 230.132C289.192 229.96 289.133 229.77 289.101 229.57C288.993 228.998 289.007 228.396 289.142 227.834C289.345 226.935 289.747 226.139 290.294 225.55C291.04 224.795 291.924 224.321 292.854 224.178C293.878 223.958 294.968 223.986 296.141 223.883C297.385 223.872 298.597 223.355 299.617 222.401C300.652 221.19 301.416 219.618 301.824 217.86C302.336 216.056 302.71 214.101 303.36 212.207C303.911 210.281 304.961 208.686 306.319 207.714C307.64 206.836 309.038 206.5 310.241 205.8C310.83 205.473 311.371 205.009 311.838 204.428L312.161 203.996C312.263 203.845 312.35 203.673 312.443 203.516C312.623 203.204 312.783 202.871 312.919 202.521C313.409 201.21 313.789 199.829 314.05 198.405C314.562 195.812 315.12 193.692 315.873 192.519C316.023 192.252 316.195 192.008 316.385 191.792C316.467 191.696 316.539 191.6 316.61 191.524L316.82 191.346C316.948 191.26 317.08 191.184 317.214 191.12Z" fill="#FAFAFA"/>
<path d="M317.348 170.855C317.371 171.048 317.381 171.243 317.378 171.438C317.377 172.005 317.325 172.569 317.225 173.119C316.784 175.126 315.918 176.918 314.731 178.278C313.948 179.242 313.09 180.091 312.171 180.809C311.183 181.591 310.093 182.339 308.971 183.19C307.794 184.036 306.697 185.07 305.705 186.27C304.687 187.622 303.849 189.198 303.227 190.928C302.599 192.681 301.882 194.375 301.081 195.997C300.674 196.753 300.204 197.444 299.679 198.055C299.161 198.645 298.592 199.15 297.984 199.557C296.884 200.282 295.737 200.872 294.559 201.32C293.463 201.773 292.439 202.178 291.548 202.692C290.739 203.124 289.97 203.676 289.254 204.339C288.716 204.839 288.232 205.437 287.815 206.116C287.467 206.704 287.176 207.349 286.95 208.036C286.987 207.846 287.035 207.66 287.094 207.481C287.261 206.963 287.476 206.474 287.734 206.026C288.142 205.319 288.625 204.695 289.167 204.174C289.886 203.488 290.661 202.912 291.476 202.459C292.463 201.921 293.469 201.451 294.492 201.053C295.654 200.594 296.785 200.001 297.871 199.283C298.448 198.88 298.988 198.392 299.484 197.829C299.989 197.226 300.443 196.55 300.836 195.812C301.625 194.198 302.335 192.516 302.96 190.777C303.603 189.008 304.469 187.402 305.52 186.03C306.53 184.812 307.648 183.766 308.848 182.915C309.975 182.071 311.065 181.337 312.054 180.562C312.97 179.868 313.828 179.045 314.614 178.106C315.79 176.787 316.663 175.048 317.133 173.092C317.264 172.359 317.336 171.609 317.348 170.855Z" fill="#FAFAFA"/>
<path d="M286.254 187.278C286.234 187.235 286.218 187.189 286.208 187.141C286.17 187.008 286.137 186.873 286.111 186.736C286.023 186.19 286.04 185.624 286.162 185.09C286.449 183.718 287.58 181.955 289.403 181.083C290.314 180.665 291.343 180.397 292.418 180.041C293.311 179.842 294.156 179.361 294.882 178.637C295.608 177.912 296.194 176.966 296.591 175.877C296.882 175.077 297.137 174.255 297.354 173.414C297.754 171.588 298.299 169.824 298.977 168.152C299.755 166.509 300.935 165.279 302.315 164.674C303.571 164.128 304.852 163.693 306.15 163.371C307.309 163.073 308.431 162.56 309.483 161.848C310.375 161.165 311.144 160.228 311.736 159.104C312.61 157.48 313.109 155.548 313.17 153.547C313.172 152.813 313.136 152.08 313.062 151.352C313.217 152.065 313.288 152.805 313.272 153.547C313.252 155.591 312.77 157.579 311.89 159.248C311.29 160.41 310.505 161.378 309.591 162.081C308.524 162.82 307.385 163.353 306.207 163.666C304.921 163.993 303.652 164.431 302.408 164.976C301.082 165.558 299.949 166.739 299.202 168.317C298.535 169.966 297.998 171.704 297.6 173.503C297.379 174.359 297.117 175.195 296.817 176.007C296.513 176.787 296.127 177.503 295.67 178.133C294.77 179.232 293.664 179.98 292.47 180.294C291.384 180.665 290.36 180.898 289.464 181.296C287.688 182.105 286.561 183.772 286.259 185.103C286.135 185.616 286.102 186.161 286.162 186.695C286.205 186.885 286.236 187.08 286.254 187.278Z" fill="#FAFAFA"/>
<path d="M315.453 224.322C315.474 224.465 315.486 224.609 315.489 224.754C315.499 225.17 315.466 225.585 315.392 225.989C315.07 227.477 314.389 228.779 313.456 229.693C312.833 230.358 312.144 230.903 311.408 231.312C310.625 231.758 309.76 232.115 308.848 232.492C307.902 232.863 306.977 233.321 306.078 233.864C305.145 234.462 304.309 235.298 303.616 236.327C302.868 237.37 302.223 238.515 301.506 239.531C300.821 240.514 300.024 241.347 299.146 242C297.651 243.093 295.979 243.677 294.277 243.702C293.137 243.718 292.003 243.465 290.928 242.954C290.637 242.819 290.353 242.656 290.078 242.467C289.979 242.411 289.884 242.34 289.797 242.254C289.9 242.292 290.001 242.34 290.099 242.398C290.38 242.559 290.667 242.701 290.959 242.823C292.032 243.274 293.153 243.485 294.277 243.448C295.942 243.39 297.572 242.795 299.028 241.712C299.879 241.066 300.651 240.25 301.317 239.291C302.018 238.289 302.658 237.15 303.421 236.08C304.155 235.013 305.039 234.15 306.022 233.542C306.934 232.996 307.873 232.538 308.833 232.17C309.734 231.799 310.594 231.484 311.393 231.031C312.107 230.639 312.779 230.12 313.39 229.488C314.307 228.619 314.991 227.378 315.341 225.948C315.416 225.412 315.454 224.867 315.453 224.322Z" fill="#FAFAFA"/>
<path d="M312.939 133.4L308.669 133.537C308.505 134.69 308.178 135.792 307.707 136.782C304.123 128.481 301.373 117.368 300.687 112.902C300.79 112.456 300.907 111.962 301.056 111.413C301.162 110.58 301.143 109.726 300.999 108.902C300.877 107.908 300.672 106.57 300.61 105.953C300.421 104.059 300.19 103.764 299.699 103.977C299.033 104.272 299.975 109.28 299.428 109.39C299.131 109.444 298.772 107.729 298.67 106.323C298.567 104.917 298.086 100.581 297.743 100.293C297.231 99.8679 296.786 100.54 296.919 101.94C297.052 103.339 297.211 107.592 296.658 107.654C296.105 107.716 295.634 100.526 295.634 100.526C295.634 100.526 295.721 98.9623 295.076 98.9966C293.918 99.0652 294.825 106.639 294.922 107.359C294.994 107.853 294.41 107.949 294.338 107.407C294.267 106.865 294 100.225 292.802 100.279C291.891 100.279 293.504 106.515 292.992 107.956C292.48 109.396 292.132 103.071 291.266 103.154C290.944 103.188 290.703 103.27 291.297 106.844C291.866 109.684 292.55 112.48 293.345 115.221C294.717 125.133 300.738 156.847 310.174 151.043C315.458 147.792 317.598 133.4 317.598 133.4H312.939Z" fill="#F8D198"/>
<path d="M294.738 107.839C294.778 107.853 294.82 107.853 294.861 107.839C294.922 107.814 294.975 107.76 295.01 107.687C295.045 107.614 295.059 107.527 295.05 107.441C295.05 107.016 294.989 106.399 294.917 105.596C294.797 104.629 294.718 103.653 294.681 102.674C294.681 102.097 294.681 101.48 294.707 100.828C294.714 100.497 294.74 100.167 294.784 99.8404C294.825 99.5317 294.978 99.1544 295.157 99.2161H295.188C295.367 99.2161 295.511 99.3945 295.567 99.6826C295.63 99.9812 295.655 100.292 295.639 100.602C295.744 102.523 295.927 104.435 296.187 106.33C296.228 106.584 296.269 106.844 296.33 107.105C296.357 107.239 296.391 107.369 296.432 107.496C296.459 107.567 296.488 107.636 296.519 107.702C296.542 107.752 296.574 107.794 296.611 107.825C296.648 107.856 296.691 107.875 296.734 107.88C296.809 107.869 296.88 107.829 296.937 107.764C296.994 107.699 297.036 107.613 297.057 107.517C297.101 107.383 297.134 107.242 297.154 107.098C297.194 106.822 297.221 106.542 297.236 106.261C297.283 105.118 297.271 103.972 297.2 102.831C297.136 102.262 297.118 101.684 297.149 101.109C297.168 100.861 297.258 100.632 297.4 100.472C297.433 100.445 297.469 100.429 297.507 100.423C297.545 100.417 297.584 100.422 297.62 100.437C297.664 100.451 297.705 100.474 297.743 100.506C297.769 100.532 297.789 100.568 297.799 100.609C297.961 101.165 298.079 101.742 298.153 102.331C298.245 102.934 298.322 103.559 298.393 104.183C298.465 104.807 298.532 105.438 298.588 106.076C298.632 106.734 298.71 107.388 298.823 108.031C298.884 108.36 298.961 108.683 299.054 108.998C299.106 109.175 299.179 109.339 299.269 109.486C299.303 109.546 299.35 109.593 299.404 109.62C299.457 109.646 299.515 109.652 299.571 109.636C299.623 109.614 299.669 109.573 299.706 109.519C299.743 109.465 299.769 109.399 299.781 109.328C299.841 108.977 299.86 108.616 299.837 108.258C299.837 107.915 299.806 107.572 299.781 107.242C299.745 106.666 299.704 106.097 299.689 105.534C299.676 105.258 299.676 104.981 299.689 104.704C299.699 104.582 299.721 104.462 299.755 104.347C299.766 104.31 299.781 104.275 299.801 104.245H299.868C300.206 104.059 300.318 104.69 300.411 105.198C300.503 105.706 300.539 106.282 300.621 106.824C300.754 107.901 300.928 108.978 301.015 110.007C301.074 110.5 301.06 111.003 300.974 111.489C300.851 111.983 300.728 112.47 300.61 112.957V113.005V113.046C301.21 116.416 301.975 119.73 302.899 122.965C303.708 125.895 304.522 128.453 305.234 130.511C305.945 132.569 306.59 134.182 307.031 135.265L307.543 136.493C307.598 136.64 307.665 136.778 307.742 136.905C307.699 136.753 307.646 136.606 307.584 136.466L307.072 135.211C306.652 134.106 306.048 132.467 305.351 130.409C304.655 128.351 303.867 125.792 303.078 122.863C302.176 119.632 301.427 116.328 300.836 112.97V113.066C300.953 112.586 301.071 112.099 301.194 111.612C301.3 111.078 301.321 110.519 301.255 109.973C301.163 108.896 300.994 107.853 300.861 106.769C300.784 106.234 300.733 105.685 300.651 105.123C300.646 104.834 300.61 104.547 300.544 104.272C300.485 104.105 300.386 103.969 300.262 103.888C300.131 103.83 299.989 103.83 299.858 103.888H299.776C299.732 103.906 299.692 103.937 299.658 103.977C299.601 104.042 299.557 104.124 299.53 104.217C299.483 104.366 299.454 104.523 299.443 104.684C299.428 104.98 299.428 105.278 299.443 105.575C299.443 106.152 299.504 106.728 299.54 107.304C299.54 107.64 299.581 107.99 299.591 108.299C299.612 108.608 299.6 108.92 299.556 109.225C299.556 109.293 299.515 109.28 299.556 109.314L299.525 109.273C299.46 109.161 299.408 109.036 299.371 108.902C299.282 108.606 299.208 108.301 299.151 107.99C299.039 107.365 298.962 106.73 298.921 106.09C298.866 105.445 298.8 104.807 298.721 104.176C298.649 103.545 298.567 102.927 298.475 102.31C298.398 101.682 298.268 101.067 298.086 100.478C298.051 100.38 297.996 100.297 297.927 100.238C297.868 100.192 297.804 100.155 297.738 100.129C297.665 100.103 297.589 100.097 297.514 100.111C297.439 100.125 297.368 100.159 297.303 100.211C297.197 100.317 297.109 100.45 297.044 100.604C296.979 100.757 296.938 100.927 296.924 101.103C296.891 101.414 296.891 101.731 296.924 102.042C296.924 102.337 296.975 102.626 296.99 102.914C297.062 104.036 297.077 105.164 297.037 106.289C297.025 106.556 296.999 106.822 296.96 107.085C296.945 107.207 296.919 107.327 296.883 107.441C296.87 107.486 296.851 107.528 296.827 107.565C296.827 107.626 296.791 107.565 296.796 107.647C296.796 107.578 296.796 107.647 296.796 107.558C296.773 107.512 296.753 107.463 296.734 107.414C296.699 107.304 296.668 107.181 296.637 107.064C296.581 106.817 296.54 106.563 296.499 106.316C296.232 104.438 296.039 102.542 295.92 100.636C295.936 100.291 295.906 99.9454 295.833 99.614C295.799 99.4411 295.73 99.2843 295.634 99.1613C295.584 99.0964 295.524 99.0459 295.459 99.0129C295.394 98.9798 295.324 98.965 295.255 98.9692H295.285C295.199 98.9522 295.11 98.9698 295.031 99.0198C294.952 99.0699 294.885 99.1501 294.84 99.2504C294.764 99.4141 294.712 99.5957 294.686 99.7855C294.643 100.126 294.619 100.47 294.615 100.815C294.615 101.501 294.615 102.097 294.615 102.68C294.663 103.666 294.757 104.647 294.896 105.617C294.983 106.412 295.05 107.03 295.081 107.448C295.09 107.521 295.081 107.597 295.054 107.662C295.027 107.727 294.984 107.778 294.932 107.805C294.779 107.825 294.733 107.832 294.738 107.839Z" fill="#F5BD69"/>
<path d="M261.391 142.846C260.392 142.817 259.395 142.972 258.427 143.305C255.78 144.238 251.218 147.943 251.028 152.518H254.346C254.346 152.518 252.488 157.814 253.03 157.32C254.448 156.044 257.264 152.21 257.264 152.21L261.391 142.846Z" fill="#F8D198"/>
<path d="M306.616 63.1119C306.539 63.1119 306.243 59.4487 305.946 54.8799C305.649 50.3112 305.464 46.6479 305.536 46.6479C305.608 46.6479 305.91 50.3112 306.207 54.8799C306.504 59.4487 306.688 63.1119 306.616 63.1119Z" fill="#263238"/>
<path d="M321.162 46.9292C321.218 46.9841 318.981 51.3402 316.16 56.6567C313.339 61.9732 310.999 66.2607 310.937 66.1784C310.876 66.0961 313.118 61.7674 315.94 56.4509C318.761 51.1344 321.1 46.8744 321.162 46.9292Z" fill="#263238"/>
<path d="M327.204 66.6723C327.204 66.7684 324.603 67.571 321.367 68.4628C318.131 69.3546 315.489 69.9994 315.474 69.9034C315.458 69.8073 318.07 69.0047 321.311 68.1129C324.551 67.2211 327.168 66.5763 327.204 66.6723Z" fill="#263238"/>
<path d="M153.088 160.894L134.963 285.609L132.608 301.936L253.44 301.154C258.867 301.12 263.68 294.664 265.416 285.074L286.848 167.336C288.174 160.058 285.266 152.484 281.149 152.491L158.822 152.662C156.16 152.656 153.774 156.031 153.088 160.894Z" fill="#DA8E1C"/>
<g opacity="0.5">
<path d="M153.088 160.894L134.963 285.609L132.608 301.936L253.44 301.154C258.867 301.12 263.68 294.664 265.416 285.074L286.848 167.336C288.174 160.058 285.266 152.484 281.149 152.491L158.822 152.662C156.16 152.656 153.774 156.031 153.088 160.894Z" fill="#AD2525"/>
</g>
<path d="M241.863 277.144L229.063 138.977C228.551 133.317 225.177 129.092 221.199 129.112L193.142 129.229C192.099 129.245 191.069 129.545 190.116 130.111C189.163 130.677 188.306 131.497 187.597 132.522L174.285 151.503L96.2558 152.066C91.489 152.1 87.8231 158.151 88.4529 164.942L100.336 292.641C100.848 298.293 104.222 302.512 108.19 302.505L244.203 302.142C259.348 302.56 260.797 296.572 260.797 296.572C243.41 301.723 241.863 277.178 241.863 277.144Z" fill="#F3B04C"/>
<g opacity="0.5">
<path d="M183.214 249.512L178.626 256.111L143.298 213.524L147.886 206.925L183.214 249.512Z" fill="white"/>
<path d="M176.706 205.464L181.775 211.576L149.811 257.572L144.737 251.46L176.706 205.464Z" fill="white"/>
</g>
<path d="M261.284 71.193C261.118 71.0994 260.976 70.9445 260.874 70.7465C260.771 70.5485 260.713 70.3155 260.706 70.0748L260.501 63.7087C260.494 63.5109 260.521 63.3136 260.58 63.1323C260.64 62.951 260.73 62.7908 260.844 62.6644C260.958 62.5379 261.092 62.4487 261.236 62.4037C261.38 62.3587 261.53 62.3593 261.673 62.4053C262.07 62.5199 262.479 62.5249 262.877 62.4199C263.275 62.3149 263.653 62.1022 263.988 61.7948C264.295 61.5336 264.56 61.1907 264.765 60.7872C264.971 60.3837 265.112 59.9281 265.18 59.4486C265.227 58.9631 265.2 58.4701 265.101 57.9987C265.003 57.5274 264.835 57.0873 264.607 56.7046C264.367 56.2693 264.065 55.9015 263.719 55.6226C263.373 55.3436 262.989 55.1588 262.59 55.0788C261.784 55.0188 260.987 55.3248 260.327 55.9473C259.668 56.5698 259.184 57.4723 258.955 58.5088C258.878 58.8229 258.714 59.0853 258.497 59.2414C258.28 59.3976 258.026 59.4354 257.788 59.3469C257.551 59.2585 257.348 59.0507 257.222 58.7668C257.095 58.4829 257.056 58.1447 257.111 57.8228C257.46 56.1925 258.216 54.7726 259.254 53.8019C260.292 52.8311 261.548 52.3688 262.81 52.4926C263.467 52.6099 264.1 52.9029 264.67 53.3542C265.241 53.8056 265.739 54.4061 266.133 55.12C266.516 55.7817 266.797 56.5397 266.958 57.3492C267.119 58.1587 267.157 59.0032 267.07 59.8328C266.953 60.6612 266.712 61.4489 266.359 62.1473C266.007 62.8458 265.552 63.4402 265.022 63.8939C264.254 64.5868 263.356 64.9788 262.431 65.0258L262.59 69.9376C262.596 70.1534 262.561 70.3677 262.489 70.5607C262.416 70.7537 262.309 70.919 262.176 71.0415C262.043 71.1639 261.889 71.2395 261.729 71.2612C261.569 71.2829 261.407 71.25 261.259 71.1655L261.284 71.193Z" fill="#DA8E1C"/>
<path d="M262.687 73.7998C262.698 74.0069 262.662 74.2137 262.585 74.394C262.508 74.5742 262.393 74.7199 262.255 74.8124C262.116 74.9049 261.96 74.9403 261.806 74.9139C261.652 74.8875 261.508 74.8006 261.391 74.6642C261.274 74.5278 261.19 74.348 261.149 74.1476C261.109 73.9471 261.114 73.7351 261.163 73.5383C261.212 73.3414 261.304 73.1686 261.427 73.0418C261.55 72.9149 261.698 72.8397 261.852 72.8256C261.955 72.8154 262.058 72.8325 262.156 72.8761C262.254 72.9196 262.344 72.9887 262.421 73.0793C262.499 73.1699 262.562 73.2802 262.608 73.4039C262.654 73.5275 262.68 73.6621 262.687 73.7998Z" fill="#DA8E1C"/>
<path d="M244.833 62.2132C244.855 62.0775 244.871 61.94 244.879 61.8016C244.879 61.4998 244.936 61.1156 244.977 60.5737C245.027 59.9083 245.111 59.2483 245.228 58.598C245.294 58.2138 245.33 57.7885 245.432 57.3563C245.535 56.9242 245.637 56.4577 245.75 55.9844C246.343 53.6391 247.206 51.4331 248.31 49.4468C249.756 46.8747 251.589 44.7385 253.691 43.1767C254.887 42.273 256.161 41.5681 257.485 41.0776C258.913 40.5702 260.385 40.312 261.863 40.3092C262.641 40.2925 263.419 40.3475 264.192 40.4739C264.586 40.5288 264.975 40.666 265.37 40.7551C265.768 40.8466 266.162 40.975 266.547 41.1393C268.161 41.7436 269.696 42.6759 271.099 43.9039C274.218 46.6145 276.594 50.6117 277.868 55.2915C278.554 57.7983 278.9 60.4489 278.892 63.1188C278.913 65.8692 278.55 68.6007 277.822 71.1724L277.591 71.9544L277.56 72.0573L277.591 72.1602C278.876 76.1185 280.151 80.0081 281.354 83.7742L281.569 83.4449L273.889 79.5004L273.797 79.4524L273.72 79.5485C271.689 82.186 269.202 84.109 266.481 85.1462C264.156 86.0038 261.722 86.191 259.339 85.6956C256.956 85.2001 254.678 84.0332 252.657 82.2719C251.001 80.817 249.542 78.9961 248.341 76.8868C246.6 73.8079 245.473 70.1867 245.064 66.3635C245.002 65.6775 244.951 65.1013 244.905 64.5799C244.859 64.0586 244.905 63.6333 244.879 63.2697C244.854 62.9061 244.879 62.666 244.879 62.467C244.905 62.4619 244.928 62.4439 244.944 62.4169C244.96 62.3898 244.968 62.3556 244.966 62.3211C244.964 62.2866 244.953 62.2543 244.934 62.2308C244.915 62.2073 244.89 62.1942 244.864 62.1942C244.838 62.1942 244.813 62.2073 244.794 62.2308C244.776 62.2543 244.764 62.2866 244.762 62.3211C244.76 62.3556 244.768 62.3898 244.784 62.4169C244.8 62.4439 244.823 62.4619 244.849 62.467C244.849 62.666 244.849 62.9335 244.849 63.2697C244.849 63.6058 244.849 64.0723 244.849 64.5937C244.849 65.115 244.936 65.7118 244.987 66.391C245.155 68.041 245.449 69.6637 245.863 71.2341C246.449 73.308 247.237 75.2687 248.207 77.0651C249.413 79.2121 250.883 81.068 252.554 82.5531C254.601 84.3585 256.911 85.56 259.33 86.078C261.75 86.5961 264.224 86.4187 266.588 85.5578C269.342 84.5099 271.86 82.5684 273.92 79.9052L273.751 79.9532L281.431 83.9183L281.815 84.1172L281.646 83.589C280.428 79.8228 279.168 75.9401 277.888 71.975V72.174L278.124 71.3713C278.871 68.7436 279.242 65.9511 279.219 63.1393C279.235 60.4127 278.889 57.7041 278.195 55.1406C276.894 50.3675 274.465 46.2943 271.278 43.5403C269.84 42.2837 268.265 41.3348 266.609 40.7277C266.217 40.5616 265.817 40.4355 265.411 40.3504C265.011 40.2544 264.617 40.1172 264.218 40.0691C263.435 39.9389 262.646 39.8793 261.857 39.8908C260.356 39.8993 258.862 40.1715 257.413 40.7003C256.072 41.2106 254.781 41.9337 253.568 42.8543C251.445 44.4544 249.601 46.6408 248.156 49.2684C247.056 51.2876 246.204 53.5294 245.632 55.9089C245.525 56.4028 245.422 56.8762 245.33 57.2809C245.249 57.6944 245.184 58.1135 245.135 58.5363C245.026 59.191 244.954 59.8561 244.92 60.5257C244.89 61.0539 244.869 61.4586 244.854 61.7605C244.832 61.9095 244.825 62.0618 244.833 62.2132Z" fill="#263238"/>
</svg>
