<svg width="29" height="30" viewBox="0 0 29 30" fill="none" xmlns="http://www.w3.org/2000/svg">
<g clip-path="url(#clip0_295_1213)">
<path d="M28.87 14.9999C28.87 7.02771 22.4072 0.564941 14.435 0.564941C6.46277 0.564941 0 7.02771 0 14.9999C0 22.2049 5.27867 28.1767 12.1795 29.2595V19.1726H8.51439V14.9999H12.1795V11.8197C12.1795 8.20195 14.3346 6.20361 17.6318 6.20361C19.2112 6.20361 20.8631 6.48555 20.8631 6.48555V10.0379H19.0428C17.2497 10.0379 16.6905 11.1506 16.6905 12.2922V14.9999H20.6939L20.0539 19.1726H16.6905V29.2595C23.5913 28.1767 28.87 22.2049 28.87 14.9999Z" fill="#1877F2"/>
<path d="M20.0542 19.1726L20.6942 14.9999H16.6907V12.2922C16.6907 11.1506 17.2499 10.0379 19.0431 10.0379H20.8633V6.48555C20.8633 6.48555 19.2114 6.20361 17.6321 6.20361C14.3348 6.20361 12.1798 8.20195 12.1798 11.8197V14.9999H8.51465V19.1726H12.1798V29.2595C13.6743 29.4934 15.1962 29.4934 16.6907 29.2595V19.1726H20.0542Z" fill="white"/>
</g>
<defs>
<clipPath id="clip0_295_1213">
<rect width="28.87" height="28.87" fill="white" transform="translate(0 0.564941)"/>
</clipPath>
</defs>
</svg>
