<svg width="29" height="30" viewBox="0 0 29 30" fill="none" xmlns="http://www.w3.org/2000/svg">
<g clip-path="url(#clip0_295_1202)">
<path d="M22.39 0.564941H6.48C2.90119 0.564941 0 3.46614 0 7.04494V22.9549C0 26.5337 2.90119 29.4349 6.48 29.4349H22.39C25.9688 29.4349 28.87 26.5337 28.87 22.9549V7.04494C28.87 3.46614 25.9688 0.564941 22.39 0.564941Z" fill="url(#paint0_linear_295_1202)"/>
<path d="M9.99986 5.56494H18.9999C19.1999 5.66494 19.4999 5.66494 19.6999 5.76494C20.5775 5.90717 21.3981 6.29136 22.0693 6.87432C22.7406 7.45728 23.236 8.21591 23.4999 9.06494C23.6475 9.55421 23.748 10.0565 23.7999 10.5649V19.3649C23.6569 20.4802 23.2451 21.5441 22.5999 22.4649C22.0463 23.1063 21.3524 23.6113 20.5719 23.9408C19.7915 24.2704 18.9455 24.4155 18.0999 24.3649H10.5999C9.26141 24.4299 7.94541 24.0031 6.89986 23.1649C6.26406 22.6156 5.76232 21.9281 5.43301 21.1551C5.10369 20.3821 4.95554 19.544 4.99986 18.7049V11.7049C4.98334 11.2029 5.01684 10.7004 5.09986 10.2049C5.20084 9.17973 5.62237 8.21242 6.30455 7.44048C6.98673 6.66854 7.89485 6.13124 8.89986 5.90494L9.99986 5.56494ZM6.89986 15.0649V18.9649C6.85722 19.4616 6.92366 19.9615 7.09453 20.4298C7.26539 20.8981 7.53655 21.3233 7.88902 21.6758C8.24149 22.0282 8.66674 22.2994 9.13501 22.4703C9.60327 22.6411 10.1032 22.7076 10.5999 22.6649C13.1999 22.7649 15.7999 22.7649 18.3999 22.6649C20.6999 22.6649 21.9999 21.2649 22.0999 18.9649C22.1999 16.3649 22.1999 13.7649 22.0999 11.1649C22.1258 10.6722 22.0478 10.1796 21.871 9.71893C21.6943 9.25828 21.4226 8.83995 21.0737 8.49107C20.7249 8.14218 20.3065 7.87054 19.8459 7.69377C19.3852 7.51699 18.8926 7.43903 18.3999 7.46494C15.7999 7.36494 13.1999 7.36494 10.5999 7.46494C10.1032 7.4223 9.60327 7.48875 9.13501 7.65961C8.66674 7.83048 8.24149 8.10163 7.88902 8.4541C7.53655 8.80657 7.26539 9.23182 7.09453 9.70009C6.92366 10.1684 6.85722 10.6683 6.89986 11.1649V15.0649Z" fill="white"/>
<path d="M9.63965 15.1048C9.64229 13.8061 10.1594 12.5613 11.0777 11.6429C11.9961 10.7246 13.2409 10.2075 14.5396 10.2048C15.8312 10.2304 17.0627 10.7549 17.9762 11.6683C18.8896 12.5818 19.4141 13.8133 19.4396 15.1048C19.437 16.4036 18.9199 17.6484 18.0016 18.5667C17.0832 19.4851 15.8384 20.0022 14.5396 20.0048C13.2481 19.9793 12.0166 19.4548 11.1031 18.5413C10.1897 17.6279 9.66523 16.3964 9.63965 15.1048ZM14.5396 12.0048C13.9323 11.995 13.3358 12.1667 12.8266 12.498C12.3175 12.8293 11.9188 13.3051 11.6818 13.8644C11.4448 14.4237 11.3802 15.041 11.4963 15.6373C11.6123 16.2336 11.9038 16.7816 12.3334 17.2111C12.7629 17.6406 13.3109 17.9321 13.9072 18.0482C14.5035 18.1643 15.1208 18.0997 15.6801 17.8627C16.2394 17.6257 16.7152 17.227 17.0465 16.7179C17.3778 16.2087 17.5495 15.6122 17.5396 15.0048C17.5396 14.2092 17.2236 13.4461 16.661 12.8835C16.0984 12.3209 15.3353 12.0048 14.5396 12.0048Z" fill="white"/>
<path d="M18.3396 10.0049C18.334 9.84582 18.3612 9.68728 18.4195 9.53917C18.4779 9.39105 18.5661 9.25652 18.6786 9.14396C18.7912 9.03139 18.9257 8.9432 19.0738 8.88487C19.222 8.82654 19.3805 8.79933 19.5396 8.80491C19.8509 8.82597 20.144 8.95916 20.3647 9.17981C20.5853 9.40045 20.7185 9.69359 20.7396 10.0049C20.7396 10.3232 20.6132 10.6284 20.3881 10.8534C20.1631 11.0785 19.8578 11.2049 19.5396 11.2049C19.2213 11.2049 18.9161 11.0785 18.6911 10.8534C18.466 10.6284 18.3396 10.3232 18.3396 10.0049Z" fill="white"/>
</g>
<defs>
<linearGradient id="paint0_linear_295_1202" x1="-1.84" y1="31.0349" x2="32.16" y2="-2.46506" gradientUnits="userSpaceOnUse">
<stop stop-color="#FED576"/>
<stop offset="0.26" stop-color="#F47133"/>
<stop offset="0.61" stop-color="#BC3081"/>
<stop offset="1" stop-color="#4C63D2"/>
</linearGradient>
<clipPath id="clip0_295_1202">
<rect width="28.87" height="28.87" fill="white" transform="translate(0 0.564941)"/>
</clipPath>
</defs>
</svg>
