<svg width="29" height="30" viewBox="0 0 29 30" fill="none" xmlns="http://www.w3.org/2000/svg">
<g clip-path="url(#clip0_295_1219)">
<path d="M26.1066 0.564941H2.76342C1.23722 0.564941 0 1.80217 0 3.32836V26.6715C0 28.1977 1.23722 29.4349 2.76342 29.4349H26.1066C27.6328 29.4349 28.87 28.1977 28.87 26.6715V3.32836C28.87 1.80217 27.6328 0.564941 26.1066 0.564941Z" fill="black"/>
<path d="M21.754 12.0302V14.7554C21.277 14.7088 20.6591 14.6012 19.9741 14.3499C19.0794 14.0221 18.4137 13.5739 17.9783 13.2267V18.7357L17.9678 18.7186C17.9755 18.8273 17.9783 18.9388 17.9783 19.0508C17.9783 21.787 15.7524 24.0141 13.015 24.0141C10.2777 24.0141 8.05176 21.787 8.05176 19.0508C8.05176 16.3146 10.2777 14.0864 13.015 14.0864C13.2824 14.0864 13.5459 14.1081 13.8027 14.1491V16.8354C13.5559 16.7467 13.2913 16.6995 13.015 16.6995C11.7193 16.6995 10.6643 17.7534 10.6643 19.0503C10.6643 20.3471 11.7193 21.401 13.015 21.401C14.3108 21.401 15.3658 20.346 15.3658 19.0503C15.3658 19.0014 15.3647 18.9532 15.3613 18.9044V8.19849H18.0854C18.0954 8.42923 18.1048 8.66109 18.1148 8.89239C18.1331 9.34668 18.295 9.78265 18.5763 10.1399C18.9074 10.5598 19.395 11.0473 20.0811 11.4367C20.7229 11.8006 21.3264 11.957 21.7535 12.0302H21.754Z" fill="#FF004F"/>
<path d="M20.8185 9.81751V12.5427C20.3415 12.4961 19.7235 12.3884 19.0385 12.1372C18.1438 11.8094 17.4782 11.3612 17.0428 11.014V16.523L17.0322 16.5058C17.04 16.6146 17.0428 16.726 17.0428 16.8381C17.0428 19.5743 14.8168 21.8014 12.0795 21.8014C9.34214 21.8014 7.11621 19.5743 7.11621 16.8381C7.11621 14.1019 9.34214 11.8737 12.0795 11.8737C12.3468 11.8737 12.6103 11.8953 12.8671 11.9364V14.6227C12.6203 14.534 12.3557 14.4868 12.0795 14.4868C10.7838 14.4868 9.72876 15.5407 9.72876 16.8375C9.72876 18.1344 10.7838 19.1883 12.0795 19.1883C13.3752 19.1883 14.4302 18.1333 14.4302 16.8375C14.4302 16.7887 14.4291 16.7405 14.4258 16.6917V5.98633H17.1498C17.1598 6.21708 17.1692 6.44893 17.1792 6.68023C17.1975 7.13452 17.3595 7.5705 17.6413 7.92771C17.9724 8.3476 18.46 8.83517 19.1461 9.22455C19.7879 9.58842 20.3914 9.74484 20.8185 9.81806V9.81751Z" fill="#00F7EF"/>
<path d="M21.4142 11.0089V13.7341C20.9372 13.6875 20.3192 13.5799 19.6342 13.3286C18.7395 13.0008 18.0739 12.5526 17.6385 12.2054V17.7144L17.6279 17.6972C17.6357 17.806 17.6385 17.9175 17.6385 18.0295C17.6385 20.7657 15.4125 22.9928 12.6752 22.9928C9.93785 22.9928 7.71191 20.7657 7.71191 18.0295C7.71191 15.2933 9.93785 13.0651 12.6752 13.0651C12.9425 13.0651 13.206 13.0867 13.4628 13.1278V15.8141C13.216 15.7254 12.9514 15.6782 12.6752 15.6782C11.3795 15.6782 10.3245 16.7321 10.3245 18.0289C10.3245 19.3258 11.3795 20.3797 12.6752 20.3797C13.9709 20.3797 15.0259 19.3247 15.0259 18.0289C15.0259 17.9801 15.0248 17.9319 15.0215 17.8831V7.17773H17.7455C17.7555 7.40848 17.7649 7.64034 17.7749 7.87164C17.7932 8.32592 17.9552 8.7619 18.2364 9.11912C18.5676 9.53901 19.0551 10.0266 19.7413 10.416C20.383 10.7798 20.9865 10.9362 21.4136 11.0095L21.4142 11.0089Z" fill="white"/>
</g>
<defs>
<clipPath id="clip0_295_1219">
<rect width="28.87" height="28.87" fill="white" transform="translate(0 0.564941)"/>
</clipPath>
</defs>
</svg>
