<svg width="28" height="28" viewBox="0 0 28 28" fill="none" xmlns="http://www.w3.org/2000/svg">
<g clip-path="url(#clip0_295_1227)">
<path d="M27.9978 20.8947C27.9978 21.0479 27.9931 21.3806 27.9838 21.6373C27.9718 22.2426 27.9224 22.8467 27.8361 23.446C27.7352 23.9715 27.5647 24.4811 27.3291 24.9616C26.8098 25.985 25.9778 26.8162 24.9538 27.3344C24.4706 27.5706 23.958 27.7411 23.4297 27.8415C22.8348 27.9262 22.2354 27.9746 21.6347 27.9864C21.3777 27.9955 21.045 28.0001 20.8935 28.0001L7.10678 27.9979C6.95361 27.9979 6.62118 27.9933 6.36424 27.9839C5.75886 27.9719 5.1548 27.9225 4.55549 27.8362C4.03003 27.7353 3.52036 27.5648 3.03992 27.3292C2.01555 26.8104 1.18342 25.9783 0.664588 24.9539C0.428819 24.4707 0.258673 23.9581 0.158667 23.4298C0.0739878 22.835 0.0255847 22.2355 0.0137255 21.6348C0.00555744 21.3878 0.000981791 21.1407 0 20.8936L0.00219608 7.10663C0.00219608 6.95345 0.00686275 6.62075 0.0161961 6.36408C0.0282573 5.75871 0.0775794 5.15465 0.163882 4.55534C0.264834 4.02987 0.435341 3.5202 0.670902 3.03977C1.18984 2.01561 2.02195 1.18369 3.04624 0.664984C3.52941 0.428778 4.04197 0.258171 4.57031 0.15769C5.16516 0.0729829 5.76461 0.0245796 6.36533 0.0127489C6.62227 0.00369012 6.95498 -0.000976562 7.10651 -0.000976562L20.8946 0.00231756C21.048 0.00231756 21.3805 0.00698421 21.6371 0.0163175C22.2425 0.0283829 22.8466 0.077705 23.4459 0.164004C23.9713 0.264956 24.481 0.435462 24.9615 0.671023C25.9849 1.19026 26.8161 2.02235 27.3343 3.04636C27.5706 3.52951 27.7412 4.04208 27.8416 4.57044C27.9263 5.16528 27.9747 5.76473 27.9866 6.36545C27.9956 6.6224 28.0003 6.9551 28.0003 7.10663L27.9981 20.8933L27.9978 20.8947Z" fill="url(#paint0_linear_295_1227)"/>
<path d="M21.4169 6.62423C19.695 4.90192 17.406 3.86406 14.9759 3.70388C12.5457 3.54371 10.1403 4.27215 8.20725 5.75356C6.27426 7.23497 4.94551 9.36839 4.46842 11.7566C3.99133 14.1448 4.39842 16.6249 5.61388 18.7353L4.18945 23.9367L9.5122 22.5409C10.9844 23.3424 12.634 23.7625 14.3104 23.7627H14.3145C16.3001 23.7626 18.241 23.1739 19.8921 22.0709C21.5431 20.9678 22.8301 19.4001 23.5902 17.5658C24.3504 15.7315 24.5496 13.713 24.1628 11.7654C23.7759 9.81789 22.8204 8.02877 21.4169 6.62423ZM14.3153 22.0673H14.312C12.8175 22.0675 11.3505 21.6659 10.0645 20.9045L9.75981 20.7236L6.6013 21.5518L7.44432 18.4732L7.24585 18.1575C6.26247 16.5903 5.82777 14.7408 6.01007 12.8997C6.19238 11.0585 6.98135 9.33017 8.25297 7.98629C9.52459 6.64241 11.2067 5.75922 13.035 5.47553C14.8633 5.19185 16.734 5.52377 18.353 6.41912C19.9721 7.31447 21.2477 8.72247 21.9794 10.4218C22.7111 12.1211 22.8573 14.0154 22.395 15.8069C21.9328 17.5983 20.8883 19.1854 19.4258 20.3186C17.9633 21.4518 16.1657 22.0668 14.3156 22.067L14.3153 22.0673ZM18.8914 15.8192C18.6405 15.6938 17.4071 15.0868 17.1771 15.0031C16.947 14.9194 16.7798 14.8776 16.6127 15.1285C16.4455 15.3794 15.9646 15.9447 15.8182 16.1118C15.6719 16.279 15.5256 16.3001 15.2747 16.1747C14.535 15.8801 13.8524 15.4588 13.2573 14.9298C12.7088 14.4228 12.2385 13.8373 11.8617 13.1924C11.7154 12.9412 11.8461 12.8056 11.9715 12.6805C12.0844 12.5682 12.2224 12.3876 12.3479 12.2412C12.4511 12.1145 12.5356 11.9736 12.5988 11.8229C12.6321 11.7537 12.6476 11.6773 12.644 11.6006C12.6404 11.524 12.6176 11.4494 12.5779 11.3837C12.5153 11.2582 12.0135 10.0238 11.8044 9.52168C11.6007 9.0325 11.3926 9.09866 11.24 9.09125C11.0797 9.08442 10.9194 9.08149 10.759 9.08246C10.6319 9.08579 10.5068 9.11538 10.3917 9.16938C10.2766 9.22338 10.1739 9.30061 10.09 9.39623C9.80633 9.66484 9.58169 9.98962 9.43045 10.3499C9.27921 10.7101 9.20468 11.0979 9.21161 11.4885C9.21161 12.7238 10.1106 13.9155 10.2361 14.0829C10.3615 14.2504 12.005 16.7836 14.5217 17.8712C14.9888 18.0724 15.4662 18.2488 15.9519 18.3996C16.4637 18.5551 17.0047 18.5891 17.532 18.499C18.014 18.427 19.0163 17.8923 19.2255 17.3065C19.3895 16.9318 19.4404 16.5173 19.3718 16.114C19.3089 16.0094 19.1417 15.9466 18.8908 15.8211L18.8914 15.8192Z" fill="white"/>
</g>
<defs>
<linearGradient id="paint0_linear_295_1227" x1="14.0001" y1="-0.000976562" x2="14.0001" y2="28.0001" gradientUnits="userSpaceOnUse">
<stop stop-color="#61FD7D"/>
<stop offset="1" stop-color="#2BB826"/>
</linearGradient>
<clipPath id="clip0_295_1227">
<rect width="28" height="28" fill="white"/>
</clipPath>
</defs>
</svg>
