<svg width="26" height="25" viewBox="0 0 26 25" fill="none" xmlns="http://www.w3.org/2000/svg">
<path d="M1.43768 3.50004C1.39029 3.50074 1.34351 3.51003 1.30001 3.52743C1.25651 3.54482 1.21715 3.56999 1.18417 3.60144C1.1512 3.63289 1.12525 3.67002 1.10782 3.71074C1.09038 3.75145 1.0818 3.79493 1.08257 3.83871V21.656C1.08257 21.7444 1.12059 21.8293 1.18827 21.8918C1.25595 21.9543 1.34774 21.9893 1.44346 21.9893H23.8128C23.9086 21.9893 24.0003 21.9543 24.068 21.8918C24.1357 21.8293 24.1737 21.7444 24.1737 21.656C24.1737 21.5676 24.1357 21.4828 24.068 21.4203C24.0003 21.3578 23.9086 21.3227 23.8128 21.3227H1.80435V3.83871C1.80513 3.79403 1.79617 3.74967 1.77802 3.70825C1.75987 3.66684 1.7329 3.62921 1.69869 3.59762C1.66449 3.56603 1.62375 3.5411 1.57892 3.52434C1.53408 3.50757 1.48605 3.49932 1.43768 3.50004Z" fill="#2B4255"/>
<path d="M21.1248 4.21529C21.0723 4.21439 21.0203 4.22404 20.9723 4.24361C20.9243 4.26318 20.8815 4.2922 20.8469 4.32861L14.1199 11.1873L10.4273 9.72266C10.3676 9.69877 10.302 9.69017 10.2374 9.69792C10.1729 9.70566 10.1118 9.72941 10.0606 9.7666L3.88077 14.2913C3.80563 14.3462 3.75719 14.4264 3.74609 14.5143C3.73499 14.6022 3.76214 14.6905 3.82158 14.7599C3.88102 14.8293 3.96787 14.8741 4.06303 14.8844C4.15819 14.8946 4.25386 14.8695 4.32899 14.8146L10.34 10.414L14.0716 11.894C14.1408 11.9213 14.2175 11.9279 14.291 11.913C14.3645 11.8981 14.4311 11.8623 14.4815 11.8106L21.381 4.77596C21.4288 4.72894 21.4608 4.67011 21.4731 4.60665C21.4854 4.54319 21.4775 4.47778 21.4504 4.41838C21.4233 4.35897 21.3781 4.3081 21.3203 4.27193C21.2625 4.23576 21.1946 4.21584 21.1248 4.2146V4.21529Z" fill="#C96852"/>
<path d="M18.7999 4.21729C18.7041 4.21729 18.6123 4.25239 18.5447 4.3149C18.477 4.37741 18.439 4.46221 18.439 4.55062C18.439 4.63902 18.477 4.72382 18.5447 4.78634C18.6123 4.84885 18.7041 4.88395 18.7999 4.88395H20.7523V6.69059C20.7523 6.779 20.7903 6.86384 20.858 6.92635C20.9256 6.98886 21.0174 7.02393 21.1132 7.02393C21.2089 7.02393 21.3007 6.98886 21.3683 6.92635C21.436 6.86384 21.474 6.779 21.474 6.69059V4.55062C21.474 4.46221 21.436 4.37741 21.3683 4.3149C21.3007 4.25239 21.2089 4.21729 21.1132 4.21729H18.7999Z" fill="#C96852"/>
<path fill-rule="evenodd" clip-rule="evenodd" d="M4.14312 15.9779C4.0474 15.9779 3.95561 16.0131 3.88793 16.0756C3.82025 16.1381 3.78223 16.2229 3.78223 16.3113V20.5873C3.78223 20.6757 3.82025 20.7605 3.88793 20.823C3.95561 20.8855 4.0474 20.9207 4.14312 20.9207C4.23883 20.9207 4.33062 20.8855 4.3983 20.823C4.46598 20.7605 4.50401 20.6757 4.50401 20.5873V16.6446H6.86855V20.5873C6.86855 20.6757 6.90658 20.7605 6.97426 20.823C7.04194 20.8855 7.13373 20.9207 7.22944 20.9207C7.32516 20.9207 7.41695 20.8855 7.48463 20.823C7.55231 20.7605 7.59033 20.6757 7.59033 20.5873V16.3113C7.59033 16.2229 7.55231 16.1381 7.48463 16.0756C7.41695 16.0131 7.32516 15.9779 7.22944 15.9779H4.14312ZM8.77116 12.414C8.67545 12.414 8.58366 12.449 8.51598 12.5116C8.4483 12.5741 8.41028 12.6589 8.41028 12.7473V20.5873C8.41028 20.6757 8.4483 20.7605 8.51598 20.823C8.58366 20.8855 8.67545 20.9207 8.77116 20.9207C8.86688 20.9207 8.95867 20.8855 9.02635 20.823C9.09403 20.7605 9.13205 20.6757 9.13205 20.5873V13.0806H11.4966V20.5873C11.4966 20.6757 11.5346 20.7605 11.6023 20.823C11.67 20.8855 11.7618 20.9207 11.8575 20.9207C11.9532 20.9207 12.045 20.8855 12.1127 20.823C12.1804 20.7605 12.2184 20.6757 12.2184 20.5873V12.7473C12.2184 12.6589 12.1804 12.5741 12.1127 12.5116C12.045 12.449 11.9532 12.414 11.8575 12.414H8.77116ZM13.3992 13.8399C13.3035 13.8399 13.2117 13.8751 13.144 13.9376C13.0763 14.0001 13.0383 14.0849 13.0383 14.1733V20.5866C13.0383 20.675 13.0763 20.7598 13.144 20.8223C13.2117 20.8849 13.3035 20.9199 13.3992 20.9199C13.4949 20.9199 13.5867 20.8849 13.6544 20.8223C13.7221 20.7598 13.7601 20.675 13.7601 20.5866V14.5066H16.1247V20.5866C16.1247 20.675 16.1627 20.7598 16.2304 20.8223C16.298 20.8849 16.3898 20.9199 16.4855 20.9199C16.5813 20.9199 16.673 20.8849 16.7407 20.8223C16.8084 20.7598 16.8464 20.675 16.8464 20.5866V14.1733C16.8464 14.0849 16.8084 14.0001 16.7407 13.9376C16.673 13.8751 16.5813 13.8399 16.4855 13.8399H13.3992ZM18.028 9.56396C17.9323 9.56396 17.8405 9.59911 17.7728 9.66162C17.7051 9.72413 17.6671 9.80889 17.6671 9.8973V20.5873C17.6671 20.6757 17.7051 20.7605 17.7728 20.823C17.8405 20.8855 17.9323 20.9207 18.028 20.9207C18.1237 20.9207 18.2155 20.8855 18.2832 20.823C18.3509 20.7605 18.3889 20.6757 18.3889 20.5873V10.2306H20.7527V20.5873C20.7527 20.6757 20.7907 20.7605 20.8584 20.823C20.9261 20.8855 21.0179 20.9207 21.1136 20.9207C21.2093 20.9207 21.3011 20.8855 21.3688 20.823C21.4365 20.7605 21.4745 20.6757 21.4745 20.5873V9.8973C21.4745 9.80889 21.4365 9.72413 21.3688 9.66162C21.3011 9.59911 21.2093 9.56396 21.1136 9.56396H18.028Z" fill="#2B4255"/>
</svg>
