<svg width="36" height="36" viewBox="0 0 36 36" fill="none" xmlns="http://www.w3.org/2000/svg">
<path d="M34.8265 1.47754H1.10347V15.1451H34.8265V1.47754Z" fill="#F5F5F5"/>
<path d="M29.4562 10.6025H7.07908V11.6672H29.4562V10.6025Z" fill="#EBEBEB"/>
<path d="M9.38676 10.6025H8.47114V15.0452H9.38676V10.6025Z" fill="#EBEBEB"/>
<path d="M18.7797 10.9258H17.8641V15.0456H18.7797V10.9258Z" fill="#EBEBEB"/>
<path d="M28.1727 11.1348H27.257V15.0451H28.1727V11.1348Z" fill="#EBEBEB"/>
<path d="M9.38676 11.667H8.47114V12.0304H9.38676V11.667Z" fill="#E0E0E0"/>
<path d="M18.7797 11.667H17.8641V12.0304H18.7797V11.667Z" fill="#E0E0E0"/>
<path d="M28.1727 11.667H27.257V12.0304H28.1727V11.667Z" fill="#E0E0E0"/>
<path d="M8.5142 16.3125H7.29449V17.5469H8.5142V16.3125Z" fill="#E6E6E6"/>
<path d="M2.31661 16.3262H1.09691V17.5606H2.31661V16.3262Z" fill="#EBEBEB"/>
<path d="M3.84813 16.3262H2.62843V17.5606H3.84813V16.3262Z" fill="#EBEBEB"/>
<path d="M5.39336 16.3125H4.17366V17.5469H5.39336V16.3125Z" fill="#E6E6E6"/>
<path d="M6.94008 16.3262H5.72038V17.5606H6.94008V16.3262Z" fill="#EBEBEB"/>
<path d="M10.0609 16.3262H8.84121V17.5606H10.0609V16.3262Z" fill="#EBEBEB"/>
<path d="M11.635 16.3125H10.4153V17.5469H11.635V16.3125Z" fill="#E6E6E6"/>
<path d="M13.232 16.2754H12.0123V17.5098H13.232V16.2754Z" fill="#EBEBEB"/>
<path d="M14.8061 16.2617H13.5864V17.4961H14.8061V16.2617Z" fill="#E6E6E6"/>
<path d="M16.3528 16.2539H15.1331V17.4883H16.3528V16.2539Z" fill="#F5F5F5"/>
<path d="M17.9132 16.2754H16.6935V17.5098H17.9132V16.2754Z" fill="#EBEBEB"/>
<path d="M19.4873 16.2617H18.2676V17.4961H19.4873V16.2617Z" fill="#E6E6E6"/>
<path d="M21.0218 16.2881H19.8021V17.5225H21.0218V16.2881Z" fill="#EBEBEB"/>
<path d="M22.5822 16.2881H21.3625V17.5225H22.5822V16.2881Z" fill="#EBEBEB"/>
<path d="M24.1931 16.2373H22.9734V17.4717H24.1931V16.2373Z" fill="#E6E6E6"/>
<path d="M25.7535 16.2373H24.5338V17.4717H25.7535V16.2373Z" fill="#EBEBEB"/>
<path d="M27.3139 16.2324H26.0942V17.4668H27.3139V16.2324Z" fill="#F5F5F5"/>
<path d="M28.8744 16.2373H27.6547V17.4717H28.8744V16.2373Z" fill="#EBEBEB"/>
<path d="M30.4348 16.2373H29.2151V17.4717H30.4348V16.2373Z" fill="#E6E6E6"/>
<path d="M31.9952 16.2373H30.7755V17.4717H31.9952V16.2373Z" fill="#EBEBEB"/>
<path d="M33.5556 16.2373H32.3359V17.4717H33.5556V16.2373Z" fill="#E6E6E6"/>
<path d="M35.116 16.2373H33.8963V17.4717H35.116V16.2373Z" fill="#E6E6E6"/>
<path d="M2.31661 17.8877H1.09691V19.1221H2.31661V17.8877Z" fill="#EBEBEB"/>
<path d="M3.86184 17.874H2.64213V19.1084H3.86184V17.874Z" fill="#F5F5F5"/>
<path d="M5.37966 17.8877H4.15996V19.1221H5.37966V17.8877Z" fill="#EBEBEB"/>
<path d="M6.94008 17.8877H5.72038V19.1221H6.94008V17.8877Z" fill="#EBEBEB"/>
<path d="M8.5142 17.8525H7.29449V19.087H8.5142V17.8525Z" fill="#F5F5F5"/>
<path d="M10.0609 17.8877H8.84121V19.1221H10.0609V17.8877Z" fill="#EBEBEB"/>
<path d="M11.6715 17.8154H10.4518V19.0499H11.6715V17.8154Z" fill="#F5F5F5"/>
<path d="M13.2457 17.8232H12.026V19.0577H13.2457V17.8232Z" fill="#E6E6E6"/>
<path d="M14.7924 17.8369H13.5727V19.0713H14.7924V17.8369Z" fill="#EBEBEB"/>
<path d="M16.3528 17.8369H15.1331V19.0713H16.3528V17.8369Z" fill="#EBEBEB"/>
<path d="M17.9269 17.8232H16.7072V19.0577H17.9269V17.8232Z" fill="#E6E6E6"/>
<path d="M19.4736 17.8369H18.2539V19.0713H19.4736V17.8369Z" fill="#EBEBEB"/>
<path d="M21.0218 17.8496H19.8021V19.084H21.0218V17.8496Z" fill="#E6E6E6"/>
<path d="M22.6327 17.7773H21.413V19.0118H22.6327V17.7773Z" fill="#F5F5F5"/>
<path d="M24.1931 17.7988H22.9734V19.0333H24.1931V17.7988Z" fill="#EBEBEB"/>
<path d="M25.7535 17.7988H24.5338V19.0333H25.7535V17.7988Z" fill="#E6E6E6"/>
<path d="M27.3139 17.7988H26.0942V19.0333H27.3139V17.7988Z" fill="#EBEBEB"/>
<path d="M28.8744 17.7988H27.6547V19.0333H28.8744V17.7988Z" fill="#E6E6E6"/>
<path d="M30.4348 17.7988H29.2151V19.0333H30.4348V17.7988Z" fill="#EBEBEB"/>
<path d="M31.9952 17.7988H30.7755V19.0333H31.9952V17.7988Z" fill="#E6E6E6"/>
<path d="M33.5556 17.7939H32.3359V19.0284H33.5556V17.7939Z" fill="#F5F5F5"/>
<path d="M35.116 17.7988H33.8963V19.0333H35.116V17.7988Z" fill="#EBEBEB"/>
<path d="M33.8079 22.165H35.0276V20.9306H33.8079V22.165Z" fill="#EBEBEB"/>
<path d="M32.2764 22.165H33.4961V20.9306H32.2764V22.165Z" fill="#EBEBEB"/>
<path d="M30.7312 22.1787H31.9509V20.9443H30.7312V22.1787Z" fill="#E6E6E6"/>
<path d="M29.1845 22.165H30.4042V20.9306H29.1845V22.165Z" fill="#EBEBEB"/>
<path d="M27.6103 22.1787H28.83V20.9443H27.6103V22.1787Z" fill="#E6E6E6"/>
<path d="M26.0636 22.165H27.2833V20.9306H26.0636V22.165Z" fill="#EBEBEB"/>
<path d="M24.4895 22.1787H25.7092V20.9443H24.4895V22.1787Z" fill="#E6E6E6"/>
<path d="M22.9428 22.165H24.1625V20.9306H22.9428V22.165Z" fill="#EBEBEB"/>
<path d="M21.3687 22.1787H22.5884V20.9443H21.3687V22.1787Z" fill="#E6E6E6"/>
<path d="M19.8219 22.1865H21.0416V20.9521H19.8219V22.1865Z" fill="#F5F5F5"/>
<path d="M18.2615 22.165H19.4812V20.9306H18.2615V22.165Z" fill="#EBEBEB"/>
<path d="M16.6874 22.1787H17.9071V20.9443H16.6874V22.1787Z" fill="#E6E6E6"/>
<path d="M15.1407 22.165H16.3604V20.9306H15.1407V22.165Z" fill="#EBEBEB"/>
<path d="M13.5803 22.165H14.8V20.9306H13.5803V22.165Z" fill="#EBEBEB"/>
<path d="M12.0198 22.165H13.2395V20.9306H12.0198V22.165Z" fill="#E6E6E6"/>
<path d="M10.4594 22.165H11.6791V20.9306H10.4594V22.165Z" fill="#EBEBEB"/>
<path d="M8.89901 22.1699H10.1187V20.9355H8.89901V22.1699Z" fill="#F5F5F5"/>
<path d="M7.33859 22.165H8.55829V20.9306H7.33859V22.165Z" fill="#EBEBEB"/>
<path d="M5.77817 22.165H6.99787V20.9306H5.77817V22.165Z" fill="#E6E6E6"/>
<path d="M4.21775 22.165H5.43745V20.9306H4.21775V22.165Z" fill="#EBEBEB"/>
<path d="M2.65733 22.165H3.87703V20.9306H2.65733V22.165Z" fill="#E6E6E6"/>
<path d="M1.09691 22.165H2.31661V20.9306H1.09691L1.09691 22.165Z" fill="#E6E6E6"/>
<path d="M33.8079 20.6035H35.0276V19.3691H33.8079V20.6035Z" fill="#EBEBEB"/>
<path d="M32.2627 20.6172H33.4824V19.3828H32.2627V20.6172Z" fill="#F5F5F5"/>
<path d="M30.7449 20.6035H31.9646V19.3691H30.7449V20.6035Z" fill="#EBEBEB"/>
<path d="M29.1845 20.6035H30.4042V19.3691H29.1845V20.6035Z" fill="#EBEBEB"/>
<path d="M27.6103 20.6387H28.83V19.4042H27.6103V20.6387Z" fill="#F5F5F5"/>
<path d="M26.0636 20.6035H27.2833V19.3691H26.0636V20.6035Z" fill="#EBEBEB"/>
<path d="M24.5032 20.625H25.7229V19.3906H24.5032V20.625Z" fill="#F5F5F5"/>
<path d="M22.9291 20.6172H24.1488V19.3828H22.9291V20.6172Z" fill="#E6E6E6"/>
<path d="M21.3824 20.6035H22.6021V19.3691H21.3824V20.6035Z" fill="#EBEBEB"/>
<path d="M19.8219 20.6035H21.0416V19.3691H19.8219V20.6035Z" fill="#EBEBEB"/>
<path d="M18.2478 20.6172H19.4675V19.3828H18.2478V20.6172Z" fill="#E6E6E6"/>
<path d="M16.7011 20.6035H17.9208V19.3691H16.7011V20.6035Z" fill="#EBEBEB"/>
<path d="M15.1407 20.6035H16.3604V19.3691H15.1407V20.6035Z" fill="#E6E6E6"/>
<path d="M13.5803 20.625H14.8V19.3906H13.5803V20.625Z" fill="#F5F5F5"/>
<path d="M12.0198 20.6035H13.2395V19.3691H12.0198V20.6035Z" fill="#EBEBEB"/>
<path d="M10.4594 20.6035H11.6791V19.3691H10.4594V20.6035Z" fill="#E6E6E6"/>
<path d="M8.89901 20.6035H10.1187V19.3691H8.89901V20.6035Z" fill="#EBEBEB"/>
<path d="M7.33859 20.6035H8.55829V19.3691H7.33859V20.6035Z" fill="#E6E6E6"/>
<path d="M5.77817 20.6035H6.99787V19.3691H5.77817V20.6035Z" fill="#EBEBEB"/>
<path d="M4.21775 20.6035H5.43745V19.3691H4.21775V20.6035Z" fill="#E6E6E6"/>
<path d="M2.65733 20.6084H3.87703V19.374H2.65733V20.6084Z" fill="#F5F5F5"/>
<path d="M1.09691 20.6035H2.31661V19.3691H1.09691L1.09691 20.6035Z" fill="#EBEBEB"/>
<path d="M33.8079 28.3643H35.0276V27.1298H33.8079V28.3643Z" fill="#EBEBEB"/>
<path d="M32.2764 28.3643H33.4961V27.1298H32.2764V28.3643Z" fill="#EBEBEB"/>
<path d="M30.7312 28.3779H31.9509V27.1435H30.7312V28.3779Z" fill="#E6E6E6"/>
<path d="M29.1845 28.3643H30.4042V27.1298H29.1845V28.3643Z" fill="#EBEBEB"/>
<path d="M27.6103 28.3779H28.83V27.1435H27.6103V28.3779Z" fill="#E6E6E6"/>
<path d="M26.0636 28.3643H27.2833V27.1298H26.0636V28.3643Z" fill="#EBEBEB"/>
<path d="M24.4895 28.3779H25.7092V27.1435H24.4895V28.3779Z" fill="#E6E6E6"/>
<path d="M22.9428 28.3643H24.1625V27.1298H22.9428V28.3643Z" fill="#EBEBEB"/>
<path d="M21.3687 28.3779H22.5884V27.1435H21.3687V28.3779Z" fill="#E6E6E6"/>
<path d="M19.8219 28.3857H21.0416V27.1513H19.8219V28.3857Z" fill="#F5F5F5"/>
<path d="M18.2615 28.3643H19.4812V27.1298H18.2615V28.3643Z" fill="#EBEBEB"/>
<path d="M16.6874 28.3779H17.9071V27.1435H16.6874V28.3779Z" fill="#E6E6E6"/>
<path d="M15.1407 28.3643H16.3604V27.1298H15.1407V28.3643Z" fill="#EBEBEB"/>
<path d="M13.5803 28.3643H14.8V27.1298H13.5803V28.3643Z" fill="#EBEBEB"/>
<path d="M12.0198 28.3643H13.2395V27.1298H12.0198V28.3643Z" fill="#E6E6E6"/>
<path d="M10.4594 28.3643H11.6791V27.1298H10.4594V28.3643Z" fill="#EBEBEB"/>
<path d="M8.89901 28.3691H10.1187V27.1347H8.89901V28.3691Z" fill="#F5F5F5"/>
<path d="M7.33859 28.3643H8.55829V27.1298H7.33859V28.3643Z" fill="#EBEBEB"/>
<path d="M5.77817 28.3643H6.99787V27.1298H5.77817V28.3643Z" fill="#E6E6E6"/>
<path d="M4.21775 28.3643H5.43745V27.1298H4.21775V28.3643Z" fill="#EBEBEB"/>
<path d="M2.65733 28.3643H3.87703V27.1298H2.65733V28.3643Z" fill="#E6E6E6"/>
<path d="M1.09691 28.3643H2.31661V27.1298H1.09691L1.09691 28.3643Z" fill="#E6E6E6"/>
<path d="M33.8079 26.8027H35.0276V25.5683H33.8079V26.8027Z" fill="#EBEBEB"/>
<path d="M32.2627 26.8164H33.4824V25.582H32.2627V26.8164Z" fill="#F5F5F5"/>
<path d="M30.7449 26.8027H31.9646V25.5683H30.7449V26.8027Z" fill="#EBEBEB"/>
<path d="M29.1845 26.8027H30.4042V25.5683H29.1845V26.8027Z" fill="#EBEBEB"/>
<path d="M27.6103 26.8379H28.83V25.6035H27.6103V26.8379Z" fill="#F5F5F5"/>
<path d="M26.0636 26.8027H27.2833V25.5683H26.0636V26.8027Z" fill="#EBEBEB"/>
<path d="M24.5032 26.8242H25.7229V25.5898H24.5032V26.8242Z" fill="#F5F5F5"/>
<path d="M22.9291 26.8164H24.1488V25.582H22.9291V26.8164Z" fill="#E6E6E6"/>
<path d="M21.3824 26.8027H22.6021V25.5683H21.3824V26.8027Z" fill="#EBEBEB"/>
<path d="M19.8219 26.8027H21.0416V25.5683H19.8219V26.8027Z" fill="#EBEBEB"/>
<path d="M18.2478 26.8164H19.4675V25.582H18.2478V26.8164Z" fill="#E6E6E6"/>
<path d="M16.7011 26.8027H17.9208V25.5683H16.7011V26.8027Z" fill="#EBEBEB"/>
<path d="M15.1407 26.8027H16.3604V25.5683H15.1407V26.8027Z" fill="#E6E6E6"/>
<path d="M13.5803 26.8242H14.8V25.5898H13.5803V26.8242Z" fill="#F5F5F5"/>
<path d="M12.0198 26.8027H13.2395V25.5683H12.0198V26.8027Z" fill="#EBEBEB"/>
<path d="M10.4594 26.8027H11.6791V25.5683H10.4594V26.8027Z" fill="#E6E6E6"/>
<path d="M8.89901 26.8027H10.1187V25.5683H8.89901V26.8027Z" fill="#EBEBEB"/>
<path d="M7.33859 26.8027H8.55829V25.5683H7.33859V26.8027Z" fill="#E6E6E6"/>
<path d="M5.77817 26.8027H6.99787V25.5683H5.77817V26.8027Z" fill="#EBEBEB"/>
<path d="M4.21775 26.8027H5.43745V25.5683H4.21775V26.8027Z" fill="#E6E6E6"/>
<path d="M2.65733 26.8076H3.87703V25.5732H2.65733V26.8076Z" fill="#F5F5F5"/>
<path d="M1.09691 26.8027H2.31661V25.5683H1.09691L1.09691 26.8027Z" fill="#EBEBEB"/>
<path d="M2.31661 28.6602H1.09691V29.8946H2.31661V28.6602Z" fill="#EBEBEB"/>
<path d="M3.84813 28.6602H2.62843V29.8946H3.84813V28.6602Z" fill="#EBEBEB"/>
<path d="M5.39336 28.6465H4.17366V29.8809H5.39336V28.6465Z" fill="#E6E6E6"/>
<path d="M6.94008 28.6602H5.72038V29.8946H6.94008V28.6602Z" fill="#EBEBEB"/>
<path d="M8.5142 28.6465H7.29449V29.8809H8.5142V28.6465Z" fill="#E6E6E6"/>
<path d="M10.0609 28.6602H8.84121V29.8946H10.0609V28.6602Z" fill="#EBEBEB"/>
<path d="M11.635 28.6465H10.4153V29.8809H11.635V28.6465Z" fill="#E6E6E6"/>
<path d="M13.1818 28.6602H11.9621V29.8946H13.1818V28.6602Z" fill="#EBEBEB"/>
<path d="M14.7559 28.6465H13.5362V29.8809H14.7559V28.6465Z" fill="#E6E6E6"/>
<path d="M16.3026 28.6387H15.0829V29.8731H16.3026V28.6387Z" fill="#F5F5F5"/>
<path d="M17.863 28.6602H16.6433V29.8946H17.863V28.6602Z" fill="#EBEBEB"/>
<path d="M19.4371 28.6465H18.2174V29.8809H19.4371V28.6465Z" fill="#E6E6E6"/>
<path d="M20.9839 28.6602H19.7641V29.8946H20.9839V28.6602Z" fill="#EBEBEB"/>
<path d="M22.5443 28.6602H21.3246V29.8946H22.5443V28.6602Z" fill="#EBEBEB"/>
<path d="M24.1047 28.6602H22.885V29.8946H24.1047V28.6602Z" fill="#E6E6E6"/>
<path d="M25.6651 28.6602H24.4454V29.8946H25.6651V28.6602Z" fill="#EBEBEB"/>
<path d="M27.2255 28.6562H26.0058V29.8907H27.2255V28.6562Z" fill="#F5F5F5"/>
<path d="M28.7859 28.6602H27.5662V29.8946H28.7859V28.6602Z" fill="#EBEBEB"/>
<path d="M30.3464 28.6602H29.1267V29.8946H30.3464V28.6602Z" fill="#E6E6E6"/>
<path d="M31.9068 28.6602H30.6871V29.8946H31.9068V28.6602Z" fill="#EBEBEB"/>
<path d="M33.4672 28.6602H32.2475V29.8946H33.4672V28.6602Z" fill="#E6E6E6"/>
<path d="M35.0276 28.6602H33.8079V29.8946H35.0276V28.6602Z" fill="#E6E6E6"/>
<path d="M2.31661 30.2217H1.09691V31.4561H2.31661V30.2217Z" fill="#EBEBEB"/>
<path d="M3.86184 30.208H2.64213V31.4424H3.86184V30.208Z" fill="#F5F5F5"/>
<path d="M5.37966 30.2217H4.15996V31.4561H5.37966V30.2217Z" fill="#EBEBEB"/>
<path d="M6.94008 30.2217H5.72038V31.4561H6.94008V30.2217Z" fill="#EBEBEB"/>
<path d="M8.5142 30.1865H7.2945V31.4209H8.5142V30.1865Z" fill="#F5F5F5"/>
<path d="M10.0609 30.2217H8.84122V31.4561H10.0609V30.2217Z" fill="#EBEBEB"/>
<path d="M11.6213 30.2002H10.4016V31.4346H11.6213V30.2002Z" fill="#F5F5F5"/>
<path d="M13.1955 30.208H11.9758V31.4424H13.1955V30.208Z" fill="#E6E6E6"/>
<path d="M14.7422 30.2217H13.5225V31.4561H14.7422V30.2217Z" fill="#EBEBEB"/>
<path d="M16.3026 30.2217H15.0829V31.4561H16.3026V30.2217Z" fill="#EBEBEB"/>
<path d="M17.8767 30.208H16.657V31.4424H17.8767V30.208Z" fill="#E6E6E6"/>
<path d="M19.4234 30.2217H18.2037V31.4561H19.4234V30.2217Z" fill="#EBEBEB"/>
<path d="M20.9839 30.2217H19.7641V31.4561H20.9839V30.2217Z" fill="#E6E6E6"/>
<path d="M22.5443 30.2002H21.3246V31.4346H22.5443V30.2002Z" fill="#F5F5F5"/>
<path d="M24.1047 30.2217H22.885V31.4561H24.1047V30.2217Z" fill="#EBEBEB"/>
<path d="M25.6651 30.2217H24.4454V31.4561H25.6651V30.2217Z" fill="#E6E6E6"/>
<path d="M27.2255 30.2217H26.0058V31.4561H27.2255V30.2217Z" fill="#EBEBEB"/>
<path d="M28.7859 30.2217H27.5662V31.4561H28.7859V30.2217Z" fill="#E6E6E6"/>
<path d="M30.3464 30.2217H29.1267V31.4561H30.3464V30.2217Z" fill="#EBEBEB"/>
<path d="M31.9068 30.2217H30.6871V31.4561H31.9068V30.2217Z" fill="#E6E6E6"/>
<path d="M33.4672 30.2178H32.2475V31.4522H33.4672V30.2178Z" fill="#F5F5F5"/>
<path d="M35.0276 30.2217H33.8079V31.4561H35.0276V30.2217Z" fill="#EBEBEB"/>
<path d="M2.31661 31.7949H1.09691V33.0293H2.31661V31.7949Z" fill="#EBEBEB"/>
<path d="M3.84813 31.7949H2.62843V33.0293H3.84813V31.7949Z" fill="#EBEBEB"/>
<path d="M5.39336 31.7812H4.17366V33.0157H5.39336V31.7812Z" fill="#E6E6E6"/>
<path d="M6.94008 31.7949H5.72038V33.0293H6.94008V31.7949Z" fill="#EBEBEB"/>
<path d="M8.5142 31.7812H7.29449V33.0157H8.5142V31.7812Z" fill="#E6E6E6"/>
<path d="M10.0609 31.7949H8.84121V33.0293H10.0609V31.7949Z" fill="#EBEBEB"/>
<path d="M11.635 31.7812H10.4153V33.0157H11.635V31.7812Z" fill="#E6E6E6"/>
<path d="M13.1818 31.7949H11.9621V33.0293H13.1818V31.7949Z" fill="#EBEBEB"/>
<path d="M14.7559 31.7812H13.5362V33.0157H14.7559V31.7812Z" fill="#E6E6E6"/>
<path d="M16.3026 31.7734H15.0829V33.0079H16.3026V31.7734Z" fill="#F5F5F5"/>
<path d="M17.863 31.7949H16.6433V33.0293H17.863V31.7949Z" fill="#EBEBEB"/>
<path d="M19.4371 31.7812H18.2174V33.0157H19.4371V31.7812Z" fill="#E6E6E6"/>
<path d="M20.9839 31.7949H19.7641V33.0293H20.9839V31.7949Z" fill="#EBEBEB"/>
<path d="M22.5443 31.7949H21.3246V33.0293H22.5443V31.7949Z" fill="#EBEBEB"/>
<path d="M24.1047 31.7949H22.885V33.0293H24.1047V31.7949Z" fill="#E6E6E6"/>
<path d="M25.6651 31.7949H24.4454V33.0293H25.6651V31.7949Z" fill="#EBEBEB"/>
<path d="M27.2255 31.791H26.0058V33.0254H27.2255V31.791Z" fill="#F5F5F5"/>
<path d="M28.7859 31.7949H27.5662V33.0293H28.7859V31.7949Z" fill="#EBEBEB"/>
<path d="M30.3464 31.7949H29.1267V33.0293H30.3464V31.7949Z" fill="#E6E6E6"/>
<path d="M31.9068 31.7949H30.6871V33.0293H31.9068V31.7949Z" fill="#EBEBEB"/>
<path d="M33.4672 31.7949H32.2475V33.0293H33.4672V31.7949Z" fill="#E6E6E6"/>
<path d="M35.0276 31.7949H33.8079V33.0293H35.0276V31.7949Z" fill="#E6E6E6"/>
<path d="M2.31661 22.4902H1.09691V23.7247H2.31661V22.4902Z" fill="#EBEBEB"/>
<path d="M3.84814 22.4902H2.62843V23.7247H3.84814V22.4902Z" fill="#EBEBEB"/>
<path d="M5.39336 22.4766H4.17366V23.711H5.39336V22.4766Z" fill="#E6E6E6"/>
<path d="M6.94008 22.4902H5.72038V23.7247H6.94008V22.4902Z" fill="#EBEBEB"/>
<path d="M8.5142 22.4766H7.2945V23.711H8.5142V22.4766Z" fill="#E6E6E6"/>
<path d="M10.0609 22.4902H8.84122V23.7247H10.0609V22.4902Z" fill="#EBEBEB"/>
<path d="M11.635 22.4766H10.4153V23.711H11.635V22.4766Z" fill="#E6E6E6"/>
<path d="M13.1818 22.4902H11.9621V23.7247H13.1818V22.4902Z" fill="#EBEBEB"/>
<path d="M14.7559 22.4766H13.5362V23.711H14.7559V22.4766Z" fill="#E6E6E6"/>
<path d="M16.3026 22.4688H15.0829V23.7032H16.3026V22.4688Z" fill="#F5F5F5"/>
<path d="M17.863 22.4902H16.6433V23.7247H17.863V22.4902Z" fill="#EBEBEB"/>
<path d="M19.4371 22.4766H18.2174V23.711H19.4371V22.4766Z" fill="#E6E6E6"/>
<path d="M20.9839 22.4902H19.7641V23.7247H20.9839V22.4902Z" fill="#EBEBEB"/>
<path d="M22.5443 22.4902H21.3246V23.7247H22.5443V22.4902Z" fill="#EBEBEB"/>
<path d="M24.1047 22.4902H22.885V23.7247H24.1047V22.4902Z" fill="#E6E6E6"/>
<path d="M25.6651 22.4902H24.4454V23.7247H25.6651V22.4902Z" fill="#EBEBEB"/>
<path d="M27.2255 22.4863H26.0058V23.7207H27.2255V22.4863Z" fill="#F5F5F5"/>
<path d="M28.7859 22.4902H27.5662V23.7247H28.7859V22.4902Z" fill="#EBEBEB"/>
<path d="M30.3464 22.4902H29.1267V23.7247H30.3464V22.4902Z" fill="#E6E6E6"/>
<path d="M31.9068 22.4902H30.6871V23.7247H31.9068V22.4902Z" fill="#EBEBEB"/>
<path d="M33.4672 22.4902H32.2475V23.7247H33.4672V22.4902Z" fill="#E6E6E6"/>
<path d="M35.0276 22.4902H33.8079V23.7247H35.0276V22.4902Z" fill="#E6E6E6"/>
<path d="M2.31661 24.0518H1.09691V25.2862H2.31661V24.0518Z" fill="#EBEBEB"/>
<path d="M3.86184 24.0381H2.64213V25.2725H3.86184V24.0381Z" fill="#F5F5F5"/>
<path d="M5.37966 24.0518H4.15996V25.2862H5.37966V24.0518Z" fill="#EBEBEB"/>
<path d="M6.94008 24.0518H5.72038V25.2862H6.94008V24.0518Z" fill="#EBEBEB"/>
<path d="M8.5142 24.0166H7.2945V25.251H8.5142V24.0166Z" fill="#F5F5F5"/>
<path d="M10.0609 24.0518H8.84122V25.2862H10.0609V24.0518Z" fill="#EBEBEB"/>
<path d="M11.6213 24.0303H10.4016V25.2647H11.6213V24.0303Z" fill="#F5F5F5"/>
<path d="M13.1955 24.0381H11.9758V25.2725H13.1955V24.0381Z" fill="#E6E6E6"/>
<path d="M14.7422 24.0518H13.5225V25.2862H14.7422V24.0518Z" fill="#EBEBEB"/>
<path d="M16.3026 24.0518H15.0829V25.2862H16.3026V24.0518Z" fill="#EBEBEB"/>
<path d="M17.8767 24.0381H16.657V25.2725H17.8767V24.0381Z" fill="#E6E6E6"/>
<path d="M19.4234 24.0518H18.2037V25.2862H19.4234V24.0518Z" fill="#EBEBEB"/>
<path d="M20.9839 24.0518H19.7641V25.2862H20.9839V24.0518Z" fill="#E6E6E6"/>
<path d="M22.5443 24.0303H21.3246V25.2647H22.5443V24.0303Z" fill="#F5F5F5"/>
<path d="M24.1047 24.0518H22.885V25.2862H24.1047V24.0518Z" fill="#EBEBEB"/>
<path d="M25.6651 24.0518H24.4454V25.2862H25.6651V24.0518Z" fill="#E6E6E6"/>
<path d="M27.2255 24.0518H26.0058V25.2862H27.2255V24.0518Z" fill="#EBEBEB"/>
<path d="M28.7859 24.0518H27.5662V25.2862H28.7859V24.0518Z" fill="#E6E6E6"/>
<path d="M30.3464 24.0518H29.1267V25.2862H30.3464V24.0518Z" fill="#EBEBEB"/>
<path d="M31.9068 24.0518H30.6871V25.2862H31.9068V24.0518Z" fill="#E6E6E6"/>
<path d="M33.4672 24.0479H32.2475V25.2823H33.4672V24.0479Z" fill="#F5F5F5"/>
<path d="M35.0276 24.0518H33.8079V25.2862H35.0276V24.0518Z" fill="#EBEBEB"/>
<path d="M35.4437 15.0459H1.0862V16.0146H35.4437V15.0459Z" fill="#E0E0E0"/>
<path d="M31.9623 23.7744H18.9485C18.7158 23.7744 18.5265 23.5851 18.5265 23.3523V4.39666C18.5265 4.16393 18.7158 3.97461 18.9485 3.97461H31.9623C32.195 3.97461 32.3844 4.16393 32.3844 4.39666V23.3523C32.3844 23.5851 32.195 23.7744 31.9623 23.7744ZM18.9485 3.99261C18.7257 3.99261 18.5445 4.17388 18.5445 4.39666V23.3523C18.5445 23.5752 18.7257 23.7564 18.9485 23.7564H31.9623C32.1851 23.7564 32.3664 23.5752 32.3664 23.3523V4.39666C32.3664 4.17388 32.1851 3.99261 31.9623 3.99261H18.9485Z" fill="#E0E0E0"/>
<path d="M16.9555 23.7744H3.94172C3.70899 23.7744 3.51967 23.5851 3.51967 23.3523V4.39666C3.51967 4.16393 3.70899 3.97461 3.94172 3.97461H16.9555C17.1882 3.97461 17.3776 4.16393 17.3776 4.39666V23.3523C17.3776 23.5851 17.1882 23.7744 16.9555 23.7744ZM3.94172 3.99261C3.71894 3.99261 3.53767 4.17388 3.53767 4.39666V23.3523C3.53767 23.5752 3.71894 23.7564 3.94172 23.7564H16.9555C17.1783 23.7564 17.3596 23.5752 17.3596 23.3523V4.39666C17.3596 4.17388 17.1783 3.99261 16.9555 3.99261H3.94172Z" fill="#E0E0E0"/>
<path d="M36 28.1719H0V28.1899H36V28.1719Z" fill="#E0E0E0"/>
<path d="M4.87673 29.1982H3.72041V29.2162H4.87673V29.1982Z" fill="#E0E0E0"/>
<path d="M16.1195 29.0029H12.2654V29.0209H16.1195V29.0029Z" fill="#E0E0E0"/>
<path d="M7.55873 29.8672H4.94873V29.8852H7.55873V29.8672Z" fill="#E0E0E0"/>
<path d="M30.3511 28.9941H27.2414V29.0121H30.3511V28.9941Z" fill="#E0E0E0"/>
<path d="M31.4483 28.9941H30.9926V29.0121H31.4483V28.9941Z" fill="#E0E0E0"/>
<path d="M26.6474 29.4424H22.7673V29.4604H26.6474V29.4424Z" fill="#E0E0E0"/>
<path d="M33.1756 33.8253C33.1756 34.0692 26.4424 34.2668 18.1366 34.2668C9.83079 34.2668 3.0976 34.0692 3.0976 33.8253C3.0976 33.5815 9.83079 33.3838 18.1366 33.3838C26.4424 33.3838 33.1756 33.5815 33.1756 33.8253Z" fill="#F5F5F5"/>
<g opacity="0.5">
<path d="M10.7043 17.5635C10.0423 17.0297 8.75155 16.4233 7.92806 16.211C7.73793 16.162 7.53876 16.1271 7.34579 16.1634C7.15283 16.1997 6.96594 16.3194 6.89542 16.5026C6.82489 16.6859 6.90661 16.9274 7.09162 16.9932C6.85699 16.929 6.61725 16.8642 6.37443 16.8785C6.13161 16.8928 5.88076 17.0004 5.75673 17.2096C5.63271 17.4189 5.68437 17.7334 5.90042 17.8451C5.75702 17.7216 5.52554 17.7162 5.37648 17.8328C5.22743 17.9494 5.17702 18.1754 5.26238 18.3443C5.10212 18.2357 4.93861 18.1241 4.8239 17.9682C4.70918 17.8123 4.65072 17.6008 4.72407 17.4217C4.79743 17.2426 5.03071 17.1304 5.19841 17.2271C4.95742 17.0096 4.71181 16.7864 4.55663 16.5013C4.40147 16.2162 4.35126 15.8525 4.51151 15.5702C4.70207 15.2345 5.14182 15.1054 5.52206 15.1718C5.9023 15.2383 6.23514 15.4606 6.54536 15.6903C6.39477 15.5393 6.40536 15.2765 6.52684 15.1012C6.64834 14.9259 6.85416 14.8267 7.0612 14.7754C7.70432 14.6163 8.3938 14.8629 8.91642 15.2701C9.43903 15.6774 10.3262 17.0194 10.7043 17.5635Z" fill="#F09C1F"/>
</g>
<g opacity="0.5">
<path d="M5.30174 13.6402C5.22849 13.5971 5.13798 13.5591 5.06133 13.5959C4.9984 13.626 4.96592 13.7005 4.96758 13.7702C4.96924 13.84 4.99904 13.9059 5.03277 13.967C5.21749 14.3014 5.78475 14.745 6.07378 14.6712C5.96624 14.2437 5.68166 13.8637 5.30174 13.6402Z" fill="#F09C1F"/>
</g>
<g opacity="0.5">
<path d="M7.04562 13.7133C7.01361 13.6945 6.97405 13.6779 6.94056 13.694C6.91305 13.7071 6.89885 13.7397 6.89958 13.7702C6.90031 13.8007 6.91333 13.8295 6.92807 13.8562C7.0088 14.0023 7.25671 14.1962 7.38303 14.1639C7.33603 13.9771 7.21166 13.811 7.04562 13.7133Z" fill="#F09C1F"/>
</g>
<path d="M16.6983 23.081C16.1436 23.5571 7.98424 24.7854 6.28557 24.0943C4.60583 23.4109 6.49817 22.4106 7.27711 22.1564C8.05604 21.9023 9.37675 21.6922 10.893 20.5057C12.0102 19.6314 13.3748 19.396 13.9355 19.3975C14.5531 19.3991 15.3755 19.5918 15.3755 19.5918C16.0004 20.5992 17.0483 22.8047 17.0483 22.8047L16.6983 23.081Z" fill="#FFB5AF"/>
<path d="M31.7541 19.8578C31.774 19.8781 32.072 20.0262 32.1877 20.0697C32.3033 20.1131 33.2203 20.1208 33.1693 20.0079C33.1183 19.895 33.0777 19.8739 32.8787 19.847C32.6797 19.8201 32.4937 19.8132 32.5438 19.7628C32.594 19.7124 33.183 19.6362 33.3464 19.6945C33.5098 19.7527 33.8021 19.868 33.8817 19.7664C33.9613 19.6649 33.84 19.5886 33.84 19.5886C33.84 19.5886 34.0057 19.5816 33.9471 19.4881C33.8885 19.3945 33.4675 19.0264 33.2693 18.9799C33.071 18.9334 31.9468 19.1259 31.7359 19.1395C31.6726 19.1436 31.2778 19.2379 31.2778 19.2379L31.0034 19.9244L31.7541 19.8578Z" fill="#FFB5AF"/>
<path d="M22.0006 20.3429L22.0444 18.2256C22.4354 18.2684 22.8393 18.2932 23.2431 18.3234L24.4599 18.4007C25.2746 18.4559 26.0875 18.5071 26.917 18.6148L27.0726 18.6365L27.2301 18.6621L27.3885 18.6879L27.5486 18.7217C27.6017 18.732 27.6577 18.7452 27.7028 18.7525C27.7512 18.76 27.8001 18.7622 27.849 18.7591C27.947 18.7463 28.0454 18.7427 28.1434 18.7484C28.336 18.7797 28.529 18.8229 28.7237 18.8516C28.8239 18.8694 28.9193 18.8816 29.0177 18.8954C29.1161 18.9091 29.2134 18.9241 29.3117 18.9378C30.0991 19.041 30.9033 19.1051 31.7001 19.1555L31.726 19.837C31.5217 19.8863 31.3178 19.9289 31.1141 19.9649L30.8088 20.0163C30.7071 20.0317 30.6054 20.047 30.5038 20.0597C30.0972 20.1158 29.6812 20.1556 29.2672 20.1755C29.0646 20.1877 28.8522 20.1927 28.6442 20.1913C28.5434 20.1868 28.4361 20.1926 28.3312 20.1879L28.175 20.1809C28.1225 20.1785 28.0741 20.1763 28.0177 20.1738C27.9132 20.1545 27.8105 20.1228 27.7108 20.0789C27.66 20.0608 27.6084 20.0465 27.5562 20.0361C27.5011 20.0256 27.4557 20.0236 27.4104 20.0202L27.2706 20.0073L26.9823 19.9943L26.8361 19.9878C26.4445 19.9808 26.0459 19.9934 25.6469 20.0153L23.524 20.1856L23.2337 20.215L22.0006 20.3429Z" fill="#FFB5AF"/>
<path opacity="0.2" d="M23.7342 18.3547C23.7342 18.3547 23.3447 20.2039 23.344 20.204C23.3434 20.204 23.1308 20.2351 23.1308 20.2351L23.2831 18.3262L23.7342 18.3547Z" fill="black"/>
<path opacity="0.2" d="M7.41655 22.113C7.41655 22.113 8.46028 23.0995 10.3494 23.0823C12.2385 23.065 12.5406 22.5854 12.5406 22.5854L8.04375 21.8838L7.41655 22.113Z" fill="black"/>
<path d="M16.3641 22.6623C15.6419 22.9919 7.53596 22.3516 5.96704 21.0802C4.41561 19.823 5.76604 18.6065 6.6562 18.5835C7.54635 18.5605 9.51187 19.0045 11.4514 18.2256C12.8806 17.6517 13.9919 17.6991 14.5775 17.8783C15.2225 18.0757 16.0246 18.5406 16.0246 18.5406C16.3766 19.8076 16.8125 22.4799 16.8125 22.4799L16.3641 22.6623Z" fill="#FFB5AF"/>
<path opacity="0.2" d="M24.0075 18.3721C24.0212 18.3729 24.26 18.7904 24.9513 18.7951C25.567 18.7993 25.8082 18.4986 25.8082 18.4986L24.0075 18.3721Z" fill="black"/>
<path d="M16.0374 18.5853L16.4902 23.1455C16.4902 23.1455 18.0047 22.7477 19.9233 22.1998C21.1114 21.8605 22.778 21.786 23.1873 19.9798L23.296 18.7052C23.201 18.0448 23.0957 17.8907 22.9558 17.5748C22.8018 17.2272 22.2853 16.5708 21.9057 16.5903C21.2758 16.6226 20.2425 17.1198 18.5328 18.1571C17.8001 18.6016 16.6693 18.5453 16.0374 18.5853Z" fill="#F09C1F"/>
<path d="M14.4499 17.8438C14.4499 17.8438 14.5062 21.204 12.5406 22.5859C13.5356 23.0184 14.6534 23.2809 15.8487 23.436L17.4098 22.8899C17.4098 22.8899 17.5146 18.6189 17.4098 18.6154C17.3049 18.6119 15.267 17.8982 14.4499 17.8438Z" fill="#F09C1F"/>
<path d="M14.5125 18.2716C15.1878 18.4548 15.865 18.6321 16.5449 18.7978C16.9373 18.8935 17.3277 19.0217 17.734 18.9457C18.1576 18.8665 18.5561 18.6616 18.9198 18.437C19.1484 18.2958 19.373 18.1419 19.5795 17.9697C19.6063 17.9474 19.5679 17.9094 19.5413 17.9315C19.3731 18.0718 19.1917 18.1982 19.0081 18.3172C18.6548 18.5463 18.273 18.7546 17.8633 18.8614C17.6656 18.9129 17.4552 18.9411 17.2522 18.9055C17.0495 18.8699 16.8486 18.8157 16.6487 18.7674C16.2041 18.6601 15.7611 18.5462 15.3188 18.4302C15.0545 18.3609 14.7904 18.291 14.5268 18.2195C14.4932 18.2104 14.4789 18.2625 14.5125 18.2716Z" fill="white"/>
<path d="M14.5031 18.046C15.1785 18.2292 15.8557 18.4065 16.5355 18.5722C16.9279 18.6679 17.3184 18.7961 17.7246 18.7201C18.1483 18.6409 18.5468 18.436 18.9105 18.2114C19.139 18.0702 19.3636 17.9163 19.5702 17.7441C19.5969 17.7218 19.5585 17.6838 19.532 17.7059C19.3638 17.8462 19.1823 17.9726 18.9987 18.0917C18.6454 18.3207 18.2636 18.529 17.8539 18.6358C17.6562 18.6873 17.4458 18.7155 17.2428 18.6799C17.0402 18.6444 16.8392 18.5901 16.6393 18.5419C16.1948 18.4345 15.7518 18.3206 15.3094 18.2046C15.0452 18.1354 14.7811 18.0655 14.5175 17.994C14.4839 17.9848 14.4696 18.0369 14.5031 18.046Z" fill="white"/>
<path opacity="0.6" d="M20.1228 19.1538C19.8761 19.0354 17.2514 19.7476 17.0483 20.0162C16.8827 20.2351 17.3747 21.6505 17.568 22.1834C17.6098 22.2987 17.7316 22.3639 17.8508 22.3348C18.5466 22.1649 20.75 21.6238 20.8331 21.5657C20.9317 21.4967 20.3694 19.2722 20.1228 19.1538Z" fill="white"/>
<path d="M20.1228 19.1537C20.0452 19.1164 19.692 19.1762 19.2382 19.2839L19.917 21.8191L19.9171 21.8191C20.4201 21.6902 20.8014 21.5878 20.8331 21.5656C20.9317 21.4966 20.3694 19.2721 20.1228 19.1537Z" fill="#263238"/>
<path d="M18.7982 20.1588L17.9527 20.41L17.8946 20.2143L18.5831 20.0097L18.5328 19.8406L18.6899 19.7939L18.7982 20.1588Z" fill="#263238"/>
<path d="M18.3436 21.1418L18.1842 21.1892L17.9943 20.5502L18.1212 20.5125L18.5261 20.7472C18.6197 20.8008 18.667 20.8012 18.7081 20.7891C18.7746 20.7693 18.7996 20.712 18.773 20.6225C18.7515 20.5501 18.7054 20.4967 18.6364 20.4725L18.6859 20.3027C18.8007 20.3396 18.8975 20.4396 18.9427 20.5918C18.9987 20.7803 18.9393 20.9346 18.7859 20.9802C18.7038 21.0046 18.622 21.0039 18.477 20.9182L18.2356 20.7783L18.3436 21.1418Z" fill="#263238"/>
<path d="M18.6523 21.8177C18.5098 21.8601 18.3466 21.7889 18.2752 21.5485C18.24 21.4301 18.2364 21.2984 18.27 21.199L18.4424 21.2306C18.413 21.309 18.4119 21.4067 18.4381 21.4949C18.4671 21.5927 18.5249 21.6413 18.5938 21.6208C18.6578 21.6018 18.6836 21.5428 18.6506 21.4318L18.624 21.3423L18.7533 21.3039L19.0019 21.4193L18.8949 21.0593L19.052 21.0127L19.2279 21.6046L19.101 21.6423L18.8269 21.516C18.8479 21.6755 18.7767 21.7808 18.6523 21.8177Z" fill="#263238"/>
<path opacity="0.6" d="M20.5826 19.2561C20.6257 19.2906 21.0521 21.1481 21.1667 21.2661C21.2814 21.3842 21.4538 21.2576 21.4538 21.2576C21.4538 21.2576 20.9363 19.1281 20.8558 19.1526C20.7753 19.177 20.5826 19.2561 20.5826 19.2561Z" fill="white"/>
<path d="M23.2867 18.7352C23.3385 18.398 23.3473 18.3396 23.5797 18.1909C23.7101 18.1052 23.8657 18.0399 24.0241 17.9846L23.9585 17.6509L24.0397 16.1768C23.6423 16.6961 23.2918 17.2403 22.6428 17.0891C22.6428 17.0891 22.3461 18.8303 23.2867 18.7352Z" fill="#FFB5AF"/>
<path opacity="0.2" d="M23.5297 18.2245C23.4639 17.8987 23.472 17.4687 23.7466 17.2712C23.8628 17.1887 23.9828 17.1214 24.0694 17.0889L23.8885 18.0349C23.7646 18.0826 23.6922 18.1246 23.5297 18.2245Z" fill="black"/>
<path d="M24.7639 15.2446C24.0374 16.0331 23.7142 16.3507 23.6683 17.1349C23.5993 18.3144 24.6644 19.0703 25.5967 18.5235C26.4359 18.0313 27.483 16.8245 27.113 15.746C26.7485 14.6835 25.4904 14.4561 24.7639 15.2446Z" fill="#FFB5AF"/>
<path d="M25.4513 16.4932C25.371 16.5729 25.3432 16.6805 25.3893 16.7335C25.4353 16.7866 25.5376 16.765 25.6179 16.6854C25.6982 16.6058 25.726 16.4982 25.68 16.4451C25.634 16.392 25.5316 16.4136 25.4513 16.4932Z" fill="#263238"/>
<path d="M26.1597 17.2731C26.0821 17.3505 26.0563 17.4561 26.1022 17.509C26.148 17.5619 26.2482 17.5421 26.3258 17.4647C26.4034 17.3874 26.4292 17.2818 26.3834 17.2289C26.3375 17.1759 26.2374 17.1958 26.1597 17.2731Z" fill="#263238"/>
<path d="M25.5938 16.0642C25.6018 16.0753 25.614 16.0829 25.6283 16.0842C25.8516 16.1041 25.9361 16.2773 25.9371 16.2793C25.9496 16.3051 25.9797 16.3153 26.0047 16.3012C26.0296 16.287 26.0398 16.2544 26.0274 16.2281C26.023 16.219 25.9171 16.0014 25.64 15.9767C25.6123 15.9743 25.5873 15.9964 25.5841 16.026C25.5826 16.0403 25.5863 16.0538 25.5938 16.0642Z" fill="#263238"/>
<path d="M26.7947 17.1763C26.8046 17.1818 26.8165 17.1831 26.8284 17.1788C26.8528 17.1697 26.8676 17.1403 26.8615 17.1131C26.7996 16.8401 26.6009 16.7758 26.5924 16.7732C26.5685 16.7659 26.5426 16.7824 26.5344 16.8101C26.5262 16.8378 26.5389 16.8662 26.5627 16.8737C26.5705 16.8761 26.7237 16.9285 26.7729 17.1456C26.7761 17.1597 26.7842 17.1704 26.7947 17.1763Z" fill="#263238"/>
<path d="M26.0063 17.0254C26.0063 17.0254 25.8218 17.4173 25.7633 17.7242C25.7531 17.7778 25.6923 17.8053 25.644 17.7799C25.5195 17.7147 25.4487 17.5708 25.4487 17.5708L26.0063 17.0254Z" fill="#FF726E"/>
<path d="M25.6495 16.4189L25.8568 16.5619C25.8568 16.5619 25.6314 16.585 25.6495 16.4189Z" fill="#263238"/>
<path d="M26.3646 17.2119L26.5719 17.3549C26.5719 17.3549 26.3464 17.378 26.3646 17.2119Z" fill="#263238"/>
<path d="M24.5157 16.0134C24.5157 16.0134 25.5484 15.6554 25.7022 15.2698C25.8559 14.8842 24.8864 15.036 24.8561 15.0436C24.8258 15.0511 24.4391 15.4226 24.4391 15.4226L24.5157 15.9771" fill="#263238"/>
<path d="M24.5157 16.0134C24.5157 16.0134 25.5484 15.6554 25.7022 15.2698C25.8559 14.8842 24.8864 15.036 24.8561 15.0436C24.8258 15.0511 24.4391 15.4226 24.4391 15.4226L24.5157 15.9771" fill="#263238"/>
<path d="M23.9197 15.5786C23.8418 15.819 23.8772 16.0632 23.9682 16.2342C24.1052 16.4914 24.5401 16.295 24.6855 16.0336C24.8163 15.7982 24.7553 15.479 24.5296 15.3123C24.3073 15.148 24.0087 15.3037 23.9197 15.5786Z" fill="#FFB5AF"/>
<path d="M25.102 17.2745C25.0951 17.2677 25.0862 17.2628 25.076 17.2608C25.0485 17.2553 25.0223 17.2731 25.0174 17.3006C24.9689 17.5768 25.1382 17.7408 25.1448 17.7492C25.1653 17.7688 25.1972 17.7684 25.2163 17.7484C25.2353 17.7284 25.2343 17.6965 25.2142 17.6768C25.2069 17.6702 25.078 17.5422 25.117 17.3205C25.12 17.3032 25.1139 17.2861 25.102 17.2745Z" fill="#263238"/>
<path opacity="0.2" d="M24.394 16.0783C24.3899 16.0783 24.3859 16.077 24.3825 16.0742C24.3749 16.0678 24.3738 16.0565 24.3802 16.0488C24.4384 15.9782 24.4771 15.8924 24.4919 15.8008C24.5016 15.7409 24.504 15.6538 24.4607 15.5791C24.4214 15.5113 24.3448 15.4699 24.2795 15.48C24.2693 15.4814 24.2604 15.4748 24.2589 15.465C24.2573 15.4551 24.264 15.4459 24.2738 15.4444C24.3551 15.4318 24.4446 15.4795 24.4918 15.561C24.5405 15.645 24.5381 15.7409 24.5275 15.8065C24.5116 15.9044 24.4703 15.9962 24.4079 16.0717C24.4043 16.0761 24.3992 16.0783 24.394 16.0783Z" fill="black"/>
<path d="M27.0612 15.0832C25.9938 13.6246 23.4955 13.8536 23.5578 16.772C23.5578 16.772 24.2767 15.8997 24.7465 15.6669C24.7465 15.6669 25.829 15.3764 26.5319 15.7135C27.4285 16.1435 26.8639 17.1181 26.8639 17.1181C26.8111 17.3528 26.679 17.5232 26.548 17.7183C26.548 17.7183 28.1858 16.6199 27.0612 15.0832Z" fill="#F09C1F"/>
<path d="M25.8082 16.8477C25.8082 16.8477 25.9619 16.8436 26.0407 16.9278C26.1195 17.0119 26.0602 17.185 26.0609 17.1822C26.0616 17.1793 26.2428 16.9934 26.2428 16.9934L25.9439 16.6152C25.9439 16.6152 25.872 16.7928 25.8082 16.8477Z" fill="#F09C1F"/>
<path d="M25.9741 16.6277C25.971 16.5862 25.9496 16.5486 25.9275 16.5133C25.7984 16.3067 25.6293 16.1252 25.4324 15.9817C25.3928 15.9528 25.3494 15.9246 25.3005 15.922C25.2516 15.9194 25.1763 15.9674 25.1322 16.0236C25.0417 16.1718 25.0122 16.3581 25.0614 16.5246C25.1107 16.6911 25.2405 16.8338 25.4047 16.8901C25.569 16.9464 25.7636 16.911 25.8917 16.7938C25.9389 16.7506 25.9788 16.6915 25.9741 16.6277Z" fill="#263238"/>
<path d="M26.8551 17.4173C26.8444 17.3781 26.8177 17.3463 26.7909 17.3169C26.6336 17.1447 26.5157 17.0652 26.3087 16.967C26.267 16.9473 26.222 16.9289 26.1769 16.9362C26.1318 16.9435 26.0722 17.0046 26.0427 17.0674C25.9883 17.2276 25.9918 17.415 26.0736 17.5618C26.1559 17.7097 26.2735 17.7788 26.4341 17.7999C26.5948 17.821 26.717 17.731 26.8116 17.593C26.8465 17.5421 26.8716 17.4775 26.8551 17.4173Z" fill="#263238"/>
<path d="M25.1322 16.0242L24.2767 14.6405L24.4391 14.5098L25.3005 15.9226L25.1322 16.0242Z" fill="#F09C1F"/>
<path opacity="0.4" d="M25.1322 16.0242L24.2767 14.6405L24.4391 14.5098L25.3005 15.9226L25.1322 16.0242Z" fill="white"/>
<g opacity="0.4">
<path d="M26.3324 15.0319C26.1313 15.035 25.9294 15.0381 25.7295 15.0157C25.6824 15.0104 25.6344 15.0034 25.5921 14.9819C25.5498 14.9604 25.5136 14.9218 25.5068 14.8749C25.5 14.8279 25.5305 14.7752 25.5773 14.7676C25.462 14.7584 25.3468 14.7493 25.2316 14.7401C25.1838 14.7363 25.1351 14.7324 25.0906 14.7146C25.0461 14.6968 25.0055 14.6628 24.9918 14.6168C24.9782 14.5709 24.999 14.5138 25.044 14.4971C25.044 14.4971 24.8019 14.5769 24.9877 14.7251C25.1735 14.8734 25.4487 14.823 25.4487 14.823C25.4487 14.823 25.3076 15.0712 25.625 15.1041C25.9424 15.1371 26.3324 15.0319 26.3324 15.0319Z" fill="white"/>
</g>
<g opacity="0.2">
<path d="M25.7499 16.4282C25.6683 16.3013 25.5717 16.1711 25.4295 16.1207C25.2689 16.0995 25.1882 16.2139 25.1537 16.3311C25.1193 16.4484 25.1563 16.5812 25.2385 16.6717C25.3207 16.7622 25.4434 16.8112 25.5656 16.814C25.6173 16.8153 25.6702 16.8085 25.7168 16.7861C25.7634 16.7637 25.8033 16.7243 25.8188 16.675C25.8453 16.5907 25.7977 16.5025 25.7499 16.4282Z" fill="white"/>
</g>
<g opacity="0.2">
<path d="M26.6421 17.2713C26.5389 17.1706 26.4211 17.07 26.2782 17.0537C26.1247 17.0685 26.0745 17.1925 26.0679 17.3092C26.0612 17.4259 26.1243 17.5417 26.2201 17.6083C26.316 17.6749 26.4405 17.6942 26.5545 17.6706C26.6028 17.6606 26.6503 17.6429 26.6888 17.6119C26.7272 17.581 26.7557 17.5358 26.7594 17.4864C26.7658 17.4022 26.7025 17.3303 26.6421 17.2713Z" fill="white"/>
</g>
<path d="M23.4945 15.5934C23.5605 15.3066 23.6644 15.0283 23.8323 14.7848C24.0102 14.5266 24.2537 14.3266 24.5294 14.1799C24.56 14.1636 24.5328 14.117 24.5021 14.1333C24.2237 14.2814 23.9792 14.4832 23.7967 14.7416C23.62 14.992 23.5108 15.282 23.4424 15.5791C23.4347 15.6129 23.4867 15.6274 23.4945 15.5934Z" fill="#F09C1F"/>
<path d="M22.0287 16.7013C22.0287 16.7013 20.2483 12.7036 18.7376 13.0752C17.2269 13.4468 15.1589 15.4803 15.1589 15.4803L15.6038 16.0334C15.6038 16.0334 18.0726 14.6405 18.5501 14.6099C19.0277 14.5793 19.9877 17.4082 19.9877 17.4082L22.0287 16.7013Z" fill="#FFB5AF"/>
<path d="M19.2719 17.7182C19.2719 17.7182 19.4216 18.0662 20.6953 17.8581C21.9689 17.65 22.4283 16.8569 22.417 16.8488C22.4056 16.8406 22.1465 16.3551 21.7581 16.143C21.2462 15.8634 19.2719 17.7182 19.2719 17.7182Z" fill="#FFB5AF"/>
<path d="M15.6038 16.0331C15.5986 16.0611 15.4342 16.3504 15.3625 16.4511C15.2909 16.5517 14.5345 17.0702 14.5138 16.9481C14.4931 16.826 14.515 16.7858 14.665 16.6523C14.815 16.5188 14.9655 16.4093 14.8957 16.3955C14.826 16.3817 14.2948 16.6475 14.1918 16.7871C14.0889 16.9266 13.9108 17.1855 13.788 17.1457C13.6653 17.106 13.7233 16.9749 13.7233 16.9749C13.7233 16.9749 13.5819 17.0617 13.5783 16.9514C13.5746 16.841 13.7182 16.3006 13.8567 16.1512C13.9952 16.0019 15.0352 15.5337 15.2177 15.4272C15.2725 15.3952 15.6527 15.2529 15.6527 15.2529L16.2636 15.6691L15.6038 16.0331Z" fill="#FFB5AF"/>
<path opacity="0.2" d="M18.5938 14.6143L18.6401 13.9912C18.6401 13.9912 18.9236 14.3192 18.7969 14.7748C18.7969 14.7748 18.6374 14.6191 18.5938 14.6143Z" fill="black"/>
<path opacity="0.2" d="M19.9192 17.1504C19.9192 17.1504 20.624 17.3692 20.7163 17.4085C20.7163 17.4085 20.6958 17.4848 19.5862 17.4354L19.9192 17.1504Z" fill="black"/>
<g opacity="0.5">
<path d="M20.059 14.8881C20.0876 14.8594 20.0923 14.8152 20.0955 14.7748C20.111 14.5731 20.1266 14.3715 20.1422 14.1698C20.2663 14.203 20.3058 14.3868 20.432 14.4109C20.5024 14.4244 20.5743 14.377 20.6071 14.3133C20.6122 14.3033 20.6152 14.2927 20.6188 14.2823C20.0439 13.5247 19.3674 12.9203 18.7376 13.0752C18.2797 13.1878 17.7706 13.4535 17.2834 13.7687C17.2879 13.9215 17.3307 14.0969 17.4722 14.1496C17.5517 14.1791 17.6426 14.1588 17.7164 14.1169C17.7901 14.0751 17.8504 14.0138 17.9118 13.9552C18.0256 13.8467 18.1461 13.7452 18.2726 13.6517C18.3653 13.583 18.4808 13.5156 18.5896 13.5539C18.67 13.5822 18.7207 13.6607 18.7584 13.7371C18.7962 13.8135 18.8296 13.8964 18.8956 13.9503C18.9616 14.0042 19.0736 14.0138 19.1238 13.9449C19.1504 13.9083 19.1567 13.8549 19.1959 13.8322C19.2307 13.8119 19.2774 13.8275 19.3052 13.8567C19.333 13.8859 19.3466 13.9254 19.3601 13.9634C19.4682 14.2663 19.6254 14.5517 19.8237 14.8049C19.8529 14.8422 19.8843 14.8798 19.9267 14.9008C19.9691 14.9218 20.0256 14.9217 20.059 14.8881Z" fill="#F09C1F"/>
</g>
<g opacity="0.5">
<path d="M25.9663 19.8178C23.9217 19.7913 21.9157 19.1951 19.8714 19.1482C17.7147 19.0987 15.5802 19.6617 13.4229 19.6458C11.3721 19.6307 9.36395 19.0942 7.34057 18.7498C5.31719 18.4054 3.11009 18.6501 1.09691 19.0528V33.0151L35.1538 33.1164L35.2998 19.9632C34.1904 16.7846 29.1811 19.8596 25.9663 19.8178Z" fill="#F09C1F"/>
</g>
<g opacity="0.3">
<path d="M26.0943 19.8181C24.0461 19.8584 22.3434 19.2427 20.299 19.1958C18.1423 19.1463 16.0513 19.4264 13.9003 19.5917C11.7556 19.7565 9.61249 19.148 7.59445 18.7736C5.39337 18.3652 3.1101 18.6503 1.09692 19.053V19.4084C3.47527 18.8016 6.6912 18.8697 8.85361 20.0497C9.71872 20.5218 10.6424 21.1474 11.5946 20.9115C12.093 20.788 12.5251 20.4349 13.0338 20.37C13.8534 20.2653 14.5855 20.9257 15.4067 21.016C16.9262 21.1832 18.1726 19.4046 19.69 19.5905C20.6682 19.7103 21.4318 20.6313 22.4145 20.7025C23.3601 20.771 24.2028 20.0323 25.1496 19.9841C25.7701 19.9524 26.3635 20.2201 26.9734 20.3412C27.5833 20.4624 28.3181 20.3834 28.6653 19.8538C30.1221 19.849 31.5884 19.0659 32.9458 18.5225C30.6771 18.5684 28.2948 19.7748 26.0943 19.8181Z" fill="white"/>
</g>
<path opacity="0.2" d="M1.17521 26.475C1.17521 26.475 6.56352 29.3351 9.60775 29.021C12.652 28.7068 21.2149 24.2998 25.8157 23.7239C30.4164 23.148 35.2998 25.2501 35.2998 25.2501V28.171C35.2998 28.171 29.287 23.7619 25.9597 24.6685C22.6324 25.5751 15.0335 31.0468 8.93271 31.4207C2.83196 31.7945 1.17521 30.5075 1.17521 30.5075V26.475Z" fill="white"/>
<path opacity="0.3" d="M25.3346 20.6739C25.3346 20.8336 25.0609 20.963 24.7232 20.963C24.3856 20.963 24.1119 20.8336 24.1119 20.6739C24.1119 20.5142 24.3856 20.3848 24.7232 20.3848C25.0609 20.3848 25.3346 20.5142 25.3346 20.6739Z" fill="white"/>
<path opacity="0.3" d="M11.1577 25.1629C12.382 25.2059 13.6096 25.1231 14.8172 24.9166C16.0387 24.7077 17.2387 24.3728 18.3911 23.9169C19.5288 23.4668 20.5976 22.8714 21.7045 22.3544C22.2713 22.0897 22.8499 21.8477 23.4488 21.6651C24.0516 21.4813 24.671 21.3555 25.2954 21.2721C26.5604 21.1033 27.8405 21.1047 29.1142 21.1247C29.27 21.1272 29.4258 21.1299 29.5816 21.1327C29.6164 21.1333 29.6164 21.0793 29.5816 21.0787C28.3172 21.0561 27.0485 21.0349 25.7883 21.1608C25.1694 21.2227 24.5533 21.3201 23.9495 21.4706C23.3543 21.6189 22.7769 21.8246 22.2137 22.0667C21.0837 22.5523 20.0142 23.166 18.8855 23.6543C17.7452 24.1476 16.5522 24.5193 15.3344 24.7654C14.111 25.0126 12.8619 25.1321 11.6138 25.1195C11.4617 25.1179 11.3097 25.1143 11.1577 25.1089C11.1229 25.1077 11.123 25.1617 11.1577 25.1629Z" fill="#F09C1F"/>
<path opacity="0.3" d="M15.9539 25.4228C16.9301 25.3378 17.884 25.0758 18.7666 24.6502C18.7979 24.6351 18.7705 24.5885 18.7394 24.6035C17.8658 25.0248 16.92 25.2847 15.9539 25.3688C15.9195 25.3718 15.9192 25.4259 15.9539 25.4228Z" fill="#F09C1F"/>
<path opacity="0.3" d="M19.2179 24.4257C19.3303 24.4212 19.4383 24.3742 19.5175 24.2942C19.542 24.2695 19.5038 24.2313 19.4793 24.2561C19.4102 24.3258 19.3161 24.3678 19.2179 24.3717C19.1833 24.373 19.1831 24.4271 19.2179 24.4257Z" fill="#F09C1F"/>
</svg>
