<svg width="25" height="25" viewBox="0 0 25 25" fill="none" xmlns="http://www.w3.org/2000/svg">
<path d="M3.76514 5.30835V8.18163V22.7777H21.2347V8.18163V5.30835H3.76514Z" fill="#FDFCFA"/>
<path d="M9.74786 2.37769H7.37354V6.13753H9.74786V2.37769Z" fill="#F4C366"/>
<path d="M17.6263 2.37769H15.252V6.13753H17.6263V2.37769Z" fill="#F4C366"/>
<path d="M17.7108 11.9622C17.5702 11.8215 17.3424 11.8215 17.2018 11.9622L10.9308 18.2331L7.79811 15.1004C7.65747 14.9598 7.42971 14.9598 7.28907 15.1004C7.14843 15.241 7.14843 15.4688 7.28907 15.6094L10.6762 18.9966C10.7465 19.0669 10.8387 19.1019 10.9308 19.1019C11.023 19.1019 11.1152 19.0669 11.1855 18.9966L17.7108 12.4712C17.8515 12.3306 17.8515 12.1028 17.7108 11.9622Z" fill="#CB3631"/>
<path d="M21.2345 5.30835H3.76514V8.18163H21.2345V5.30835Z" fill="#F47866"/>
</svg>
