<svg width="24" height="25" viewBox="0 0 24 25" fill="none" xmlns="http://www.w3.org/2000/svg">
<path d="M18.9652 13.2911C20.6356 13.2963 21.9898 14.6745 22 16.3797V19.4019C21.9899 21.1086 20.6371 22.4897 18.9652 22.5H16.0046C14.3343 22.4896 12.9842 21.1071 12.9791 19.4019V16.3797C12.9791 14.6739 14.3337 13.2911 16.0046 13.2911H18.9652ZM6.25058 13.2911C6.56143 13.2571 6.86401 13.4073 7.02984 13.6778C7.19568 13.9484 7.19568 14.2918 7.02984 14.5624C6.86401 14.8329 6.56143 14.9831 6.25058 14.9491H5.0348C4.25932 14.9491 3.62923 15.5881 3.62413 16.3797V19.3641C3.64385 20.1493 4.26544 20.7797 5.0348 20.7947H8.01392C8.3872 20.7972 8.74604 20.6476 9.01086 20.379C9.27568 20.1104 9.4246 19.7451 9.42459 19.3641V14.8828L9.41193 14.7713C9.39793 14.4748 9.54013 14.1893 9.79039 14.0273C10.0719 13.845 10.4337 13.8558 10.7044 14.0544C10.9751 14.253 11.1004 14.5996 11.0209 14.9301V19.3925C11.0209 21.1035 9.66215 22.4905 7.98608 22.4905H5.0348C3.37322 22.4553 2.03447 21.0887 2 19.3925V16.3797C2 15.5589 2.32003 14.7719 2.88943 14.1924C3.45884 13.6129 4.23078 13.2886 5.0348 13.2911H6.25058ZM18.9652 14.9491H16.0046C15.2307 14.9491 14.6032 15.5896 14.6032 16.3797V19.4019C14.6008 19.7821 14.7476 20.1475 15.011 20.4163C15.2743 20.6852 15.6322 20.8351 16.0046 20.8326H18.9652C19.3376 20.8351 19.6955 20.6852 19.9589 20.4163C20.2222 20.1475 20.3691 19.7821 20.3666 19.4019V16.3797C20.3666 16.0003 20.2189 15.6364 19.9561 15.3681C19.6933 15.0998 19.3369 14.9491 18.9652 14.9491ZM18.9652 2.5C20.6232 2.54019 21.9564 3.90542 21.9907 5.59806V8.61085C22.0006 9.43001 21.6913 10.2196 21.1309 10.806C20.5704 11.3923 19.8048 11.7273 19.0023 11.7373H17.7773C17.3622 11.692 17.0475 11.3344 17.0475 10.9083C17.0475 10.4822 17.3622 10.1247 17.7773 10.0793H18.9652C19.341 10.0769 19.7002 9.92142 19.9633 9.64752C20.2264 9.37362 20.3715 9.00389 20.3666 8.62032V5.59806C20.3566 4.81222 19.735 4.17766 18.9652 4.16746H16.0046C15.2307 4.16746 14.6032 4.80796 14.6032 5.59806V10.1172L14.5936 10.2212C14.5306 10.629 14.1826 10.937 13.768 10.932C13.5522 10.9271 13.3473 10.8341 13.199 10.6739C13.0508 10.5137 12.9716 10.2996 12.9791 10.0793V5.59806C12.9767 4.77727 13.2943 3.98924 13.862 3.40797C14.4296 2.8267 15.2006 2.5 16.0046 2.5H18.9652ZM7.99536 2.5C9.66932 2.5052 11.0251 3.88921 11.0302 5.59806V8.62032C11.0302 9.44111 10.7101 10.2281 10.1407 10.8076C9.57132 11.3871 8.79939 11.7114 7.99536 11.7089H5.0348C3.36445 11.7037 2.01018 10.3255 2 8.62032V5.59806C2.01013 3.89135 3.36294 2.51034 5.0348 2.5H7.99536ZM7.99536 4.16746H5.0348C4.65833 4.15982 4.29469 4.30716 4.02582 4.57629C3.75696 4.84541 3.60549 5.21366 3.60557 5.59806V8.62032C3.59791 9.00962 3.74603 9.38529 4.01574 9.66062C4.28546 9.93595 4.65345 10.0872 5.0348 10.0793H7.99536C8.37112 10.0769 8.73038 9.92142 8.99346 9.64752C9.25654 9.37362 9.4017 9.00389 9.39675 8.62032V5.59806C9.39169 4.81011 8.76722 4.17262 7.99536 4.16746Z" fill="#C96852"/>
</svg>
