<svg width="36" height="22" viewBox="0 0 36 22" fill="none" xmlns="http://www.w3.org/2000/svg">
<g clip-path="url(#clip0_211_1007)">
<path fill-rule="evenodd" clip-rule="evenodd" d="M0.971477 21.9939C1.17148 22.1249 3.20348 20.1559 3.40048 19.6939H3.53148C3.8436 19.6486 4.12602 19.484 4.31948 19.2349C5.14796 18.1321 6.29386 17.309 7.60348 16.8759C8.36495 16.6175 9.16335 16.4844 9.96748 16.4819C12.8565 16.4819 15.3505 18.2539 17.9765 19.2389C19.3738 19.8143 20.8657 20.1259 22.3765 20.1579C23.085 20.164 23.7912 20.0759 24.4765 19.8959C26.0589 19.5739 27.5032 18.7705 28.6115 17.5959C28.8745 17.3339 30.4505 15.5609 30.6465 15.2959C30.8059 15.0306 30.8607 14.7153 30.8002 14.4118C30.7397 14.1082 30.5684 13.838 30.3195 13.6539C30.1226 13.5283 29.895 13.4591 29.6615 13.4539C29.468 13.459 29.2784 13.5092 29.1077 13.6005C28.937 13.6919 28.7901 13.8218 28.6785 13.9799C28.6115 14.1109 28.4785 14.2419 28.4145 14.3739C27.6935 15.2269 25.2645 17.3939 23.9515 17.6559C22.7334 17.9075 21.4726 17.8626 20.2755 17.5249C18.9872 17.1579 17.735 16.6742 16.5345 16.0799C15.155 15.4266 13.7283 14.878 12.2665 14.4389C11.514 14.2545 10.7411 14.1664 9.96648 14.1769C8.91679 14.186 7.8753 14.3629 6.88148 14.7009C6.00785 14.9471 5.18525 15.3474 4.45248 15.8829C3.70071 16.4371 3.03661 17.1012 2.48248 17.8529L2.35148 17.9839C2.08948 18.5089 0.451477 21.6599 0.973477 21.9839L0.971477 21.9939ZM27.4905 4.99394C27.5072 3.92542 27.9434 2.90634 28.705 2.15664C29.4665 1.40694 30.4923 0.98674 31.561 0.98674C32.6296 0.98674 33.6554 1.40694 34.417 2.15664C35.1785 2.90634 35.6147 3.92542 35.6315 4.99394C35.6147 6.06245 35.1785 7.08153 34.417 7.83124C33.6554 8.58094 32.6296 9.00113 31.561 9.00113C30.4923 9.00113 29.4665 8.58094 28.705 7.83124C27.9434 7.08153 27.5072 6.06245 27.4905 4.99394ZM12.1305 4.53494L19.8105 2.95994L19.9415 3.41894L20.3415 7.68594C20.2105 7.68594 11.5415 10.1159 9.70648 10.5739C10.8985 11.2387 12.1814 11.7252 13.5145 12.0179C18.6345 13.3969 22.3755 12.6099 25.6585 12.8059L22.1035 1.05294H22.0375V0.988937C21.9496 0.658694 21.7347 0.376609 21.4396 0.204248C21.1446 0.0318862 20.7933 -0.0167561 20.4625 0.0689371L11.6035 1.84194C11.4254 1.86916 11.2547 1.93195 11.1014 2.02656C10.9481 2.12118 10.8154 2.24568 10.7113 2.39265C10.6072 2.53962 10.5337 2.70606 10.4952 2.88203C10.4568 3.05801 10.4541 3.23992 10.4875 3.41694C10.5659 3.7778 10.7799 4.09477 11.0853 4.30244C11.3906 4.51011 11.764 4.59262 12.1285 4.53294L12.1305 4.53494Z" fill="#BBC0C3"/>
</g>
<defs>
<clipPath id="clip0_211_1007">
<rect width="34.763" height="21.977" fill="white" transform="translate(0.86853 0.0229492)"/>
</clipPath>
</defs>
</svg>
