<svg width="24" height="24" viewBox="0 0 24 24" fill="none" xmlns="http://www.w3.org/2000/svg">
<g clip-path="url(#clip0_536_2658)">
<path d="M18.2 17.4C18.8627 17.4 19.4 16.8627 19.4 16.2C19.4 15.5373 18.8627 15 18.2 15C17.5373 15 17 15.5373 17 16.2C17 16.8627 17.5373 17.4 18.2 17.4Z" fill="#C96852"/>
<path d="M15.75 16.1251C15.75 14.8824 16.0072 13.8751 17.25 13.8751H21.375V11.2501C21.375 10.0074 20.3678 9.00013 19.125 9.00013H3C1.75725 9.00013 0.75 10.0074 0.75 11.2501V21.0001C0.75 22.2429 1.75725 23.2501 3 23.2501H19.125C20.3678 23.2501 21.375 22.2429 21.375 21.0001V18.3751H17.25C16.0072 18.3751 15.75 17.3679 15.75 16.1251ZM6.375 9.00013L14.2714 5.06263C15.2715 4.51663 16.5 5.22763 16.5 6.35188V9.00013H6.375Z" fill="#F09C1F"/>
<path d="M21.75 13.4996V11.2496C21.75 9.80251 20.5725 8.62463 19.125 8.62463H16.875V6.35138C16.875 5.69663 16.5356 5.10451 15.9671 4.76663C15.3862 4.42238 14.6854 4.40963 14.1045 4.72688L13.5 5.02801V3.80551C13.5 3.03038 13.071 2.35388 12.3806 2.04076C11.7169 1.74001 10.9613 1.85401 10.4089 2.33813L3.234 8.62463H3C1.5525 8.62463 0.375 9.80251 0.375 11.2496V20.9996C0.375 22.4468 1.5525 23.6246 3 23.6246H19.125C20.5725 23.6246 21.75 22.4468 21.75 20.9996V18.7496C22.7839 18.7496 23.625 17.9085 23.625 16.8746V15.3746C23.625 14.3408 22.7839 13.4996 21.75 13.4996ZM14.4514 5.39138C14.8095 5.19601 15.2332 5.20313 15.5842 5.41163C15.9229 5.61263 16.125 5.96363 16.125 6.35138V8.62463H7.96725L14.4514 5.39138ZM10.9031 2.90213C11.2361 2.61038 11.6726 2.54326 12.0709 2.72401C12.399 2.87288 12.75 3.23513 12.75 3.80551V5.40188L6.28687 8.62463H4.37213L10.9031 2.90213ZM21 20.9996C21 22.0335 20.1589 22.8746 19.125 22.8746H3C1.96613 22.8746 1.125 22.0335 1.125 20.9996V11.2496C1.125 10.2158 1.96613 9.37463 3 9.37463H19.125C20.1589 9.37463 21 10.2158 21 11.2496V13.4996H17.25C15.375 13.4996 15.375 15.4755 15.375 16.1246C15.375 16.7738 15.375 18.7496 17.25 18.7496H21V20.9996ZM22.875 16.8746C22.875 17.4949 22.3703 17.9996 21.75 17.9996H17.25C16.5746 17.9996 16.125 17.6805 16.125 16.1246C16.125 14.5688 16.5746 14.2496 17.25 14.2496H21.75C22.3703 14.2496 22.875 14.7544 22.875 15.3746V16.8746Z" fill="#C96852"/>
<path d="M23.3552 2.03807L23.6143 1.9513C23.733 1.91145 23.8237 1.8155 23.8567 1.6953C23.8899 1.57474 23.8611 1.44588 23.7799 1.35113L22.5578 -0.0708712C22.5038 -0.133886 22.4315 -0.175565 22.3543 -0.192628C22.2836 -0.208236 22.2084 -0.203338 22.1375 -0.175993L22.0636 -0.147383C20.5314 0.448228 19.3763 1.71045 18.9143 3.27206L18.4324 3.16563C18.179 3.10967 17.9193 3.21093 17.771 3.42356C17.6288 3.6272 17.617 3.89112 17.7388 4.10503L18.914 6.72333C19.0363 6.99573 19.2736 7.1887 19.5647 7.253C19.8563 7.317 20.1528 7.24193 20.3782 7.04591L22.534 5.17556C22.7363 5.03167 22.8384 4.78501 22.7947 4.53765C22.7492 4.2795 22.554 4.07626 22.2981 4.01974L21.7898 3.90749C21.9168 3.04917 22.517 2.31881 23.3552 2.03807ZM21.0174 4.12172C21.0104 4.16204 21.0099 4.20454 21.0174 4.24728L21.0206 4.26566C21.0355 4.3546 21.0814 4.43194 21.1449 4.48705C21.1631 4.5022 21.1828 4.51694 21.2034 4.52838C21.2381 4.54835 21.2772 4.56083 21.3164 4.57102L21.9302 4.70656L19.8864 6.47992C19.826 6.53263 19.7602 6.52808 19.7265 6.52064C19.6928 6.5132 19.6312 6.48961 19.5978 6.4162L18.4888 3.94655L19.1055 4.08274C19.3076 4.12738 19.5078 3.99992 19.5525 3.79743C19.8665 2.37557 20.8367 1.20116 22.1643 0.622209L22.8563 1.42788C21.7866 1.89789 21.0658 2.94303 21.0174 4.12172Z" fill="#F09C1F"/>
<path d="M23.3552 2.03807L23.6143 1.9513C23.733 1.91145 23.8237 1.8155 23.8567 1.6953C23.8899 1.57474 23.8611 1.44588 23.7799 1.35113L22.5578 -0.0708712C22.5038 -0.133886 22.4315 -0.175565 22.3543 -0.192628C22.2836 -0.208236 22.2084 -0.203338 22.1375 -0.175993L22.0636 -0.147383C20.5314 0.448228 19.3763 1.71045 18.9143 3.27206L18.4324 3.16563C18.179 3.10967 17.9193 3.21093 17.771 3.42356C17.6288 3.6272 17.617 3.89112 17.7388 4.10503L18.914 6.72333C19.0363 6.99573 19.2736 7.1887 19.5647 7.253C19.8563 7.317 20.1528 7.24193 20.3782 7.04591L22.534 5.17556C22.7363 5.03167 22.8384 4.78501 22.7947 4.53765C22.7492 4.2795 22.554 4.07626 22.2981 4.01974L21.7898 3.90749C21.9168 3.04917 22.517 2.31881 23.3552 2.03807ZM21.0174 4.12172C21.0104 4.16204 21.0099 4.20454 21.0174 4.24728L21.0206 4.26566C21.0355 4.3546 21.0814 4.43194 21.1449 4.48705C21.1631 4.5022 21.1828 4.51694 21.2034 4.52838C21.2381 4.54835 21.2772 4.56083 21.3164 4.57102L21.9302 4.70656L19.8864 6.47992C19.826 6.53263 19.7602 6.52808 19.7265 6.52064C19.6928 6.5132 19.6312 6.48961 19.5978 6.4162L18.4888 3.94655L19.1055 4.08274C19.3076 4.12738 19.5078 3.99992 19.5525 3.79743C19.8665 2.37557 20.8367 1.20116 22.1643 0.622209L22.8563 1.42788C21.7866 1.89789 21.0658 2.94303 21.0174 4.12172Z" fill="#F09C1F"/>
</g>
<defs>
<clipPath id="clip0_536_2658">
<rect width="24" height="24" fill="white"/>
</clipPath>
</defs>
</svg>
