<svg width="156" height="204" viewBox="0 0 156 204" fill="none" xmlns="http://www.w3.org/2000/svg">
<path d="M77.1776 117.087C72.083 120.775 61.5037 125.937 59.9428 117.087C57.9917 106.025 64.1702 82.056 77.1776 90.6601C90.185 99.2642 138.312 158.878 92.7864 158.571C47.2605 158.264 32.6272 143.514 38.8057 117.087C44.9843 90.6601 55.0652 -2.44877 114.249 54.3999C173.432 111.248 185.789 163.18 152.946 176.087C120.102 188.993 54.4148 216.342 24.823 192.988C-4.76883 169.634 -7.37031 49.1759 24.823 22.1344C57.0163 -4.90713 111.231 -1.57693 143.19 9.84279C189.303 26.3198 250.826 102.03 236.193 134.602" stroke="#C96852" stroke-width="2.18201"/>
</svg>
