<svg width="24" height="24" viewBox="0 0 24 24" fill="none" xmlns="http://www.w3.org/2000/svg">
<g clip-path="url(#clip0_687_3309)">
<path d="M18.375 17.25C18.9963 17.25 19.5 16.7463 19.5 16.125C19.5 15.5037 18.9963 15 18.375 15C17.7537 15 17.25 15.5037 17.25 16.125C17.25 16.7463 17.7537 17.25 18.375 17.25Z" fill="#C96852"/>
<path d="M15.75 16.1251C15.75 14.8824 16.0072 13.8751 17.25 13.8751H21.375V11.2501C21.375 10.0074 20.3678 9.00013 19.125 9.00013H3C1.75725 9.00013 0.75 10.0074 0.75 11.2501V21.0001C0.75 22.2429 1.75725 23.2501 3 23.2501H19.125C20.3678 23.2501 21.375 22.2429 21.375 21.0001V18.3751H17.25C16.0072 18.3751 15.75 17.3679 15.75 16.1251ZM6.375 9.00013L14.2714 5.06263C15.2715 4.51663 16.5 5.22763 16.5 6.35188V9.00013H6.375Z" fill="#F09C1F"/>
<path d="M21.75 13.4996V11.2496C21.75 9.80251 20.5725 8.62463 19.125 8.62463H16.875V6.35138C16.875 5.69663 16.5356 5.10451 15.9671 4.76663C15.3862 4.42238 14.6854 4.40963 14.1045 4.72688L13.5 5.02801V3.80551C13.5 3.03038 13.071 2.35388 12.3806 2.04076C11.7169 1.74001 10.9613 1.85401 10.4089 2.33813L3.234 8.62463H3C1.5525 8.62463 0.375 9.80251 0.375 11.2496V20.9996C0.375 22.4468 1.5525 23.6246 3 23.6246H19.125C20.5725 23.6246 21.75 22.4468 21.75 20.9996V18.7496C22.7839 18.7496 23.625 17.9085 23.625 16.8746V15.3746C23.625 14.3408 22.7839 13.4996 21.75 13.4996ZM14.4514 5.39138C14.8095 5.19601 15.2332 5.20313 15.5842 5.41163C15.9229 5.61263 16.125 5.96363 16.125 6.35138V8.62463H7.96725L14.4514 5.39138ZM10.9031 2.90213C11.2361 2.61038 11.6726 2.54326 12.0709 2.72401C12.399 2.87288 12.75 3.23513 12.75 3.80551V5.40188L6.28687 8.62463H4.37213L10.9031 2.90213ZM21 20.9996C21 22.0335 20.1589 22.8746 19.125 22.8746H3C1.96613 22.8746 1.125 22.0335 1.125 20.9996V11.2496C1.125 10.2158 1.96613 9.37463 3 9.37463H19.125C20.1589 9.37463 21 10.2158 21 11.2496V13.4996H17.25C15.375 13.4996 15.375 15.4755 15.375 16.1246C15.375 16.7738 15.375 18.7496 17.25 18.7496H21V20.9996ZM22.875 16.8746C22.875 17.4949 22.3703 17.9996 21.75 17.9996H17.25C16.5746 17.9996 16.125 17.6805 16.125 16.1246C16.125 14.5688 16.5746 14.2496 17.25 14.2496H21.75C22.3703 14.2496 22.875 14.7544 22.875 15.3746V16.8746Z" fill="#C96852"/>
<path d="M18.375 14.6246C17.5477 14.6246 16.875 15.2973 16.875 16.1246C16.875 16.9518 17.5477 17.6246 18.375 17.6246C19.2023 17.6246 19.875 16.9518 19.875 16.1246C19.875 15.2973 19.2023 14.6246 18.375 14.6246ZM18.375 16.8746C17.9614 16.8746 17.625 16.5382 17.625 16.1246C17.625 15.7109 17.9614 15.3746 18.375 15.3746C18.7886 15.3746 19.125 15.7109 19.125 16.1246C19.125 16.5382 18.7886 16.8746 18.375 16.8746ZM18.4163 6.28755L18.1819 6.42818C18.0746 6.49268 18.0067 6.60593 18.0004 6.73043C17.994 6.8553 18.0499 6.97493 18.1496 7.04993L19.6496 8.17493C19.716 8.2248 19.7955 8.24993 19.8746 8.24993C19.947 8.24993 20.0194 8.22893 20.0828 8.18693L20.1487 8.14305C21.5164 7.23105 22.3721 5.74943 22.4865 4.12493H22.98C23.2395 4.12493 23.4713 3.97005 23.5703 3.73043C23.6651 3.50093 23.6198 3.24068 23.4548 3.05805L21.7425 0.754805C21.5644 0.51518 21.291 0.37793 20.9929 0.37793C20.6944 0.378305 20.421 0.515555 20.2432 0.755555L18.5415 3.0468C18.375 3.23093 18.3285 3.4938 18.4245 3.72593C18.5246 3.96818 18.759 4.12455 19.0211 4.12455H19.5416C19.6028 4.99005 19.1741 5.83268 18.4163 6.28755ZM20.2496 3.7488C20.2478 3.70793 20.2391 3.6663 20.2226 3.62618L20.2155 3.60893C20.2155 3.60855 20.2151 3.60855 20.2151 3.60818C20.1814 3.52455 20.1203 3.45968 20.0464 3.41955C20.0464 3.41955 20.0464 3.41918 20.046 3.41918C20.025 3.4083 20.0029 3.39855 19.9804 3.3918C19.9421 3.3798 19.9013 3.37605 19.8608 3.37455H19.2322L20.8455 1.20218C20.8931 1.13768 20.9584 1.12793 20.9929 1.12793C21.0274 1.12793 21.0926 1.13768 21.141 1.20218L22.7565 3.37455H22.125C21.918 3.37455 21.75 3.54218 21.75 3.74955C21.75 5.20568 21.0559 6.56168 19.8844 7.4133L19.035 6.7758C19.9781 6.08618 20.4566 4.91018 20.2496 3.7488Z" fill="#F09C1F"/>
</g>
<defs>
<clipPath id="clip0_687_3309">
<rect width="24" height="24" fill="white"/>
</clipPath>
</defs>
</svg>
