<svg width="24" height="24" viewBox="0 0 24 24" fill="none" xmlns="http://www.w3.org/2000/svg">
<path d="M22.2501 7.83503V11.195C22.2501 11.2613 22.2237 11.3249 22.1768 11.3718C22.1299 11.4187 22.0664 11.445 22.0001 11.445H20.9751C20.9088 11.445 20.8452 11.4187 20.7983 11.3718C20.7514 11.3249 20.7251 11.2613 20.7251 11.195V10.19L19.7101 11.205C20.434 12.1661 20.8254 13.3368 20.8251 14.54C20.8251 14.71 20.8151 14.88 20.8051 15.045C20.8136 15.0759 20.817 15.108 20.8151 15.14C20.7117 16.1823 20.3144 17.1738 19.6696 17.9992C19.0248 18.8245 18.1589 19.4499 17.1726 19.8024C16.1863 20.1549 15.1202 20.2201 14.0983 19.9904C13.0764 19.7608 12.1407 19.2457 11.4001 18.505C10.4763 17.5759 9.90971 16.3507 9.80005 15.045C9.79505 14.99 9.79005 14.935 9.79005 14.88C10.3647 14.6137 10.8944 14.2594 11.3601 13.83C11.3157 14.0641 11.2939 14.3018 11.2951 14.54C11.2944 15.1989 11.4563 15.8478 11.7665 16.4292C12.0767 17.0105 12.5255 17.5064 13.0731 17.8727C13.6208 18.2391 14.2504 18.4647 14.9061 18.5295C15.5618 18.5943 16.2234 18.4964 16.8322 18.2443C17.441 17.9922 17.9781 17.5939 18.3961 17.0845C18.8141 16.5751 19.0999 15.9705 19.2283 15.3242C19.3567 14.6779 19.3236 14.01 19.132 13.3795C18.9405 12.7491 18.5963 12.1756 18.1301 11.71C17.8488 11.4329 17.5309 11.1956 17.1851 11.005H17.1801C16.836 10.8212 16.4672 10.6882 16.0851 10.61C15.8264 10.5598 15.5635 10.5347 15.3001 10.535C14.5076 10.5376 13.7335 10.7741 13.0751 11.215C12.8569 11.3588 12.6541 11.5246 12.4701 11.71C12.3782 11.8002 12.2914 11.8953 12.2101 11.995C12.0734 12.1627 11.9513 12.3417 11.8451 12.53C11.8351 12.535 11.8301 12.54 11.8351 12.545C11.5188 12.9996 11.1342 13.4027 10.6951 13.74C10.4146 13.9558 10.117 14.1481 9.80505 14.315C9.80005 14.32 9.79505 14.32 9.79005 14.325C9.771 14.3355 9.75088 14.3439 9.73005 14.35C9.20544 14.6132 8.64134 14.7889 8.06005 14.87C8.05419 14.874 8.0471 14.8758 8.04005 14.875V16.02H9.15005C9.21636 16.02 9.27995 16.0464 9.32683 16.0933C9.37371 16.1401 9.40005 16.2037 9.40005 16.27V17.295C9.40005 17.3613 9.37371 17.4249 9.32683 17.4718C9.27995 17.5187 9.21636 17.545 9.15005 17.545H8.04005V18.67C8.03902 18.736 8.01235 18.799 7.96569 18.8457C7.91903 18.8923 7.85604 18.919 7.79005 18.92H6.76505C6.69875 18.92 6.63516 18.8937 6.58828 18.8468C6.54139 18.7999 6.51505 18.7363 6.51505 18.67V17.545H5.41005C5.34375 17.545 5.28016 17.5187 5.23328 17.4718C5.18639 17.4249 5.16005 17.3613 5.16005 17.295V16.27C5.16005 16.2037 5.18639 16.1401 5.23328 16.0933C5.28016 16.0464 5.34375 16.02 5.41005 16.02H6.51505V14.875C5.19146 14.6966 3.97803 14.0426 3.10122 13.0351C2.22441 12.0277 1.74415 10.7356 1.75005 9.40003C1.75247 8.25379 2.10869 7.13624 2.77005 6.20003C3.27989 5.47886 3.9559 4.89107 4.74092 4.48638C5.52594 4.08168 6.39687 3.87199 7.28005 3.87503C7.56128 3.87581 7.84206 3.89754 8.12005 3.94003C8.95526 4.06389 9.75049 4.37928 10.4435 4.86156C11.1366 5.34384 11.7087 5.97991 12.1151 6.72003V6.72503C12.479 7.38217 12.7037 8.10724 12.7751 8.85503V8.88003C12.7801 8.94003 12.7901 9.00003 12.7901 9.06003C12.5596 9.16302 12.3373 9.28337 12.1251 9.42003C11.7993 9.6188 11.4944 9.84997 11.2151 10.11C11.3285 9.47525 11.2868 8.82246 11.0935 8.20727C10.9002 7.59209 10.561 7.03276 10.1049 6.57695C9.64876 6.12114 9.0892 5.78236 8.47389 5.58948C7.85857 5.3966 7.20575 5.35534 6.57104 5.46922C5.93634 5.58309 5.33858 5.84873 4.8287 6.24349C4.31882 6.63825 3.91193 7.15043 3.64272 7.73638C3.3735 8.32233 3.24994 8.96468 3.28256 9.60869C3.31518 10.2527 3.50301 10.8793 3.83005 11.435C4.3508 12.3085 5.18058 12.9544 6.15505 13.245C6.29988 13.286 6.44674 13.3194 6.59505 13.345C7.29648 13.4677 8.01797 13.4003 8.6845 13.1497C9.35102 12.8991 9.93823 12.4745 10.3851 11.92C10.3901 11.915 10.3901 11.915 10.3901 11.91C10.4401 11.85 10.4901 11.785 10.5351 11.72C10.5401 11.715 10.5401 11.71 10.5501 11.705C10.5606 11.6835 10.7041 11.4785 10.7151 11.445C10.7151 11.445 10.7181 11.4415 10.7201 11.44C11.0973 10.8831 11.5735 10.4001 12.1251 10.015C12.2569 9.92098 12.3938 9.83419 12.5351 9.75503C12.8382 9.574 13.16 9.42646 13.4951 9.31503C14.3524 9.02097 15.2688 8.9415 16.164 9.08358C17.0592 9.22566 17.9059 9.58495 18.6301 10.13L19.6451 9.11003H18.6401C18.5737 9.11003 18.5102 9.08369 18.4633 9.03681C18.4164 8.98992 18.3901 8.92634 18.3901 8.86003V7.83503C18.3901 7.76873 18.4164 7.70514 18.4633 7.65826C18.5102 7.61137 18.5737 7.58503 18.6401 7.58503H22.0001C22.0664 7.58503 22.1299 7.61137 22.1768 7.65826C22.2237 7.70514 22.2501 7.76873 22.2501 7.83503Z" fill="#C96852"/>
</svg>
