<svg width="25" height="24" viewBox="0 0 25 24" fill="none" xmlns="http://www.w3.org/2000/svg">
<path d="M20.79 6.81994L15.03 2.78994C13.46 1.68994 11.05 1.74994 9.53999 2.91994L4.52999 6.82994C3.52999 7.60994 2.73999 9.20994 2.73999 10.4699V17.3699C2.73999 19.9199 4.80999 21.9999 7.35999 21.9999H18.14C20.69 21.9999 22.76 19.9299 22.76 17.3799V10.5999C22.76 9.24994 21.89 7.58994 20.79 6.81994ZM13.5 17.9999C13.5 18.4099 13.16 18.7499 12.75 18.7499C12.34 18.7499 12 18.4099 12 17.9999V14.9999C12 14.5899 12.34 14.2499 12.75 14.2499C13.16 14.2499 13.5 14.5899 13.5 14.9999V17.9999Z" fill="#BBC0C3"/>
</svg>
