<svg width="25" height="24" viewBox="0 0 25 24" fill="none" xmlns="http://www.w3.org/2000/svg">
<path d="M12.75 1.25C12.1535 1.25079 11.5817 1.4881 11.1599 1.90989C10.7381 2.33167 10.5008 2.90351 10.5 3.5C10.4977 3.88141 10.5942 4.25693 10.78 4.59C10.9751 4.94148 11.2606 5.23438 11.607 5.43831C11.9534 5.64225 12.3481 5.74979 12.75 5.74979C13.152 5.74979 13.5467 5.64225 13.8931 5.43831C14.2395 5.23438 14.525 4.94148 14.72 4.59C14.9059 4.25693 15.0024 3.88141 15 3.5C14.9992 2.90351 14.7619 2.33167 14.3402 1.90989C13.9184 1.4881 13.3465 1.25079 12.75 1.25ZM12.75 4.25C12.5529 4.24868 12.3643 4.16926 12.2256 4.02915C12.0869 3.88904 12.0094 3.69967 12.01 3.50252C12.0107 3.30536 12.0895 3.11651 12.2291 2.97734C12.3688 2.83816 12.5579 2.76002 12.755 2.76002C12.9522 2.76002 13.1413 2.83816 13.281 2.97734C13.4206 3.11651 13.4994 3.30536 13.5 3.50252C13.5007 3.69967 13.4232 3.88904 13.2845 4.02915C13.1458 4.16926 12.9572 4.24868 12.76 4.25H12.75Z" fill="#BBC0C3"/>
<path d="M12.7501 22.7501C11.8884 22.749 11.0624 22.4063 10.4531 21.797C9.84386 21.1878 9.50111 20.3617 9.50005 19.5001C9.49821 19.4027 9.50491 19.3053 9.52005 19.2091C9.53405 19.1102 9.56764 19.0152 9.61886 18.9295C9.67008 18.8437 9.7379 18.7691 9.81834 18.71C9.89878 18.6508 9.99022 18.6083 10.0873 18.585C10.1844 18.5617 10.2851 18.5579 10.3837 18.574C10.4822 18.5902 10.5765 18.6258 10.6611 18.6788C10.7457 18.7319 10.8189 18.8013 10.8763 18.883C10.9337 18.9647 10.9742 19.057 10.9955 19.1545C11.0167 19.2521 11.0183 19.3529 11.0001 19.4511C10.9968 19.6809 11.0389 19.9091 11.1239 20.1227C11.2089 20.3362 11.3351 20.5309 11.4953 20.6957C11.8189 21.0285 12.2614 21.2191 12.7256 21.2256C13.1897 21.2321 13.6374 21.0539 13.9702 20.7304C14.3029 20.4068 14.4936 19.9642 14.5001 19.5001C14.4675 19.3009 14.514 19.0968 14.6296 18.9314C14.7452 18.7659 14.9208 18.6521 15.1191 18.6141C15.2147 18.5959 15.313 18.597 15.4083 18.6171C15.5036 18.6373 15.5939 18.6762 15.674 18.7315C15.7541 18.7869 15.8224 18.8576 15.8749 18.9396C15.9275 19.0216 15.9632 19.1132 15.9801 19.2091C15.9952 19.3053 16.0019 19.4027 16.0001 19.5001C15.999 20.3617 15.6562 21.1878 15.047 21.797C14.4377 22.4063 13.6117 22.749 12.7501 22.7501Z" fill="#BBC0C3"/>
<path d="M20.4621 17.0331L19.7051 16.0221L18.7051 9.54411C18.5229 8.21712 17.9122 6.98596 16.966 6.03792C16.0198 5.08988 14.7898 4.47686 13.4631 4.29211C11.919 4.10823 10.3637 4.53105 9.12526 5.47144C7.88677 6.41183 7.06175 7.79633 6.82411 9.33311L5.79511 16.0221L5.04011 17.0311C4.92311 17.1861 4.84407 17.3663 4.80934 17.5573C4.77461 17.7484 4.78515 17.9449 4.84011 18.1311C4.8925 18.3169 4.988 18.4878 5.11884 18.6297C5.24968 18.7717 5.41218 18.8808 5.59311 18.9481C7.88312 19.8016 10.3063 20.2424 12.7501 20.2501C15.1955 20.2433 17.6203 19.8032 19.9121 18.9501C20.0928 18.8826 20.2551 18.7734 20.3857 18.6315C20.5164 18.4895 20.6118 18.3188 20.6641 18.1331C20.7188 17.9467 20.729 17.7501 20.6939 17.5591C20.6589 17.368 20.5795 17.1879 20.4621 17.0331Z" fill="#BBC0C3"/>
<path d="M17.75 10.5C19.683 10.5 21.25 8.933 21.25 7C21.25 5.067 19.683 3.5 17.75 3.5C15.817 3.5 14.25 5.067 14.25 7C14.25 8.933 15.817 10.5 17.75 10.5Z" fill="#F09C1F"/>
</svg>
