<svg width="24" height="24" viewBox="0 0 24 24" fill="none" xmlns="http://www.w3.org/2000/svg">
<path d="M20.3816 13.3784C20.3801 12.5247 20.0524 11.7039 19.4655 11.0839C18.8785 10.464 18.0768 10.0918 17.2245 10.0437V4.17407H15.9907V2.4375H3.61865V20.6235H5.40016L5.40503 21.5625H15.3715L17.2245 19.5707V16.7132C18.0768 16.665 18.8785 16.2929 19.4655 15.6729C20.0524 15.053 20.3801 14.2321 20.3816 13.3784ZM5.73828 13.5033L5.36328 13.5055L5.39823 20.2485H3.99365V2.8125H15.6157V4.17407H5.36547V11.3408H5.74047V4.54907H16.8495V10.0437C15.9967 10.0904 15.1942 10.4622 14.607 11.0824C14.0198 11.7027 13.6926 12.5243 13.6926 13.3784C13.6926 14.2325 14.0198 15.0542 14.607 15.6744C15.1942 16.2947 15.9967 16.6664 16.8495 16.7132V19.3096H15.1023V21.1875H5.77783L5.73828 13.5033ZM16.6065 19.6846L15.4773 20.8982V19.6846L16.6065 19.6846ZM17.037 14.4225C16.8305 14.4225 16.6286 14.3613 16.4569 14.2465C16.2852 14.1318 16.1514 13.9688 16.0724 13.778C15.9934 13.5872 15.9727 13.3773 16.013 13.1747C16.0533 12.9722 16.1527 12.7862 16.2987 12.6402C16.4447 12.4942 16.6308 12.3947 16.8333 12.3544C17.0358 12.3141 17.2458 12.3348 17.4365 12.4138C17.6273 12.4929 17.7904 12.6267 17.9051 12.7984C18.0198 12.9701 18.0811 13.1719 18.0811 13.3784C18.0808 13.6552 17.9707 13.9206 17.7749 14.1164C17.5792 14.3121 17.3138 14.4222 17.037 14.4225ZM14.8379 13.3784C15.0917 12.9616 15.4825 12.646 15.9433 12.4856C15.7334 12.7358 15.6183 13.0519 15.6183 13.3784C15.6183 13.705 15.7334 14.0211 15.9433 14.2712C15.4825 14.1108 15.0917 13.7952 14.8379 13.3784ZM18.131 14.2712C18.341 14.0211 18.4561 13.705 18.4561 13.3784C18.4561 13.0519 18.341 12.7358 18.131 12.4857C18.5919 12.646 18.9826 12.9616 19.2365 13.3784C18.9826 13.7952 18.5919 14.1108 18.131 14.2712ZM17.037 12.7225C16.9073 12.7225 16.7805 12.761 16.6726 12.8331C16.5647 12.9051 16.4807 13.0076 16.431 13.1274C16.3814 13.2473 16.3684 13.3791 16.3937 13.5064C16.419 13.6336 16.4815 13.7505 16.5732 13.8422C16.6649 13.9339 16.7818 13.9964 16.909 14.0217C17.0363 14.047 17.1681 14.034 17.288 13.9844C17.4078 13.9347 17.5103 13.8507 17.5823 13.7428C17.6544 13.6349 17.6929 13.5081 17.6929 13.3784C17.6927 13.2045 17.6236 13.0377 17.5006 12.9148C17.3777 12.7918 17.2109 12.7227 17.037 12.7225ZM17.037 13.6593C16.9814 13.6593 16.9271 13.6428 16.8809 13.6119C16.8348 13.5811 16.7988 13.5372 16.7775 13.4859C16.7562 13.4346 16.7507 13.3781 16.7615 13.3236C16.7723 13.2691 16.7991 13.2191 16.8384 13.1798C16.8777 13.1405 16.9277 13.1138 16.9822 13.1029C17.0367 13.0921 17.0932 13.0977 17.1445 13.1189C17.1958 13.1402 17.2397 13.1762 17.2705 13.2224C17.3014 13.2686 17.3179 13.3229 17.3179 13.3784C17.3178 13.4529 17.2882 13.5243 17.2355 13.577C17.1829 13.6296 17.1115 13.6592 17.037 13.6593ZM5.36549 11.8663H5.74049V12.2391H5.36549V11.8663ZM5.36549 12.6493H5.74049V13.0224H5.36549V12.6493ZM12.79 18.8016H14.5138V17.0779H12.79V18.8016ZM13.165 17.4529H14.1388V18.4266H13.165V17.4529ZM10.4884 18.8016H12.2122V17.0779H10.4884V18.8016ZM10.8634 17.4529H11.8372V18.4266H10.8634V17.4529ZM8.18712 18.8016H9.91088V17.0779H8.18712V18.8016ZM8.56212 17.4529H9.53588V18.4266H8.56212V17.4529ZM11.3135 7.25062C11.4714 7.24633 11.6245 7.19558 11.7537 7.10473C11.8829 7.01388 11.9824 6.88695 12.0399 6.73983C12.0973 6.59271 12.1101 6.43191 12.0766 6.27756C12.0432 6.12321 11.965 5.98214 11.8518 5.87201C11.7385 5.76187 11.5954 5.68755 11.4402 5.65834C11.285 5.62914 11.1246 5.64634 10.9791 5.70779C10.8336 5.76925 10.7095 5.87224 10.6222 6.00387C10.5349 6.13551 10.4884 6.28995 10.4884 6.44789C10.4917 6.66366 10.5803 6.86934 10.735 7.01982C10.8897 7.1703 11.0977 7.2533 11.3135 7.25062ZM11.3135 6.01979C11.3972 6.02402 11.4778 6.0527 11.5454 6.10229C11.613 6.15188 11.6645 6.2202 11.6936 6.29879C11.7228 6.37738 11.7282 6.46279 11.7093 6.54444C11.6904 6.62609 11.6479 6.7004 11.5872 6.75816C11.5265 6.81592 11.4501 6.85461 11.3676 6.86942C11.2851 6.88424 11.2001 6.87453 11.1231 6.84151C11.046 6.80849 10.9804 6.7536 10.9342 6.68363C10.8881 6.61367 10.8635 6.53171 10.8634 6.44789C10.8665 6.33149 10.9156 6.22105 11 6.1408C11.0843 6.06054 11.1971 6.01704 11.3135 6.01979ZM13.1017 9.2007C13.0869 8.73113 12.89 8.28574 12.5526 7.95881C12.2152 7.63188 11.7639 7.44906 11.2941 7.44906C10.8243 7.44906 10.3729 7.63188 10.0355 7.95881C9.69816 8.28574 9.50125 8.73113 9.48647 9.2007V9.3882H13.1017V9.2007ZM9.87465 9.0132C9.93398 8.67988 10.1087 8.37808 10.3682 8.16067C10.6278 7.94326 10.9555 7.82411 11.2941 7.82411C11.6326 7.82411 11.9604 7.94326 12.2199 8.16067C12.4795 8.37808 12.6542 8.67988 12.7135 9.0132H9.87465ZM9.74868 12.0645V11.6895H12.0247V12.0645H9.74868ZM8.78628 12.0645H8.23694V11.6895H8.78626L8.78628 12.0645ZM12.0247 13.21H8.23694V12.835H12.0247L12.0247 13.21ZM12.0247 14.3551H8.23694V13.9801H12.0247L12.0247 14.3551Z" fill="#BB4227"/>
</svg>
