<svg width="36" height="36" viewBox="0 0 36 36" fill="none" xmlns="http://www.w3.org/2000/svg">
<path d="M36 27.5332H0V27.5512H36V27.5332Z" fill="#EBEBEB"/>
<path d="M32.3928 28.6914H30.0082V28.7094H32.3928V28.6914Z" fill="#EBEBEB"/>
<path d="M23.8478 28.8867H23.2222V28.9047H23.8478V28.8867Z" fill="#EBEBEB"/>
<path d="M29.9362 28.0234H28.5545V28.0414H29.9362V28.0234Z" fill="#EBEBEB"/>
<path d="M6.8868 28.1445H3.77712V28.1625H6.8868V28.1445Z" fill="#EBEBEB"/>
<path d="M7.98408 28.1445H7.52832V28.1625H7.98408V28.1445Z" fill="#EBEBEB"/>
<path d="M16.2108 28.4482H9.46584V28.4662H16.2108V28.4482Z" fill="#EBEBEB"/>
<path d="M17.064 24.3216H3.16152C3.05261 24.3214 2.94822 24.278 2.87128 24.2009C2.79434 24.1238 2.75112 24.0194 2.75112 23.9104V4.36748C2.75207 4.25919 2.7957 4.15566 2.87254 4.07935C2.94939 4.00305 3.05323 3.96015 3.16152 3.95996H17.064C17.173 3.95996 17.2776 4.00328 17.3547 4.08038C17.4318 4.15748 17.4751 4.26205 17.4751 4.37108V23.9104C17.4751 24.0195 17.4318 24.124 17.3547 24.2011C17.2776 24.2782 17.173 24.3216 17.064 24.3216ZM3.16152 3.97436C3.05738 3.97455 2.95758 4.01605 2.88401 4.08976C2.81044 4.16346 2.76912 4.26334 2.76912 4.36748V23.9104C2.76912 24.0146 2.81044 24.1145 2.88401 24.1882C2.95758 24.2619 3.05738 24.3034 3.16152 24.3036H17.064C17.1682 24.3034 17.2681 24.2619 17.3418 24.1882C17.4155 24.1145 17.4569 24.0146 17.4571 23.9104V4.36748C17.4569 4.26328 17.4155 4.1634 17.3418 4.08971C17.2681 4.01603 17.1682 3.97455 17.064 3.97436H3.16152Z" fill="#EBEBEB"/>
<path d="M32.6383 24.3216H18.7351C18.6261 24.3214 18.5217 24.278 18.4446 24.2009C18.3676 24.1239 18.3242 24.0194 18.324 23.9104V4.36748C18.3251 4.25913 18.3689 4.15559 18.4459 4.07931C18.5228 4.00302 18.6268 3.96014 18.7351 3.95996H32.6383C32.7465 3.96034 32.8501 4.00332 32.9268 4.07961C33.0035 4.15589 33.0471 4.25932 33.048 4.36748V23.9104C33.048 24.0192 33.0049 24.1236 32.9281 24.2006C32.8513 24.2777 32.7471 24.3212 32.6383 24.3216ZM18.7351 3.97436C18.6309 3.97455 18.531 4.01603 18.4574 4.08971C18.3837 4.1634 18.3422 4.26328 18.342 4.36748V23.9104C18.3422 24.0146 18.3837 24.1145 18.4574 24.1882C18.531 24.2619 18.6309 24.3034 18.7351 24.3036H32.6383C32.7425 24.3034 32.8424 24.2619 32.9161 24.1882C32.9898 24.1145 33.0312 24.0146 33.0314 23.9104V4.36748C33.0312 4.26328 32.9898 4.1634 32.9161 4.08971C32.8424 4.01603 32.7425 3.97455 32.6383 3.97436H18.7351Z" fill="#EBEBEB"/>
<path d="M27.864 6.86328H19.5473V21.7831H27.864V6.86328Z" fill="#FAFAFA"/>
<path d="M24.9437 21.4242H23.0414L24.8191 7.22363H26.7214L24.9437 21.4242Z" fill="white"/>
<path d="M21.2638 21.4242H20.6035L22.3812 7.22363H23.0414L21.2638 21.4242Z" fill="white"/>
<path d="M27.864 21.7842H28.008L28.008 6.86434H27.864L27.864 21.7842Z" fill="#EBEBEB"/>
<path d="M29.9196 0H29.5877V8.5896H29.9196V0Z" fill="#F0F0F0"/>
<path d="M29.7533 8.42383C29.4784 8.42397 29.2098 8.50561 28.9814 8.65842C28.7529 8.81123 28.5749 9.02835 28.4699 9.28232C28.3649 9.53629 28.3375 9.8157 28.3912 10.0852C28.445 10.3548 28.5775 10.6023 28.7719 10.7965C28.9664 10.9908 29.214 11.123 29.4836 11.1765C29.7532 11.2299 30.0326 11.2023 30.2864 11.097C30.5403 10.9917 30.7572 10.8134 30.9098 10.5849C31.0624 10.3563 31.1437 10.0875 31.1436 9.81271C31.1436 9.6302 31.1076 9.44948 31.0377 9.28087C30.9679 9.11227 30.8654 8.9591 30.7363 8.83011C30.6072 8.70112 30.4539 8.59885 30.2852 8.52914C30.1166 8.45942 29.9358 8.42364 29.7533 8.42383ZM29.7533 10.8718C29.5444 10.8718 29.3402 10.8099 29.1665 10.6938C28.9928 10.5778 28.8574 10.4128 28.7774 10.2198C28.6975 10.0268 28.6766 9.81442 28.7173 9.60953C28.7581 9.40464 28.8587 9.21643 29.0064 9.06871C29.1541 8.921 29.3423 8.8204 29.5472 8.77964C29.7521 8.73889 29.9645 8.75981 30.1575 8.83975C30.3505 8.91969 30.5155 9.05508 30.6315 9.22877C30.7476 9.40247 30.8095 9.60668 30.8095 9.81559C30.8084 10.0949 30.6966 10.3624 30.4986 10.5594C30.3006 10.7565 30.0326 10.867 29.7533 10.8668V10.8718Z" fill="#E0E0E0"/>
<path d="M25.1438 0H24.8119V8.5896H25.1438V0Z" fill="#F0F0F0"/>
<path d="M24.9782 8.42383C24.7034 8.42383 24.4347 8.50535 24.2061 8.65807C23.9776 8.81079 23.7995 9.02786 23.6943 9.28182C23.5892 9.53578 23.5617 9.81522 23.6154 10.0848C23.6691 10.3544 23.8015 10.602 23.9959 10.7963C24.1903 10.9906 24.438 11.1229 24.7076 11.1764C24.9772 11.23 25.2566 11.2023 25.5105 11.097C25.7644 10.9918 25.9814 10.8135 26.134 10.5849C26.2866 10.3563 26.368 10.0876 26.3678 9.81271C26.3678 9.63026 26.3319 9.44959 26.262 9.28104C26.1922 9.11249 26.0898 8.95935 25.9608 8.83037C25.8317 8.70139 25.6786 8.5991 25.51 8.52934C25.3414 8.45959 25.1607 8.42373 24.9782 8.42383ZM24.9782 10.8718C24.7693 10.8718 24.5651 10.8099 24.3914 10.6938C24.2177 10.5778 24.0823 10.4128 24.0024 10.2198C23.9225 10.0268 23.9015 9.81442 23.9423 9.60953C23.9831 9.40464 24.0836 9.21643 24.2314 9.06871C24.3791 8.921 24.5673 8.8204 24.7722 8.77964C24.9771 8.73889 25.1894 8.75981 25.3824 8.83975C25.5754 8.91969 25.7404 9.05507 25.8565 9.22877C25.9725 9.40247 26.0345 9.60668 26.0345 9.81559C26.0331 10.0948 25.9213 10.3622 25.7233 10.5592C25.5254 10.7562 25.2575 10.8668 24.9782 10.8668V10.8718Z" fill="#E0E0E0"/>
<path d="M4.90032 5.85547V27.5325H4.22784V6.52795C4.22775 6.43961 4.24507 6.35212 4.27884 6.27049C4.3126 6.18886 4.36213 6.11469 4.42459 6.05222C4.48706 5.98976 4.56123 5.94023 4.64286 5.90647C4.72449 5.8727 4.81198 5.85537 4.90032 5.85547Z" fill="#F5F5F5"/>
<path d="M4.8996 27.5332H5.2596L5.2596 5.85616H4.8996L4.8996 27.5332Z" fill="#E6E6E6"/>
<path d="M15.3 7.22328H5.17176C5.12402 7.22328 5.07824 7.20432 5.04448 7.17056C5.01072 7.1368 4.99176 7.09102 4.99176 7.04328C4.99176 6.99554 5.01072 6.94976 5.04448 6.916C5.07824 6.88225 5.12402 6.86328 5.17176 6.86328H15.3V7.22328Z" fill="#F0F0F0"/>
<path d="M15.3 9.26527H5.17176C5.12402 9.26527 5.07824 9.24631 5.04448 9.21255C5.01072 9.1788 4.99176 9.13301 4.99176 9.08527C4.99176 9.03753 5.01072 8.99175 5.04448 8.95799C5.07824 8.92424 5.12402 8.90527 5.17176 8.90527H15.3V9.26527Z" fill="#F0F0F0"/>
<path d="M15.3 11.3043H5.17176C5.12402 11.3043 5.07824 11.2854 5.04448 11.2516C5.01072 11.2179 4.99176 11.1721 4.99176 11.1243C4.99176 11.0766 5.01072 11.0308 5.04448 10.9971C5.07824 10.9633 5.12402 10.9443 5.17176 10.9443H15.3V11.3043Z" fill="#F0F0F0"/>
<path d="M15.3 13.3463H5.17176C5.12402 13.3463 5.07824 13.3274 5.04448 13.2936C5.01072 13.2599 4.99176 13.2141 4.99176 13.1663C4.99176 13.1186 5.01072 13.0728 5.04448 13.039C5.07824 13.0053 5.12402 12.9863 5.17176 12.9863H15.3V13.3463Z" fill="#F0F0F0"/>
<path d="M15.3 15.3883H5.17176C5.12402 15.3883 5.07824 15.3694 5.04448 15.3356C5.01072 15.3018 4.99176 15.2561 4.99176 15.2083C4.99176 15.1606 5.01072 15.1148 5.04448 15.081C5.07824 15.0473 5.12402 15.0283 5.17176 15.0283H15.3V15.3883Z" fill="#F0F0F0"/>
<path d="M15.3 17.4293H5.17176C5.12402 17.4293 5.07824 17.4104 5.04448 17.3766C5.01072 17.3429 4.99176 17.2971 4.99176 17.2493C4.99166 17.2257 4.99626 17.2022 5.00527 17.1803C5.01428 17.1585 5.02753 17.1386 5.04427 17.1218C5.061 17.1051 5.08088 17.0919 5.10276 17.0828C5.12465 17.0738 5.1481 17.0692 5.17176 17.0693H15.3V17.4293Z" fill="#F0F0F0"/>
<path d="M15.3 19.4694H5.17176C5.12402 19.4694 5.07824 19.4504 5.04448 19.4167C5.01072 19.3829 4.99176 19.3371 4.99176 19.2894C4.99176 19.2416 5.01072 19.1959 5.04448 19.1621C5.07824 19.1283 5.12402 19.1094 5.17176 19.1094H15.3V19.4694Z" fill="#F0F0F0"/>
<path d="M15.3 21.5104H5.17176C5.12402 21.5104 5.07824 21.4914 5.04448 21.4577C5.01072 21.4239 4.99176 21.3781 4.99176 21.3304C4.99176 21.2827 5.01072 21.2369 5.04448 21.2031C5.07824 21.1694 5.12402 21.1504 5.17176 21.1504H15.3V21.5104Z" fill="#F0F0F0"/>
<path d="M15.3 23.5514H5.17176C5.1481 23.5515 5.12465 23.5469 5.10276 23.5379C5.08088 23.5289 5.061 23.5156 5.04427 23.4989C5.02753 23.4822 5.01428 23.4623 5.00527 23.4404C4.99626 23.4185 4.99166 23.3951 4.99176 23.3714C4.99176 23.3237 5.01072 23.2779 5.04448 23.2441C5.07824 23.2104 5.12402 23.1914 5.17176 23.1914H15.3V23.5514Z" fill="#F0F0F0"/>
<path d="M15.3 25.5924H5.17176C5.12402 25.5924 5.07824 25.5735 5.04448 25.5397C5.01072 25.5059 4.99176 25.4602 4.99176 25.4124C4.99176 25.3647 5.01072 25.3189 5.04448 25.2851C5.07824 25.2514 5.12402 25.2324 5.17176 25.2324H15.3V25.5924Z" fill="#F0F0F0"/>
<path d="M15.6362 5.85547C15.4579 5.85547 15.2868 5.92632 15.1607 6.05243C15.0346 6.17855 14.9638 6.3496 14.9638 6.52795V27.5325H15.6362V5.85547Z" fill="#F5F5F5"/>
<path d="M15.6355 27.5332H15.9955L15.9955 5.85616H15.6355L15.6355 27.5332Z" fill="#E6E6E6"/>
<path d="M20.2205 23.332C19.6222 23.332 19.1405 24.124 19.1405 25.1061C19.1405 26.0882 19.6258 26.8802 20.2205 26.8802H20.6309V23.332H20.2205Z" fill="#E0E0E0"/>
<path d="M20.6309 26.8802C21.2293 26.8802 21.7145 26.0859 21.7145 25.1061C21.7145 24.1263 21.2293 23.332 20.6309 23.332C20.0324 23.332 19.5473 24.1263 19.5473 25.1061C19.5473 26.0859 20.0324 26.8802 20.6309 26.8802Z" fill="#E0E0E0"/>
<path d="M20.8865 22.6797C20.0678 22.6797 19.404 23.7662 19.404 25.1061C19.404 26.446 20.0678 27.5325 20.8865 27.5325H21.4474V22.6797H20.8865Z" fill="#E6E6E6"/>
<path d="M21.4474 27.5325C22.2657 27.5325 22.9291 26.4462 22.9291 25.1061C22.9291 23.766 22.2657 22.6797 21.4474 22.6797C20.629 22.6797 19.9656 23.766 19.9656 25.1061C19.9656 26.4462 20.629 27.5325 21.4474 27.5325Z" fill="#F0F0F0"/>
<path d="M30.631 25.3035H21.6446C21.6187 25.3036 21.593 25.2985 21.569 25.2887C21.5451 25.2788 21.5233 25.2642 21.5049 25.2459C21.4866 25.2276 21.4721 25.2058 21.4622 25.1818C21.4523 25.1578 21.4473 25.1321 21.4474 25.1062C21.4473 25.0802 21.4523 25.0545 21.4622 25.0305C21.472 25.0065 21.4866 24.9846 21.5049 24.9662C21.5232 24.9478 21.545 24.9332 21.569 24.9233C21.593 24.9133 21.6187 24.9082 21.6446 24.9082H30.631V25.3035Z" fill="#E6E6E6"/>
<path d="M30.1572 22.6797C29.3393 22.6797 28.6754 23.7662 28.6754 25.1061C28.6754 26.446 29.3393 27.5325 30.1572 27.5325H30.7181V22.6797H30.1572Z" fill="#E0E0E0"/>
<path d="M30.7181 27.5325C31.5364 27.5325 32.1998 26.4462 32.1998 25.1061C32.1998 23.766 31.5364 22.6797 30.7181 22.6797C29.8997 22.6797 29.2363 23.766 29.2363 25.1061C29.2363 26.4462 29.8997 27.5325 30.7181 27.5325Z" fill="#F0F0F0"/>
<path d="M30.744 23.332C30.1457 23.332 29.6604 24.124 29.6604 25.1061C29.6604 26.0882 30.1457 26.8802 30.744 26.8802H31.1537V23.332H30.744Z" fill="#E0E0E0"/>
<path d="M31.153 26.8802C31.7514 26.8802 32.2366 26.0859 32.2366 25.1061C32.2366 24.1263 31.7514 23.332 31.153 23.332C30.5545 23.332 30.0694 24.1263 30.0694 25.1061C30.0694 26.0859 30.5545 26.8802 31.153 26.8802Z" fill="#F0F0F0"/>
<path d="M18 30.7844C25.7099 30.7844 31.9601 30.4195 31.9601 29.9693C31.9601 29.5192 25.7099 29.1543 18 29.1543C10.2901 29.1543 4.03992 29.5192 4.03992 29.9693C4.03992 30.4195 10.2901 30.7844 18 30.7844Z" fill="#F5F5F5"/>
<path d="M11.88 14.8526C12.0966 14.8708 12.308 14.9289 12.5035 15.0239L13.0946 15.2731C13.2912 15.3544 13.487 15.4351 13.6822 15.5099C13.8703 15.5838 14.0626 15.6465 14.2582 15.6979C14.3035 15.7087 14.3482 15.7187 14.3906 15.7267L14.5282 15.7468L14.6772 15.7605L14.8313 15.7677C15.0401 15.7756 15.2554 15.7742 15.4706 15.7677C15.6859 15.7612 15.9026 15.7526 16.1186 15.7396C16.3346 15.7267 16.555 15.7151 16.7702 15.6979C16.8236 15.6963 16.8758 15.7142 16.917 15.7481C16.9582 15.7821 16.9858 15.8298 16.9946 15.8825C17.0034 15.9351 16.9928 15.9892 16.9648 16.0347C16.9368 16.0802 16.8932 16.114 16.8422 16.1299C16.4102 16.2393 15.9782 16.3322 15.5326 16.4099C15.3108 16.4488 15.0876 16.4819 14.8572 16.51L14.683 16.5273L14.5022 16.5381C14.4389 16.5381 14.3762 16.5381 14.3114 16.5381C14.2466 16.5381 14.1797 16.5302 14.1163 16.5237C13.8792 16.4953 13.6438 16.4535 13.4114 16.3984C13.1861 16.3473 12.9658 16.2854 12.749 16.2184C12.5323 16.1515 12.317 16.0744 12.1097 15.9974C11.8909 15.9267 11.6891 15.8115 11.5171 15.659C11.4471 15.5934 11.3988 15.508 11.3788 15.4142C11.3587 15.3204 11.3679 15.2227 11.4049 15.1342C11.442 15.0457 11.5052 14.9707 11.5862 14.9192C11.6671 14.8677 11.7618 14.8422 11.8577 14.8461L11.88 14.8526Z" fill="#FFC3BD"/>
<path d="M16.5182 15.7679L16.9438 15.6239C17.0321 15.5938 17.126 15.5835 17.2188 15.5937L17.4478 15.6181C17.4748 15.621 17.501 15.6292 17.5249 15.6423C17.5487 15.6554 17.5697 15.6732 17.5866 15.6945C17.6035 15.7158 17.616 15.7403 17.6233 15.7665C17.6306 15.7927 17.6326 15.8201 17.6292 15.8471L17.5975 16.0969C17.5913 16.145 17.5681 16.1894 17.5323 16.2221C17.4964 16.2548 17.4502 16.2737 17.4017 16.2755L17.1065 16.2856C17.1065 16.2856 16.5787 16.3943 16.4758 16.1236L16.5182 15.7679Z" fill="#FFC3BD"/>
<path d="M9.84384 14.5774C10.3658 14.4067 10.9958 14.4845 10.9958 14.4845L12.1327 14.7955C12.2514 14.8308 12.3555 14.9033 12.4297 15.0024C12.5038 15.1015 12.5441 15.2218 12.5446 15.3456C12.569 16.7554 12.2882 17.4523 12.1054 20.0544C12.006 20.0443 9.06696 19.7938 9.06696 19.7938C9.342 18.3458 9.054 17.2702 9.0612 15.7502C9.06552 14.928 9.45072 14.7055 9.84384 14.5774Z" fill="#263238"/>
<path opacity="0.7" d="M10.219 16.4771C10.5293 16.3422 10.6262 15.8772 10.4355 15.4385C10.2447 14.9998 9.83854 14.7536 9.52821 14.8885C9.21788 15.0234 9.12094 15.4884 9.31169 15.9271C9.50244 16.3658 9.90864 16.6121 10.219 16.4771Z" fill="#FFC3BD"/>
<path d="M9.87264 14.8549C10.082 14.9205 10.2773 15.0245 10.4486 15.1616L10.9793 15.5367C11.1564 15.6613 11.3328 15.7829 11.5092 15.8967C11.6783 16.0093 11.854 16.1115 12.0355 16.2027C12.2185 16.2843 12.4081 16.3503 12.6022 16.4C12.8088 16.4569 13.0226 16.5073 13.2365 16.5562C13.4503 16.6052 13.6685 16.6498 13.8845 16.6923C14.1005 16.7348 14.3165 16.7801 14.5361 16.8197C14.5908 16.8297 14.6397 16.8598 14.6731 16.9042C14.7066 16.9486 14.7221 17.004 14.7165 17.0592C14.711 17.1145 14.6848 17.1657 14.6432 17.2026C14.6017 17.2395 14.5477 17.2593 14.4922 17.2582C14.04 17.2503 13.5922 17.2294 13.14 17.1941C12.9132 17.1761 12.6871 17.1567 12.4567 17.1279C12.3415 17.1128 12.2256 17.0969 12.1061 17.0753C12.0478 17.0667 11.9837 17.0501 11.9225 17.0379C11.8613 17.0257 11.7922 17.0041 11.7324 16.9846C11.5016 16.907 11.2758 16.8151 11.0563 16.7096C10.8439 16.6102 10.6387 16.5022 10.4386 16.3885C10.2384 16.2747 10.044 16.1545 9.85248 16.0285C9.65134 15.9111 9.47657 15.7535 9.33912 15.5655C9.28506 15.4864 9.25646 15.3926 9.25716 15.2968C9.25786 15.201 9.28783 15.1077 9.34304 15.0293C9.39826 14.951 9.47609 14.8914 9.56611 14.8586C9.65613 14.8257 9.75403 14.8212 9.84672 14.8455L9.87264 14.8549Z" fill="#FFC3BD"/>
<path d="M14.2776 16.8059L14.6959 16.6439C14.7829 16.61 14.8763 16.5952 14.9695 16.6007L15.1992 16.6144C15.2264 16.616 15.253 16.6231 15.2774 16.6352C15.3019 16.6472 15.3236 16.664 15.3415 16.6846C15.3593 16.7052 15.3729 16.7292 15.3813 16.7551C15.3898 16.781 15.393 16.8083 15.3907 16.8354L15.3706 17.086C15.3665 17.1343 15.3454 17.1796 15.3112 17.2138C15.2769 17.2481 15.2316 17.2691 15.1834 17.2732L14.8889 17.2977C14.8889 17.2977 14.3669 17.4302 14.2517 17.1645L14.2776 16.8059Z" fill="#FFC3BD"/>
<path d="M10.368 12.8879C9.95544 12.916 10.1102 13.7159 10.5178 13.8239C10.9253 13.9319 10.9318 12.8461 10.368 12.8879Z" fill="#263238"/>
<path d="M12.1363 12.024C11.7763 11.7029 11.237 12.4798 11.4811 12.9046C11.7252 13.3294 12.6281 12.4632 12.1363 12.024Z" fill="#263238"/>
<path d="M10.4494 13.0869C10.4357 13.506 10.3932 14.0524 10.2262 14.5377C10.265 14.8214 10.7791 14.9697 11.3393 15.167C11.659 14.9856 11.7389 14.8394 11.6172 14.6522C11.1485 14.524 11.3098 14.0704 11.4149 13.7428L10.4494 13.0869Z" fill="#FFC3BD"/>
<path opacity="0.2" d="M11.376 13.7147L11.4185 13.7427C11.3688 13.8781 11.3324 14.018 11.3098 14.1603C11.0938 14.1402 10.8778 14.0545 10.7726 13.9062C10.698 13.8076 10.6423 13.6961 10.6085 13.5771L11.376 13.7147Z" fill="black"/>
<path d="M10.3522 12.5673C10.3831 13.1433 10.3723 13.4846 10.6625 13.7805C11.0988 14.2255 11.8145 13.9598 11.9585 13.3831C12.0859 12.864 12.0132 12.0072 11.4487 11.7782C11.3237 11.727 11.1877 11.7084 11.0535 11.7242C10.9193 11.7401 10.7913 11.7898 10.6816 11.8687C10.5719 11.9476 10.4842 12.0532 10.4265 12.1754C10.3689 12.2976 10.3433 12.4325 10.3522 12.5673Z" fill="#FFC3BD"/>
<path d="M10.224 13.0559C10.224 13.0559 10.8353 13.3028 10.7028 12.9767C10.7028 12.9767 10.9908 12.5814 10.7388 12.3243C11.1074 12.4158 11.4948 12.2444 11.5034 12.1364C11.6914 12.3769 12.1378 12.3524 12.1154 12.0443C12.2436 11.937 12.3869 11.6015 12.0298 11.4301C11.7864 11.3135 11.4991 11.5079 11.4991 11.5079C11.4991 11.5079 11.1672 11.1083 10.7309 11.2199C10.2946 11.3315 10.2874 11.6598 10.2874 11.6598C10.2874 11.6598 9.78336 11.6159 9.64728 11.9442C9.5112 12.2725 9.79128 12.5094 9.79128 12.5094C9.79128 12.5094 9.6084 13.0839 10.224 13.0559Z" fill="#263238"/>
<path d="M10.0742 13.1341C10.1079 13.1975 10.1538 13.2537 10.2093 13.2993C10.2648 13.3449 10.3288 13.379 10.3975 13.3998C10.5826 13.4545 10.679 13.2896 10.6315 13.1118C10.5883 12.9534 10.44 12.7345 10.2528 12.7575C10.2117 12.7628 10.1725 12.7784 10.1389 12.8028C10.1054 12.8272 10.0785 12.8596 10.0607 12.8971C10.0429 12.9345 10.0348 12.9759 10.0372 13.0173C10.0396 13.0587 10.0523 13.0989 10.0742 13.1341Z" fill="#FFC3BD"/>
<path d="M11.2997 12.6934C11.2997 12.7402 11.3242 12.7783 11.3551 12.7783C11.3861 12.7783 11.4113 12.7402 11.4113 12.6934C11.4113 12.6466 11.3868 12.6084 11.3566 12.6084C11.3263 12.6084 11.304 12.6466 11.2997 12.6934Z" fill="#263238"/>
<path d="M11.4149 13.3525C11.4149 13.3993 11.4394 13.4375 11.4703 13.4375C11.5013 13.4375 11.5265 13.3993 11.5265 13.3525C11.5265 13.3057 11.502 13.2676 11.4718 13.2676C11.4415 13.2676 11.4156 13.3057 11.4149 13.3525Z" fill="#263238"/>
<path d="M11.8454 12.7322C11.8454 12.779 11.8699 12.8171 11.9002 12.8171C11.9304 12.8171 11.9563 12.779 11.9563 12.7314C11.9563 12.6839 11.9326 12.6465 11.9016 12.6465C11.8706 12.6465 11.8454 12.6846 11.8454 12.7322Z" fill="#263238"/>
<path d="M11.6791 12.751C11.7343 12.8944 11.8089 13.0296 11.9009 13.1527C11.8686 13.1757 11.8318 13.1915 11.7929 13.1988C11.754 13.2061 11.7139 13.2049 11.6755 13.1952L11.6791 12.751Z" fill="#ED847E"/>
<path d="M11.1463 12.5084C11.1419 12.5071 11.1379 12.5046 11.1348 12.5012C11.1322 12.4986 11.1302 12.4956 11.1288 12.4923C11.1274 12.4889 11.1267 12.4853 11.1267 12.4817C11.1267 12.4781 11.1274 12.4745 11.1288 12.4712C11.1302 12.4679 11.1322 12.4648 11.1348 12.4623C11.1659 12.4311 11.204 12.4078 11.246 12.3942C11.2879 12.3807 11.3325 12.3774 11.376 12.3845C11.3795 12.3852 11.3829 12.3866 11.3859 12.3886C11.3889 12.3906 11.3914 12.3932 11.3934 12.3963C11.3953 12.3993 11.3966 12.4027 11.3972 12.4062C11.3978 12.4098 11.3977 12.4134 11.3969 12.4169C11.3962 12.4205 11.3948 12.4239 11.3928 12.4269C11.3908 12.4299 11.3882 12.4325 11.3852 12.4345C11.3822 12.4365 11.3788 12.4379 11.3752 12.4386C11.3717 12.4393 11.368 12.4393 11.3645 12.4385C11.3299 12.4339 11.2948 12.4375 11.2619 12.449C11.229 12.4605 11.1993 12.4796 11.1751 12.5048C11.1712 12.5081 11.1664 12.5102 11.1613 12.5108C11.1561 12.5115 11.151 12.5106 11.1463 12.5084Z" fill="#263238"/>
<path d="M12.0362 12.5574C12.0317 12.5579 12.0271 12.5571 12.0229 12.5552C12.0187 12.5533 12.0151 12.5503 12.0125 12.5466C11.9922 12.5185 11.9656 12.4956 11.9349 12.4797C11.9041 12.4638 11.87 12.4554 11.8354 12.4552C11.8318 12.4554 11.8282 12.455 11.8248 12.4539C11.8214 12.4528 11.8183 12.451 11.8156 12.4486C11.8129 12.4463 11.8108 12.4434 11.8092 12.4402C11.8076 12.437 11.8067 12.4335 11.8066 12.4299C11.8063 12.4263 11.8067 12.4226 11.8079 12.4191C11.809 12.4157 11.8109 12.4125 11.8133 12.4097C11.8157 12.407 11.8186 12.4047 11.8219 12.4031C11.8252 12.4015 11.8288 12.4006 11.8325 12.4004C11.8762 12.3997 11.9194 12.4096 11.9584 12.4293C11.9974 12.449 12.0311 12.4779 12.0564 12.5135C12.0586 12.5164 12.0603 12.5197 12.0612 12.5233C12.0621 12.5268 12.0623 12.5305 12.0618 12.5341C12.0612 12.5378 12.06 12.5412 12.058 12.5444C12.0561 12.5475 12.0536 12.5502 12.0506 12.5523C12.0464 12.5554 12.0414 12.5571 12.0362 12.5574Z" fill="#263238"/>
<path d="M12.1414 19.8146L9.072 19.5626C9.06298 19.562 9.05407 19.5648 9.0471 19.5706C9.04014 19.5764 9.03565 19.5846 9.03456 19.5935L9.01368 19.7944C9.01318 19.799 9.01359 19.8036 9.01488 19.8079C9.01617 19.8123 9.01832 19.8164 9.0212 19.82C9.02408 19.8235 9.02763 19.8265 9.03165 19.8286C9.03568 19.8308 9.04009 19.8321 9.04464 19.8326L12.096 20.1335C12.1047 20.1344 12.1135 20.1319 12.1204 20.1265C12.1274 20.1212 12.132 20.1134 12.1334 20.1047L12.1752 19.8556C12.176 19.8506 12.1758 19.8456 12.1745 19.8407C12.1732 19.8358 12.1708 19.8313 12.1676 19.8274C12.1644 19.8235 12.1604 19.8204 12.1559 19.8181C12.1513 19.8159 12.1464 19.8147 12.1414 19.8146Z" fill="#F09C1F"/>
<path d="M14.1703 23.2259C12.289 22.8148 11.0102 22.2676 11.0102 22.2676L12.0103 20.2041C12.0103 20.2041 16.2122 21.5843 15.7788 22.9048C14.9479 25.4392 14.2438 29.3654 14.2438 29.3654H13.5713C13.8384 26.4242 13.3049 24.4802 14.1703 23.2259Z" fill="#FFC3BD"/>
<path d="M14.2452 29.2949L13.5252 29.305C13.5139 29.305 13.503 29.3091 13.4946 29.3167C13.4862 29.3243 13.4809 29.3348 13.4798 29.346L13.4244 29.8659C13.4234 29.879 13.4251 29.8922 13.4295 29.9046C13.4339 29.9171 13.4408 29.9284 13.4498 29.9381C13.4588 29.9477 13.4697 29.9553 13.4818 29.9605C13.4939 29.9657 13.507 29.9683 13.5202 29.9681C13.7491 29.9609 14.1682 29.9422 14.4562 29.9379C14.7931 29.9321 14.7607 29.9465 15.156 29.9379C15.395 29.9343 15.4332 29.6909 15.331 29.6708C14.8637 29.5779 14.8169 29.5728 14.395 29.336C14.3495 29.3093 14.2979 29.2952 14.2452 29.2949Z" fill="#263238"/>
<path d="M14.351 29.3463C14.3486 29.3456 14.3464 29.3442 14.3447 29.3423C14.3431 29.3404 14.342 29.338 14.3417 29.3355C14.3413 29.3326 14.3418 29.3297 14.3431 29.3272C14.3444 29.3246 14.3464 29.3225 14.3489 29.3211C14.3748 29.3074 14.6074 29.185 14.6786 29.2232C14.6855 29.2265 14.6913 29.2316 14.6954 29.2379C14.6996 29.2442 14.702 29.2516 14.7024 29.2592C14.704 29.2716 14.7026 29.2843 14.6982 29.2961C14.6938 29.3079 14.6866 29.3185 14.6772 29.3268C14.6146 29.3844 14.4468 29.3643 14.3525 29.347L14.351 29.3463ZM14.6606 29.2455C14.6167 29.2304 14.49 29.2815 14.3986 29.3268C14.5274 29.3463 14.6232 29.3391 14.6592 29.3067C14.6652 29.301 14.6698 29.294 14.6725 29.2863C14.6753 29.2785 14.6761 29.2702 14.675 29.262C14.675 29.259 14.6741 29.256 14.6725 29.2535C14.6708 29.2509 14.6685 29.2489 14.6657 29.2476C14.665 29.2469 14.6643 29.2464 14.6634 29.246C14.6625 29.2456 14.6616 29.2454 14.6606 29.2455Z" fill="#F09C1F"/>
<path d="M14.351 29.3469C14.349 29.3457 14.3473 29.3439 14.3463 29.3417C14.3453 29.3395 14.3449 29.3371 14.3453 29.3347C14.3453 29.3275 14.359 29.1705 14.4317 29.1086C14.442 29.0994 14.4541 29.0924 14.4672 29.0881C14.4803 29.0838 14.4942 29.0822 14.508 29.0834C14.5462 29.0834 14.5577 29.1057 14.5598 29.1216C14.5721 29.1871 14.4346 29.3153 14.3647 29.3484C14.3626 29.3495 14.3601 29.35 14.3577 29.3498C14.3552 29.3495 14.3529 29.3485 14.351 29.3469ZM14.5166 29.1122H14.5022C14.4921 29.1112 14.4818 29.1123 14.4721 29.1155C14.4625 29.1188 14.4536 29.124 14.4461 29.1309C14.4044 29.1825 14.3793 29.2455 14.3741 29.3117C14.4461 29.2677 14.5382 29.1677 14.5318 29.1273C14.5289 29.1223 14.5282 29.1158 14.5166 29.1122Z" fill="#F09C1F"/>
<path d="M12.1262 20.0117C12.1262 20.0117 13.3596 20.5488 14.0494 20.9182C14.0733 20.9304 14.0914 20.9515 14.0999 20.977C14.1084 21.0024 14.1065 21.0302 14.0947 21.0543C13.7848 21.7046 13.5955 22.4057 13.536 23.1236C13.5346 23.1387 13.53 23.1533 13.5226 23.1666C13.5152 23.1798 13.5051 23.1914 13.493 23.2005C13.4808 23.2097 13.4669 23.2162 13.4522 23.2197C13.4374 23.2232 13.422 23.2235 13.4071 23.2208C12.721 23.1048 9.42408 22.4108 9.76536 19.8281C10.499 19.8627 12.1262 20.0117 12.1262 20.0117Z" fill="#F09C1F"/>
<path d="M10.8274 19.901C10.8274 19.901 9.81936 19.757 9.08712 19.7217C8.03088 23.0236 10.5746 23.1525 11.1658 23.2137C11.197 23.2173 11.2287 23.2131 11.2579 23.2015C11.2872 23.19 11.3131 23.1714 11.3335 23.1474C11.7526 22.6341 12.0794 21.9278 11.9491 21.0494C11.9448 21.0231 11.9347 20.9982 11.9195 20.9764C11.9043 20.9546 11.8844 20.9365 11.8613 20.9234C11.237 20.5461 10.8274 19.901 10.8274 19.901Z" fill="#F09C1F"/>
<path d="M11.304 20.9668C10.7006 21.0561 10.3075 22.743 10.6697 22.9792C11.0095 23.1232 11.3774 23.2226 11.6057 23.2262C10.7417 24.4797 11.2738 26.4251 11.0059 29.3656H11.6784C11.6784 29.3656 12.3826 25.4394 13.2134 22.905C13.4417 22.2038 12.3653 21.4859 11.304 20.9668Z" fill="#FFC3BD"/>
<path d="M11.6777 29.2949L10.9577 29.305C10.9464 29.3051 10.9356 29.3093 10.9272 29.3169C10.9188 29.3245 10.9136 29.3348 10.9123 29.346L10.8569 29.8659C10.8559 29.879 10.8576 29.8922 10.862 29.9046C10.8664 29.9171 10.8733 29.9284 10.8823 29.9381C10.8913 29.9477 10.9022 29.9553 10.9143 29.9605C10.9264 29.9657 10.9395 29.9683 10.9526 29.9681C11.1816 29.9609 11.6006 29.9422 11.8886 29.9379C12.2256 29.9321 12.1932 29.9465 12.5885 29.9379C12.8275 29.9343 12.8657 29.6909 12.7634 29.6708C12.2962 29.5779 12.2494 29.5728 11.8274 29.336C11.782 29.3092 11.7304 29.2951 11.6777 29.2949Z" fill="#263238"/>
<path d="M11.7835 29.3463C11.7811 29.3456 11.7789 29.3442 11.7772 29.3423C11.7756 29.3404 11.7745 29.338 11.7742 29.3355C11.7738 29.3326 11.7743 29.3297 11.7756 29.3272C11.7768 29.3246 11.7789 29.3225 11.7814 29.3211C11.8073 29.3074 12.0398 29.185 12.1118 29.2232C12.1185 29.2266 12.1241 29.2318 12.1281 29.2381C12.1322 29.2444 12.1345 29.2517 12.1349 29.2592C12.1367 29.2716 12.1354 29.2843 12.1311 29.2961C12.1268 29.3079 12.1197 29.3184 12.1104 29.3268C12.047 29.3844 11.8793 29.3643 11.7857 29.347L11.7835 29.3463ZM12.0931 29.2455C12.0492 29.2304 11.9232 29.2815 11.831 29.3268C11.9599 29.3463 12.0564 29.3391 12.0917 29.3067C12.0977 29.301 12.1022 29.294 12.105 29.2863C12.1078 29.2785 12.1086 29.2702 12.1075 29.262C12.1075 29.259 12.1066 29.256 12.105 29.2535C12.1033 29.2509 12.1009 29.2489 12.0982 29.2476C12.0976 29.2468 12.0969 29.246 12.096 29.2455H12.0931Z" fill="#F09C1F"/>
<path d="M11.7835 29.3469C11.7815 29.3457 11.7798 29.3439 11.7788 29.3417C11.7778 29.3395 11.7774 29.3371 11.7778 29.3347C11.7778 29.3275 11.7914 29.1705 11.8642 29.1086C11.8745 29.0994 11.8866 29.0924 11.8997 29.0881C11.9128 29.0838 11.9267 29.0822 11.9405 29.0834C11.9786 29.0834 11.9902 29.1057 11.993 29.1216C12.0046 29.1871 11.867 29.3153 11.7972 29.3484C11.795 29.3495 11.7926 29.35 11.7901 29.3498C11.7877 29.3495 11.7854 29.3485 11.7835 29.3469ZM11.9491 29.1122H11.9347C11.9246 29.1112 11.9143 29.1123 11.9046 29.1155C11.8949 29.1188 11.8861 29.124 11.8786 29.1309C11.8371 29.1827 11.8121 29.2456 11.8066 29.3117C11.8786 29.2677 11.9714 29.1677 11.9642 29.1273C11.9614 29.1223 11.9606 29.1158 11.952 29.1122H11.9491Z" fill="#F09C1F"/>
<path d="M23.3381 7.97691C23.2999 7.64427 23.2546 6.99771 23.5318 6.86451C24.2798 6.76443 25.0841 7.52403 25.1806 7.71123C25.277 7.89843 25.2367 8.72571 24.8882 8.88051C24.5398 9.03531 23.3381 7.97691 23.3381 7.97691Z" fill="#263238"/>
<path d="M23.256 10.4802C23.2905 10.6036 23.3068 10.7315 23.3042 10.8596C23.3012 10.9824 23.2879 11.1048 23.2646 11.2254C23.2229 11.4666 23.1732 11.7071 23.112 11.9454C23.0505 12.1892 22.976 12.4295 22.8888 12.6654C22.7975 12.9211 22.6836 13.168 22.5482 13.4034L22.4878 13.4999L22.4158 13.5978C22.3711 13.6525 22.3272 13.7051 22.2826 13.7555L22.1501 13.8995L22.019 14.0406C21.8419 14.2148 21.6626 14.3775 21.4819 14.5374C21.1176 14.8549 20.749 15.1537 20.3674 15.4453C20.3413 15.4693 20.3108 15.488 20.2775 15.5002C20.2443 15.5124 20.2089 15.518 20.1735 15.5165C20.1381 15.5151 20.1034 15.5067 20.0712 15.4918C20.039 15.4769 20.0101 15.4559 19.9861 15.4298C19.9621 15.4038 19.9435 15.3732 19.9312 15.34C19.919 15.3067 19.9135 15.2714 19.9149 15.236C19.9163 15.2006 19.9247 15.1658 19.9396 15.1337C19.9545 15.1015 19.9756 15.0726 20.0016 15.0486C20.3098 14.6994 20.6172 14.343 20.9088 13.9837C21.0528 13.8051 21.1968 13.6237 21.3293 13.443L21.425 13.3076L21.5129 13.1737L21.5849 13.0455L21.6094 12.9944L21.6338 12.9361C21.7033 12.7476 21.7563 12.5534 21.7922 12.3558C21.8333 12.1455 21.8642 11.9238 21.8995 11.7078C21.9348 11.4918 21.9607 11.2635 21.9881 11.0389C22.0028 10.8097 22.0656 10.5863 22.1724 10.383L22.189 10.3535C22.2461 10.2549 22.3309 10.1753 22.433 10.1245C22.535 10.0737 22.6496 10.054 22.7627 10.0678C22.8758 10.0816 22.9824 10.1283 23.0692 10.2021C23.156 10.2759 23.2192 10.3736 23.251 10.4831L23.256 10.4802Z" fill="#FF8B7B"/>
<path d="M20.1794 14.9688L19.733 15.1387C19.6401 15.1742 19.5559 15.2292 19.4861 15.3L19.314 15.4749C19.2935 15.4954 19.2773 15.5199 19.2664 15.5468C19.2555 15.5738 19.2502 15.6026 19.2508 15.6317C19.2513 15.6607 19.2577 15.6893 19.2695 15.7158C19.2814 15.7423 19.2985 15.7662 19.3198 15.786L19.512 15.9696C19.5498 16.007 19.6001 16.0292 19.6532 16.0318C19.7064 16.0345 19.7587 16.0174 19.8 15.984L20.0498 15.7932C20.0498 15.7932 20.5574 15.526 20.4595 15.2337L20.1794 14.9688Z" fill="#FF8B7B"/>
<path d="M25.8912 10.0086L24.1819 9.71484L22.7282 9.95316C22.5806 9.97874 22.446 10.0535 22.3463 10.1653C22.2466 10.277 22.1876 10.4192 22.1789 10.5688C22.068 12.1787 22.3538 12.9556 22.3992 15.5C22.5058 15.5 25.6493 15.5533 25.6493 15.5533C25.5722 14.1724 26.2836 12.4415 26.4341 10.7142C26.4486 10.5499 26.4008 10.3862 26.3003 10.2555C26.1997 10.1248 26.0537 10.0367 25.8912 10.0086Z" fill="#F09C1F"/>
<path d="M24.9343 8.2959C24.9019 8.74086 24.8861 9.32478 25.0063 9.85686C24.9343 10.1535 24.4044 10.4667 23.7895 10.6129C23.3086 10.3724 23.3705 10.0073 23.5202 9.82086C24.0314 9.73806 23.9112 9.23982 23.8363 8.88486L24.9343 8.2959Z" fill="#FF8B7B"/>
<path d="M23.6232 11.5065H23.616C23.6121 11.5057 23.6084 11.5041 23.6051 11.5017C23.6019 11.4993 23.5992 11.4963 23.5973 11.4928C22.9752 10.4193 23.4346 9.83678 23.4533 9.8123C23.4557 9.80937 23.4587 9.80694 23.462 9.80516C23.4654 9.80337 23.469 9.80226 23.4728 9.80189C23.4766 9.80153 23.4804 9.80191 23.484 9.80301C23.4877 9.80412 23.491 9.80593 23.494 9.80834C23.4969 9.81075 23.4993 9.81371 23.5011 9.81706C23.5029 9.82041 23.504 9.82408 23.5044 9.82786C23.5047 9.83164 23.5044 9.83545 23.5032 9.83908C23.5021 9.84271 23.5003 9.84609 23.4979 9.84902C23.4799 9.87206 23.0515 10.4149 23.6304 11.433C24.5225 10.7944 24.9588 10.0909 24.9948 9.85334C24.9959 9.84581 24.9999 9.839 25.006 9.83442C25.012 9.82983 25.0197 9.82783 25.0272 9.82886C25.0348 9.8301 25.0416 9.83426 25.0462 9.84044C25.0507 9.84663 25.0527 9.85436 25.0517 9.86198C25.0142 10.1104 24.5614 10.8455 23.6376 11.4993C23.6334 11.5028 23.6285 11.5052 23.6232 11.5065Z" fill="#263238"/>
<path d="M23.5685 11.3233H23.719V11.9072H23.4223V11.4694C23.422 11.4501 23.4256 11.431 23.4329 11.4131C23.4401 11.3953 23.4509 11.379 23.4645 11.3654C23.4781 11.3518 23.4943 11.341 23.5122 11.3338C23.5301 11.3265 23.5492 11.323 23.5685 11.3233Z" fill="#263238"/>
<path d="M23.76 11.6151C23.7218 11.6151 23.6852 11.6 23.6582 11.573C23.6312 11.546 23.616 11.5093 23.616 11.4711V11.3271H23.76C23.7982 11.3271 23.8348 11.3423 23.8618 11.3693C23.8888 11.3963 23.904 11.433 23.904 11.4711C23.904 11.5093 23.8888 11.546 23.8618 11.573C23.8348 11.6 23.7982 11.6151 23.76 11.6151Z" fill="#263238"/>
<path opacity="0.2" d="M23.886 8.85664L23.8378 8.88184C23.8753 9.03068 23.8982 9.18285 23.9062 9.33616C24.1373 9.33616 24.377 9.27208 24.5038 9.12664C24.5933 9.03043 24.6646 8.91867 24.714 8.79688L23.886 8.85664Z" fill="black"/>
<path opacity="0.2" d="M26.0971 10.5947C25.9675 10.6502 25.7472 11.0051 25.7681 11.3831C25.7826 11.7698 25.9122 12.1433 26.1403 12.4559C26.244 11.9894 26.3398 11.5142 26.3995 11.0361L26.0971 10.5947Z" fill="black"/>
<path d="M25.0949 7.75684C24.9977 8.36524 24.971 8.72596 24.6312 9.00676C24.12 9.4294 23.3914 9.06796 23.3057 8.44156C23.2279 7.8778 23.4007 6.97852 24.0257 6.79924C24.1635 6.75986 24.3091 6.75605 24.4488 6.78818C24.5885 6.8203 24.7178 6.88732 24.8246 6.98296C24.9313 7.07859 25.0122 7.19974 25.0594 7.33507C25.1067 7.47041 25.1189 7.61551 25.0949 7.75684Z" fill="#FF8B7B"/>
<path d="M25.025 8.2378C24.773 8.02828 24.5606 7.56028 24.737 7.18012C24.2755 7.273 23.508 7.3198 23.287 6.8842C23.1329 6.58108 23.2286 6.24988 23.5793 6.2002C23.7614 6.4882 24.1459 6.42268 24.4721 6.37084C24.7982 6.319 25.6392 6.2002 25.5571 6.8338C25.9502 6.87772 26.1547 7.7482 25.025 8.2378Z" fill="#263238"/>
<path d="M25.326 8.38787C25.2834 8.45148 25.2285 8.50596 25.1646 8.54811C25.1007 8.59027 25.029 8.61926 24.9538 8.63339C24.7522 8.67011 24.6658 8.48435 24.7378 8.30363C24.8011 8.14091 24.9826 7.92563 25.1784 7.97099C25.3742 8.01635 25.4304 8.22947 25.326 8.38787Z" fill="#FF8B7B"/>
<path d="M24.259 21.6654C24.2352 18.5413 24.8803 15.5454 24.8803 15.5454L22.464 15.5C22.464 15.5 22.5864 20.0259 22.8391 21.9008C23.1775 24.4208 23.1473 29.3269 23.1473 29.3269H23.8637C23.8637 29.3269 24.6902 24.5475 24.259 21.6654Z" fill="#FF8B7B"/>
<path d="M23.1451 29.252L23.9155 29.262C23.9274 29.2621 23.9389 29.2666 23.9478 29.2745C23.9567 29.2825 23.9624 29.2934 23.9638 29.3052L24.0228 29.8596C24.0238 29.8736 24.0219 29.8877 24.0172 29.9009C24.0125 29.9141 24.0051 29.9262 23.9955 29.9364C23.9859 29.9466 23.9743 29.9547 23.9614 29.9602C23.9485 29.9657 23.9346 29.9685 23.9206 29.9684C23.6765 29.9604 23.2322 29.941 22.9255 29.936C22.5655 29.9302 22.6015 29.9453 22.1803 29.936C21.9254 29.9324 21.8844 29.6732 21.9938 29.6516C22.4914 29.5529 22.5418 29.5479 22.9903 29.2959C23.037 29.2674 23.0905 29.2522 23.1451 29.252Z" fill="#263238"/>
<path d="M23.0328 29.3046C23.0354 29.3039 23.0378 29.3024 23.0396 29.3004C23.0414 29.2983 23.0425 29.2958 23.0429 29.2931C23.0432 29.29 23.0427 29.287 23.0413 29.2843C23.0398 29.2816 23.0376 29.2794 23.035 29.2779C23.0076 29.2628 22.7599 29.1339 22.6836 29.1735C22.6765 29.1774 22.6704 29.183 22.666 29.1898C22.6616 29.1966 22.659 29.2043 22.6584 29.2124C22.6567 29.2257 22.6582 29.2392 22.6629 29.2517C22.6675 29.2642 22.6751 29.2755 22.685 29.2844C22.752 29.3463 22.9306 29.3247 23.0306 29.306L23.0328 29.3046ZM22.703 29.1966C22.7498 29.1815 22.8845 29.2355 22.9824 29.2837C22.8449 29.3046 22.7426 29.2967 22.7052 29.2621C22.6984 29.2564 22.6933 29.249 22.6903 29.2406C22.6872 29.2323 22.6864 29.2233 22.6879 29.2146C22.688 29.2114 22.6889 29.2084 22.6905 29.2057C22.6922 29.2031 22.6945 29.2009 22.6973 29.1995L22.703 29.1966Z" fill="#F09C1F"/>
<path d="M23.0328 29.3046H23.0364C23.0386 29.3032 23.0404 29.3011 23.0416 29.2987C23.0427 29.2963 23.0432 29.2936 23.0429 29.291C23.0429 29.2845 23.0285 29.1167 22.9507 29.0505C22.9396 29.0408 22.9267 29.0334 22.9128 29.0289C22.8988 29.0243 22.884 29.0226 22.8694 29.0238C22.829 29.0274 22.8168 29.0476 22.8139 29.0642C22.801 29.1362 22.9478 29.2708 23.022 29.3061C23.0238 29.3066 23.0257 29.3067 23.0275 29.3065C23.0294 29.3062 23.0312 29.3056 23.0328 29.3046ZM22.8564 29.0548H22.8715C22.8823 29.0537 22.8932 29.0549 22.9035 29.0582C22.9137 29.0616 22.9232 29.067 22.9313 29.0742C22.9768 29.129 23.0044 29.1963 23.0105 29.2672C22.9342 29.2197 22.8355 29.1131 22.8427 29.0706C22.8434 29.0678 22.8442 29.0606 22.8564 29.057V29.0548Z" fill="#F09C1F"/>
<path opacity="0.2" d="M24.2093 18.1631C24.0293 18.3884 24.0242 18.9752 24.3302 19.6031C24.3504 19.3216 24.3742 19.0465 24.4022 18.7823L24.2093 18.1631Z" fill="black"/>
<path d="M24.1675 7.82914C24.1625 7.87954 24.1322 7.91698 24.0955 7.91338C24.0588 7.90978 24.0408 7.86658 24.0458 7.8169C24.0509 7.76722 24.0811 7.72906 24.1135 7.73266C24.1459 7.73626 24.1718 7.77658 24.1675 7.82914Z" fill="#263238"/>
<path d="M23.4785 7.76469C23.4734 7.81437 23.4432 7.85181 23.4101 7.84821C23.377 7.84461 23.3554 7.80141 23.3604 7.75173C23.3654 7.70205 23.3957 7.66461 23.4281 7.66821C23.4605 7.67181 23.4828 7.71501 23.4785 7.76469Z" fill="#263238"/>
<path d="M23.76 7.8125C23.6858 7.95835 23.5915 8.0931 23.4799 8.21282C23.5112 8.24127 23.5484 8.26248 23.5889 8.27492C23.6293 8.28737 23.672 8.29075 23.7139 8.28482L23.76 7.8125Z" fill="#FF5652"/>
<path d="M23.9141 8.43879C23.9701 8.43824 24.0255 8.42612 24.0767 8.4032C24.1278 8.38029 24.1737 8.34706 24.2114 8.30559C24.2141 8.3029 24.2156 8.29928 24.2156 8.29551C24.2156 8.29174 24.2141 8.28812 24.2114 8.28543C24.2086 8.28275 24.2049 8.28125 24.201 8.28125C24.1971 8.28125 24.1934 8.28275 24.1906 8.28543C24.1478 8.33061 24.095 8.36504 24.0365 8.38594C23.9779 8.40684 23.9153 8.4136 23.8536 8.40567C23.8517 8.40547 23.8498 8.40565 23.848 8.4062C23.8461 8.40674 23.8445 8.40764 23.843 8.40885C23.8415 8.41005 23.8403 8.41154 23.8394 8.41322C23.8385 8.4149 23.8379 8.41674 23.8378 8.41863C23.8376 8.42053 23.8377 8.42244 23.8383 8.42426C23.8388 8.42609 23.8397 8.42778 23.8409 8.42926C23.8421 8.43073 23.8436 8.43195 23.8453 8.43284C23.847 8.43374 23.8488 8.43429 23.8507 8.43447C23.8717 8.43755 23.8929 8.43899 23.9141 8.43879Z" fill="#263238"/>
<path d="M24.2993 7.51029C24.3044 7.5103 24.3094 7.5088 24.3137 7.50597C24.3202 7.50182 24.3249 7.49527 24.3266 7.48772C24.3284 7.48018 24.3271 7.47225 24.323 7.46565C24.2995 7.42539 24.2667 7.39133 24.2274 7.36628C24.1881 7.34124 24.1434 7.32594 24.097 7.32165C24.0927 7.32099 24.0884 7.32124 24.0843 7.3224C24.0802 7.32356 24.0764 7.3256 24.0732 7.32837C24.0699 7.33114 24.0673 7.33458 24.0656 7.33846C24.0638 7.34233 24.0628 7.34654 24.0628 7.35081C24.0628 7.35507 24.0638 7.35929 24.0656 7.36316C24.0673 7.36704 24.0699 7.37048 24.0732 7.37325C24.0764 7.37602 24.0802 7.37806 24.0843 7.37922C24.0884 7.38038 24.0927 7.38063 24.097 7.37997C24.1339 7.38425 24.1693 7.39717 24.2003 7.41769C24.2314 7.4382 24.2571 7.46573 24.2755 7.49805C24.2783 7.50177 24.2819 7.50481 24.286 7.50694C24.2901 7.50906 24.2946 7.51021 24.2993 7.51029Z" fill="#263238"/>
<path d="M23.333 7.57868C23.3379 7.57903 23.3427 7.57816 23.3471 7.57615C23.3515 7.57413 23.3553 7.57104 23.3582 7.56716C23.3802 7.53762 23.409 7.51372 23.442 7.49745C23.475 7.48118 23.5115 7.47299 23.5483 7.47356C23.5522 7.47406 23.5561 7.47375 23.5598 7.47266C23.5636 7.47157 23.567 7.46971 23.57 7.4672C23.573 7.4647 23.5754 7.4616 23.5771 7.45811C23.5789 7.45462 23.5798 7.4508 23.58 7.44692C23.5804 7.44307 23.58 7.43919 23.5789 7.4355C23.5777 7.43181 23.5759 7.42839 23.5734 7.42543C23.5709 7.42247 23.5679 7.42005 23.5644 7.4183C23.561 7.41655 23.5572 7.41551 23.5534 7.41524C23.5068 7.41351 23.4606 7.4231 23.4186 7.44316C23.3766 7.46322 23.3401 7.49317 23.3122 7.53044C23.3097 7.5335 23.3079 7.53701 23.3068 7.54078C23.3058 7.54454 23.3055 7.54848 23.3059 7.55237C23.3064 7.55626 23.3076 7.56001 23.3096 7.56341C23.3115 7.56682 23.3141 7.5698 23.3172 7.5722C23.3218 7.57568 23.3273 7.57791 23.333 7.57868Z" fill="#263238"/>
<path d="M26.5025 21.5865C26.0705 18.7943 25.979 16.1764 25.5665 15.5529L23.5159 15.5176C23.5159 15.5176 24.7277 19.9312 25.195 21.7909C25.681 23.7249 26.874 29.3193 26.874 29.3193L27.5278 29.3337C27.5278 29.3337 27.445 23.7731 26.5025 21.5865Z" fill="#FF8B7B"/>
<path d="M26.8114 29.2513L27.5616 29.2613C27.5735 29.2614 27.585 29.2659 27.5939 29.2738C27.6028 29.2818 27.6084 29.2927 27.6098 29.3045L27.6689 29.8589C27.6699 29.8729 27.668 29.887 27.6633 29.9002C27.6586 29.9134 27.6512 29.9255 27.6416 29.9357C27.632 29.9459 27.6204 29.954 27.6075 29.9595C27.5946 29.965 27.5807 29.9678 27.5666 29.9677C27.3226 29.9597 27.1728 29.9403 26.8654 29.9353C26.5054 29.9295 26.6724 29.9446 26.2512 29.9353C25.997 29.9317 25.9394 29.7013 26.0467 29.671C26.3866 29.576 26.5003 29.4413 26.6558 29.2952C26.7 29.261 26.7558 29.2452 26.8114 29.2513Z" fill="#263238"/>
<path d="M26.856 29.2989C26.8588 29.299 26.8615 29.2983 26.864 29.2969C26.8664 29.2955 26.8684 29.2934 26.8697 29.291C26.8714 29.2885 26.8723 29.2856 26.8723 29.2827C26.8723 29.2797 26.8714 29.2768 26.8697 29.2744C26.8488 29.2506 26.6609 29.0433 26.5752 29.0584C26.5672 29.0594 26.5596 29.0624 26.5532 29.0672C26.5468 29.072 26.5417 29.0784 26.5385 29.0858C26.5325 29.0977 26.5293 29.1109 26.5293 29.1243C26.5293 29.1377 26.5325 29.1509 26.5385 29.1628C26.5802 29.2434 26.7545 29.2845 26.856 29.3018V29.2989ZM26.5831 29.0829C26.6328 29.0829 26.7408 29.1808 26.8157 29.26C26.6796 29.2319 26.586 29.188 26.5622 29.1448C26.5581 29.137 26.556 29.1284 26.556 29.1196C26.556 29.1108 26.5581 29.1022 26.5622 29.0944C26.5634 29.0914 26.5653 29.0887 26.5679 29.0867C26.5704 29.0846 26.5734 29.0833 26.5766 29.0829H26.5831Z" fill="#F09C1F"/>
<path d="M26.856 29.2988H26.8603C26.8627 29.2981 26.8649 29.2968 26.8667 29.2951C26.8685 29.2933 26.8697 29.2911 26.8704 29.2887C26.8704 29.2815 26.9172 29.1195 26.8668 29.0309C26.8598 29.0179 26.8502 29.0065 26.8386 28.9974C26.8269 28.9884 26.8135 28.9819 26.7991 28.9784C26.7602 28.9676 26.7415 28.982 26.7336 28.9971C26.6976 29.0583 26.7883 29.2368 26.8459 29.2952C26.8487 29.2976 26.8523 29.2989 26.856 29.2988ZM26.7768 29.0028H26.7919C26.8023 29.0056 26.8121 29.0105 26.8205 29.0172C26.8289 29.0238 26.8359 29.0322 26.8409 29.0417C26.8649 29.1086 26.8676 29.1813 26.8488 29.2498C26.7941 29.1778 26.7372 29.0446 26.7588 29.0079C26.7631 29.0086 26.7667 29.0028 26.7797 29.0028H26.7768Z" fill="#F09C1F"/>
<path d="M23.4 15.459C23.4 15.459 23.9256 18.0049 23.9818 18.866C24.7275 18.8313 25.4684 18.7277 26.195 18.5564C26.195 18.5564 26.4283 16.7744 25.6471 15.518C24.8674 15.4741 23.4 15.459 23.4 15.459Z" fill="#263238"/>
<path d="M25.853 18.6609C25.8479 18.6608 25.8429 18.6597 25.8382 18.6576C25.8335 18.6556 25.8293 18.6526 25.8258 18.649C25.8222 18.6453 25.8194 18.6409 25.8176 18.6362C25.8157 18.6314 25.8148 18.6264 25.8149 18.6212C25.8394 17.2648 25.3037 15.6152 25.2979 15.5972C25.2971 15.5885 25.2993 15.5797 25.3041 15.5723C25.3089 15.5649 25.3161 15.5594 25.3244 15.5566C25.3328 15.5539 25.3419 15.554 25.3501 15.5571C25.3584 15.5602 25.3654 15.5659 25.3699 15.5735C25.375 15.59 25.915 17.2518 25.8898 18.6212C25.89 18.6263 25.8892 18.6313 25.8874 18.636C25.8857 18.6407 25.883 18.645 25.8796 18.6487C25.8762 18.6523 25.8721 18.6553 25.8675 18.6574C25.863 18.6595 25.8581 18.6607 25.853 18.6609Z" fill="white"/>
<path d="M25.6075 18.7039C25.5973 18.7035 25.5877 18.6991 25.5807 18.6917C25.5737 18.6843 25.5699 18.6745 25.5701 18.6643C25.5946 17.3078 25.0445 15.6158 25.0394 15.5985C25.0362 15.5888 25.037 15.5782 25.0416 15.569C25.0462 15.5598 25.0542 15.5528 25.0639 15.5495C25.0738 15.5466 25.0844 15.5475 25.0935 15.5522C25.1026 15.5569 25.1096 15.565 25.1129 15.5747C25.1186 15.5913 25.6723 17.2963 25.6471 18.6657C25.6471 18.6708 25.6461 18.6759 25.6441 18.6806C25.6421 18.6854 25.6391 18.6896 25.6354 18.6932C25.6317 18.6968 25.6274 18.6996 25.6226 18.7014C25.6178 18.7032 25.6127 18.7041 25.6075 18.7039Z" fill="white"/>
<path d="M22.392 15.2325L25.6687 15.3045C25.6735 15.3045 25.6782 15.3054 25.6827 15.3073C25.6871 15.3091 25.6911 15.3118 25.6944 15.3152C25.6978 15.3187 25.7004 15.3227 25.7022 15.3272C25.704 15.3316 25.7048 15.3364 25.7047 15.3412V15.5572C25.7048 15.5621 25.7039 15.5669 25.7021 15.5714C25.7003 15.576 25.6976 15.5801 25.6942 15.5836C25.6908 15.5871 25.6867 15.5899 25.6822 15.5917C25.6777 15.5936 25.6729 15.5946 25.668 15.5946L22.4078 15.573C22.3985 15.573 22.3894 15.5695 22.3826 15.563C22.3758 15.5566 22.3717 15.5478 22.3711 15.5385L22.3546 15.2699C22.3544 15.2649 22.3552 15.26 22.357 15.2553C22.3588 15.2507 22.3616 15.2465 22.3651 15.243C22.3686 15.2394 22.3728 15.2367 22.3774 15.2349C22.3821 15.2331 22.387 15.2322 22.392 15.2325Z" fill="#263238"/>
<path d="M22.3841 15.459C22.3841 15.459 22.4633 17.8213 22.4633 18.6147C23.5339 18.8207 24.8278 18.6932 24.8278 18.6932C24.8278 18.6932 25.6414 16.7744 24.9062 15.518C24.125 15.4741 22.3841 15.459 22.3841 15.459Z" fill="#263238"/>
<path d="M25.2338 13.3339L24.1766 14.9404C24.1539 14.9749 24.1634 15.0214 24.198 15.0441L26.309 16.4334C26.3436 16.4562 26.39 16.4466 26.4127 16.412L27.47 14.8056C27.4927 14.7711 27.4831 14.7246 27.4486 14.7019L25.3375 13.3126C25.303 13.2898 25.2566 13.2994 25.2338 13.3339Z" fill="#F09C1F"/>
<path d="M25.2584 13.2978L24.2011 14.9042C24.1784 14.9388 24.188 14.9852 24.2225 15.008L26.3336 16.3973C26.3681 16.42 26.4145 16.4105 26.4373 16.3759L27.4945 14.7695C27.5172 14.7349 27.5077 14.6885 27.4731 14.6658L25.3621 13.2764C25.3275 13.2537 25.2811 13.2633 25.2584 13.2978Z" fill="#F09C1F"/>
<path opacity="0.7" d="M25.2584 13.2978L24.2011 14.9042C24.1784 14.9388 24.188 14.9852 24.2225 15.008L26.3336 16.3973C26.3681 16.42 26.4145 16.4105 26.4373 16.3759L27.4945 14.7695C27.5172 14.7349 27.5077 14.6885 27.4731 14.6658L25.3621 13.2764C25.3275 13.2537 25.2811 13.2633 25.2584 13.2978Z" fill="white"/>
<path opacity="0.2" d="M27.3658 14.7153L26.3549 16.2928L24.3101 14.9471L25.3397 13.3818L27.3658 14.7153Z" fill="black"/>
<path d="M27.3758 14.6538L26.334 16.2378C25.6329 15.8314 24.9551 15.3862 24.3036 14.9043C24.6506 14.3763 24.9982 13.8483 25.3462 13.3203C25.9974 13.8022 26.675 14.2474 27.3758 14.6538Z" fill="white"/>
<path opacity="0.4" d="M24.7176 14.3777L24.6989 14.4079C24.694 14.4157 24.6875 14.4225 24.6798 14.4276C24.6722 14.4328 24.6635 14.4363 24.6545 14.4379C24.6454 14.4395 24.6361 14.4392 24.6271 14.4371C24.6181 14.4349 24.6097 14.4308 24.6024 14.4252L24.5498 14.3871C24.5485 14.3856 24.5477 14.3837 24.5477 14.3817C24.5477 14.3796 24.5485 14.3777 24.5498 14.3763L24.6046 14.2935C24.6052 14.2927 24.6061 14.2921 24.607 14.2917C24.6079 14.2912 24.6089 14.291 24.61 14.291C24.611 14.291 24.612 14.2912 24.6129 14.2917C24.6139 14.2921 24.6147 14.2927 24.6154 14.2935L24.7183 14.3655C24.7192 14.3662 24.7199 14.3672 24.7203 14.3683C24.7207 14.3694 24.7209 14.3706 24.7209 14.3717C24.7208 14.3729 24.7205 14.3741 24.7199 14.3751C24.7193 14.3761 24.7186 14.377 24.7176 14.3777Z" fill="black"/>
<path d="M24.804 13.7722L24.48 14.2704C24.4751 14.2775 24.4718 14.2855 24.4703 14.294C24.4687 14.3025 24.469 14.3111 24.471 14.3195C24.4731 14.3279 24.4768 14.3357 24.4821 14.3425C24.4874 14.3493 24.494 14.3549 24.5016 14.359L24.6182 14.4245C24.6342 14.4335 24.653 14.436 24.6708 14.4316C24.6886 14.4272 24.7041 14.4161 24.714 14.4007L25.0423 13.9025C25.0471 13.8952 25.0502 13.8871 25.0517 13.8786C25.0531 13.8701 25.0528 13.8613 25.0507 13.853C25.0486 13.8446 25.0448 13.8367 25.0395 13.8299C25.0342 13.823 25.0276 13.8173 25.02 13.8132L24.9041 13.7484C24.896 13.7433 24.8869 13.7399 24.8775 13.7383C24.868 13.7367 24.8584 13.737 24.849 13.7393C24.8397 13.7415 24.8309 13.7455 24.8232 13.7512C24.8155 13.7568 24.8089 13.764 24.804 13.7722Z" fill="#263238"/>
<path d="M26.0532 14.999L25.6435 15.2445C25.5577 15.2952 25.484 15.364 25.4275 15.4461L25.2886 15.6485C25.2719 15.6723 25.2603 15.6992 25.2543 15.7277C25.2484 15.7561 25.2482 15.7855 25.2539 15.814C25.2595 15.8425 25.2709 15.8695 25.2872 15.8936C25.3036 15.9176 25.3246 15.938 25.349 15.9537L25.573 16.0977C25.616 16.1265 25.668 16.1389 25.7194 16.1325C25.7708 16.1262 25.8183 16.1016 25.853 16.0632L26.069 15.8313C26.069 15.8313 26.5219 15.4793 26.3736 15.2085L26.0532 14.999Z" fill="#FF8B7B"/>
<path d="M26.2418 10.1926C26.3495 10.2564 26.4467 10.3366 26.5298 10.4302C26.6085 10.5196 26.6789 10.616 26.7401 10.7182C26.8668 10.9183 26.9878 11.1235 27.1001 11.3381C27.2135 11.5565 27.3135 11.7815 27.3996 12.012C27.4958 12.2625 27.5653 12.5224 27.607 12.7874C27.612 12.8234 27.6163 12.8594 27.6192 12.9005L27.6235 12.9581C27.6235 12.9782 27.6235 13.0042 27.6235 13.0301C27.6238 13.0743 27.6214 13.1186 27.6163 13.1626C27.6163 13.2065 27.6055 13.2439 27.599 13.2828C27.5719 13.422 27.5314 13.5582 27.4781 13.6896C27.3846 13.9204 27.2724 14.1431 27.1426 14.3556C26.8969 14.7571 26.6213 15.1396 26.3182 15.4997C26.2752 15.5507 26.2149 15.584 26.1488 15.5931C26.0827 15.6022 26.0156 15.5864 25.9605 15.5489C25.9053 15.5113 25.8661 15.4546 25.8504 15.3898C25.8347 15.325 25.8436 15.2566 25.8754 15.198V15.1915C25.9783 15.0036 26.0791 14.8013 26.1727 14.604C26.2663 14.4067 26.3542 14.2058 26.4305 14.0064C26.506 13.8163 26.5664 13.6206 26.6112 13.421C26.6296 13.338 26.6392 13.2533 26.64 13.1683C26.6412 13.1523 26.6412 13.1361 26.64 13.1201C26.6393 13.1078 26.6369 13.0957 26.6328 13.0841L26.6213 13.0423C26.617 13.0258 26.6112 13.0078 26.6047 12.9883C26.5439 12.8126 26.465 12.6437 26.3693 12.4843C26.267 12.3101 26.1533 12.1344 26.0374 11.9594C25.9214 11.7845 25.7976 11.6088 25.6738 11.4338C25.6088 11.3481 25.5503 11.2576 25.4988 11.1631C25.4451 11.0668 25.4069 10.9625 25.3858 10.8542L25.375 10.7822C25.3581 10.6735 25.3723 10.5621 25.4161 10.4611C25.4599 10.3601 25.5314 10.2736 25.6224 10.2116C25.7133 10.1496 25.82 10.1146 25.93 10.1107C26.04 10.1068 26.1489 10.1342 26.244 10.1897L26.2418 10.1926Z" fill="#FF8B7B"/>
</svg>
