<svg width="24" height="24" viewBox="0 0 24 24" fill="none" xmlns="http://www.w3.org/2000/svg">
<path d="M22.9453 0H19.3359C19.2427 0 19.1533 0.0370395 19.0873 0.10297C19.0214 0.168901 18.9844 0.258322 18.9844 0.351562C18.9844 0.444803 19.0214 0.534224 19.0873 0.600155C19.1533 0.666085 19.2427 0.703125 19.3359 0.703125H22.9453C23.0385 0.703224 23.1279 0.740296 23.1938 0.806205C23.2597 0.872114 23.2968 0.961478 23.2969 1.05469V4.66406C23.2969 4.7573 23.3339 4.84672 23.3998 4.91265C23.4658 4.97859 23.5552 5.01562 23.6484 5.01562C23.7417 5.01562 23.8311 4.97859 23.897 4.91265C23.963 4.84672 24 4.7573 24 4.66406V1.05469C23.9997 0.775062 23.8885 0.506978 23.6907 0.309253C23.493 0.111528 23.2249 0.000310178 22.9453 0ZM0.351562 5.01562C0.444803 5.01562 0.534224 4.97859 0.600155 4.91265C0.666085 4.84672 0.703125 4.7573 0.703125 4.66406V1.05469C0.703224 0.961478 0.740296 0.872114 0.806205 0.806205C0.872114 0.740296 0.961478 0.703224 1.05469 0.703125H4.66406C4.7573 0.703125 4.84672 0.666085 4.91265 0.600155C4.97859 0.534224 5.01562 0.444803 5.01562 0.351562C5.01562 0.258322 4.97859 0.168901 4.91265 0.10297C4.84672 0.0370395 4.7573 0 4.66406 0L1.05469 0C0.775062 0.000310178 0.506978 0.111528 0.309253 0.309253C0.111528 0.506978 0.000310178 0.775062 0 1.05469L0 4.66406C0 4.7573 0.0370395 4.84672 0.10297 4.91265C0.168901 4.97859 0.258322 5.01562 0.351562 5.01562ZM23.6484 18.9844C23.5552 18.9844 23.4658 19.0214 23.3998 19.0873C23.3339 19.1533 23.2969 19.2427 23.2969 19.3359V22.9453C23.2968 23.0385 23.2597 23.1279 23.1938 23.1938C23.1279 23.2597 23.0385 23.2968 22.9453 23.2969H19.3359C19.2427 23.2969 19.1533 23.3339 19.0873 23.3998C19.0214 23.4658 18.9844 23.5552 18.9844 23.6484C18.9844 23.7417 19.0214 23.8311 19.0873 23.897C19.1533 23.963 19.2427 24 19.3359 24H22.9453C23.2249 23.9997 23.493 23.8885 23.6907 23.6907C23.8885 23.493 23.9997 23.2249 24 22.9453V19.3359C24 19.2427 23.963 19.1533 23.897 19.0873C23.8311 19.0214 23.7417 18.9844 23.6484 18.9844ZM4.66406 23.2969H1.05469C0.961478 23.2968 0.872114 23.2597 0.806205 23.1938C0.740296 23.1279 0.703224 23.0385 0.703125 22.9453V19.3359C0.703125 19.2427 0.666085 19.1533 0.600155 19.0873C0.534224 19.0214 0.444803 18.9844 0.351562 18.9844C0.258322 18.9844 0.168901 19.0214 0.10297 19.0873C0.0370395 19.1533 0 19.2427 0 19.3359L0 22.9453C0.000310178 23.2249 0.111528 23.493 0.309253 23.6907C0.506978 23.8885 0.775062 23.9997 1.05469 24H4.66406C4.7573 24 4.84672 23.963 4.91265 23.897C4.97859 23.8311 5.01562 23.7417 5.01562 23.6484C5.01562 23.5552 4.97859 23.4658 4.91265 23.3998C4.84672 23.3339 4.7573 23.2969 4.66406 23.2969ZM3.51562 5.27344V8.88281C3.51615 9.34885 3.70151 9.79566 4.03105 10.1252C4.36059 10.4547 4.8074 10.6401 5.27344 10.6406H8.88281C9.34885 10.6401 9.79566 10.4547 10.1252 10.1252C10.4547 9.79566 10.6401 9.34885 10.6406 8.88281V5.27344C10.6401 4.8074 10.4547 4.36059 10.1252 4.03105C9.79566 3.70151 9.34885 3.51615 8.88281 3.51562H5.27344C4.8074 3.51615 4.36059 3.70151 4.03105 4.03105C3.70151 4.36059 3.51615 4.8074 3.51562 5.27344ZM4.21875 5.27344C4.21906 4.99381 4.33028 4.72573 4.528 4.528C4.72573 4.33028 4.99381 4.21906 5.27344 4.21875H8.88281C9.16244 4.21906 9.43052 4.33028 9.62825 4.528C9.82597 4.72573 9.93719 4.99381 9.9375 5.27344V8.88281C9.93719 9.16244 9.82597 9.43052 9.62825 9.62825C9.43052 9.82597 9.16244 9.93719 8.88281 9.9375H5.27344C4.99381 9.93719 4.72573 9.82597 4.528 9.62825C4.33028 9.43052 4.21906 9.16244 4.21875 8.88281V5.27344ZM6.21094 8.17969H7.94531C8.00747 8.17969 8.06709 8.15499 8.11104 8.11104C8.15499 8.06709 8.17969 8.00747 8.17969 7.94531V6.21094C8.17969 6.14878 8.15499 6.08916 8.11104 6.04521C8.06709 6.00126 8.00747 5.97656 7.94531 5.97656H6.21094C6.14878 5.97656 6.08916 6.00126 6.04521 6.04521C6.00126 6.08916 5.97656 6.14878 5.97656 6.21094V7.94531C5.97656 8.00747 6.00126 8.06709 6.04521 8.11104C6.08916 8.15499 6.14878 8.17969 6.21094 8.17969ZM15.1172 10.6406H18.7266C19.1926 10.6401 19.6394 10.4547 19.9689 10.1252C20.2985 9.79566 20.4839 9.34885 20.4844 8.88281V5.27344C20.4839 4.8074 20.2985 4.36059 19.9689 4.03105C19.6394 3.70151 19.1926 3.51615 18.7266 3.51562H15.1172C14.6511 3.51615 14.2043 3.70151 13.8748 4.03105C13.5453 4.36059 13.3599 4.8074 13.3594 5.27344V8.88281C13.3599 9.34885 13.5453 9.79566 13.8748 10.1252C14.2043 10.4547 14.6511 10.6401 15.1172 10.6406ZM14.0625 5.27344C14.0628 4.99381 14.174 4.72573 14.3718 4.528C14.5695 4.33028 14.8376 4.21906 15.1172 4.21875H18.7266C19.0062 4.21906 19.2743 4.33028 19.472 4.528C19.6697 4.72573 19.7809 4.99381 19.7812 5.27344V8.88281C19.7809 9.16244 19.6697 9.43052 19.472 9.62825C19.2743 9.82597 19.0062 9.93719 18.7266 9.9375H15.1172C14.8376 9.93719 14.5695 9.82597 14.3718 9.62825C14.174 9.43052 14.0628 9.16244 14.0625 8.88281V5.27344ZM16.0547 8.17969H17.7891C17.8512 8.17969 17.9108 8.15499 17.9548 8.11104C17.9987 8.06709 18.0234 8.00747 18.0234 7.94531V6.21094C18.0234 6.14878 17.9987 6.08916 17.9548 6.04521C17.9108 6.00126 17.8512 5.97656 17.7891 5.97656H16.0547C15.9925 5.97656 15.9329 6.00126 15.889 6.04521C15.845 6.08916 15.8203 6.14878 15.8203 6.21094V7.94531C15.8203 8.00747 15.845 8.06709 15.889 8.11104C15.9329 8.15499 15.9925 8.17969 16.0547 8.17969ZM17.6719 14.0625V13.3594H16.9688V14.0625H17.6719ZM18.375 17.5781H19.0781V16.875H18.375V17.5781ZM16.9688 16.875H16.2656V17.5781H16.9688V16.875ZM16.2656 14.7656H16.9688V14.0625H16.2656V14.7656ZM11.6484 9.9375V10.6406H12.3516V9.9375H11.6484ZM20.4844 20.0859V17.9766C20.4844 17.8833 20.4473 17.7939 20.3814 17.728C20.3155 17.662 20.2261 17.625 20.1328 17.625H19.5703C19.4771 17.625 19.3876 17.662 19.3217 17.728C19.2558 17.7939 19.2188 17.8833 19.2188 17.9766C19.2188 18.0698 19.2558 18.1592 19.3217 18.2252C19.3876 18.2911 19.4771 18.3281 19.5703 18.3281H19.7812V19.7344H15.2109C15.1177 19.7344 15.0283 19.7714 14.9623 19.8373C14.8964 19.9033 14.8594 19.9927 14.8594 20.0859C14.8594 20.1792 14.8964 20.2686 14.9623 20.3345C15.0283 20.4005 15.1177 20.4375 15.2109 20.4375H20.1328C20.2261 20.4375 20.3155 20.4005 20.3814 20.3345C20.4473 20.2686 20.4844 20.1792 20.4844 20.0859ZM15.1172 16.2188H18.7266C18.8198 16.2188 18.9092 16.1817 18.9752 16.1158C19.0411 16.0499 19.0781 15.9604 19.0781 15.8672C19.0781 15.7739 19.0411 15.6845 18.9752 15.6186C18.9092 15.5527 18.8198 15.5156 18.7266 15.5156H15.1172C15.0239 15.5156 14.9345 15.5527 14.8686 15.6186C14.8027 15.6845 14.7656 15.7739 14.7656 15.8672C14.7656 15.9604 14.8027 16.0499 14.8686 16.1158C14.9345 16.1817 15.0239 16.2188 15.1172 16.2188ZM16.5234 19.0312H18.0234C18.1167 19.0312 18.2061 18.9942 18.272 18.9283C18.338 18.8624 18.375 18.7729 18.375 18.6797C18.375 18.5864 18.338 18.497 18.272 18.4311C18.2061 18.3652 18.1167 18.3281 18.0234 18.3281H16.5234C16.4302 18.3281 16.3408 18.3652 16.2748 18.4311C16.2089 18.497 16.1719 18.5864 16.1719 18.6797C16.1719 18.7729 16.2089 18.8624 16.2748 18.9283C16.3408 18.9942 16.4302 19.0312 16.5234 19.0312ZM7.94531 15.8203H6.21094C6.14878 15.8203 6.08916 15.845 6.04521 15.889C6.00126 15.9329 5.97656 15.9925 5.97656 16.0547V17.7891C5.97656 17.8512 6.00126 17.9108 6.04521 17.9548C6.08916 17.9987 6.14878 18.0234 6.21094 18.0234H7.94531C8.00747 18.0234 8.06709 17.9987 8.11104 17.9548C8.15499 17.9108 8.17969 17.8512 8.17969 17.7891V16.0547C8.17969 15.9925 8.15499 15.9329 8.11104 15.889C8.06709 15.845 8.00747 15.8203 7.94531 15.8203ZM8.88281 13.3594H5.27344C4.8074 13.3599 4.36059 13.5453 4.03105 13.8748C3.70151 14.2043 3.51615 14.6511 3.51562 15.1172V18.7266C3.51615 19.1926 3.70151 19.6394 4.03105 19.9689C4.36059 20.2985 4.8074 20.4839 5.27344 20.4844H8.88281C9.34885 20.4839 9.79566 20.2985 10.1252 19.9689C10.4547 19.6394 10.6401 19.1926 10.6406 18.7266V15.1172C10.6401 14.6511 10.4547 14.2043 10.1252 13.8748C9.79566 13.5453 9.34885 13.3599 8.88281 13.3594ZM9.9375 18.7266C9.93719 19.0062 9.82597 19.2743 9.62825 19.472C9.43052 19.6697 9.16244 19.7809 8.88281 19.7812H5.27344C4.99381 19.7809 4.72573 19.6697 4.528 19.472C4.33028 19.2743 4.21906 19.0062 4.21875 18.7266V15.1172C4.21906 14.8376 4.33028 14.5695 4.528 14.3718C4.72573 14.174 4.99381 14.0628 5.27344 14.0625H8.88281C9.16244 14.0628 9.43052 14.174 9.62825 14.3718C9.82597 14.5695 9.93719 14.8376 9.9375 15.1172V18.7266ZM12 15.4688C11.9068 15.4688 11.8173 15.5058 11.7514 15.5717C11.6855 15.6377 11.6484 15.7271 11.6484 15.8203V20.1328C11.6484 20.2261 11.6855 20.3155 11.7514 20.3814C11.8173 20.4473 11.9068 20.4844 12 20.4844C12.0932 20.4844 12.1827 20.4473 12.2486 20.3814C12.3145 20.3155 12.3516 20.2261 12.3516 20.1328V15.8203C12.3516 15.7271 12.3145 15.6377 12.2486 15.5717C12.1827 15.5058 12.0932 15.4688 12 15.4688ZM11.6484 14.0625H12.3516V13.3594H11.6484V14.0625ZM13.3594 20.4375H14.0625V19.7344H13.3594V20.4375ZM13.7109 13.3594C13.6177 13.3594 13.5283 13.3964 13.4623 13.4623C13.3964 13.5283 13.3594 13.6177 13.3594 13.7109V18.0234C13.3594 18.1167 13.3964 18.2061 13.4623 18.272C13.5283 18.338 13.6177 18.375 13.7109 18.375C13.8042 18.375 13.8936 18.338 13.9595 18.272C14.0255 18.2061 14.0625 18.1167 14.0625 18.0234V13.7109C14.0625 13.6177 14.0255 13.5283 13.9595 13.4623C13.8936 13.3964 13.8042 13.3594 13.7109 13.3594ZM14.8594 17.1797V18.6797C14.8594 18.7729 14.8964 18.8624 14.9623 18.9283C15.0283 18.9942 15.1177 19.0312 15.2109 19.0312C15.3042 19.0312 15.3936 18.9942 15.4595 18.9283C15.5255 18.8624 15.5625 18.7729 15.5625 18.6797V17.1797C15.5625 17.0864 15.5255 16.997 15.4595 16.9311C15.3936 16.8652 15.3042 16.8281 15.2109 16.8281C15.1177 16.8281 15.0283 16.8652 14.9623 16.9311C14.8964 16.997 14.8594 17.0864 14.8594 17.1797ZM20.1328 16.2656C20.2261 16.2656 20.3155 16.2286 20.3814 16.1627C20.4473 16.0967 20.4844 16.0073 20.4844 15.9141V13.7109C20.4844 13.6177 20.4473 13.5283 20.3814 13.4623C20.3155 13.3964 20.2261 13.3594 20.1328 13.3594H18.7718C18.6786 13.3594 18.5891 13.3964 18.5232 13.4623C18.4573 13.5283 18.4202 13.6177 18.4202 13.7109C18.4202 13.8042 18.4573 13.8936 18.5232 13.9595C18.5891 14.0255 18.6786 14.0625 18.7718 14.0625H19.7812V15.9141C19.7812 16.0073 19.8183 16.0967 19.8842 16.1627C19.9501 16.2286 20.0396 16.2656 20.1328 16.2656ZM11.1915 4.21875H11.6484V8.88281C11.6484 8.97605 11.6855 9.06547 11.7514 9.1314C11.8173 9.19734 11.9068 9.23438 12 9.23438C12.0932 9.23438 12.1827 9.19734 12.2486 9.1314C12.3145 9.06547 12.3516 8.97605 12.3516 8.88281V3.86719C12.3516 3.77395 12.3145 3.68453 12.2486 3.6186C12.1827 3.55266 12.0932 3.51562 12 3.51562H11.1915C11.0983 3.51562 11.0088 3.55266 10.9429 3.6186C10.877 3.68453 10.8399 3.77395 10.8399 3.86719C10.8399 3.96043 10.877 4.04985 10.9429 4.11578C11.0088 4.18171 11.0983 4.21875 11.1915 4.21875ZM22.5469 12C22.5469 11.9068 22.5098 11.8173 22.4439 11.7514C22.378 11.6855 22.2886 11.6484 22.1953 11.6484H1.80469C1.71145 11.6484 1.62203 11.6855 1.5561 11.7514C1.49016 11.8173 1.45312 11.9068 1.45312 12C1.45312 12.0932 1.49016 12.1827 1.5561 12.2486C1.62203 12.3145 1.71145 12.3516 1.80469 12.3516H22.1953C22.2886 12.3516 22.378 12.3145 22.4439 12.2486C22.5098 12.1827 22.5469 12.0932 22.5469 12Z" fill="black"/>
</svg>
