<svg width="35" height="35" viewBox="0 0 35 35" fill="none" xmlns="http://www.w3.org/2000/svg">
<path fill-rule="evenodd" clip-rule="evenodd" d="M17.5 28.4375C14.717 28.4375 12.8056 28.4344 11.3441 28.2762C9.92355 28.1222 9.18982 27.8429 8.6665 27.4628C8.23318 27.1479 7.85212 26.7668 7.5373 26.3334C7.15708 25.8102 6.87774 25.0765 6.72384 23.6559C6.69887 23.4255 6.67777 23.184 6.65993 22.9295C6.61872 22.3418 6.13906 21.875 5.54982 21.875C4.93066 21.875 4.43141 22.3891 4.4728 23.0068C4.61204 25.0854 4.94954 26.4934 5.76757 27.6192C6.21731 28.2383 6.7617 28.7827 7.38071 29.2324C9.29745 30.625 12.0316 30.625 17.5 30.625C22.9683 30.625 25.7025 30.625 27.6192 29.2324C28.2383 28.7827 28.7827 28.2383 29.2324 27.6192C30.0504 26.4934 30.388 25.0854 30.5271 23.0068C30.5685 22.3891 30.0693 21.875 29.4501 21.875C28.861 21.875 28.3812 22.3418 28.3401 22.9295C28.3223 23.184 28.3011 23.4255 28.2762 23.6559C28.1222 25.0765 27.8429 25.8102 27.4627 26.3334C27.1479 26.7668 26.7668 27.1479 26.3335 27.4628C25.8101 27.8429 25.0765 28.1222 23.6559 28.2762C22.1943 28.4344 20.2829 28.4375 17.5 28.4375ZM5.54982 13.125C6.13906 13.125 6.61872 12.6582 6.65993 12.0704C6.67777 11.816 6.69887 11.5745 6.72384 11.3441C6.87774 9.92356 7.15708 9.18983 7.5373 8.66651C7.85212 8.2332 8.23318 7.85213 8.6665 7.53731C9.18982 7.15709 9.92355 6.87775 11.3441 6.72385C12.8056 6.5655 14.717 6.5625 17.5 6.5625C20.2829 6.5625 22.1943 6.5655 23.6559 6.72385C25.0765 6.87775 25.8101 7.15709 26.3335 7.53731C26.7668 7.85213 27.1479 8.2332 27.4627 8.66651C27.8429 9.18983 28.1222 9.92356 28.2762 11.3441C28.3011 11.5745 28.3223 11.816 28.3401 12.0704C28.3812 12.6582 28.861 13.125 29.4501 13.125C30.0693 13.125 30.5685 12.611 30.5271 11.9932C30.388 9.91464 30.0504 8.50665 29.2324 7.38073C28.7827 6.76171 28.2383 6.21733 27.6192 5.76758C25.7025 4.375 22.9683 4.375 17.5 4.375C12.0316 4.375 9.29745 4.375 7.38071 5.76758C6.7617 6.21733 6.21731 6.76171 5.76757 7.38073C4.94954 8.50665 4.61204 9.91464 4.4728 11.9932C4.43141 12.611 4.93066 13.125 5.54982 13.125Z" fill="white"/>
<path d="M4.01044 17.8643H30.9896" stroke="white" stroke-width="2.1875" stroke-linecap="round"/>
</svg>
