<svg width="25" height="24" viewBox="0 0 25 24" fill="none" xmlns="http://www.w3.org/2000/svg">
<path d="M5.54822 6.91699C5.78121 6.91699 5.97009 6.72811 5.97009 6.49512C5.97009 6.26212 5.78121 6.07324 5.54822 6.07324C5.31522 6.07324 5.12634 6.26212 5.12634 6.49512C5.12634 6.72811 5.31522 6.91699 5.54822 6.91699Z" fill="#BBC0C3"/>
<path d="M4.23572 6.91699C4.46871 6.91699 4.65759 6.72811 4.65759 6.49512C4.65759 6.26212 4.46871 6.07324 4.23572 6.07324C4.00272 6.07324 3.81384 6.26212 3.81384 6.49512C3.81384 6.72811 4.00272 6.91699 4.23572 6.91699Z" fill="#BBC0C3"/>
<path d="M17.5889 18.0963C17.3819 18.0963 17.2139 18.2642 17.2139 18.4713V21.464C17.2139 21.6217 17.0854 21.75 16.9275 21.75H2.78647C2.62849 21.75 2.5 21.6217 2.5 21.464V3.9911C2.5 3.83343 2.62849 3.70514 2.78647 3.70514H3.767V3.93047C3.767 4.49911 4.22961 4.96172 4.79825 4.96172H5.85802C6.42665 4.96172 6.88927 4.49911 6.88927 3.93047V3.70514H8.29584V3.93047C8.29584 4.49911 8.75845 4.96172 9.32709 4.96172H10.3869C10.9555 4.96172 11.4181 4.49911 11.4181 3.93047V3.7019L12.8247 3.70459V3.93047C12.8247 4.49911 13.2873 4.96172 13.8559 4.96172H14.9157C15.4843 4.96172 15.9469 4.49911 15.9469 3.93047V3.70222L16.9275 3.70514C17.0855 3.70514 17.2139 3.83343 17.2139 3.99055L17.2108 6.12048H7.30368C7.09659 6.12048 6.92868 6.28837 6.92868 6.49548C6.92868 6.7026 7.09659 6.87048 7.30368 6.87048H17.2139V8.12819C17.2139 8.33531 17.3819 8.50319 17.5889 8.50319C17.796 8.50319 17.9639 8.33531 17.9639 8.12819V3.9911C17.9639 3.41986 17.499 2.95514 16.9286 2.95514L15.9469 2.95221V2.53125C15.9469 1.96262 15.4843 1.5 14.9157 1.5H13.8559C13.2873 1.5 12.8247 1.96262 12.8247 2.53125V2.95458L11.4181 2.9519V2.53125C11.4181 1.96262 10.9555 1.5 10.3869 1.5H9.32709C8.75845 1.5 8.29584 1.96262 8.29584 2.53125V2.95514H6.88927V2.53125C6.88927 1.96262 6.42665 1.5 5.85802 1.5H4.79825C4.22961 1.5 3.767 1.96262 3.767 2.53125V2.95514H2.78647C2.21495 2.95514 1.75 3.41986 1.75 3.9911V21.464C1.75 22.0353 2.21495 22.5 2.78647 22.5H16.9275C17.499 22.5 17.9639 22.0353 17.9639 21.464V18.4713C17.9639 18.2642 17.796 18.0963 17.5889 18.0963ZM13.5747 2.53125C13.5747 2.37616 13.7008 2.25 13.8559 2.25H14.9157C15.0708 2.25 15.1969 2.37616 15.1969 2.53125V3.93047C15.1969 4.08556 15.0708 4.21172 14.9157 4.21172H13.8559C13.7008 4.21172 13.5747 4.08556 13.5747 3.93047V2.53125ZM9.32709 2.25H10.3869C10.5419 2.25 10.6681 2.37616 10.6681 2.53125V3.93047C10.6681 4.08556 10.5419 4.21172 10.3869 4.21172H9.32709C9.172 4.21172 9.04584 4.08556 9.04584 3.93047V2.53125C9.04584 2.37616 9.172 2.25 9.32709 2.25ZM4.517 2.53125C4.517 2.37616 4.64316 2.25 4.79825 2.25H5.85802C6.01311 2.25 6.13927 2.37616 6.13927 2.53125V3.93047C6.13927 4.08556 6.01311 4.21172 5.85802 4.21172H4.79825C4.64316 4.21172 4.517 4.08556 4.517 3.93047V2.53125Z" fill="#BBC0C3"/>
<path d="M7.16341 14.1801C7.16341 13.8441 6.89003 13.5707 6.55403 13.5707H5.04712C4.71112 13.5707 4.43774 13.8441 4.43774 14.1801V15.6855C4.43774 16.0216 4.71112 16.2949 5.04712 16.2949H6.55403C6.89003 16.2949 7.16341 16.0216 7.16341 15.6855V14.1801ZM6.41341 15.5449H5.18774V14.3207H6.41341V15.5449ZM11.2198 14.1801C11.2198 13.8441 10.9465 13.5707 10.6105 13.5707H9.10355C8.76755 13.5707 8.49417 13.8441 8.49417 14.1801V15.6855C8.49417 16.0216 8.76755 16.2949 9.10355 16.2949H10.6105C10.9465 16.2949 11.2198 16.0216 11.2198 15.6855V14.1801ZM10.4698 15.5449H9.24417V14.3207H10.4698V15.5449ZM5.04712 20.4037H6.55403C6.89003 20.4037 7.16341 20.1303 7.16341 19.7943V18.2889C7.16341 17.9529 6.89003 17.6795 6.55403 17.6795H5.04712C4.71112 17.6795 4.43774 17.9529 4.43774 18.2889V19.7943C4.43774 20.1303 4.71112 20.4037 5.04712 20.4037ZM5.18774 18.4295H6.41341V19.6537H5.18774V18.4295ZM10.6105 17.6795H9.10355C8.76755 17.6795 8.49417 17.9529 8.49417 18.2889V19.7943C8.49417 20.1303 8.76755 20.4037 9.10355 20.4037H10.6105C10.9465 20.4037 11.2198 20.1303 11.2198 19.7943V18.2889C11.2198 17.9529 10.9465 17.6795 10.6105 17.6795ZM10.4698 19.6537H9.24417V18.4295H10.4698V19.6537ZM13.16 20.4037H14.6669C15.0029 20.4037 15.2763 20.1303 15.2763 19.7943V18.2889C15.2763 17.9529 15.0029 17.6795 14.6669 17.6795H13.16C12.824 17.6795 12.5506 17.9529 12.5506 18.2889V19.7943C12.5506 20.1303 12.824 20.4037 13.16 20.4037ZM13.3006 18.4295H14.5263V19.6537H13.3006V18.4295ZM7.16341 10.0713C7.16341 9.73527 6.89003 9.46191 6.55403 9.46191H5.04712C4.71112 9.46191 4.43774 9.73527 4.43774 10.0713V11.5767C4.43774 11.9128 4.71112 12.1861 5.04712 12.1861H6.55403C6.89003 12.1861 7.16341 11.9128 7.16341 11.5767V10.0713ZM6.41341 11.4361H5.18774V10.2119H6.41341V11.4361ZM11.2198 10.0713C11.2198 9.73527 10.9465 9.46191 10.6105 9.46191H9.10355C8.76755 9.46191 8.49417 9.73527 8.49417 10.0713V11.5767C8.49417 11.9128 8.76755 12.1861 9.10355 12.1861H10.6105C10.9465 12.1861 11.2198 11.9128 11.2198 11.5767V10.0713ZM10.4698 11.4361H9.24417V10.2119H10.4698V11.4361ZM19.8345 11.9268C20.1313 11.9268 20.3726 11.6855 20.3726 11.3889C20.3726 11.0924 20.1313 10.851 19.8345 10.851C19.5378 10.851 19.2964 11.0924 19.2964 11.3889C19.2964 11.6855 19.5378 11.9268 19.8345 11.9268ZM15.4661 11.9268C15.7628 11.9268 16.0042 11.6855 16.0042 11.3889C16.0042 11.0924 15.7628 10.851 15.4661 10.851C15.1694 10.851 14.928 11.0924 14.928 11.3889C14.928 11.6855 15.1694 11.9268 15.4661 11.9268ZM17.7301 11.9268C18.0268 11.9268 18.2682 11.6855 18.2682 11.3889C18.2682 11.0924 18.0268 10.851 17.7301 10.851C17.4333 10.851 17.192 11.0924 17.192 11.3889C17.192 11.6855 17.4333 11.9268 17.7301 11.9268Z" fill="#BBC0C3"/>
<path d="M19.8345 14.9059C20.1316 14.9059 20.3725 14.665 20.3725 14.368C20.3725 14.0709 20.1316 13.8301 19.8345 13.8301C19.5373 13.8301 19.2964 14.0709 19.2964 14.368C19.2964 14.665 19.5373 14.9059 19.8345 14.9059Z" fill="#BBC0C3"/>
<path d="M15.4661 14.9059C15.7632 14.9059 16.0041 14.665 16.0041 14.368C16.0041 14.0709 15.7632 13.8301 15.4661 13.8301C15.1689 13.8301 14.928 14.0709 14.928 14.368C14.928 14.665 15.1689 14.9059 15.4661 14.9059Z" fill="#BBC0C3"/>
<path d="M17.73 14.9059C18.0271 14.9059 18.268 14.665 18.268 14.368C18.268 14.0709 18.0271 13.8301 17.73 13.8301C17.4328 13.8301 17.1919 14.0709 17.1919 14.368C17.1919 14.665 17.4328 14.9059 17.73 14.9059Z" fill="#BBC0C3"/>
<path d="M21.6718 9.46191H13.6287C13.0342 9.46191 12.5505 9.94556 12.5505 10.54V15.2168C12.5505 15.8113 13.0342 16.2949 13.6287 16.2949H21.6718C22.2663 16.2949 22.75 15.8113 22.75 15.2168V10.54C22.75 9.94556 22.2663 9.46191 21.6718 9.46191ZM13.6287 10.2119H21.6718C21.8528 10.2119 22 10.3591 22 10.54V12.5034H13.3005V10.54C13.3005 10.3591 13.4478 10.2119 13.6287 10.2119ZM21.6718 15.5449H13.6287C13.4478 15.5449 13.3005 15.3977 13.3005 15.2168V13.2534H22V15.2168C22 15.3977 21.8528 15.5449 21.6718 15.5449Z" fill="#BBC0C3"/>
</svg>
