<svg width="36" height="36" viewBox="0 0 36 36" fill="none" xmlns="http://www.w3.org/2000/svg">
<path d="M18.211 34.8043C27.624 34.8043 35.2548 30.6936 35.2548 25.6228C35.2548 20.5521 27.624 16.4414 18.211 16.4414C8.79791 16.4414 1.16712 20.5521 1.16712 25.6228C1.16712 30.6936 8.79791 34.8043 18.211 34.8043Z" fill="#F0F0F0"/>
<path d="M18.157 29.105C20.8108 29.105 22.9622 27.8629 22.9622 26.3308C22.9622 24.7987 20.8108 23.5566 18.157 23.5566C15.5031 23.5566 13.3517 24.7987 13.3517 26.3308C13.3517 27.8629 15.5031 29.105 18.157 29.105Z" fill="#E0E0E0"/>
<path d="M8.68968 30.5785C11.6044 30.5785 13.9673 29.2142 13.9673 27.5314C13.9673 25.8486 11.6044 24.4844 8.68968 24.4844C5.77494 24.4844 3.41208 25.8486 3.41208 27.5314C3.41208 29.2142 5.77494 30.5785 8.68968 30.5785Z" fill="#E0E0E0"/>
<path d="M27.0713 30.8558C29.986 30.8558 32.3489 29.4916 32.3489 27.8088C32.3489 26.1259 29.986 24.7617 27.0713 24.7617C24.1565 24.7617 21.7937 26.1259 21.7937 27.8088C21.7937 29.4916 24.1565 30.8558 27.0713 30.8558Z" fill="#E0E0E0"/>
<path d="M29.8339 24.3406C29.8339 24.3406 29.6546 22.6241 30.127 21.3541C30.5993 20.084 31.4287 19.1753 32.3287 18.9061C33.2287 18.6368 34.182 19.5613 33.3281 20.3525C32.4742 21.1438 30.8614 22.1115 30.528 24.4493L29.8339 24.3406Z" fill="#F09C1F"/>
<path opacity="0.15" d="M29.8339 24.3406C29.8339 24.3406 29.6546 22.6241 30.127 21.3541C30.5993 20.084 31.4287 19.1753 32.3287 18.9061C33.2287 18.6368 34.182 19.5613 33.3281 20.3525C32.4742 21.1438 30.8614 22.1115 30.528 24.4493L29.8339 24.3406Z" fill="black"/>
<path d="M30.0154 23.958H30.0046C29.9908 23.956 29.9784 23.9487 29.9701 23.9377C29.9617 23.9266 29.9581 23.9127 29.9599 23.899C30.3314 21.1846 31.9716 19.6726 32.7866 19.2528C32.799 19.2465 32.8133 19.2453 32.8264 19.2496C32.833 19.2517 32.839 19.2551 32.8442 19.2595C32.8494 19.264 32.8537 19.2694 32.8568 19.2755C32.86 19.2816 32.8618 19.2882 32.8624 19.2951C32.8629 19.3019 32.8621 19.3088 32.86 19.3153C32.8579 19.3218 32.8546 19.3278 32.8501 19.333C32.8457 19.3383 32.8403 19.3426 32.8342 19.3457C32.0357 19.7568 30.4294 21.2414 30.0636 23.9134C30.062 23.9252 30.0563 23.9362 30.0475 23.9443C30.0387 23.9524 30.0273 23.9573 30.0154 23.958Z" fill="white"/>
<path d="M30.2839 25.5901C30.3057 25.3768 30.2896 25.1613 30.2364 24.9536C30.1846 24.7311 30.0506 24.5216 30.0398 24.2883C30.0312 24.1025 30.1471 23.8923 30.2789 23.767C30.4106 23.6418 30.5942 23.5467 30.6857 23.3833C30.7771 23.2198 30.7577 23.0096 30.803 22.8231C30.8522 22.6159 30.9801 22.4359 31.1596 22.3213C31.3392 22.2066 31.5563 22.1664 31.765 22.209C31.9594 22.2493 32.1307 22.3573 32.3086 22.4451C32.4837 22.5428 32.6855 22.5822 32.8846 22.5574C33.1028 22.5155 33.3241 22.4914 33.5462 22.4854C33.9242 22.4854 34.3994 22.6143 34.529 23.0139C34.5661 23.1118 34.5696 23.2191 34.5391 23.3192L34.5348 23.3314C34.4254 23.6022 34.0805 23.6576 33.8587 23.7901C33.7982 23.8268 33.6967 23.8779 33.6737 23.9514C33.6506 24.0248 33.714 24.1256 33.7457 24.1933C33.8263 24.3682 33.943 24.5367 33.9538 24.7347C33.9682 25.0177 33.732 25.2898 33.4937 25.4101C33.2594 25.5163 33.002 25.5611 32.7456 25.5404C32.6189 25.5346 32.4806 25.5238 32.3762 25.5966C32.3336 25.632 32.2989 25.6759 32.2741 25.7255C32.2493 25.775 32.235 25.8292 32.2322 25.8846C32.2186 25.994 32.2286 26.1056 32.2186 26.2158C32.1964 26.3892 32.128 26.5536 32.0206 26.6916C31.9132 26.8297 31.7707 26.9364 31.608 27.0006C31.3358 27.1039 31.0345 27.1003 30.7649 26.9905C30.5431 26.9033 30.353 26.637 30.3098 26.4051C30.2647 26.1358 30.256 25.8617 30.2839 25.5901Z" fill="#F09C1F"/>
<path d="M30.3754 26.2362H30.3718C30.3663 26.2354 30.3611 26.2335 30.3564 26.2307C30.3516 26.2279 30.3475 26.2241 30.3443 26.2197C30.341 26.2153 30.3386 26.2103 30.3373 26.205C30.3359 26.1996 30.3357 26.1941 30.3365 26.1886C30.7022 23.5779 33.3223 22.8874 33.9509 22.8565C33.9619 22.8561 33.9727 22.86 33.9809 22.8674C33.9891 22.8748 33.9941 22.8851 33.9948 22.8961C33.9952 22.9016 33.9945 22.9071 33.9927 22.9123C33.9909 22.9176 33.988 22.9224 33.9843 22.9265C33.9806 22.9306 33.9762 22.9339 33.9712 22.9362C33.9661 22.9385 33.9607 22.9398 33.9552 22.94C33.3396 22.9702 30.7771 23.6456 30.4193 26.2002C30.418 26.2107 30.4127 26.2203 30.4046 26.227C30.3964 26.2337 30.3859 26.237 30.3754 26.2362Z" fill="white"/>
<path d="M33.1798 24.5944C33.1711 24.5941 33.1628 24.591 33.156 24.5858C33.1488 24.58 32.3878 23.9925 31.2804 24.2978C31.2752 24.2993 31.2697 24.2998 31.2642 24.2991C31.2588 24.2985 31.2535 24.2968 31.2488 24.2941C31.244 24.2914 31.2398 24.2878 31.2365 24.2835C31.2331 24.2792 31.2307 24.2742 31.2293 24.269C31.2264 24.2582 31.2279 24.2467 31.2334 24.237C31.2389 24.2273 31.2481 24.2202 31.2588 24.2171C31.5862 24.1215 31.9307 24.0992 32.2677 24.1518C32.6047 24.2045 32.9259 24.3308 33.2086 24.5217C33.2171 24.5287 33.2226 24.5389 33.2238 24.5499C33.225 24.5609 33.2219 24.572 33.215 24.5807C33.2107 24.5857 33.2052 24.5895 33.1991 24.5919C33.1929 24.5943 33.1863 24.5951 33.1798 24.5944Z" fill="white"/>
<path d="M5.7996 23.5476C5.91552 22.8902 5.89608 21.7562 5.40936 20.5545C4.8888 19.2686 4.08744 18.3405 3.28032 18.4665C2.52792 18.5839 2.54088 19.584 3.46464 20.808C4.11264 21.6662 4.73976 22.7268 4.93056 23.86L5.3316 25.344L5.7996 23.5476Z" fill="#F09C1F"/>
<path d="M5.7996 23.5476C5.91552 22.8902 5.89608 21.7562 5.40936 20.5545C4.8888 19.2686 4.08744 18.3405 3.28032 18.4665C2.52792 18.5839 2.54088 19.584 3.46464 20.808C4.11264 21.6662 4.73976 22.7268 4.93056 23.86L5.3316 25.344L5.7996 23.5476Z" fill="#F09C1F"/>
<g opacity="0.15">
<path d="M5.7996 23.5476C5.91552 22.8902 5.89608 21.7562 5.40936 20.5545C4.8888 19.2686 4.08744 18.3405 3.28032 18.4665C2.52792 18.5839 2.54088 19.584 3.46464 20.808C4.11264 21.6662 4.73976 22.7268 4.93056 23.86L5.3316 25.344L5.7996 23.5476Z" fill="black"/>
</g>
<path d="M5.60592 24.021C5.59656 24.0186 5.58817 24.0134 5.58187 24.006C5.57556 23.9987 5.57165 23.9896 5.57064 23.98C5.38776 22.0259 4.50792 19.8717 3.528 18.9602C3.52327 18.956 3.51942 18.9509 3.51666 18.9452C3.5139 18.9395 3.5123 18.9333 3.51193 18.927C3.51156 18.9207 3.51244 18.9143 3.51452 18.9083C3.5166 18.9024 3.51983 18.8969 3.52404 18.8921C3.52825 18.8874 3.53335 18.8835 3.53904 18.8808C3.54474 18.878 3.55092 18.8764 3.55724 18.8761C3.56356 18.8757 3.56989 18.8766 3.57586 18.8786C3.58184 18.8807 3.58735 18.884 3.59208 18.8882C4.59072 19.8098 5.4828 21.9935 5.66784 23.9678C5.66905 23.9803 5.66526 23.9927 5.6573 24.0025C5.64934 24.0122 5.63785 24.0183 5.62536 24.0196C5.61899 24.0211 5.61244 24.0216 5.60592 24.021Z" fill="white"/>
<path d="M5.48856 25.6858C5.07618 25.9542 4.6004 26.1094 4.10904 26.1358C3.25944 26.1948 2.92536 25.7621 2.92536 25.7621C2.92536 25.7621 3.32424 25.0054 3.81888 24.8261C3.81888 24.8261 2.99808 24.919 2.31264 25.2941C2.31264 25.2941 1.80072 25.2574 1.66464 24.4582C1.66464 24.4582 2.00952 24.0154 3.04848 23.8505C3.04848 23.8505 2.44368 23.641 1.53216 23.79C1.46016 23.8102 1.26648 22.7755 1.22112 22.3025C1.17576 21.8295 1.36512 21.8503 1.73448 21.7855C2.10384 21.7207 3.348 21.7683 3.55752 21.9879C3.76704 22.2075 3.82248 22.9008 3.82248 22.9008C3.82248 22.9008 4.09176 22.4386 4.03848 22.0188C4.37008 22.0109 4.6991 22.0788 5.0004 22.2175C5.0904 22.2593 5.13864 22.9548 4.87296 23.4847C5.1511 23.2081 5.35214 22.8636 5.45616 22.4854C5.95152 22.8562 6.06816 23.2968 6.10416 23.6914C6.14448 24.1565 6.07392 25.1278 5.48856 25.6858Z" fill="#F09C1F"/>
<path d="M5.48424 25.7325C5.47541 25.7319 5.46695 25.7287 5.45992 25.7233C5.45288 25.718 5.44757 25.7107 5.44464 25.7023C4.89168 24.2385 2.52216 22.3853 1.63728 22.1311C1.63127 22.1294 1.62566 22.1265 1.62077 22.1225C1.61589 22.1186 1.61183 22.1138 1.60882 22.1083C1.60581 22.1028 1.60391 22.0968 1.60323 22.0906C1.60256 22.0844 1.60312 22.0781 1.60488 22.0721C1.60855 22.0602 1.61667 22.0502 1.62754 22.0442C1.6384 22.0381 1.65118 22.0365 1.6632 22.0397C2.56248 22.2989 4.9716 24.1817 5.5332 25.6692C5.5374 25.6809 5.5368 25.6939 5.53155 25.7052C5.5263 25.7165 5.5168 25.7253 5.50512 25.7297C5.49853 25.7324 5.49133 25.7334 5.48424 25.7325Z" fill="white"/>
<path d="M13.9478 11.016L10.9822 9.69984L10.9102 8.07984C11.4862 8.04528 11.6683 8.17056 11.9275 8.33112C12.307 8.56512 13.6123 9.23688 14.2272 9.5256L14.9263 7.5816C15.1276 7.55562 15.3254 7.50732 15.516 7.4376C15.7234 7.344 15.9545 7.4664 15.9545 7.4664C15.9545 7.4664 15.336 10.4616 15.1027 11.016C14.9695 11.3306 14.459 11.2392 13.9478 11.016Z" fill="#FFA8A7"/>
<path d="M10.9109 8.07608C10.9109 8.07608 11.2954 7.95872 11.8152 8.22008C12.335 8.48144 13.5158 9.12224 13.5158 9.12224C13.5158 9.12224 13.1558 10.1065 12.7332 10.6306L11.2414 9.99416L10.9109 8.07608Z" fill="#455A64"/>
<path d="M15.557 20.8637C15.575 19.9954 15.745 19.3978 15.7651 19.1573C15.7651 19.1573 15.701 13.9942 15.701 13.1568L20.1031 12.9775C20.1031 12.9775 19.9591 18.3955 19.9591 19.1127C19.9591 19.8298 19.5026 23.4327 19.368 24.8503C19.1131 25.183 18.815 25.206 18.4147 24.8806C18.4147 24.8806 18.3816 24.6826 18.3298 24.0288C18.2693 23.2807 18.1498 21.5391 18.1426 20.8061C18.1339 19.9032 18.1267 19.5051 18.1526 19.0702C18.1836 18.5727 18.0641 15.216 18.0641 15.216C18.0641 15.216 17.5126 18.4179 17.375 19.5051C17.2181 20.7514 16.7141 24.4011 16.7126 25.1592C16.7126 25.2953 16.7126 25.453 16.7126 25.6236C16.7126 26.034 16.7011 26.1427 16.7666 26.3019C16.8818 26.5798 15.8976 26.754 15.8522 26.5567L15.7464 25.741V25.7172V25.2003C15.7507 24.4263 15.5311 22.1223 15.557 20.8637Z" fill="#B16668"/>
<path d="M21.312 26.1763C21.3386 26.2562 21.3337 26.3433 21.2983 26.4197C21.2645 26.4917 20.893 26.7005 20.3918 26.6667C20.0205 26.6414 19.6628 26.5171 19.3558 26.3067C19.1642 26.1799 18.9655 26.1562 18.7178 26.1425C18.4702 26.1288 18.1418 26.0043 18.0893 25.8883C18.0367 25.7724 18.0972 25.5723 18.0972 25.5723L21.312 26.1763Z" fill="#263238"/>
<path d="M19.2917 24.6136L19.3313 24.605C19.3529 24.5991 19.3754 24.5979 19.3975 24.6014C19.4218 24.6089 19.4434 24.6234 19.4594 24.6431C19.5085 24.7058 19.5515 24.7731 19.5876 24.844C19.6927 25.0154 19.913 25.1572 20.1535 25.2868C20.3177 25.3747 20.4782 25.4431 20.6467 25.5194C20.8152 25.5957 21.0478 25.6439 21.1831 25.7354C21.3797 25.8679 21.4049 26.2012 21.1831 26.333C20.9902 26.446 20.4811 26.5691 19.9483 26.4179C19.6603 26.3359 19.3349 26.0255 18.954 25.9953C18.7114 25.9766 18.2527 25.9082 18.0965 25.7239C18.0389 25.6425 18.1159 25.3833 18.1793 25.1601C18.2513 24.916 18.3002 24.533 18.3809 24.5546C18.3835 24.5985 18.3883 24.6422 18.3953 24.6856C18.4039 24.7231 18.4442 24.7576 18.4673 24.7864L18.5609 24.8944C18.5986 24.9445 18.6458 24.9866 18.6998 25.0183C18.7956 25.0672 18.9101 25.0463 19.0152 25.024C19.0202 25.024 18.972 24.8325 18.967 24.8138C18.9619 24.799 18.9606 24.7831 18.9634 24.7677C18.9696 24.7527 18.9808 24.7403 18.995 24.7324C19.0845 24.6724 19.1856 24.632 19.2917 24.6136Z" fill="#455A64"/>
<path d="M17.7257 27.5965C17.7552 27.6246 17.7466 27.8125 17.7134 27.8665C17.6803 27.9205 17.4773 28.0933 17.113 28.12C16.7645 28.1445 16.4534 28.0977 16.249 27.9681C16.0445 27.8385 15.9458 27.6952 15.9264 27.4965C15.907 27.2977 15.9264 27.1069 15.835 26.9543C15.7478 26.8103 15.6082 26.6548 15.5779 26.5777C15.5124 26.4121 15.5779 26.1738 15.5779 26.1738L17.7257 27.5965Z" fill="#263238"/>
<path d="M16.776 25.8653C16.779 25.9405 16.7925 26.0149 16.8163 26.0863C16.8705 26.2399 16.943 26.3864 17.0323 26.5226C17.0756 26.5942 17.1237 26.6628 17.1763 26.7278C17.2814 26.8531 17.4125 26.9554 17.5241 27.0756C17.6434 27.1889 17.7197 27.34 17.7401 27.5033C17.7552 27.7762 17.4586 27.869 17.2303 27.9101C16.9834 27.9532 16.73 27.9404 16.4887 27.8726C16.362 27.8395 16.2476 27.7705 16.1591 27.674C16.0706 27.5774 16.0118 27.4574 15.9898 27.3283C15.9768 27.2527 15.9818 27.175 15.9725 27.0986C15.9425 26.9243 15.8695 26.7602 15.7601 26.6213C15.6967 26.5404 15.6422 26.453 15.5974 26.3606C15.5254 26.1922 15.583 26.0006 15.629 25.8336C15.6679 25.6896 15.7126 25.5233 15.7637 25.537C15.7637 25.6126 15.7637 25.6205 15.8177 25.6716C15.8897 25.7364 15.8897 25.8336 15.9617 25.8876C15.9382 25.8247 15.9213 25.7596 15.9113 25.6932C15.9068 25.6665 15.9121 25.6391 15.9264 25.6162C15.9506 25.5948 15.9794 25.5795 16.0106 25.5715C16.1181 25.5349 16.2291 25.5096 16.3418 25.4959C16.4491 25.4779 16.5586 25.4779 16.6658 25.4959C16.6976 25.5015 16.7264 25.5181 16.7472 25.5427C16.766 25.5703 16.776 25.6029 16.776 25.6363C16.776 25.6802 16.7702 25.7933 16.776 25.8653Z" fill="#455A64"/>
<path d="M17.064 26.5795C16.9625 26.5032 16.735 26.5017 16.6104 26.5154C16.4836 26.5261 16.3617 26.569 16.2562 26.64C16.2405 26.6509 16.2215 26.6561 16.2024 26.6545C16.1833 26.6529 16.1654 26.6447 16.1518 26.6313C16.1437 26.6237 16.1375 26.6144 16.1335 26.604C16.1295 26.5937 16.1278 26.5826 16.1286 26.5715C16.1293 26.5605 16.1325 26.5497 16.1379 26.54C16.1433 26.5303 16.1507 26.5219 16.1597 26.5154C16.2761 26.4308 16.4142 26.3809 16.5578 26.3714C16.8646 26.3498 16.9546 26.4024 16.9546 26.4024C16.9546 26.4024 17.0928 26.4888 17.064 26.5795Z" fill="#F5F5F5"/>
<path d="M17.2966 26.856C17.1691 26.7804 16.9178 26.7912 16.7926 26.8049C16.6683 26.8174 16.5495 26.8626 16.4484 26.9359C16.4329 26.9472 16.4139 26.9527 16.3947 26.9512C16.3756 26.9498 16.3576 26.9415 16.344 26.928C16.3361 26.9203 16.33 26.9109 16.326 26.9006C16.3221 26.8903 16.3204 26.8792 16.3212 26.8682C16.3219 26.8572 16.3251 26.8465 16.3304 26.8368C16.3357 26.8271 16.343 26.8187 16.3519 26.8121C16.4701 26.7222 16.611 26.6671 16.7587 26.653C17.0654 26.6314 17.1454 26.694 17.1454 26.694C17.1812 26.7077 17.2135 26.7294 17.2397 26.7575C17.2659 26.7856 17.2854 26.8193 17.2966 26.856Z" fill="#F5F5F5"/>
<path d="M16.4347 26.0747C16.5638 26.0524 16.6964 26.0635 16.8199 26.1071C16.8739 26.1373 16.9092 26.223 16.8746 26.2446C16.7666 26.2007 16.6492 26.1846 16.5334 26.1978C16.4184 26.2089 16.3061 26.2396 16.2014 26.2885C16.1755 26.3 16.1438 26.3166 16.1172 26.3317C16.1086 26.3367 16.099 26.3397 16.0892 26.3408C16.0793 26.3419 16.0693 26.3409 16.0599 26.3379C16.0504 26.3349 16.0417 26.33 16.0342 26.3235C16.0267 26.317 16.0206 26.309 16.0164 26.3C16.009 26.2848 16.0077 26.2674 16.0126 26.2513C16.0176 26.2351 16.0284 26.2214 16.043 26.2129C16.1621 26.1392 16.2957 26.0921 16.4347 26.0747Z" fill="#F5F5F5"/>
<path d="M19.9274 25.1556C19.91 25.1221 19.8845 25.0936 19.8531 25.0726C19.8218 25.0516 19.7857 25.0388 19.7482 25.0353C19.638 25.0152 19.4429 25.0965 19.3219 25.1959C19.3104 25.2052 19.3013 25.2172 19.2955 25.2309C19.2897 25.2445 19.2874 25.2594 19.2886 25.2742C19.2899 25.289 19.2948 25.3032 19.3029 25.3157C19.3109 25.3281 19.3219 25.3384 19.3349 25.3456C19.3512 25.3547 19.37 25.3585 19.3886 25.3564C19.4071 25.3544 19.4246 25.3466 19.4386 25.3341C19.572 25.2131 19.7474 25.149 19.9274 25.1556Z" fill="#F5F5F5"/>
<path d="M20.2694 25.3448C20.2454 25.3108 20.2136 25.2832 20.1766 25.2641C20.1396 25.2451 20.0986 25.2352 20.057 25.2354C20.057 25.2354 19.769 25.244 19.5905 25.4096C19.5797 25.4187 19.5712 25.4303 19.5658 25.4434C19.5604 25.4565 19.5582 25.4707 19.5594 25.4848C19.5606 25.4989 19.5651 25.5125 19.5727 25.5244C19.5802 25.5364 19.5905 25.5464 19.6027 25.5536C19.6184 25.5623 19.6364 25.5659 19.6543 25.5638C19.6721 25.5618 19.6888 25.5542 19.7021 25.5421C19.7758 25.4688 19.8651 25.413 19.9633 25.3788C20.0615 25.3447 20.1661 25.333 20.2694 25.3448Z" fill="#F5F5F5"/>
<path d="M20.6467 25.5193C20.6194 25.4878 20.5855 25.4625 20.5475 25.4454C20.5094 25.4282 20.4681 25.4195 20.4264 25.4199C20.2627 25.4299 20.1063 25.4917 19.98 25.5963C19.9692 25.6055 19.9607 25.6171 19.9553 25.6301C19.9499 25.6432 19.9477 25.6574 19.9489 25.6715C19.9501 25.6856 19.9547 25.6992 19.9622 25.7112C19.9697 25.7232 19.98 25.7332 19.9922 25.7403C20.0079 25.7491 20.0259 25.7526 20.0438 25.7506C20.0616 25.7485 20.0783 25.7409 20.0916 25.7288C20.1613 25.653 20.2479 25.5945 20.3443 25.5581C20.4407 25.5217 20.5443 25.5084 20.6467 25.5193Z" fill="#F5F5F5"/>
<path d="M17.4449 19.747L17.8855 16.8288L18.072 19.1731C18.0871 19.3647 18.0382 20.0746 18.0504 20.6607C18.0626 21.2467 18.3175 23.8834 18.3175 23.8834C18.3175 23.8834 18.8165 24.2247 19.4803 23.8834C19.4983 23.8294 19.8518 20.8291 19.8835 20.4439C19.9231 19.9673 19.9922 19.536 20.0081 19.1299C20.0239 18.7239 20.0527 17.8843 20.0462 17.2435C20.0398 16.6027 20.101 12.9775 20.101 12.9775L15.611 12.9912L15.5549 19.0709C15.5275 19.207 15.3742 20.4828 15.4145 21.1215C15.4548 21.7601 15.7255 24.7287 15.7255 24.7287C15.7255 24.7287 16.1302 24.9871 16.7393 24.7287C16.7393 24.7287 17.1166 21.7047 17.2253 21.1344C17.334 20.5642 17.406 20.0033 17.4449 19.747Z" fill="#37474F"/>
<path d="M17.8855 16.8292L18.0216 15.5915C18.4533 15.5433 18.867 15.3916 19.2276 15.1494C19.2276 15.1494 19.1556 15.3078 18.779 15.5548C18.6267 15.6541 18.4595 15.7285 18.2837 15.7751L18.144 16.7601L18.072 19.1303L17.8855 16.8292Z" fill="#263238"/>
<path d="M19.044 6.65918C19.6258 6.65918 19.8871 6.76934 20.1708 7.11494C20.4545 7.46054 21.803 9.27494 21.803 9.27494C21.803 9.27494 22.7563 8.36846 23.243 7.91774C23.5469 7.60526 23.845 7.29926 24.1711 7.20566C24.5117 7.10774 24.3418 7.74134 24.4771 7.79318L24.0746 8.37926C24.0746 8.37926 22.5893 10.3564 22.0702 10.6631C21.8902 10.7697 21.7001 10.9986 21.1982 10.5911C20.5394 10.0547 19.3442 8.7083 19.3442 8.7083L19.044 6.65918Z" fill="#B16668"/>
<path d="M18.8078 6.65821C19.345 6.56749 19.6855 6.53365 20.1708 7.04413C20.6561 7.55461 21.595 8.99533 21.595 8.99533C21.595 8.99533 21.5395 9.73477 20.587 10.0242L19.1146 8.99533L18.8078 6.65821Z" fill="#455A64"/>
<path d="M15.557 13.6081C16.1611 14.048 18.9 14.5355 20.1708 13.6081C20.1708 13.6081 20.1413 10.0578 20.0419 8.17861C20.0369 8.09365 20.0311 8.01085 20.0225 7.93021C20.0225 7.90357 20.016 7.87693 20.0131 7.85029C19.9991 7.73812 19.9777 7.62699 19.949 7.51765C19.944 7.49965 19.9382 7.48165 19.9325 7.46365C19.9208 7.42305 19.9069 7.38314 19.8907 7.34413C19.8828 7.32325 19.8742 7.30237 19.8648 7.28221C19.8565 7.263 19.8471 7.24425 19.8367 7.22605C19.8356 7.22256 19.8341 7.21919 19.8324 7.21597C19.823 7.19797 19.8122 7.17997 19.8022 7.16269C19.7921 7.14541 19.7791 7.12525 19.7654 7.10581C19.7518 7.08637 19.741 7.07053 19.7287 7.05469C19.7165 7.03885 19.6992 7.01869 19.6834 7.00141C19.6687 6.98445 19.6531 6.96834 19.6366 6.95317L19.6034 6.92221C19.5931 6.91208 19.582 6.9027 19.5703 6.89413C19.5559 6.88189 19.5401 6.87037 19.525 6.85957C19.4753 6.8248 19.4228 6.79421 19.368 6.76813C19.3526 6.76006 19.3367 6.75285 19.3205 6.74653C19.3169 6.74653 19.3118 6.74653 19.3097 6.74149L19.2528 6.71989C19.2203 6.70737 19.1871 6.69655 19.1534 6.68749C19.1196 6.67813 19.0814 6.66949 19.0476 6.66085C19.0138 6.65221 18.9612 6.66085 18.9122 6.66085H18.8114C18.7762 6.66085 18.7394 6.66085 18.7034 6.66085C18.2282 6.68173 17.7264 6.58885 17.1792 6.65509C17.1432 6.66013 15.9984 6.78829 15.7342 6.88405C15.4879 6.97405 15.2662 7.41181 15.2114 7.65445C15.048 8.36869 15.768 10.6878 15.768 10.6878L15.557 13.6081Z" fill="#F09C1F"/>
<path d="M17.0186 6.78905C16.9927 6.87761 17.1626 7.14401 17.437 7.26713C17.7113 7.39025 18.1152 7.44713 18.373 7.35857C18.6307 7.27001 18.9418 6.94889 18.6703 6.66305C18.2045 6.67817 17.7127 6.59105 17.1778 6.65657C17.1756 6.65585 17.0453 6.70049 17.0186 6.78905Z" fill="#455A64"/>
<path opacity="0.3" d="M20.0549 8.45215C19.5941 8.61271 18.8374 8.74015 17.8855 8.79559C17.0081 8.83916 16.1285 8.7909 15.2611 8.65159C15.3655 9.25783 15.5491 9.94759 15.6658 10.3486C17.3297 10.6877 19.2334 10.4206 20.1125 10.142C20.0966 9.52567 20.0794 8.95471 20.0549 8.45215Z" fill="black"/>
<path d="M17.1511 4.16216L16.9826 4.34648L16.8962 3.39464C16.8279 3.38668 16.7587 3.39441 16.6938 3.41724C16.6289 3.44008 16.5701 3.47741 16.5218 3.5264C16.3613 3.69056 16.4498 4.20536 16.6514 4.70936C16.6514 4.70936 16.8466 5.62664 16.925 5.77712C16.9769 5.87028 17.0628 5.93971 17.1648 5.9708L17.1511 4.16216Z" fill="#263238"/>
<path d="M17.1295 4.75228C17.0575 4.7962 16.9502 4.65436 16.8595 4.55932C16.7688 4.46428 16.4714 4.33396 16.3231 4.64572C16.1748 4.95748 16.4542 5.38444 16.6882 5.45788C17.0906 5.5846 17.1511 5.32612 17.1511 5.32612L17.1785 6.80788C17.6004 7.57108 19.0282 7.18012 18.4932 6.67396V6.2974C18.6955 6.31216 18.8986 6.31216 19.1009 6.2974C19.3975 6.25204 19.5192 6.04684 19.6092 5.72572C19.7532 5.21092 19.8079 4.79476 19.6855 3.78172C19.5516 2.67148 18.2599 2.65996 17.5622 3.09844C16.8646 3.53692 17.1295 4.75228 17.1295 4.75228Z" fill="#B16668"/>
<path d="M16.9567 2.78756C17.2014 2.68304 17.4568 2.60601 17.7185 2.55788C18.2822 2.43548 18.8561 2.32316 19.3702 2.06324C19.4301 2.02421 19.5003 2.00391 19.5718 2.00492C19.7078 2.02292 19.7669 2.18708 19.7726 2.32388C19.7777 2.45079 19.7611 2.57764 19.7237 2.699C19.7647 2.65987 19.8196 2.63846 19.8763 2.63941C19.933 2.64035 19.9871 2.66357 20.0268 2.70404C20.0644 2.74661 20.0919 2.79721 20.107 2.85199C20.1221 2.90677 20.1244 2.96428 20.1139 3.02012C20.0808 3.27212 19.8878 3.48236 19.6596 3.59612C19.4253 3.69804 19.172 3.74861 18.9166 3.74444C18.5611 3.75401 18.2057 3.72626 17.856 3.66164C17.772 3.64076 17.6851 3.63443 17.599 3.64292C17.556 3.64795 17.5152 3.66491 17.4814 3.69189C17.4476 3.71886 17.4219 3.75478 17.4074 3.79556C17.37 3.93596 17.3311 4.88924 17.136 4.89644C17.1 4.89644 16.961 4.65668 16.8703 4.571C16.7566 4.46372 16.6421 3.64652 16.6219 3.49532C16.6194 3.4836 16.6139 3.47272 16.6061 3.46364C16.4779 3.28364 16.6284 2.98124 16.7868 2.8826C16.8415 2.84758 16.8982 2.81584 16.9567 2.78756Z" fill="#263238"/>
<path d="M16.6759 3.47348C16.653 3.50033 16.6251 3.52242 16.5937 3.53847C16.5623 3.55452 16.528 3.56423 16.4928 3.56704C16.4577 3.56984 16.4223 3.5657 16.3887 3.55483C16.3551 3.54397 16.3241 3.5266 16.2972 3.50372C16.2703 3.48084 16.2483 3.45289 16.2322 3.42148C16.2162 3.39006 16.2065 3.35579 16.2036 3.32062C16.2008 3.28546 16.205 3.25008 16.2158 3.21651C16.2267 3.18295 16.2441 3.15185 16.267 3.125L16.6759 3.47348Z" fill="#263238"/>
<path d="M18.4918 6.2965C18.4918 6.2965 17.8301 6.23315 17.599 6.11003C17.4632 6.03918 17.3521 5.92901 17.28 5.79395C17.3148 5.92921 17.3765 6.05606 17.4614 6.16691C17.6306 6.38291 18.4925 6.50027 18.4925 6.50027L18.4918 6.2965Z" fill="#9A4A4D"/>
<path d="M18.288 4.58648C18.2869 4.61241 18.2782 4.63743 18.2629 4.65845C18.2477 4.67946 18.2266 4.69554 18.2024 4.70469C18.1781 4.71384 18.1516 4.71566 18.1263 4.70992C18.101 4.70417 18.078 4.69112 18.06 4.67239C18.042 4.65365 18.03 4.63005 18.0253 4.60452C18.0207 4.57899 18.0236 4.55266 18.0338 4.52878C18.0439 4.50491 18.0609 4.48455 18.0826 4.47023C18.1042 4.45591 18.1296 4.44827 18.1555 4.44824C18.1733 4.44862 18.1908 4.45249 18.2071 4.45964C18.2234 4.46679 18.2381 4.47708 18.2504 4.48992C18.2627 4.50275 18.2724 4.51789 18.2788 4.53446C18.2853 4.55103 18.2884 4.56871 18.288 4.58648Z" fill="#263238"/>
<path d="M18.149 4.0853L17.8654 4.24154C17.8451 4.20271 17.8406 4.15753 17.853 4.1155C17.8654 4.07346 17.8935 4.03786 17.9316 4.01618C17.9503 4.00604 17.9709 3.99978 17.9921 3.99777C18.0133 3.99577 18.0347 3.99806 18.055 4.00451C18.0753 4.01097 18.0941 4.02145 18.1103 4.03533C18.1264 4.04921 18.1396 4.06621 18.149 4.0853Z" fill="#263238"/>
<path d="M18.3492 5.50195L18.72 5.64019C18.7117 5.66488 18.6985 5.68764 18.6812 5.70714C18.664 5.72663 18.643 5.74245 18.6195 5.75367C18.596 5.76488 18.5704 5.77126 18.5444 5.77242C18.5184 5.77359 18.4924 5.76951 18.468 5.76043C18.419 5.74062 18.3794 5.70282 18.3573 5.65478C18.3352 5.60673 18.3323 5.55206 18.3492 5.50195Z" fill="#9A4A4D"/>
<path d="M19.4594 4.19541L19.201 3.99669C19.2129 3.97901 19.2283 3.96395 19.2462 3.95244C19.2642 3.94093 19.2843 3.93322 19.3053 3.92978C19.3264 3.92634 19.3479 3.92724 19.3686 3.93244C19.3893 3.93763 19.4087 3.947 19.4256 3.95997C19.4606 3.98721 19.4837 4.02696 19.49 4.07087C19.4963 4.11478 19.4854 4.15942 19.4594 4.19541Z" fill="#263238"/>
<path d="M19.3795 4.54758C19.38 4.56535 19.3769 4.58303 19.3705 4.59961C19.3641 4.61618 19.3544 4.6313 19.3421 4.6441C19.3298 4.6569 19.315 4.66712 19.2987 4.67416C19.2824 4.6812 19.2648 4.68492 19.247 4.6851C19.2196 4.68611 19.1926 4.67891 19.1693 4.66442C19.146 4.64993 19.1276 4.62882 19.1165 4.6038C19.1053 4.57877 19.1018 4.55098 19.1065 4.52398C19.1113 4.49698 19.1239 4.47201 19.143 4.45227C19.162 4.43253 19.1865 4.41892 19.2133 4.41319C19.2401 4.40746 19.268 4.40988 19.2934 4.42012C19.3188 4.43037 19.3406 4.44797 19.3559 4.47068C19.3713 4.4934 19.3795 4.52017 19.3795 4.54758Z" fill="#263238"/>
<path d="M18.7402 4.4541L18.7841 5.25114L19.2002 5.1093L18.7402 4.4541Z" fill="#9A4A4D"/>
<path d="M16.367 6.76172C15.4829 6.80348 15.2215 6.94244 14.927 7.57676C14.711 8.04044 13.631 10.9046 13.433 11.4172C13.2595 11.8744 13.2365 12.1092 13.6152 12.4216C13.9939 12.7341 14.3755 13.025 14.7672 13.3137C15.0055 13.4901 15.2194 13.6816 15.4598 13.8544C15.8386 14.1259 16.2086 14.4304 16.6118 14.6587C17.0942 14.933 17.9662 15.2937 18.4255 14.7912C18.5162 14.6918 18.6005 14.5752 18.5508 14.4312C18.5123 14.3385 18.4428 14.2622 18.3542 14.2152C18.2662 14.1685 18.1742 14.13 18.0792 14.1C17.8666 14.0235 17.6616 13.9271 17.4672 13.812C17.635 13.7587 17.8186 13.7716 17.9892 13.74C18.0374 13.7312 18.081 13.7057 18.1123 13.668C18.1282 13.6494 18.137 13.6258 18.137 13.6014C18.137 13.5769 18.1282 13.5533 18.1123 13.5348C18.0912 13.5189 18.0665 13.5088 18.0403 13.5052C17.8003 13.4515 17.5577 13.4056 17.3124 13.3677C17.0857 13.3415 16.8615 13.297 16.6421 13.2345C16.2886 13.1193 16.0661 12.8594 15.8141 12.6009C15.5383 12.318 15.2755 12.0249 15.0221 11.7211L16.2 8.9498C16.2 8.9498 16.8084 7.36004 16.367 6.76172Z" fill="#B16668"/>
<path d="M16.493 6.74219C16.1539 6.76091 15.629 6.80123 15.3835 6.95819C15.0991 7.14035 14.9918 7.28075 14.7096 7.97195C14.4274 8.66315 13.8722 10.1096 13.8722 10.1096C14.0626 10.3567 14.3111 10.5528 14.5957 10.6806C14.8802 10.8083 15.1919 10.8637 15.503 10.8419L16.439 8.68187C16.439 8.68187 16.8746 7.53563 16.493 6.74219Z" fill="#455A64"/>
<path d="M17.8416 14.5443C17.73 14.0871 18.1469 13.6962 18.4853 13.4643C19.0073 13.1043 19.4702 12.8883 20.0081 12.5658C20.4977 12.2706 21.9967 11.2273 21.9967 11.2273C21.9967 11.2273 22.7722 10.0069 23.3028 9.07305C23.9609 7.91745 24.4786 7.17873 25.5802 7.31121L25.5701 8.70513C25.5701 8.70513 23.2186 11.9005 23.0738 12.0726C22.9291 12.2447 22.8708 12.3217 22.6224 12.4326C21.9492 12.7436 21.0974 13.1324 20.4206 13.5543C20.2273 13.6728 20.0762 13.8491 19.9886 14.0583C19.9159 14.2259 19.822 14.3834 19.7093 14.5271C19.6543 14.5973 19.5952 14.6641 19.5322 14.7272C19.4897 14.769 19.4112 14.8547 19.3471 14.8482C19.3319 14.8458 19.3174 14.8399 19.3049 14.8309C19.2924 14.8219 19.2822 14.81 19.2751 14.7963C19.261 14.7682 19.2539 14.7371 19.2542 14.7056C19.2499 14.5134 19.391 14.3456 19.4105 14.1534C19.4105 14.1361 19.3882 14.1447 19.3846 14.1282C19.381 14.1116 19.0843 14.2837 19.0584 14.301C18.9528 14.3744 18.8513 14.4538 18.7546 14.5386C18.6566 14.6228 18.5594 14.7092 18.4594 14.7906C18.4127 14.836 18.3539 14.867 18.29 14.8798C18.2261 14.8925 18.1599 14.8866 18.0994 14.8626C18.0352 14.8323 17.9788 14.788 17.9341 14.7329C17.8895 14.6778 17.8579 14.6133 17.8416 14.5443Z" fill="#FFBDA7"/>
<path d="M25.7213 7.29767C25.3692 7.22567 24.5066 7.23503 24.1164 7.75919C23.7046 8.31143 22.4309 10.4037 22.4309 10.4037C22.4309 10.4037 22.7563 11.1021 23.7089 11.3397L25.344 9.11207L25.7213 7.29767Z" fill="#455A64"/>
<path d="M28.7035 28.979C28.7323 29.0921 28.7921 29.411 29.3868 29.411C29.9815 29.411 30.3228 29.1669 30.4387 28.8653C30.5546 28.5636 30.4884 28.3389 30.4776 28.0733C30.4668 27.8076 30.6626 27.6413 30.7058 27.4973C30.7699 27.2877 30.595 26.999 30.595 26.999L28.7035 28.979Z" fill="#263238"/>
<path d="M22.9867 27.0374C22.9708 27.0847 22.9651 27.1347 22.9698 27.1843C22.9745 27.234 22.9896 27.282 23.0141 27.3254C23.0573 27.3838 23.4562 27.6732 23.9501 27.6134C24.3114 27.5782 24.659 27.457 24.9638 27.2599C25.2518 27.09 25.4498 27.0655 25.7429 27.0662C26.0359 27.067 26.2361 27.0122 26.2606 26.9381C26.303 26.8092 26.3059 26.7264 26.244 26.7286L22.9867 27.0374Z" fill="#263238"/>
<path d="M29.9081 22.1038C29.8318 21.4779 29.6215 20.8758 29.2918 20.3384C29.2918 20.3384 29.0038 16.0904 28.759 13.8584H24.3612C24.3612 13.8584 24.4922 19.6465 24.5628 20.4954C24.6168 21.1434 25.061 25.2056 25.0618 25.2135L25.1258 25.891C25.4707 26.0646 25.7414 26.0386 26.0352 25.8277L26.0978 25.2279C26.0978 25.2279 26.4578 22.6525 26.4802 22.0383C26.505 21.5139 26.4469 20.9888 26.3081 20.4824L26.8416 17.5974C26.8416 17.5974 27.2678 19.6364 27.509 20.7783C27.7848 22.0866 29.381 26.3706 29.381 26.372L29.4826 26.7284C29.4602 27.1172 30.3955 26.8522 30.3854 26.5462C30.384 26.547 30.0845 23.4337 29.9081 22.1038Z" fill="#FFBDA7"/>
<path d="M27.3355 20.8354C27.095 19.6935 26.8416 17.5954 26.8416 17.5954L26.5061 20.5265C25.3008 21.0478 24.4706 20.5474 24.4706 20.5474C24.2546 18.3759 24.3612 13.8564 24.3612 13.8564H28.759C29.0023 16.0884 29.435 20.2882 29.435 20.2882C29.435 20.2882 29.0923 21.0125 27.3355 20.8354Z" fill="#37474F"/>
<path d="M26.8416 17.5985L26.5435 16.2262C26.5435 16.2262 25.8782 16.0742 25.403 15.6934C25.403 15.6934 25.5773 16.1311 26.3059 16.4659L26.6105 17.7518L26.5291 20.3266L26.8416 17.5985Z" fill="#263238"/>
<path d="M29.484 26.7291L29.448 26.611C29.4091 26.6499 29.4149 26.683 29.4134 26.7889C29.4134 26.8724 29.4134 26.953 29.4026 27.0639C29.3886 27.2087 29.3621 27.352 29.3234 27.4923C29.2464 27.8177 29.16 27.9488 28.931 28.3513C28.8763 28.4463 28.7453 28.6054 28.7064 28.7113C28.6675 28.8171 28.656 28.9992 28.7784 29.0712C29.1262 29.2772 29.6626 29.221 30.0024 29.0612C30.1297 29.0032 30.2376 28.9098 30.3134 28.7923C30.3892 28.6748 30.4297 28.5379 30.4301 28.3981C30.4301 28.3153 30.4128 28.2332 30.4092 28.1504C30.412 27.9594 30.4614 27.7721 30.5532 27.6046C30.6055 27.5077 30.6475 27.4057 30.6785 27.3001C30.7246 27.1078 30.6338 26.9141 30.5582 26.7413C30.4934 26.5923 30.4178 26.3929 30.3667 26.4159L30.3869 26.5469C30.3336 26.6276 30.1709 26.7248 29.97 26.7629C29.8418 26.7889 29.4984 26.827 29.484 26.7291Z" fill="#455A64"/>
<path d="M25.0891 25.507C25.0438 25.507 24.9977 25.5423 24.917 25.6603C24.8061 25.8223 24.663 25.9595 24.4966 26.0635C24.1978 26.2738 23.7247 26.4862 23.2387 26.6683C22.9738 26.767 22.9234 26.9563 23.0105 27.1299C23.148 27.2667 23.6153 27.5871 24.3828 27.3531C24.8587 27.2091 25.0265 26.9643 25.367 26.9211C25.6075 26.8901 26.0251 26.9563 26.2706 26.7576C26.3484 26.5719 26.2858 26.3847 26.2613 26.1269C26.2368 25.8691 26.154 25.4566 26.0726 25.4731L26.0582 25.6092C25.9927 25.908 25.3058 25.9368 25.1114 25.7417L25.0891 25.507Z" fill="#455A64"/>
<path d="M26.9438 7.23535C27.707 7.28287 28.7028 7.27351 28.7496 8.05543C28.8216 9.25495 28.5905 12.2106 28.5905 12.2106L28.8374 14.2791C28.278 14.8767 25.7335 15.1892 24.305 14.313C24.305 14.313 24.2237 9.82519 24.336 9.14623C24.5376 7.92223 25.1345 7.33975 25.5802 7.30519L26.9438 7.23535Z" fill="#F09C1F"/>
<path d="M27.288 7.61906C27.4637 7.44194 27.5184 7.27202 27.3931 7.25906C27.2398 7.24826 27.0857 7.24178 26.941 7.23242L25.861 7.28786C25.861 7.28786 25.6154 7.53554 25.6882 7.74218C25.7609 7.94882 25.9978 8.05178 26.2886 8.04026C26.6614 8.02362 27.0158 7.87423 27.288 7.61906Z" fill="#455A64"/>
<path opacity="0.3" d="M24.3216 9.25879C24.295 9.54247 24.282 10.1026 24.2784 10.7513C25.6702 11.2244 27.6833 10.9709 28.6848 10.7953C28.715 10.2689 28.7438 9.84271 28.7568 9.30343C27.1714 9.64831 25.3663 9.52015 24.3216 9.25879Z" fill="black"/>
<path d="M27.9914 7.33887C28.4818 7.33887 28.8634 7.36983 29.2061 7.79103C29.4458 8.08479 31.2271 10.2779 31.4381 10.6429C31.649 11.008 31.6634 11.1513 31.351 11.6092C31.0918 11.9886 29.6474 14.1292 29.1802 14.6137C28.7129 15.0983 28.0886 15.1797 27.7798 15.0501C27.4709 14.9205 27.0749 14.6109 27.841 14.2581C28.3781 14.0133 28.687 13.762 28.7496 13.5201L28.71 13.1745H28.998L30.0146 11.0886L28.2355 9.17919C28.2355 9.17919 27.6264 8.11575 27.9914 7.33887Z" fill="#FFBDA7"/>
<path d="M27.8244 7.30714C27.8244 7.30714 28.4825 7.29562 28.7302 7.38274C28.9778 7.46986 29.1823 7.67074 29.5315 8.10274C29.8807 8.53474 30.8441 9.7645 30.8441 9.7645C30.8441 9.7645 30.7361 10.5889 29.6921 10.8251L28.1678 9.32026C28.1678 9.32026 27.5458 8.68954 27.8244 7.30714Z" fill="#455A64"/>
<path d="M26.3893 5.39906C26.9328 5.00113 27.0509 4.23794 26.6529 3.69443C26.255 3.15092 25.4918 3.03291 24.9483 3.43085C24.4048 3.82878 24.2868 4.59197 24.6847 5.13547C25.0826 5.67898 25.8458 5.79699 26.3893 5.39906Z" fill="#263238"/>
<path d="M27.792 5.25C27.792 5.25 27.6077 6.18168 27.5306 6.33648C27.4786 6.43156 27.3916 6.50259 27.288 6.53448V5.88144L27.792 5.25Z" fill="#263238"/>
<path d="M27.522 3.92402C27.5909 3.91472 27.6611 3.9213 27.7271 3.94327C27.7931 3.96523 27.8532 4.00199 27.9029 4.05074C28.0685 4.2149 27.9857 4.7369 27.7906 5.24954L27.4198 5.29778L27.522 3.92402Z" fill="#263238"/>
<path d="M27.3074 5.30005C27.383 5.34397 27.4874 5.19853 27.5782 5.10061C27.6689 5.00269 27.967 4.86661 28.1218 5.18053C28.2766 5.49445 28.0008 5.92933 27.7654 6.00709C27.36 6.14173 27.2945 5.88109 27.2945 5.88109L27.288 7.39309C26.7919 8.05117 25.3843 8.01805 25.9596 7.33045L25.9538 6.88261C25.9538 6.88261 25.5852 6.94453 25.4052 6.91933C25.1042 6.87757 24.912 6.64429 24.8162 6.32101C24.6622 5.80261 24.6002 5.38501 24.7075 4.35541C24.8263 3.23005 26.1324 3.19765 26.8452 3.63109C27.558 4.06453 27.3074 5.30005 27.3074 5.30005Z" fill="#FFBDA7"/>
<path d="M27.3096 5.42576C27.347 5.42576 27.486 5.18672 27.5782 5.10032C27.7049 4.98152 27.522 3.92384 27.522 3.92384C27.565 3.82979 27.5787 3.72499 27.5614 3.62304C27.5441 3.52109 27.4965 3.42671 27.4248 3.35216C27.2455 3.16064 26.9928 2.92808 26.2008 3.03464C25.6313 3.11096 25.0135 3.29888 24.5081 3.06056C24.4645 3.22405 24.4704 3.39681 24.5251 3.55692C24.5799 3.71703 24.6809 3.85727 24.8155 3.95984C24.8155 3.95984 24.9991 4.0736 25.4772 4.12472C25.9553 4.17584 26.7012 4.09448 26.7998 4.07864C26.9381 4.05776 26.9698 4.19168 27.0504 4.55672C27.121 4.88072 27.1836 5.42504 27.3096 5.42576Z" fill="#263238"/>
<path d="M27.5227 4.00609L27.9698 3.75697C27.955 3.72682 27.9342 3.7 27.9088 3.67812C27.8833 3.65623 27.8536 3.63974 27.8216 3.62965C27.7896 3.61955 27.7558 3.61606 27.7224 3.61938C27.689 3.6227 27.6565 3.63277 27.6271 3.64897C27.5671 3.68362 27.5228 3.74008 27.5033 3.8066C27.4839 3.87311 27.4908 3.94456 27.5227 4.00609Z" fill="#263238"/>
<path d="M26.051 5.17819C26.053 5.20425 26.0626 5.22916 26.0785 5.24986C26.0945 5.27056 26.1161 5.28613 26.1408 5.29467C26.1655 5.30321 26.1922 5.30433 26.2175 5.29791C26.2428 5.29148 26.2657 5.27778 26.2834 5.2585C26.301 5.23922 26.3126 5.2152 26.3168 5.1894C26.321 5.1636 26.3175 5.13715 26.3068 5.11331C26.2961 5.08946 26.2787 5.06927 26.2566 5.05521C26.2346 5.04115 26.2089 5.03384 26.1828 5.03419C26.1646 5.03464 26.1466 5.03876 26.13 5.04631C26.1135 5.05386 26.0986 5.06469 26.0863 5.07814C26.074 5.09158 26.0645 5.10738 26.0584 5.12457C26.0524 5.14176 26.0499 5.16 26.051 5.17819Z" fill="#263238"/>
<path d="M26.1281 4.69114L26.4161 4.8445C26.4358 4.80473 26.4393 4.75887 26.4259 4.71656C26.4124 4.67426 26.3831 4.63882 26.3441 4.6177C26.3251 4.60814 26.3044 4.60245 26.2832 4.60097C26.2621 4.5995 26.2408 4.60226 26.2207 4.60909C26.2006 4.61593 26.182 4.62671 26.1661 4.6408C26.1502 4.65488 26.1373 4.672 26.1281 4.69114Z" fill="#263238"/>
<path d="M24.7918 4.82374L25.0502 4.61782C25.0377 4.60032 25.0218 4.58555 25.0034 4.57444C24.985 4.56333 24.9645 4.5561 24.9432 4.5532C24.9219 4.5503 24.9002 4.55179 24.8795 4.55758C24.8588 4.56337 24.8394 4.57333 24.8227 4.58686C24.7881 4.61476 24.7655 4.65496 24.7597 4.69909C24.7539 4.74322 24.7654 4.78787 24.7918 4.82374Z" fill="#263238"/>
<path d="M24.9163 5.17819C24.9183 5.20425 24.9278 5.22916 24.9438 5.24986C24.9597 5.27056 24.9814 5.28613 25.0061 5.29467C25.0308 5.30321 25.0575 5.30433 25.0828 5.29791C25.1081 5.29148 25.131 5.27778 25.1487 5.2585C25.1663 5.23922 25.1779 5.2152 25.1821 5.1894C25.1862 5.1636 25.1828 5.13715 25.1721 5.11331C25.1614 5.08946 25.1439 5.06927 25.1219 5.05521C25.0999 5.04115 25.0742 5.03384 25.0481 5.03419C25.0299 5.03474 25.012 5.03893 24.9955 5.04651C24.9789 5.0541 24.9641 5.06492 24.9518 5.07835C24.9395 5.09178 24.93 5.10753 24.9239 5.12468C24.9178 5.14183 24.9153 5.16002 24.9163 5.17819Z" fill="#263238"/>
<path d="M25.9538 6.88623C25.9538 6.88623 26.6112 6.75735 26.8423 6.63495C26.9641 6.56447 27.0567 6.45292 27.1037 6.32031C27.0912 6.45164 27.0412 6.57661 26.9597 6.68031C26.7905 6.89631 25.9574 7.08639 25.9574 7.08639L25.9538 6.88623Z" fill="#F0997A"/>
<path d="M26.095 6.08984L25.7256 6.2288C25.7336 6.25366 25.7465 6.27663 25.7637 6.29636C25.7808 6.31608 25.8017 6.33214 25.8251 6.34357C25.8486 6.35501 25.8742 6.36158 25.9002 6.36289C25.9263 6.3642 25.9524 6.36022 25.9769 6.3512C26.0266 6.33139 26.0666 6.29309 26.0886 6.24434C26.1107 6.1956 26.1129 6.14022 26.095 6.08984Z" fill="#F0997A"/>
<path d="M25.704 5.04199L25.6601 5.83903L25.2439 5.69719L25.704 5.04199Z" fill="#F0997A"/>
<path d="M10.5545 7.38623L10.4774 7.39415C10.2243 7.42121 9.96824 7.39812 9.72399 7.3262C9.47975 7.25429 9.25206 7.13495 9.05395 6.97502C8.85583 6.81508 8.69117 6.61768 8.56937 6.39409C8.44757 6.17049 8.37101 5.92509 8.34408 5.67191C8.29267 5.17877 8.439 4.68538 8.75094 4.30001C9.06289 3.91463 9.51497 3.66875 10.008 3.61631L10.224 3.59327C10.716 3.54156 11.2085 3.68672 11.5938 3.99702C11.9791 4.30732 12.2259 4.75754 12.2803 5.24927C12.3077 5.50296 12.2847 5.75956 12.2127 6.00436C12.1407 6.24916 12.0211 6.47735 11.8608 6.67587C11.7005 6.87438 11.5026 7.0393 11.2784 7.1612C11.0543 7.2831 10.8082 7.35957 10.5545 7.38623Z" fill="#263238"/>
<path d="M9.558 3.7203C10.0675 3.51378 10.5896 3.33967 11.1211 3.19902C11.3314 3.13822 11.5514 3.11842 11.7691 3.1407C11.8775 3.15298 11.9818 3.18951 12.0742 3.2476C12.1665 3.30568 12.2446 3.38382 12.3026 3.47622C12.4322 3.7095 12.3746 4.01406 12.2119 4.22718C12.3548 4.27051 12.4805 4.35738 12.5716 4.47565C12.6627 4.59392 12.7145 4.73769 12.7199 4.88686C12.7253 5.03604 12.684 5.18318 12.6017 5.30772C12.5194 5.43226 12.4002 5.52798 12.2609 5.5815C12.073 5.64138 11.8734 5.65496 11.6791 5.6211C11.2692 5.58036 10.872 5.45613 10.512 5.25606C10.1508 5.05404 9.86351 4.74203 9.69192 4.36542" fill="#263238"/>
<path d="M11.5092 26.1662C11.3054 25.9344 11.2716 25.7148 11.3112 25.295C11.3508 24.8752 11.7792 21.222 11.8872 20.3076C12.0715 18.7711 12.1356 14.3856 12.0355 13.3135L7.92 13.5295C7.60248 14.2675 7.35912 15.1797 7.36776 16.6255C7.37424 17.7249 7.27056 20.705 7.27056 20.705C7.27056 20.705 6.75792 21.1298 6.37704 21.9859C6.0408 22.7419 5.60736 25.3699 5.60736 25.3699C5.57349 25.4842 5.53113 25.5959 5.48064 25.704C5.38788 25.8106 5.3325 25.9446 5.32296 26.0856C5.31088 26.542 5.34732 26.9984 5.43168 27.4471C5.4756 27.6796 5.616 27.8316 5.84352 27.9295C5.8941 27.9515 5.94893 27.9621 6.00408 27.9604C6.03265 27.9609 6.06045 27.9512 6.08256 27.9331C6.12288 27.8949 6.08976 27.802 6.08256 27.7552C6.07272 27.6803 6.06791 27.6048 6.06816 27.5292C6.06816 27.3808 6.0768 27.1994 6.09048 27.0518C6.11875 26.7197 6.181 26.3913 6.27624 26.0719L6.36048 25.884C6.36048 25.884 8.23752 22.3358 8.76672 21.4732C9.1872 20.7957 9.52416 18.1339 9.84672 16.6824L10.237 20.1823C10.1073 20.5417 10.0083 20.9114 9.94104 21.2875C9.8496 21.9355 10.2398 24.48 10.3529 25.385C10.3741 25.5525 10.3717 25.7222 10.3457 25.889C10.3838 26.2814 10.674 26.4096 10.9714 26.6385C11.1197 26.7523 11.772 27.1728 12.1702 27.2642C12.4942 27.3362 12.6216 27.216 12.6698 27.1252C12.2488 26.8494 11.8595 26.5277 11.5092 26.1662Z" fill="#FFA8A7"/>
<path d="M4.95432 26.2119C4.91921 26.2327 4.88892 26.2607 4.86546 26.2941C4.842 26.3275 4.82591 26.3655 4.81824 26.4056C4.79016 26.5438 4.82616 26.7282 4.87224 26.9096C4.91832 27.091 4.91184 27.4777 4.89384 27.7592C4.87491 28.0263 4.95146 28.2914 5.10984 28.5073C5.25816 28.7002 5.52096 28.8442 5.86224 28.8565C6.20352 28.8687 6.38136 28.8226 6.51024 28.755C6.63912 28.6873 6.69456 28.3417 6.48144 28.2618C6.26832 28.1818 5.5368 28.0458 5.37912 27.3682C5.28541 26.9669 5.14274 26.5785 4.95432 26.2119Z" fill="#263238"/>
<path d="M5.48064 25.7044C5.50673 25.7835 5.51938 25.8665 5.51808 25.9499C5.53077 26.0188 5.53871 26.0886 5.54184 26.1587C5.54184 26.2206 5.55264 26.2948 5.60952 26.3185C5.63278 26.3254 5.65755 26.3254 5.68081 26.3185C5.70407 26.3116 5.72483 26.2981 5.74056 26.2796C5.77097 26.2418 5.79933 26.2024 5.82552 26.1616C5.85672 26.1209 5.8966 26.0877 5.94224 26.0644C5.98789 26.041 6.03816 26.0282 6.0894 26.0267C6.14064 26.0253 6.19156 26.0353 6.23845 26.056C6.28534 26.0767 6.32703 26.1076 6.36048 26.1464L6.33528 26.204C6.1354 26.6951 6.09166 27.2359 6.21 27.7528C6.23111 27.8532 6.286 27.9434 6.36552 28.0084C6.43353 28.0614 6.49755 28.1194 6.55704 28.1819C6.58679 28.2135 6.60934 28.2511 6.62314 28.2923C6.63694 28.3334 6.64165 28.3771 6.63696 28.4202C6.6228 28.4848 6.58506 28.5418 6.53112 28.58C6.4777 28.6178 6.41831 28.6463 6.35544 28.6643C6.05327 28.764 5.72442 28.7447 5.436 28.6103C5.3143 28.546 5.21003 28.4531 5.13216 28.3396C4.96944 28.0379 4.99608 27.7549 5.0004 27.4986C5.01048 26.9327 4.9284 26.6382 4.88664 26.3538C4.84056 26.0067 5.3748 25.6468 5.48064 25.7044Z" fill="#455A64"/>
<path d="M10.183 26.7168C10.1628 26.85 10.1491 26.909 10.3126 27.0322C10.476 27.1553 10.7287 27.2424 10.9246 27.3202C11.1204 27.3979 11.3962 27.619 11.515 27.7298C11.6338 27.8407 12.0953 28.0402 12.4711 28.0279C12.847 28.0157 13.0651 27.9307 13.1558 27.8501C13.2466 27.7694 13.3409 27.485 13.1004 27.4066C12.8599 27.3281 10.183 26.7168 10.183 26.7168Z" fill="#263238"/>
<path d="M10.3536 25.7759C10.3414 25.7787 10.3301 25.7846 10.3209 25.7931C10.3117 25.8015 10.3049 25.8123 10.301 25.8242C10.2665 25.93 10.265 26.0517 10.2398 26.1604C10.2017 26.331 10.1585 26.5758 10.183 26.7141C10.2074 26.8523 10.3896 26.9906 10.7359 27.0986C10.944 27.1641 11.3119 27.3549 11.4818 27.5154C11.687 27.712 12.1298 27.8826 12.4351 27.8999C12.7908 27.9201 13.1645 27.8344 13.2566 27.581C13.2955 27.4737 13.2754 27.3074 12.8246 27.077C12.8246 27.077 12.4812 26.8926 12.3523 26.8077C12.1254 26.6635 11.9123 26.4987 11.7158 26.3152C11.6446 26.2465 11.5791 26.1721 11.52 26.0927C11.489 26.0558 11.4613 26.0163 11.4372 25.9746C11.4105 25.898 11.3928 25.8185 11.3846 25.7378C11.3814 25.7121 11.3726 25.6876 11.3587 25.6658C11.3398 25.6434 11.3148 25.6272 11.2867 25.619C11.219 25.5936 11.146 25.5858 11.0744 25.5964C11.0029 25.6069 10.9352 25.6354 10.8777 25.6792C10.8201 25.723 10.7746 25.7806 10.7454 25.8468C10.7162 25.913 10.7043 25.9854 10.7107 26.0574C10.6862 26.0697 10.656 26.0466 10.6481 26.02C10.6441 25.9926 10.6419 25.9649 10.6416 25.9372C10.6355 25.9078 10.6218 25.8804 10.6018 25.858C10.5818 25.8355 10.5563 25.8186 10.5278 25.809C10.4738 25.7825 10.4136 25.7711 10.3536 25.7759Z" fill="#455A64"/>
<path d="M9.65232 17.7842C9.70416 17.3925 9.8316 16.8597 9.8316 16.8597L9.9396 17.7698L10.1714 20.1335C10.0913 20.3537 10.0235 20.5782 9.9684 20.806C9.85104 21.2625 9.864 22.03 9.936 22.534C10.008 23.038 10.1621 23.9409 10.1621 23.9409C10.8965 24.3491 11.4718 23.9654 11.4718 23.9654C11.4718 23.9654 11.6424 22.9487 11.8195 21.4828C11.9966 20.0169 12.0787 18.5632 12.1205 17.3428C12.1205 17.3428 12.3098 14.3066 11.8498 12.2387C11.2342 12.6484 9.43632 12.6866 8.72712 12.0947C8.72712 12.0947 8.424 12.567 7.76232 13.6218C7.24248 14.4498 7.35336 15.8049 7.3152 16.9338C7.25616 18.6762 7.2144 20.644 7.2144 20.644C6.97761 20.8945 6.76454 21.1664 6.57792 21.4562C6.24672 21.9602 6.05376 23.092 6.05376 23.092C6.05376 23.092 6.35688 23.7825 7.45128 23.8408C7.45128 23.8408 8.56584 21.9314 8.84448 21.4986C9.12312 21.0659 9.60048 18.1751 9.65232 17.7842Z" fill="#37474F"/>
<path d="M9.8316 16.8593L10.2715 15.3315C10.2715 15.3315 11.039 15.2696 11.6467 14.8477C11.6467 14.8477 11.5092 15.4071 10.4508 15.5446L9.95688 17.0429V17.9703L9.8316 16.8593Z" fill="#263238"/>
<path d="M12.3286 9.52529C11.9455 8.89745 11.1643 8.28833 10.9109 8.07665L9.40536 8.04785C9.10944 8.05577 8.67528 8.08241 8.67528 8.08241C8.35776 8.24153 8.3628 8.63105 8.34264 8.99825C8.3196 9.40145 8.31312 9.57857 8.40672 10.2475L8.58672 11.1021L8.61408 11.2331C8.61912 11.2555 8.62344 11.2785 8.62848 11.3051C8.6976 11.6327 8.64648 11.9741 8.48448 12.2671C8.12448 12.9151 7.70184 13.4025 7.57224 13.9519C7.7698 13.9023 7.95146 13.8032 8.1 13.6639C8.32752 13.4572 8.46432 13.3622 8.64864 13.1159C8.64864 13.1159 8.65656 13.4903 9.01512 13.9907C9.10704 14.1191 9.21307 14.2367 9.3312 14.3414C9.98352 14.9174 11.9851 15.2126 12.0967 13.4637C12.0967 13.4637 11.9045 12.3535 11.8771 11.9812C11.9419 11.6623 12.1241 11.1115 12.1313 10.9883C12.6 10.5844 12.6079 9.98249 12.3286 9.52529Z" fill="#F09C1F"/>
<path d="M9.41904 8.35195C9.56304 8.52619 9.91512 8.91427 10.2442 8.98123C10.6308 9.05971 11.029 9.02659 11.1276 8.78827C11.2262 8.54995 11.0369 8.26195 10.8626 8.07691L9.40536 8.04883H9.29952C9.29448 8.07547 9.25632 8.14963 9.41904 8.35195Z" fill="#455A64"/>
<path opacity="0.3" d="M8.36352 9.91322C8.37504 10.0097 8.38872 10.1199 8.40672 10.2473L8.58672 11.1019L8.61408 11.233C8.61912 11.2553 8.62344 11.2783 8.62848 11.305C8.6491 11.4117 8.65828 11.5203 8.65584 11.629C10.129 12.1243 11.3198 11.868 11.9628 11.629C12.0348 11.3547 12.1248 11.0703 12.1298 10.986C12.2907 10.8532 12.4091 10.6762 12.4703 10.4768C12.5316 10.2774 12.5332 10.0645 12.4747 9.86426C12.132 10.0407 11.6251 10.1465 11.101 10.1955C10.1788 10.2826 9.24851 10.1867 8.36352 9.91322Z" fill="black"/>
<path opacity="0.1" d="M11.4055 10.8984C11.4055 10.8984 10.9015 11.3225 10.2974 11.1346C10.1288 11.0878 9.97499 10.9983 9.85091 10.8749C9.72682 10.7514 9.63661 10.5981 9.58896 10.4297C9.58896 10.4297 9.55152 11.1115 10.309 11.3153C11.0419 11.5111 11.4055 10.8984 11.4055 10.8984Z" fill="black"/>
<path d="M16.0272 13.4887C16.0132 13.4721 15.9947 13.4599 15.9739 13.4534C15.2208 13.1561 14.3784 13.4253 13.7225 13.344L13.7326 13.5686C14.0443 13.7609 14.4295 13.7969 14.7946 13.7681C15.1596 13.7393 15.5182 13.6536 15.8832 13.6205C15.923 13.621 15.9622 13.6111 15.997 13.5917C16.0141 13.5816 16.0268 13.5653 16.0324 13.5462C16.038 13.527 16.0362 13.5065 16.0272 13.4887Z" fill="#F28F8F"/>
<path d="M10.7388 13.6485C10.5509 13.6053 10.1916 13.4534 10.0642 13.2842C9.8352 12.9797 7.9236 10.0773 7.80624 9.27959C7.71192 8.63735 8.0136 8.06999 8.67528 8.08223C9.10152 8.39183 9.52128 9.57335 9.52128 9.57335L11.0333 12.3489C11.5668 12.5981 13.4338 13.2129 13.7628 13.3137C14.0918 13.4145 14.7629 13.3411 15.2107 13.4837C15.6586 13.6262 16.7904 14.0964 16.5622 14.3088C16.3872 14.4701 16.1986 14.6299 15.8839 14.6529C15.4973 14.6803 15.4519 14.5277 15.0638 14.5183C14.6758 14.5089 14.3525 14.6256 13.9435 14.4665C13.685 14.3657 13.6735 14.3066 13.3135 14.2195C12.9535 14.1324 10.9822 13.704 10.7388 13.6485Z" fill="#FFA8A7"/>
<path d="M8.86464 8.07036C8.53056 8.01276 8.07264 8.06244 7.79184 8.49156C7.51104 8.92068 7.758 9.51612 7.93584 9.91428C8.11368 10.3124 8.69616 11.2319 8.69616 11.2319C8.69616 11.2319 9.95832 11.1404 10.1966 10.5076C10.1966 10.5054 9.42696 8.86164 8.86464 8.07036Z" fill="#455A64"/>
<path d="M11.6251 4.49414C11.8339 4.63022 12.0744 5.18102 11.9981 6.30926C11.9333 7.26542 11.6129 7.4879 11.4538 7.5491C11.2946 7.6103 10.9966 7.55558 10.7064 7.49438L10.6805 8.07038C10.6805 8.07038 11.0405 8.37206 11.0023 8.63414C10.9642 8.89622 10.3752 8.96894 10.0087 8.69462C9.8039 8.54759 9.62277 8.37009 9.4716 8.1683L9.53784 6.67934C9.53784 6.67934 9.33768 6.88526 9.02448 6.6563C8.96066 6.60988 8.90754 6.55029 8.86872 6.48158C8.8299 6.41286 8.80628 6.33662 8.79945 6.25799C8.79263 6.17936 8.80276 6.10019 8.82916 6.02581C8.85556 5.95143 8.89761 5.88359 8.95248 5.82686C9.14832 5.6447 9.50112 5.7599 9.56448 6.0263C9.56448 6.0263 9.98064 6.0191 10.5962 5.6663C11.2658 5.28758 11.4408 4.8887 11.6251 4.49414Z" fill="#FFA8A7"/>
<path d="M10.7683 5.99077C10.7675 6.01432 10.7597 6.0371 10.746 6.05628C10.7324 6.07546 10.7133 6.0902 10.6913 6.09866C10.6694 6.10713 10.6454 6.10894 10.6223 6.10389C10.5993 6.09883 10.5783 6.08712 10.5619 6.07021C10.5455 6.05331 10.5344 6.03196 10.53 6.0088C10.5256 5.98565 10.5282 5.96172 10.5373 5.93999C10.5464 5.91826 10.5616 5.89968 10.5812 5.88656C10.6008 5.87344 10.6238 5.86637 10.6474 5.86621C10.6635 5.8663 10.6795 5.86961 10.6944 5.87595C10.7092 5.88229 10.7227 5.89152 10.734 5.90312C10.7452 5.91472 10.7541 5.92844 10.76 5.94349C10.7659 5.95854 10.7687 5.97461 10.7683 5.99077Z" fill="#263238"/>
<path d="M10.872 6.8291L11.2133 6.95438C11.2061 6.97729 11.1943 6.99851 11.1787 7.01676C11.1631 7.03502 11.1439 7.04994 11.1224 7.06063C11.1009 7.07131 11.0775 7.07755 11.0535 7.07897C11.0295 7.08038 11.0055 7.07695 10.9829 7.06886C10.937 7.05092 10.8999 7.01595 10.8792 6.97127C10.8586 6.92659 10.856 6.87565 10.872 6.8291Z" fill="#F28F8F"/>
<path d="M11.8368 5.68824L11.6006 5.50824C11.6117 5.49253 11.6258 5.4792 11.6422 5.46903C11.6585 5.45887 11.6767 5.45207 11.6957 5.44905C11.7147 5.44603 11.7341 5.44685 11.7528 5.45145C11.7714 5.45605 11.789 5.46434 11.8044 5.47584C11.8359 5.50039 11.8569 5.53608 11.8629 5.57559C11.8689 5.6151 11.8596 5.65541 11.8368 5.68824Z" fill="#263238"/>
<path d="M11.7677 5.97085C11.7682 5.98695 11.7654 6.00298 11.7597 6.01802C11.7539 6.03306 11.7452 6.04681 11.7341 6.05846C11.723 6.07012 11.7097 6.07945 11.6949 6.08591C11.6802 6.09238 11.6643 6.09585 11.6482 6.09613C11.6232 6.09728 11.5984 6.09092 11.5771 6.07787C11.5557 6.06483 11.5388 6.04569 11.5284 6.02292C11.518 6.00015 11.5147 5.9748 11.5189 5.95013C11.523 5.92546 11.5345 5.90261 11.5518 5.88451C11.569 5.8664 11.5913 5.85389 11.6158 5.84857C11.6402 5.84325 11.6657 5.84537 11.6889 5.85466C11.7121 5.86395 11.7321 5.87998 11.7461 5.90069C11.7601 5.9214 11.7677 5.94583 11.7677 5.97085Z" fill="#263238"/>
<path d="M11.183 5.87598L11.1694 6.60102L11.556 6.50022L11.183 5.87598Z" fill="#F28F8F"/>
<path d="M10.7064 7.49471C10.4004 7.43999 9.77472 7.23047 9.6876 6.97559C9.7214 7.10391 9.79378 7.21877 9.89496 7.30463C10.0771 7.47527 10.6978 7.68623 10.6978 7.68623L10.7064 7.49471Z" fill="#F28F8F"/>
<path d="M14.9083 7.52038C14.8802 6.97966 15.0336 6.82126 15.2266 6.69166C15.4195 6.56206 16.133 6.37702 16.2806 6.42886C16.4282 6.4807 17.2015 6.86086 17.1648 7.23598C17.1281 7.6111 16.776 7.7047 16.3865 7.61542C15.997 7.52614 15.3274 7.0855 15.1841 7.14814C15.0408 7.21078 14.9083 7.52038 14.9083 7.52038Z" fill="#FFA8A7"/>
<path d="M23.8565 8.04403C23.9954 7.98139 24.2014 8.07211 24.5182 8.00659C24.835 7.94107 25.0466 7.81075 25.2324 7.79563C25.4182 7.78051 25.4966 7.72363 25.308 7.61923C25.1194 7.51483 24.7903 7.55875 24.7248 7.53355C24.8253 7.46919 24.935 7.42063 25.0502 7.38955C25.3205 7.34169 25.593 7.3078 25.8667 7.28803C25.8818 7.28803 25.9819 7.12603 25.5146 7.06123C25.0474 6.99643 24.3626 7.09651 24.1063 7.23259C23.85 7.36867 23.8565 8.04403 23.8565 8.04403Z" fill="#B16668"/>
<path d="M5.5188 6.61414C5.52044 6.64221 5.51382 6.67015 5.49976 6.6945C5.4857 6.71886 5.46482 6.73856 5.43969 6.75119C5.41457 6.76381 5.38629 6.7688 5.35836 6.76555C5.33043 6.76229 5.30407 6.75092 5.28252 6.73286C5.26097 6.71479 5.24519 6.6908 5.23711 6.66387C5.22903 6.63693 5.22902 6.60822 5.23708 6.58128C5.24513 6.55434 5.26089 6.53034 5.28242 6.51225C5.30396 6.49417 5.33031 6.48278 5.35824 6.4795C5.37773 6.47721 5.39748 6.47893 5.41628 6.48455C5.43508 6.49017 5.45254 6.49957 5.46757 6.51218C5.48261 6.52478 5.49491 6.54033 5.50372 6.55787C5.51253 6.5754 5.51766 6.59455 5.5188 6.61414Z" fill="#F09C1F"/>
<path d="M5.84496 5.42454L6.06816 5.60742L6.34464 5.52678C6.35051 5.52496 6.35677 5.52485 6.3627 5.52645C6.36863 5.52805 6.37398 5.53131 6.37813 5.53583C6.38228 5.54036 6.38506 5.54598 6.38614 5.55202C6.38722 5.55807 6.38656 5.5643 6.38424 5.56998L6.27984 5.83854L6.44184 6.07686C6.44541 6.08188 6.44749 6.08781 6.44781 6.09395C6.44814 6.1001 6.44671 6.10621 6.44369 6.11158C6.44067 6.11694 6.43618 6.12133 6.43075 6.12424C6.42532 6.12715 6.41918 6.12844 6.41304 6.12798L6.12504 6.11214L5.94864 6.33966C5.94484 6.34438 5.93982 6.34797 5.93413 6.35003C5.92844 6.3521 5.92229 6.35256 5.91635 6.35137C5.91041 6.35018 5.90491 6.34739 5.90045 6.3433C5.89599 6.3392 5.89273 6.33396 5.89104 6.32814L5.8176 6.04806L5.544 5.95158C5.53832 5.94947 5.53333 5.94583 5.52958 5.94108C5.52582 5.93632 5.52344 5.93062 5.5227 5.92461C5.52196 5.9186 5.52288 5.91249 5.52537 5.90697C5.52785 5.90144 5.53181 5.8967 5.5368 5.89326L5.77944 5.73702L5.7888 5.44902C5.78827 5.4423 5.78984 5.43558 5.79331 5.4298C5.79678 5.42401 5.80197 5.41946 5.80815 5.41676C5.81433 5.41407 5.8212 5.41337 5.8278 5.41476C5.8344 5.41616 5.8404 5.41958 5.84496 5.42454Z" fill="#F09C1F"/>
<path d="M31.5554 6.7154C31.6 6.71897 31.6416 6.73941 31.6716 6.77255C31.7017 6.80569 31.7179 6.84905 31.7171 6.89377C31.7163 6.93849 31.6984 6.98122 31.6672 7.01323C31.6359 7.04524 31.5937 7.06413 31.549 7.06604C31.525 7.06707 31.5011 7.06318 31.4787 7.05462C31.4563 7.04606 31.4359 7.033 31.4187 7.01625C31.4016 6.9995 31.388 6.97942 31.3789 6.95724C31.3698 6.93506 31.3653 6.91125 31.3658 6.88728C31.3662 6.8633 31.3716 6.83968 31.3815 6.81785C31.3914 6.79602 31.4057 6.77645 31.4235 6.76035C31.4412 6.74425 31.4621 6.73195 31.4848 6.72422C31.5075 6.71649 31.5315 6.71349 31.5554 6.7154Z" fill="#F09C1F"/>
<path d="M29.6676 5.93474L30.0204 5.58914L29.9362 5.10314C29.9343 5.09279 29.9353 5.08211 29.9392 5.07234C29.9431 5.06256 29.9497 5.05407 29.9582 5.04784C29.9666 5.04161 29.9767 5.03789 29.9872 5.0371C29.9977 5.03631 30.0082 5.03849 30.0175 5.04338L30.456 5.27234L30.8923 5.04194C30.9016 5.03691 30.9121 5.0346 30.9226 5.03527C30.9332 5.03594 30.9433 5.03956 30.9519 5.04573C30.9604 5.05189 30.9671 5.06034 30.9711 5.07011C30.9751 5.07989 30.9762 5.09058 30.9744 5.10098L30.888 5.5877L31.248 5.93186C31.2555 5.93917 31.2608 5.94842 31.2633 5.95858C31.2658 5.96873 31.2654 5.97939 31.2622 5.98935C31.259 5.9993 31.2531 6.00816 31.2451 6.01492C31.2371 6.02169 31.2274 6.02608 31.217 6.02762L30.7289 6.09962L30.5129 6.54242C30.5083 6.55184 30.5011 6.55977 30.4922 6.56532C30.4833 6.57087 30.473 6.57381 30.4625 6.57381C30.452 6.57381 30.4417 6.57087 30.4328 6.56532C30.4239 6.55977 30.4167 6.55184 30.4121 6.54242L30.1961 6.09962L29.7072 6.02762C29.6967 6.02709 29.6865 6.02361 29.6779 6.01759C29.6693 6.01157 29.6625 6.00324 29.6584 5.99356C29.6542 5.98387 29.6529 5.97323 29.6545 5.96283C29.6562 5.95243 29.6607 5.94269 29.6676 5.93474Z" fill="#F09C1F"/>
<path d="M32.6009 12.7385L32.7067 12.9732L32.9602 13.02C32.9655 13.0211 32.9704 13.0236 32.9743 13.0273C32.9783 13.0309 32.9812 13.0356 32.9827 13.0408C32.9842 13.046 32.9842 13.0516 32.9828 13.0568C32.9813 13.062 32.9785 13.0667 32.9746 13.0704L32.7838 13.2432L32.8176 13.4981C32.8185 13.5035 32.8179 13.5091 32.8157 13.5142C32.8136 13.5192 32.81 13.5236 32.8055 13.5267C32.8009 13.5298 32.7956 13.5315 32.7901 13.5317C32.7846 13.5319 32.7791 13.5304 32.7744 13.5276L32.5505 13.3995L32.3186 13.5111C32.3137 13.5135 32.3082 13.5146 32.3027 13.514C32.2973 13.5135 32.2921 13.5114 32.2878 13.508C32.2834 13.5046 32.2802 13.5 32.2784 13.4948C32.2766 13.4896 32.2763 13.484 32.2776 13.4787L32.3302 13.2267L32.1523 13.0409C32.1485 13.0369 32.1459 13.032 32.1448 13.0266C32.1437 13.0212 32.1441 13.0156 32.1459 13.0105C32.1478 13.0053 32.1511 13.0008 32.1554 12.9974C32.1597 12.994 32.1649 12.9918 32.1703 12.9912L32.4259 12.9631L32.5483 12.7371C32.5509 12.7323 32.5548 12.7283 32.5595 12.7256C32.5642 12.7229 32.5696 12.7215 32.575 12.7217C32.5805 12.7218 32.5858 12.7235 32.5903 12.7265C32.5949 12.7294 32.5985 12.7336 32.6009 12.7385Z" fill="#F09C1F"/>
<path d="M4.35024 10.9733L4.752 11.2555L5.21424 11.082C5.22429 11.0784 5.23517 11.0776 5.24562 11.08C5.25606 11.0823 5.26563 11.0875 5.27319 11.0951C5.28075 11.1026 5.286 11.1122 5.28831 11.1226C5.29062 11.1331 5.2899 11.144 5.28624 11.154L5.14224 11.6271L5.4504 12.013C5.457 12.0212 5.46117 12.031 5.46246 12.0414C5.46374 12.0518 5.46207 12.0624 5.45765 12.0719C5.45322 12.0815 5.44622 12.0895 5.43743 12.0953C5.42864 12.101 5.41842 12.1042 5.40792 12.1044L4.914 12.1138L4.64184 12.5263C4.63605 12.5351 4.62791 12.5421 4.61834 12.5465C4.60878 12.5509 4.59818 12.5525 4.58775 12.5511C4.57732 12.5498 4.56748 12.5455 4.55935 12.5388C4.55122 12.5322 4.54513 12.5233 4.54176 12.5134L4.38048 12.0468L3.90384 11.9158C3.89365 11.913 3.88445 11.9075 3.87728 11.8997C3.87012 11.892 3.86528 11.8823 3.86333 11.872C3.86137 11.8616 3.86238 11.8509 3.86624 11.8411C3.87009 11.8312 3.87664 11.8227 3.88512 11.8164L4.27896 11.5183L4.25664 11.0251C4.25431 11.0135 4.25576 11.0013 4.26077 10.9905C4.26578 10.9797 4.27409 10.9708 4.28451 10.965C4.29493 10.9593 4.30691 10.957 4.31872 10.9584C4.33054 10.9599 4.34157 10.9651 4.35024 10.9733Z" fill="#F09C1F"/>
<path d="M31.9248 13.6909C31.9292 13.7178 31.9227 13.7454 31.9067 13.7675C31.8908 13.7896 31.8668 13.8045 31.8398 13.809C31.8128 13.8131 31.7853 13.8064 31.7632 13.7904C31.7411 13.7744 31.7262 13.7502 31.7218 13.7233C31.7176 13.6964 31.7243 13.6689 31.7404 13.6469C31.7564 13.6249 31.7805 13.6102 31.8074 13.6059C31.8207 13.6037 31.8344 13.6041 31.8475 13.6071C31.8606 13.6102 31.873 13.6159 31.8839 13.6238C31.8949 13.6317 31.9041 13.6417 31.9111 13.6532C31.9181 13.6647 31.9228 13.6775 31.9248 13.6909Z" fill="#F09C1F"/>
<path d="M5.832 11.4381C5.83577 11.4609 5.8327 11.4844 5.82317 11.5055C5.81363 11.5266 5.79807 11.5444 5.77843 11.5567C5.75879 11.569 5.73596 11.5752 5.71281 11.5745C5.68966 11.5738 5.66722 11.5663 5.64833 11.5529C5.62943 11.5395 5.61493 11.5209 5.60663 11.4992C5.59834 11.4776 5.59663 11.454 5.60171 11.4314C5.6068 11.4088 5.61846 11.3882 5.63523 11.3723C5.65199 11.3563 5.67311 11.3456 5.69592 11.3416C5.7112 11.3389 5.72686 11.3393 5.74199 11.3427C5.75712 11.3461 5.77143 11.3525 5.78409 11.3615C5.79674 11.3704 5.80749 11.3818 5.81571 11.395C5.82394 11.4081 5.82947 11.4228 5.832 11.4381Z" fill="#F09C1F"/>
</svg>
