<svg width="24" height="25" viewBox="0 0 24 25" fill="none" xmlns="http://www.w3.org/2000/svg">
<g clip-path="url(#clip0_313_3411)">
<mask id="mask0_313_3411" style="mask-type:luminance" maskUnits="userSpaceOnUse" x="0" y="0" width="24" height="25">
<path d="M24 0.154785H0V24.1548H24V0.154785Z" fill="white"/>
</mask>
<g mask="url(#mask0_313_3411)">
<path d="M14.0625 7.22209V4.27979C14.0625 3.03715 13.0551 2.02979 11.8125 2.02979H4.6875C3.44486 2.02979 2.4375 3.03715 2.4375 4.27979V20.0298C2.4375 21.2723 3.44486 22.2798 4.6875 22.2798H11.8125C13.0551 22.2798 14.0625 21.2723 14.0625 20.0298V15.9192" stroke="#4D5359"/>
<path d="M5.4375 4.65479H10.875" stroke="#4D5359" stroke-linecap="round"/>
<path d="M10.125 9.15479C10.125 8.2228 10.8805 7.46729 11.8125 7.46729H20.625C21.5571 7.46729 22.3125 8.2228 22.3125 9.15479V13.9262C22.3125 14.8582 21.5571 15.6137 20.625 15.6137H13.6841C13.4741 15.6137 13.2702 15.6842 13.105 15.8139L10.8833 17.5591C10.5757 17.8007 10.125 17.5816 10.125 17.1905V9.15479Z" stroke="#BB4227" stroke-linejoin="round"/>
<path d="M13.9688 12.3423C14.3312 12.3423 14.625 12.0485 14.625 11.686C14.625 11.3236 14.3312 11.0298 13.9688 11.0298C13.6063 11.0298 13.3125 11.3236 13.3125 11.686C13.3125 12.0485 13.6063 12.3423 13.9688 12.3423Z" fill="#BB4227"/>
<path d="M16.4062 12.3423C16.7687 12.3423 17.0625 12.0485 17.0625 11.686C17.0625 11.3236 16.7687 11.0298 16.4062 11.0298C16.0438 11.0298 15.75 11.3236 15.75 11.686C15.75 12.0485 16.0438 12.3423 16.4062 12.3423Z" fill="#BB4227"/>
<path d="M18.8438 12.3423C19.2062 12.3423 19.5 12.0485 19.5 11.686C19.5 11.3236 19.2062 11.0298 18.8438 11.0298C18.4813 11.0298 18.1875 11.3236 18.1875 11.686C18.1875 12.0485 18.4813 12.3423 18.8438 12.3423Z" fill="#BB4227"/>
</g>
</g>
<defs>
<clipPath id="clip0_313_3411">
<rect width="24" height="24" fill="white" transform="translate(0 0.154785)"/>
</clipPath>
</defs>
</svg>
