<svg width="22" height="25" viewBox="0 0 22 25" fill="none" xmlns="http://www.w3.org/2000/svg">
<path d="M8.06104 13.9091H13.4517C13.5449 13.9091 13.6343 13.8721 13.7003 13.8062C13.7662 13.7402 13.8032 13.6508 13.8032 13.5576C13.8032 13.4643 13.7662 13.3749 13.7003 13.309C13.6343 13.243 13.5449 13.206 13.4517 13.206H8.06104C7.96779 13.206 7.87837 13.243 7.81244 13.309C7.74651 13.3749 7.70947 13.4643 7.70947 13.5576C7.70947 13.6508 7.74651 13.7402 7.81244 13.8062C7.87837 13.8721 7.96779 13.9091 8.06104 13.9091ZM8.06104 16.7216H12.7485C12.8418 16.7216 12.9312 16.6846 12.9971 16.6187C13.0631 16.5527 13.1001 16.4633 13.1001 16.3701C13.1001 16.2768 13.0631 16.1874 12.9971 16.1215C12.9312 16.0555 12.8418 16.0185 12.7485 16.0185H8.06104C7.96779 16.0185 7.87837 16.0555 7.81244 16.1215C7.74651 16.1874 7.70947 16.2768 7.70947 16.3701C7.70947 16.4633 7.74651 16.5527 7.81244 16.6187C7.87837 16.6846 7.96779 16.7216 8.06104 16.7216ZM8.06104 11.0966H13.4517C13.5449 11.0966 13.6343 11.0596 13.7003 10.9937C13.7662 10.9277 13.8032 10.8383 13.8032 10.7451C13.8032 10.6518 13.7662 10.5624 13.7003 10.4965C13.6343 10.4305 13.5449 10.3935 13.4517 10.3935H8.06104C7.96779 10.3935 7.87837 10.4305 7.81244 10.4965C7.74651 10.5624 7.70947 10.6518 7.70947 10.7451C7.70947 10.8383 7.74651 10.9277 7.81244 10.9937C7.87837 11.0596 7.96779 11.0966 8.06104 11.0966ZM9.3501 2.26725C9.41963 2.26725 9.4876 2.24663 9.54542 2.208C9.60323 2.16937 9.64829 2.11446 9.6749 2.05022C9.70151 1.98599 9.70847 1.9153 9.6949 1.8471C9.68134 1.77891 9.64786 1.71626 9.59869 1.6671C9.54952 1.61793 9.48688 1.58445 9.41868 1.57088C9.35049 1.55732 9.2798 1.56428 9.21556 1.59089C9.15132 1.6175 9.09641 1.66256 9.05778 1.72037C9.01915 1.77818 8.99854 1.84616 8.99854 1.91569C8.99854 2.00893 9.03557 2.09835 9.10151 2.16428C9.16744 2.23021 9.25686 2.26725 9.3501 2.26725ZM8.06104 8.28412H13.4517C13.5449 8.28412 13.6343 8.24709 13.7003 8.18116C13.7662 8.11522 13.8032 8.0258 13.8032 7.93256C13.8032 7.83932 13.7662 7.7499 13.7003 7.68397C13.6343 7.61804 13.5449 7.581 13.4517 7.581H8.06104C7.96779 7.581 7.87837 7.61804 7.81244 7.68397C7.74651 7.7499 7.70947 7.83932 7.70947 7.93256C7.70947 8.0258 7.74651 8.11522 7.81244 8.18116C7.87837 8.24709 7.96779 8.28412 8.06104 8.28412ZM5.24854 20.2373C5.45713 20.2373 5.66105 20.1754 5.83449 20.0595C6.00793 19.9436 6.14311 19.7789 6.22294 19.5862C6.30277 19.3935 6.32365 19.1814 6.28296 18.9768C6.24226 18.7722 6.14181 18.5843 5.99431 18.4368C5.84681 18.2893 5.65888 18.1888 5.45429 18.1481C5.2497 18.1074 5.03764 18.1283 4.84492 18.2082C4.6522 18.288 4.48748 18.4232 4.37159 18.5966C4.2557 18.7701 4.19385 18.974 4.19385 19.1826C4.1941 19.4622 4.30529 19.7303 4.50303 19.9281C4.70077 20.1258 4.96889 20.237 5.24854 20.2373ZM5.24854 18.831C5.31807 18.831 5.38604 18.8516 5.44385 18.8902C5.50167 18.9289 5.54673 18.9838 5.57334 19.048C5.59995 19.1123 5.60691 19.183 5.59334 19.2512C5.57978 19.3193 5.54629 19.382 5.49713 19.4312C5.44796 19.4803 5.38532 19.5138 5.31712 19.5274C5.24893 19.5409 5.17824 19.534 5.114 19.5074C5.04976 19.4808 4.99485 19.4357 4.95622 19.3779C4.91759 19.3201 4.89697 19.2521 4.89697 19.1826C4.89697 19.0893 4.93401 18.9999 4.99994 18.934C5.06587 18.868 5.15529 18.831 5.24854 18.831ZM5.24854 8.98725C5.45713 8.98725 5.66105 8.92539 5.83449 8.8095C6.00793 8.69361 6.14311 8.52889 6.22294 8.33617C6.30277 8.14346 6.32365 7.93139 6.28296 7.7268C6.24226 7.52221 6.14181 7.33429 5.99431 7.18679C5.84681 7.03929 5.65888 6.93884 5.45429 6.89814C5.2497 6.85745 5.03764 6.87833 4.84492 6.95816C4.6522 7.03799 4.48748 7.17317 4.37159 7.34661C4.2557 7.52005 4.19385 7.72396 4.19385 7.93256C4.1941 8.21221 4.30529 8.48033 4.50303 8.67807C4.70077 8.8758 4.96889 8.987 5.24854 8.98725ZM5.24854 7.581C5.31807 7.581 5.38604 7.60162 5.44385 7.64025C5.50167 7.67888 5.54673 7.73379 5.57334 7.79803C5.59995 7.86227 5.60691 7.93295 5.59334 8.00115C5.57978 8.06934 5.54629 8.13199 5.49713 8.18116C5.44796 8.23032 5.38532 8.2638 5.31712 8.27737C5.24893 8.29093 5.17824 8.28397 5.114 8.25736C5.04976 8.23076 4.99485 8.18569 4.95622 8.12788C4.91759 8.07007 4.89697 8.00209 4.89697 7.93256C4.89697 7.83932 4.93401 7.7499 4.99994 7.68397C5.06587 7.61804 5.15529 7.581 5.24854 7.581ZM21.3028 6.47241C21.2443 6.27218 21.1277 6.0938 20.9678 5.95983C20.8079 5.82585 20.6119 5.74228 20.4046 5.71971C20.1972 5.69713 19.9878 5.73655 19.8028 5.83298C19.6178 5.92941 19.4656 6.07853 19.3654 6.26147L18.9824 6.95991L18.0449 8.66944V4.72163C18.0444 4.25558 17.8591 3.80876 17.5295 3.47921C17.2 3.14967 16.7532 2.96431 16.2871 2.96381H13.0012C12.882 2.81974 12.7325 2.70377 12.5633 2.6242C12.3941 2.54462 12.2094 2.50341 12.0224 2.5035H11.5954C11.618 2.19923 11.5785 1.89355 11.4792 1.60504C11.38 1.31653 11.2231 1.05122 11.0181 0.825234C10.8131 0.59925 10.5643 0.417317 10.2868 0.290497C10.0093 0.163677 9.70894 0.0946193 9.40392 0.0875228C9.0989 0.0804263 8.79562 0.135439 8.51253 0.249217C8.22943 0.362995 7.97243 0.53316 7.75716 0.749366C7.54189 0.965572 7.37283 1.2233 7.26028 1.50689C7.14773 1.79047 7.09403 2.09398 7.10244 2.39897C7.10244 2.43366 7.10244 2.46881 7.10478 2.5035H6.67822C6.49119 2.50344 6.30644 2.54466 6.13717 2.62423C5.96791 2.7038 5.81829 2.81975 5.699 2.96381H2.4126C1.94655 2.96431 1.49973 3.14967 1.17018 3.47921C0.840638 3.80876 0.655281 4.25558 0.654785 4.72163V22.3935C0.655281 22.8596 0.840638 23.3064 1.17018 23.6359C1.49973 23.9655 1.94655 24.1508 2.4126 24.1513H16.2876C16.7536 24.1508 17.2005 23.9655 17.53 23.6359C17.8596 23.3064 18.0449 22.8596 18.0454 22.3935V13.0593L21.2151 7.27491C21.282 7.15357 21.3242 7.02017 21.3392 6.88243C21.3543 6.74469 21.3419 6.60533 21.3028 6.47241ZM16.2871 3.66694C16.5668 3.66719 16.8349 3.77838 17.0326 3.97612C17.2304 4.17386 17.3416 4.44198 17.3418 4.72163V9.95147L15.9121 12.5605V5.42475C15.9121 5.33151 15.8751 5.24209 15.8092 5.17616C15.7432 5.11023 15.6538 5.07319 15.5606 5.07319H13.297V3.77616C13.297 3.73959 13.297 3.70303 13.2923 3.66694H16.2871ZM6.10822 3.77616C6.10847 3.6251 6.16862 3.48031 6.27547 3.37355C6.38233 3.26678 6.52717 3.20675 6.67822 3.20663H7.50932C7.56267 3.2066 7.61532 3.19445 7.66329 3.17108C7.71126 3.14772 7.75329 3.11376 7.78621 3.07177C7.81912 3.02978 7.84206 2.98085 7.85329 2.92869C7.86452 2.87654 7.86375 2.82251 7.85104 2.77069C7.79206 2.53083 7.79138 2.28035 7.84905 2.04018C7.90672 1.80001 8.02107 1.57714 8.18252 1.39021C8.34397 1.20329 8.54784 1.05775 8.77707 0.965758C9.00629 0.873769 9.25422 0.838009 9.5001 0.861469C9.72058 0.883573 9.93375 0.952791 10.1252 1.06444C10.3166 1.17608 10.4818 1.32755 10.6096 1.50858C10.7373 1.68962 10.8247 1.896 10.8658 2.11374C10.9069 2.33149 10.9008 2.55553 10.8478 2.77069C10.835 2.82247 10.8343 2.87646 10.8455 2.92858C10.8567 2.98071 10.8796 3.0296 10.9124 3.07159C10.9453 3.11357 10.9873 3.14754 11.0352 3.17093C11.0831 3.19432 11.1357 3.20653 11.189 3.20663H12.0206C12.0957 3.20619 12.1701 3.2206 12.2396 3.24902C12.3091 3.27745 12.3723 3.31932 12.4256 3.37224C12.4788 3.42517 12.5211 3.48809 12.55 3.55741C12.5789 3.62673 12.5938 3.70107 12.5938 3.77616V5.12756C12.5937 5.27862 12.5337 5.42346 12.4269 5.53031C12.3202 5.63717 12.1754 5.69731 12.0243 5.69756H6.68057C6.52943 5.69744 6.38452 5.63735 6.27765 5.53048C6.17078 5.42361 6.11069 5.2787 6.11057 5.12756L6.10822 3.77616ZM6.67822 6.40116H12.022C12.2429 6.401 12.46 6.34335 12.6519 6.23388C12.8438 6.12441 13.0039 5.96688 13.1165 5.77678H15.2095V13.8449L13.5782 16.8257C13.5701 16.8408 13.5631 16.8565 13.5571 16.8726C13.5562 16.8756 13.5551 16.8786 13.5538 16.8815C13.5486 16.8968 13.5444 16.9125 13.5412 16.9283L13.1962 18.8273H8.06104C7.96779 18.8273 7.87837 18.8643 7.81244 18.9302C7.74651 18.9962 7.70947 19.0856 7.70947 19.1788C7.70947 19.2721 7.74651 19.3615 7.81244 19.4274C7.87837 19.4933 7.96779 19.5304 8.06104 19.5304H13.4517H13.4713H13.4868C13.5755 19.5305 13.6609 19.497 13.7259 19.4366L15.2095 18.0608V21.3351H3.49072V5.77256H5.58322C5.69538 5.96343 5.85536 6.12175 6.04739 6.2319C6.23942 6.34205 6.45685 6.40023 6.67822 6.40069V6.40116ZM14.1431 17.5377L14.5209 17.7444L14.0212 18.2076L14.1431 17.5377ZM17.3423 22.3935C17.342 22.6731 17.2308 22.9413 17.0331 23.139C16.8354 23.3367 16.5672 23.4479 16.2876 23.4482H2.4126C2.13295 23.4479 1.86483 23.3367 1.6671 23.139C1.46936 22.9413 1.35816 22.6731 1.35791 22.3935V4.72163C1.35816 4.44198 1.46936 4.17386 1.6671 3.97612C1.86483 3.77838 2.13295 3.66719 2.4126 3.66694H5.4126C5.40932 3.70303 5.40744 3.73959 5.40744 3.77616V5.07319H3.13916C3.04592 5.07319 2.9565 5.11023 2.89057 5.17616C2.82464 5.24209 2.7876 5.33151 2.7876 5.42475V21.6904C2.7876 21.7836 2.82464 21.873 2.89057 21.939C2.9565 22.0049 3.04592 22.0419 3.13916 22.0419H15.561C15.6543 22.0419 15.7437 22.0049 15.8096 21.939C15.8756 21.873 15.9126 21.7836 15.9126 21.6904V16.9513L17.3423 14.3423V22.3935ZM17.3845 12.8015L14.9779 17.1927L14.3615 16.8552L15.8671 14.1074L15.8723 14.098L18.0004 10.2144L18.0046 10.2065L19.4301 7.60772L20.047 7.94428L17.3845 12.8015ZM20.5987 6.93694L20.3845 7.32647L19.7681 6.9885L19.9818 6.59803C20.004 6.55753 20.0339 6.52178 20.0699 6.49284C20.1058 6.4639 20.1472 6.44233 20.1915 6.42936C20.2358 6.41639 20.2822 6.41227 20.3281 6.41724C20.374 6.42222 20.4185 6.43618 20.459 6.45834C20.4995 6.4805 20.5353 6.51043 20.5642 6.5464C20.5931 6.58237 20.6147 6.6237 20.6277 6.66801C20.6406 6.71232 20.6448 6.75875 20.6398 6.80465C20.6348 6.85055 20.6209 6.89503 20.5987 6.93553V6.93694ZM5.24854 17.4248C5.45713 17.4248 5.66105 17.3629 5.83449 17.247C6.00793 17.1311 6.14311 16.9664 6.22294 16.7737C6.30277 16.581 6.32365 16.3689 6.28296 16.1643C6.24226 15.9597 6.14181 15.7718 5.99431 15.6243C5.84681 15.4768 5.65888 15.3763 5.45429 15.3356C5.2497 15.2949 5.03764 15.3158 4.84492 15.3957C4.6522 15.4755 4.48748 15.6107 4.37159 15.7841C4.2557 15.9576 4.19385 16.1615 4.19385 16.3701C4.1941 16.6497 4.30529 16.9178 4.50303 17.1156C4.70077 17.3133 4.96889 17.4245 5.24854 17.4248ZM5.24854 16.0185C5.31807 16.0185 5.38604 16.0391 5.44385 16.0777C5.50167 16.1164 5.54673 16.1713 5.57334 16.2355C5.59995 16.2998 5.60691 16.3705 5.59334 16.4387C5.57978 16.5068 5.54629 16.5695 5.49713 16.6187C5.44796 16.6678 5.38532 16.7013 5.31712 16.7149C5.24893 16.7284 5.17824 16.7215 5.114 16.6949C5.04976 16.6683 4.99485 16.6232 4.95622 16.5654C4.91759 16.5076 4.89697 16.4396 4.89697 16.3701C4.89697 16.2768 4.93401 16.1874 4.99994 16.1215C5.06587 16.0555 5.15529 16.0185 5.24854 16.0185ZM5.24854 14.6123C5.45713 14.6123 5.66105 14.5504 5.83449 14.4345C6.00793 14.3186 6.14311 14.1539 6.22294 13.9612C6.30277 13.7685 6.32365 13.5564 6.28296 13.3518C6.24226 13.1472 6.14181 12.9593 5.99431 12.8118C5.84681 12.6643 5.65888 12.5638 5.45429 12.5231C5.2497 12.4824 5.03764 12.5033 4.84492 12.5832C4.6522 12.663 4.48748 12.7982 4.37159 12.9716C4.2557 13.1451 4.19385 13.349 4.19385 13.5576C4.1941 13.8372 4.30529 14.1053 4.50303 14.3031C4.70077 14.5008 4.96889 14.612 5.24854 14.6123ZM5.24854 13.206C5.31807 13.206 5.38604 13.2266 5.44385 13.2652C5.50167 13.3039 5.54673 13.3588 5.57334 13.423C5.59995 13.4873 5.60691 13.558 5.59334 13.6262C5.57978 13.6943 5.54629 13.757 5.49713 13.8062C5.44796 13.8553 5.38532 13.8888 5.31712 13.9024C5.24893 13.9159 5.17824 13.909 5.114 13.8824C5.04976 13.8558 4.99485 13.8107 4.95622 13.7529C4.91759 13.6951 4.89697 13.6271 4.89697 13.5576C4.89697 13.4643 4.93401 13.3749 4.99994 13.309C5.06587 13.243 5.15529 13.206 5.24854 13.206ZM5.24854 11.7997C5.45713 11.7997 5.66105 11.7379 5.83449 11.622C6.00793 11.5061 6.14311 11.3414 6.22294 11.1487C6.30277 10.956 6.32365 10.7439 6.28296 10.5393C6.24226 10.3347 6.14181 10.1468 5.99431 9.99929C5.84681 9.85178 5.65888 9.75134 5.45429 9.71064C5.2497 9.66995 5.03764 9.69083 4.84492 9.77066C4.6522 9.85048 4.48748 9.98567 4.37159 10.1591C4.2557 10.3326 4.19385 10.5365 4.19385 10.7451C4.1941 11.0247 4.30529 11.2928 4.50303 11.4906C4.70077 11.6883 4.96889 11.7995 5.24854 11.7997ZM5.24854 10.3935C5.31807 10.3935 5.38604 10.4141 5.44385 10.4527C5.50167 10.4914 5.54673 10.5463 5.57334 10.6105C5.59995 10.6748 5.60691 10.7455 5.59334 10.8136C5.57978 10.8818 5.54629 10.9445 5.49713 10.9937C5.44796 11.0428 5.38532 11.0763 5.31712 11.0899C5.24893 11.1034 5.17824 11.0965 5.114 11.0699C5.04976 11.0433 4.99485 10.9982 4.95622 10.9404C4.91759 10.8826 4.89697 10.8146 4.89697 10.7451C4.89697 10.6518 4.93401 10.5624 4.99994 10.4965C5.06587 10.4305 5.15529 10.3935 5.24854 10.3935Z" fill="#3C3B41"/>
</svg>
