<svg width="24" height="25" viewBox="0 0 24 25" fill="none" xmlns="http://www.w3.org/2000/svg">
<g clip-path="url(#clip0_313_3372)">
<path d="M12.0002 5.29124C8.21564 5.29124 5.13665 8.37023 5.13665 12.1548C5.13665 15.9394 8.21564 19.0184 12.0002 19.0184C15.7847 19.0184 18.8637 15.9394 18.8637 12.1548C18.8637 8.37023 15.7847 5.29124 12.0002 5.29124ZM12.0002 18.2684C8.62917 18.2684 5.88665 15.5258 5.88665 12.1548C5.88665 8.78376 8.62917 6.04124 12.0002 6.04124C15.3712 6.04124 18.1137 8.78376 18.1137 12.1548C18.1137 15.5258 15.3712 18.2684 12.0002 18.2684ZM13.9532 13.2694C14.0016 13.6677 13.8946 14.0315 13.6438 14.3214C13.3618 14.6474 12.901 14.8693 12.3752 14.9404V15.2901C12.3752 15.3895 12.3357 15.4849 12.2653 15.5552C12.195 15.6255 12.0996 15.6651 12.0002 15.6651C11.9007 15.6651 11.8053 15.6255 11.735 15.5552C11.6647 15.4849 11.6252 15.3895 11.6252 15.2901V14.9347C10.8366 14.8089 10.2266 14.2994 10.0469 13.5782C10.0349 13.5304 10.0326 13.4808 10.0398 13.4321C10.0471 13.3834 10.0639 13.3366 10.0893 13.2944C10.1405 13.2091 10.2235 13.1477 10.32 13.1236C10.4165 13.0996 10.5186 13.1148 10.6039 13.1661C10.6891 13.2173 10.7505 13.3003 10.7746 13.3968C10.9297 14.0191 11.5613 14.2265 12.056 14.2143C12.4832 14.2042 12.8838 14.0536 13.0765 13.8307C13.1883 13.7016 13.2315 13.5475 13.2087 13.3597C13.1715 13.0532 12.9941 12.6793 11.944 12.5069C10.5528 12.2785 10.2285 11.5654 10.2014 11.0075C10.1639 10.2349 10.7025 9.58785 11.5417 9.39749C11.5694 9.39122 11.5973 9.38552 11.6253 9.38039V9.0194C11.6253 8.91994 11.6648 8.82456 11.7351 8.75424C11.8054 8.68391 11.9008 8.6444 12.0003 8.6444C12.0997 8.6444 12.1951 8.68391 12.2654 8.75424C12.3358 8.82456 12.3753 8.91994 12.3753 9.0194V9.3772C12.9544 9.47713 13.5186 9.82298 13.8047 10.5044C13.8431 10.5961 13.8435 10.6992 13.8058 10.7912C13.7682 10.8831 13.6956 10.9564 13.604 10.9949C13.5124 11.0334 13.4092 11.0339 13.3172 10.9964C13.2252 10.9589 13.1518 10.8864 13.1132 10.7948C12.8525 10.1737 12.2193 10.0129 11.7076 10.129C11.3261 10.2156 10.9269 10.4822 10.9506 10.9712C10.9589 11.1401 10.9806 11.5888 12.0656 11.7669C12.4958 11.8375 13.8055 12.0526 13.9532 13.2694ZM12.0002 6.82509C9.0614 6.82509 6.67049 9.21599 6.67049 12.1548C6.67049 15.0936 9.0614 17.4845 12.0002 17.4845C14.939 17.4845 17.3299 15.0936 17.3299 12.1548C17.3299 9.21599 14.939 6.82509 12.0002 6.82509ZM12.0002 16.7345C9.47493 16.7345 7.42049 14.68 7.42049 12.1548C7.42049 9.62953 9.47493 7.57509 12.0002 7.57509C14.5254 7.57509 16.5799 9.62953 16.5799 12.1548C16.5799 14.68 14.5255 16.7345 12.0002 16.7345ZM3.24529 15.0168C2.43402 12.5323 2.71748 9.81042 4.02299 7.54917C5.25318 5.41837 7.23956 3.89418 9.61612 3.25739C11.9926 2.62064 14.475 2.94735 16.6058 4.17764C16.842 4.314 17.0721 4.46068 17.2954 4.61723L16.8876 5.32354C16.8524 5.3845 16.8351 5.45413 16.8376 5.52448C16.8401 5.59482 16.8624 5.66303 16.9019 5.72132C16.9413 5.7796 16.9964 5.8256 17.0608 5.85405C17.1252 5.8825 17.1963 5.89225 17.2659 5.8822L20.9342 5.35265C20.9904 5.34457 21.044 5.32384 21.091 5.29203C21.1379 5.26023 21.1771 5.21817 21.2055 5.16903C21.2338 5.11989 21.2507 5.06496 21.2547 5.00836C21.2588 4.95177 21.2499 4.895 21.2288 4.84232L19.8532 1.40076C19.8271 1.33539 19.7831 1.2787 19.7263 1.23716C19.6695 1.19562 19.6021 1.17091 19.5319 1.16586C19.4617 1.16082 19.3915 1.17563 19.3293 1.20862C19.2671 1.2416 19.2155 1.29143 19.1803 1.35239L18.693 2.19651C18.4666 2.04469 18.2352 1.9005 17.9991 1.76418C15.2238 0.161807 11.9905 -0.263818 8.89481 0.565541C5.79923 1.39499 3.21196 3.38034 1.60954 6.15576C-0.175413 9.2474 -0.49196 12.9446 0.740993 16.2994C0.767449 16.3714 0.815392 16.4336 0.878341 16.4776C0.941291 16.5215 1.01621 16.5451 1.09298 16.545C1.15881 16.5451 1.22348 16.5277 1.28048 16.4948L3.07635 15.458C3.15083 15.4149 3.20825 15.3476 3.23901 15.2673C3.26976 15.187 3.27198 15.0985 3.24529 15.0168ZM1.29895 15.6181C0.318275 12.5874 0.660368 9.29981 2.25904 6.53076C3.76124 3.92882 6.18684 2.0676 9.08892 1.28999C10.058 1.03035 11.0414 0.901916 12.0184 0.901916C13.9674 0.901916 15.891 1.41309 17.6241 2.41368C17.9579 2.60643 18.2817 2.81595 18.5943 3.04143C18.6369 3.07211 18.6854 3.09353 18.7367 3.10431C18.788 3.11508 18.841 3.11497 18.8923 3.10399C18.9436 3.093 18.992 3.07138 19.0344 3.04053C19.0768 3.00967 19.1123 2.97027 19.1385 2.92485L19.4435 2.39653L20.3556 4.67849L17.9233 5.02959L18.1135 4.7002C18.1592 4.621 18.1744 4.52783 18.1563 4.43821C18.1381 4.34858 18.0878 4.26868 18.0149 4.21354C17.6846 3.96403 17.3392 3.73515 16.9807 3.52818C14.6765 2.19778 11.9921 1.84443 9.42196 2.53303C6.8519 3.22167 4.70381 4.86993 3.37345 7.17426C2.01252 9.53142 1.67863 12.3515 2.44204 14.9582L1.29895 15.6181ZM23.2593 8.01018C23.2405 7.95886 23.2106 7.91229 23.1719 7.87371C23.1332 7.83514 23.0865 7.80551 23.0351 7.7869C22.9837 7.76828 22.9288 7.76114 22.8744 7.76596C22.8199 7.77078 22.7672 7.78745 22.7198 7.81481L20.924 8.85163C20.8495 8.89463 20.792 8.96193 20.7613 9.04225C20.7305 9.12257 20.7283 9.21102 20.755 9.29278C21.5664 11.7771 21.2829 14.4989 19.9773 16.7604C17.4378 21.159 11.7931 22.6716 7.39452 20.1319C7.15835 19.9956 6.92827 19.8489 6.70495 19.6924L7.11023 18.9904C7.14543 18.9294 7.16276 18.8598 7.16023 18.7894C7.15771 18.7191 7.13545 18.6509 7.09598 18.5926C7.05647 18.5343 7.00138 18.4884 6.93701 18.4599C6.87264 18.4315 6.80156 18.4217 6.7319 18.4317L3.0636 18.9612C3.00746 18.9693 2.95388 18.9901 2.90691 19.0219C2.85994 19.0537 2.8208 19.0957 2.79244 19.1449C2.76408 19.194 2.74723 19.2489 2.74317 19.3055C2.73911 19.3621 2.74794 19.4189 2.76899 19.4715L4.14459 22.9132C4.1707 22.9785 4.21469 23.0352 4.27152 23.0768C4.32835 23.1183 4.39572 23.143 4.46593 23.148C4.53614 23.1531 4.60636 23.1383 4.66854 23.1053C4.73073 23.0723 4.78237 23.0225 4.81757 22.9615L5.30737 22.1131C5.53375 22.2649 5.76515 22.4091 6.00117 22.5454C7.84996 23.6129 9.90154 24.158 11.9807 24.158C13.0227 24.158 14.072 24.0209 15.1055 23.744C18.2011 22.9146 20.7884 20.9293 22.3908 18.1538C24.1758 15.0621 24.4924 11.3648 23.2593 8.01018ZM21.7413 17.7788C20.2391 20.3808 17.8135 22.242 14.9114 23.0196C12.0093 23.7972 8.9781 23.3981 6.37617 21.8959C6.0424 21.7032 5.71861 21.4937 5.40604 21.2682C5.36349 21.2375 5.31499 21.2161 5.26366 21.2053C5.21232 21.1946 5.1593 21.1947 5.10801 21.2056C5.05673 21.2166 5.00832 21.2382 4.96591 21.2691C4.9235 21.3 4.88804 21.3394 4.86182 21.3848L4.55427 21.9174L3.64218 19.6354L6.07448 19.2844L5.88679 19.6094C5.84107 19.6886 5.82585 19.7818 5.84402 19.8714C5.86218 19.9611 5.91247 20.041 5.98542 20.0961C6.31572 20.3456 6.66109 20.5745 7.01957 20.7814C8.58445 21.6849 10.2944 22.1142 11.9834 22.114C15.4285 22.1138 18.784 20.3273 20.6269 17.1354C21.9879 14.778 22.3218 11.9579 21.5583 9.35146L22.7014 8.69146C23.6821 11.7221 23.34 15.0097 21.7413 17.7788Z" fill="url(#paint0_linear_313_3372)"/>
</g>
<defs>
<linearGradient id="paint0_linear_313_3372" x1="2.67168" y1="21.4832" x2="21.3252" y2="2.82974" gradientUnits="userSpaceOnUse">
<stop stop-color="#FCC60E"/>
<stop offset="1" stop-color="#BB4227"/>
</linearGradient>
<clipPath id="clip0_313_3372">
<rect width="24" height="24" fill="white" transform="translate(0 0.154785)"/>
</clipPath>
</defs>
</svg>
