<svg width="25" height="24" viewBox="0 0 25 24" fill="none" xmlns="http://www.w3.org/2000/svg">
<path d="M12.1251 5.1367C8.34051 5.1367 5.26153 8.21569 5.26153 12.0002C5.26153 15.7848 8.34051 18.8638 12.1251 18.8638C15.9096 18.8638 18.9886 15.7848 18.9886 12.0002C18.9886 8.21569 15.9096 5.1367 12.1251 5.1367ZM12.1251 18.1138C8.75404 18.1138 6.01153 15.3713 6.01153 12.0002C6.01153 8.62922 8.75404 5.8867 12.1251 5.8867C15.4961 5.8867 18.2386 8.62922 18.2386 12.0002C18.2386 15.3713 15.4961 18.1138 12.1251 18.1138ZM14.0781 13.1149C14.1265 13.5131 14.0195 13.8769 13.7686 14.1669C13.4867 14.4929 13.0259 14.7148 12.5001 14.7858V15.1355C12.5001 15.235 12.4606 15.3304 12.3902 15.4007C12.3199 15.471 12.2245 15.5105 12.1251 15.5105C12.0256 15.5105 11.9302 15.471 11.8599 15.4007C11.7896 15.3304 11.7501 15.235 11.7501 15.1355V14.7802C10.9615 14.6543 10.3515 14.1448 10.1717 13.4237C10.1598 13.3759 10.1574 13.3262 10.1647 13.2775C10.172 13.2288 10.1888 13.182 10.2142 13.1398C10.2654 13.0546 10.3484 12.9932 10.4449 12.9691C10.5414 12.945 10.6435 12.9603 10.7287 13.0115C10.814 13.0627 10.8754 13.1457 10.8995 13.2422C11.0546 13.8646 11.6862 14.072 12.1809 14.0598C12.6081 14.0496 13.0087 13.899 13.2014 13.6762C13.3132 13.547 13.3564 13.3929 13.3336 13.2052C13.2964 12.8987 13.119 12.5248 12.0689 12.3524C10.6777 12.1239 10.3534 11.4109 10.3263 10.8529C10.2888 10.0803 10.8274 9.43331 11.6666 9.24295C11.6943 9.23668 11.7222 9.23097 11.7502 9.22584V8.86486C11.7502 8.7654 11.7897 8.67002 11.86 8.59969C11.9303 8.52937 12.0257 8.48986 12.1252 8.48986C12.2246 8.48986 12.32 8.52937 12.3903 8.59969C12.4606 8.67002 12.5002 8.7654 12.5002 8.86486V9.22266C13.0793 9.32259 13.6435 9.66844 13.9296 10.3499C13.968 10.4415 13.9684 10.5447 13.9307 10.6366C13.8931 10.7286 13.8205 10.8019 13.7289 10.8403C13.6372 10.8788 13.5341 10.8793 13.4421 10.8418C13.3501 10.8043 13.2767 10.7318 13.2381 10.6403C12.9773 10.0192 12.3442 9.85833 11.8325 9.97444C11.4509 10.061 11.0518 10.3276 11.0755 10.8166C11.0837 10.9856 11.1055 11.4342 12.1905 11.6123C12.6207 11.683 13.9304 11.8981 14.0781 13.1149ZM12.1251 6.67055C9.18628 6.67055 6.79537 9.06145 6.79537 12.0002C6.79537 14.939 9.18628 17.3299 12.1251 17.3299C15.0638 17.3299 17.4547 14.939 17.4547 12.0002C17.4547 9.06145 15.0639 6.67055 12.1251 6.67055ZM12.1251 16.5799C9.59981 16.5799 7.54537 14.5255 7.54537 12.0002C7.54537 9.47498 9.59981 7.42055 12.1251 7.42055C14.6503 7.42055 16.7047 9.47498 16.7047 12.0002C16.7047 14.5255 14.6504 16.5799 12.1251 16.5799ZM3.37017 14.8622C2.5589 12.3777 2.84236 9.65588 4.14787 7.39462C5.37806 5.26383 7.36443 3.73964 9.741 3.10284C12.1175 2.46609 14.5999 2.79281 16.7307 4.02309C16.9669 4.15946 17.197 4.30614 17.4203 4.46269L17.0125 5.169C16.9773 5.22996 16.96 5.29959 16.9625 5.36994C16.965 5.44028 16.9873 5.50849 17.0267 5.56678C17.0662 5.62506 17.1213 5.67106 17.1857 5.69951C17.2501 5.72796 17.3211 5.73771 17.3908 5.72766L21.0591 5.19811C21.1153 5.19003 21.1689 5.1693 21.2158 5.13749C21.2628 5.10569 21.302 5.06363 21.3303 5.01449C21.3587 4.96535 21.3756 4.91042 21.3796 4.85382C21.3836 4.79723 21.3748 4.74046 21.3537 4.68778L19.9781 1.24622C19.952 1.18085 19.908 1.12416 19.8512 1.08262C19.7944 1.04108 19.727 1.01637 19.6568 1.01132C19.5866 1.00628 19.5164 1.02109 19.4542 1.05408C19.392 1.08706 19.3403 1.13688 19.3051 1.19784L18.8179 2.04197C18.5915 1.89015 18.3601 1.74596 18.124 1.60964C15.3487 0.0072661 12.1154 -0.418359 9.01968 0.411C5.92411 1.24045 3.33684 3.2258 1.73442 6.00122C-0.0505348 9.09286 -0.367082 12.7901 0.865871 16.1448C0.892327 16.2169 0.94027 16.2791 1.00322 16.323C1.06617 16.367 1.14109 16.3905 1.21786 16.3905C1.28369 16.3905 1.34836 16.3732 1.40536 16.3403L3.20123 15.3034C3.2757 15.2604 3.33313 15.1931 3.36388 15.1128C3.39464 15.0324 3.39686 14.944 3.37017 14.8622ZM1.42382 15.4635C0.443153 12.4329 0.785246 9.14527 2.38392 6.37622C3.88612 3.77428 6.31172 1.91306 9.21379 1.13545C10.1829 0.875813 11.1662 0.747375 12.1433 0.747375C14.0923 0.747375 16.0159 1.25855 17.749 2.25914C18.0828 2.45189 18.4066 2.66141 18.7192 2.88689C18.7617 2.91757 18.8102 2.93899 18.8616 2.94977C18.9129 2.96054 18.9659 2.96043 19.0172 2.94945C19.0685 2.93846 19.1169 2.91684 19.1593 2.88599C19.2017 2.85513 19.2371 2.81573 19.2634 2.77031L19.5684 2.24198L20.4805 4.52395L18.0482 4.87505L18.2384 4.54566C18.2841 4.46646 18.2993 4.37329 18.2811 4.28367C18.263 4.19404 18.2127 4.11414 18.1397 4.059C17.8094 3.80949 17.4641 3.58061 17.1056 3.37364C14.8013 2.04323 12.117 1.68989 9.54684 2.37848C6.97678 3.06713 4.82868 4.71539 3.49832 7.01972C2.1374 9.37687 1.80351 12.197 2.56692 14.8036L1.42382 15.4635ZM23.3842 7.85564C23.3654 7.80432 23.3355 7.75774 23.2968 7.71917C23.2581 7.6806 23.2113 7.65097 23.1599 7.63236C23.1085 7.61374 23.0537 7.60659 22.9992 7.61142C22.9448 7.61624 22.892 7.63291 22.8447 7.66027L21.0488 8.69709C20.9744 8.74009 20.9169 8.80739 20.8862 8.88771C20.8554 8.96803 20.8532 9.05648 20.8799 9.13824C21.6913 11.6226 21.4078 14.3444 20.1022 16.6058C17.5627 21.0045 11.918 22.517 7.5194 19.9774C7.28322 19.841 7.05314 19.6944 6.82982 19.5378L7.23511 18.8358C7.2703 18.7749 7.28763 18.7052 7.28511 18.6349C7.28259 18.5645 7.26032 18.4963 7.22086 18.438C7.18135 18.3798 7.12626 18.3338 7.06189 18.3054C6.99751 18.277 6.92644 18.2672 6.85678 18.2772L3.18848 18.8067C3.13233 18.8148 3.07876 18.8355 3.03179 18.8673C2.98482 18.8991 2.94568 18.9412 2.91732 18.9903C2.88896 19.0395 2.87211 19.0944 2.86805 19.151C2.86399 19.2076 2.87282 19.2643 2.89387 19.317L4.26947 22.7586C4.29558 22.824 4.33957 22.8807 4.3964 22.9222C4.45323 22.9638 4.5206 22.9885 4.59081 22.9935C4.66102 22.9986 4.73124 22.9837 4.79342 22.9508C4.85561 22.9178 4.90725 22.8679 4.94245 22.807L5.43225 21.9586C5.65863 22.1104 5.89003 22.2545 6.12604 22.3909C7.97484 23.4583 10.0264 24.0035 12.1056 24.0035C13.1476 24.0035 14.1969 23.8664 15.2304 23.5895C18.326 22.7601 20.9133 20.7747 22.5157 17.9993C24.3007 14.9075 24.6172 11.2103 23.3842 7.85564ZM21.8662 17.6243C20.364 20.2262 17.9384 22.0875 15.0363 22.8651C12.1342 23.6427 9.10298 23.2436 6.50104 21.7414C6.16728 21.5486 5.84349 21.3391 5.53092 21.1137C5.48837 21.083 5.43987 21.0616 5.38853 21.0508C5.3372 21.04 5.28418 21.0401 5.23289 21.0511C5.1816 21.0621 5.13319 21.0837 5.09079 21.1146C5.04838 21.1454 5.01292 21.1848 4.9867 21.2303L4.67915 21.7629L3.76706 19.4809L6.19936 19.1298L6.01167 19.4549C5.96594 19.5341 5.95073 19.6273 5.96889 19.7169C5.98706 19.8065 6.03734 19.8864 6.11029 19.9416C6.4406 20.191 6.78597 20.4199 7.14445 20.6269C8.70932 21.5303 10.4193 21.9596 12.1083 21.9595C15.5534 21.9592 18.9089 20.1728 20.7517 16.9808C22.1128 14.6235 22.4467 11.8034 21.6832 9.19692L22.8262 8.53692C23.807 11.5675 23.4649 14.8551 21.8662 17.6243Z" fill="#BBC0C3"/>
</svg>
