<svg width="96" height="96" viewBox="0 0 96 96" fill="none" xmlns="http://www.w3.org/2000/svg">
<path d="M96 73.4209H0V73.4689H96V73.4209Z" fill="#EBEBEB"/>
<path d="M21.4386 75.0317H15.0796V75.0797H21.4386V75.0317Z" fill="#EBEBEB"/>
<path d="M31.3918 76.416H25.5991V76.464H31.3918V76.416Z" fill="#EBEBEB"/>
<path d="M18.259 76.8135H10.915V76.8615H18.259V76.8135Z" fill="#EBEBEB"/>
<path d="M86.3809 76.7097H83.3281V76.7577H86.3809V76.7097Z" fill="#EBEBEB"/>
<path d="M82.7116 76.7097H75.1621V76.7577H82.7116V76.7097Z" fill="#EBEBEB"/>
<path d="M53.8234 75.0068H48V75.0548H53.8234V75.0068Z" fill="#EBEBEB"/>
<path d="M68.4999 75.0068H54.6567V75.0548H68.4999V75.0068Z" fill="#EBEBEB"/>
<path d="M45.5041 64.8577H8.43083C8.1404 64.8571 7.86204 64.7414 7.65685 64.5359C7.45167 64.3303 7.33643 64.0518 7.33643 63.7613V11.6468C7.33895 11.358 7.45531 11.0819 7.66022 10.8784C7.86513 10.675 8.14205 10.5606 8.43083 10.5601H45.5041C45.7949 10.5601 46.0737 10.6756 46.2793 10.8812C46.4849 11.0868 46.6004 11.3656 46.6004 11.6564V63.7613C46.6004 64.0521 46.4849 64.331 46.2793 64.5366C46.0737 64.7422 45.7949 64.8577 45.5041 64.8577ZM8.43083 10.5985C8.15313 10.599 7.88698 10.7096 7.69079 10.9062C7.49461 11.1027 7.38443 11.3691 7.38443 11.6468V63.7613C7.38443 64.039 7.49461 64.3054 7.69079 64.5019C7.88698 64.6985 8.15313 64.8091 8.43083 64.8097H45.5041C45.782 64.8091 46.0483 64.6985 46.2448 64.502C46.4413 64.3056 46.5519 64.0392 46.5524 63.7613V11.6468C46.5519 11.3689 46.4413 11.1026 46.2448 10.9061C46.0483 10.7096 45.782 10.599 45.5041 10.5985H8.43083Z" fill="#EBEBEB"/>
<path d="M87.0353 64.8577H49.9601C49.6695 64.8571 49.3909 64.7415 49.1854 64.536C48.9799 64.3305 48.8643 64.0519 48.8638 63.7613V11.6468C48.8668 11.3578 48.9836 11.0817 49.1888 10.8783C49.394 10.6749 49.6711 10.5605 49.9601 10.5601H87.0353C87.3237 10.5611 87.6002 10.6757 87.8047 10.8791C88.0092 11.0825 88.1252 11.3583 88.1278 11.6468V63.7613C88.1278 64.0514 88.0128 64.3297 87.808 64.5352C87.6033 64.7407 87.3254 64.8566 87.0353 64.8577ZM49.9601 10.5985C49.6822 10.599 49.4159 10.7096 49.2194 10.9061C49.0229 11.1026 48.9123 11.3689 48.9118 11.6468V63.7613C48.9123 64.0392 49.0229 64.3056 49.2194 64.502C49.4159 64.6985 49.6822 64.8091 49.9601 64.8097H87.0353C87.3132 64.8091 87.5795 64.6985 87.776 64.502C87.9725 64.3056 88.0831 64.0392 88.0836 63.7613V11.6468C88.0831 11.3689 87.9725 11.1026 87.776 10.9061C87.5795 10.7096 87.3132 10.599 87.0353 10.5985H49.9601Z" fill="#EBEBEB"/>
<path d="M56.331 51.1123H50.8071V73.4208H56.331V51.1123Z" fill="#E6E6E6"/>
<path d="M54.0346 73.4209H56.331V69.5732H51.627L54.0346 73.4209Z" fill="#F5F5F5"/>
<path d="M16.4389 51.1123H10.915V73.4208H16.4389V51.1123Z" fill="#E6E6E6"/>
<path d="M56.329 51.1123H14.4346V72.096H56.329V51.1123Z" fill="#F5F5F5"/>
<path d="M54.645 57.5539H16.1279V52.9651H54.645V57.5539ZM16.3199 57.3619H54.453V53.1571H16.3199V57.3619Z" fill="#EBEBEB"/>
<path d="M16.7309 73.4209H14.4346V69.5732H19.1386L16.7309 73.4209Z" fill="#F5F5F5"/>
<path d="M54.645 70.2433H16.1279V59.2993H54.645V70.2433ZM16.3199 70.0513H54.453V59.4913H16.3199V70.0513Z" fill="#EBEBEB"/>
<path d="M78.3113 15.0759H34.6543V45.3082H78.3113V15.0759Z" fill="#E6E6E6"/>
<path d="M79.1135 15.0759H35.4565V45.3082H79.1135V15.0759Z" fill="#F5F5F5"/>
<path d="M77.6719 43.7838V16.6042L36.8968 16.6042V43.7838H77.6719Z" fill="white"/>
<path d="M77.6738 43.7818V16.6023H77.0671V43.7818H77.6738Z" fill="#E6E6E6"/>
<path d="M78.5164 19.0369H36.0518V20.0621H78.5164V19.0369Z" fill="#F5F5F5"/>
<g opacity="0.5">
<path d="M78.3994 14.0659H76.6753V47.6448H78.3994V14.0659Z" fill="#F0F0F0"/>
<path d="M76.2085 14.0659H74.4844V47.6448H76.2085V14.0659Z" fill="#F0F0F0"/>
<path d="M74.0176 14.0659H72.2935V47.6448H74.0176V14.0659Z" fill="#F0F0F0"/>
<path d="M71.8291 14.0659H70.105V47.6448H71.8291V14.0659Z" fill="#F0F0F0"/>
<path d="M69.6382 14.0659H67.9141V47.6448H69.6382V14.0659Z" fill="#F0F0F0"/>
<path d="M67.4478 14.0659H65.7236V47.6448H67.4478V14.0659Z" fill="#F0F0F0"/>
<path d="M65.2588 14.0659H63.5347V47.6448H65.2588V14.0659Z" fill="#F0F0F0"/>
<path d="M63.0679 14.0659H61.3438V47.6448H63.0679V14.0659Z" fill="#F0F0F0"/>
<path d="M60.8775 14.0659H59.1533V47.6448H60.8775V14.0659Z" fill="#F0F0F0"/>
<path d="M58.6866 14.0659H56.9624V47.6448H58.6866V14.0659Z" fill="#F0F0F0"/>
<path d="M56.4976 14.0659H54.7734V47.6448H56.4976V14.0659Z" fill="#F0F0F0"/>
<path d="M54.3072 14.0659H52.583V47.6448H54.3072V14.0659Z" fill="#F0F0F0"/>
<path d="M52.1163 14.0659H50.3921V47.6448H52.1163V14.0659Z" fill="#F0F0F0"/>
<path d="M49.9258 14.0659H48.2017V47.6448H49.9258V14.0659Z" fill="#F0F0F0"/>
<path d="M47.7369 14.0659H46.0127V47.6448H47.7369V14.0659Z" fill="#F0F0F0"/>
</g>
<path d="M24.624 18.6875H11.9712V41.6968H24.624V18.6875Z" fill="#F0F0F0"/>
<path d="M27.3407 18.6875H12.7871V41.6968H27.3407V18.6875Z" fill="#F5F5F5"/>
<path d="M13.3804 19.2326L13.3804 41.1514H26.7474V19.2326H13.3804Z" fill="white"/>
<path d="M16.9438 23.5949V36.7892C16.9438 37.0818 17.1811 37.3191 17.4738 37.3191H22.6558C22.9485 37.3191 23.1858 37.0818 23.1858 36.7892V23.5949C23.1858 23.3023 22.9485 23.065 22.6558 23.065H17.4738C17.1811 23.065 16.9438 23.3023 16.9438 23.5949Z" fill="#F5F5F5"/>
<path d="M73.7106 37.8796L76.2988 44.2579C76.2239 62.7072 77.0572 63.7708 77.0668 66.9446H70.5388C70.2968 51.502 72.5874 54.9734 73.7106 37.8796Z" fill="#EBEBEB"/>
<path d="M77.3588 56.7207C72.0999 42.2419 59.9924 46.7251 60.5358 52.0032C61.0791 57.2813 80.3828 65.0477 77.3588 56.7207Z" fill="#EBEBEB"/>
<path d="M75.3697 65.0688C72.5012 55.7396 64.8711 57.2621 64.8711 61.5495C64.8711 65.8368 77.0209 70.4352 75.3697 65.0688Z" fill="#EBEBEB"/>
<path d="M75.1661 48.2267C70.6618 35.7467 59.4432 37.4747 60.3475 42.7336C61.2518 47.9925 77.76 55.3998 75.1661 48.2267Z" fill="#EBEBEB"/>
<path d="M75.197 42.6337C75.6136 34.1358 67.1983 30.6376 67.782 35.7217C68.3656 40.8059 74.957 47.5201 75.197 42.6337Z" fill="#EBEBEB"/>
<path d="M74.5691 51.3331C76.3451 40.8614 87.1297 36.8793 85.9239 42.8064C84.7182 48.7334 73.5457 57.3561 74.5691 51.3331Z" fill="#EBEBEB"/>
<path d="M73.6606 45.4138C71.5658 34.4333 81.2542 29.5546 81.5326 34.8538C81.811 40.153 74.8644 51.7287 73.6606 45.4138Z" fill="#EBEBEB"/>
<path d="M72.8199 57.8171C77.0996 47.2359 86.2599 49.8606 85.3403 54.6759C84.4206 59.4913 70.3585 63.9035 72.8199 57.8171Z" fill="#EBEBEB"/>
<path d="M74.9318 65.2052C74.8358 58.3796 81.0335 56.6151 81.1065 60.5703C81.1794 64.5255 74.9874 69.1316 74.9318 65.2052Z" fill="#EBEBEB"/>
<path d="M73.0385 73.469C71.415 73.4743 69.8384 72.9253 68.5693 71.9128C67.3003 70.9003 66.4148 69.485 66.0593 67.901C65.8918 67.0489 65.6482 66.2136 65.3316 65.405L65.2798 65.2744H80.7991L80.7454 65.405C80.4294 66.2136 80.1865 67.049 80.0196 67.901C79.6638 69.4852 78.7779 70.9005 77.5085 71.913C76.2391 72.9254 74.6622 73.4743 73.0385 73.469Z" fill="#E0E0E0"/>
<path d="M47.9998 82.0915C68.5597 82.0915 85.2267 81.1184 85.2267 79.9181C85.2267 78.7177 68.5597 77.7446 47.9998 77.7446C27.44 77.7446 10.7729 78.7177 10.7729 79.9181C10.7729 81.1184 27.44 82.0915 47.9998 82.0915Z" fill="#F5F5F5"/>
<path d="M24.8392 41.0766L24.7183 40.9288C25.2149 40.5239 25.7412 40.1568 26.2927 39.8306L26.3906 39.9976C25.8472 40.318 25.3287 40.6787 24.8392 41.0766Z" fill="#FF725E"/>
<path d="M20.8954 46.5639L20.7168 46.4967C21.3762 44.7423 22.4018 43.1485 23.7254 41.8215L23.8618 41.9579C22.5575 43.2655 21.5463 44.8356 20.8954 46.5639Z" fill="#FF725E"/>
<path d="M58.0935 55.0255C58.0791 53.3588 57.6576 51.7209 56.8657 50.2542C56.0739 48.7875 54.9357 47.5365 53.5501 46.6101C52.1645 45.6837 50.5735 45.1098 48.9156 44.9385C47.2576 44.7672 45.5829 45.0036 44.0372 45.6271C42.913 43.3236 41.1005 41.4265 38.8506 40.1985C36.6007 38.9705 34.0247 38.4722 31.4792 38.7728C28.9337 39.0733 26.5446 40.1577 24.6425 41.8759C22.7405 43.5941 21.4196 45.8611 20.8628 48.3631C18.1031 48.5372 15.5198 49.779 13.6602 51.8254C11.8006 53.8718 10.811 56.5619 10.9012 59.3255C10.9913 62.0892 12.1541 64.7091 14.143 66.63C16.132 68.5509 18.7908 69.6217 21.5559 69.6156H55.4093C57.1742 69.6179 58.884 69.0012 60.2411 67.8728C61.5981 66.7444 62.5165 65.1758 62.8362 63.4401C63.1559 61.7044 62.8568 59.9116 61.9909 58.3737C61.125 56.8358 59.7472 55.6503 58.0973 55.0236L58.0935 55.0255Z" fill="#FF725E"/>
<path d="M50.4787 51.5887H23.3875C23.167 51.5877 22.9558 51.4995 22.8001 51.3434C22.6443 51.1873 22.5567 50.9759 22.5562 50.7554C22.5567 50.5351 22.6444 50.3239 22.8002 50.1681C22.956 50.0123 23.1672 49.9246 23.3875 49.9241H50.4787C50.699 49.9246 50.9102 50.0123 51.066 50.1681C51.2218 50.3239 51.3096 50.5351 51.3101 50.7554C51.3096 50.9759 51.2219 51.1873 51.0661 51.3434C50.9104 51.4995 50.6992 51.5877 50.4787 51.5887Z" fill="#263238"/>
<path d="M46.3929 62.8398H27.4733C26.7318 62.8398 26.0208 62.5453 25.4965 62.021C24.9723 61.4968 24.6777 60.7857 24.6777 60.0443C24.6777 59.3029 24.9723 58.5918 25.4965 58.0676C26.0208 57.5433 26.7318 57.2488 27.4733 57.2488H46.3929C47.1344 57.2488 47.8454 57.5433 48.3697 58.0676C48.8939 58.5918 49.1885 59.3029 49.1885 60.0443C49.1885 60.7857 48.8939 61.4968 48.3697 62.021C47.8454 62.5453 47.1344 62.8398 46.3929 62.8398ZM27.4733 57.4408C26.7828 57.4408 26.1205 57.7151 25.6323 58.2033C25.144 58.6916 24.8697 59.3538 24.8697 60.0443C24.8697 60.7348 25.144 61.397 25.6323 61.8853C26.1205 62.3735 26.7828 62.6478 27.4733 62.6478H46.3929C47.0834 62.6478 47.7456 62.3735 48.2339 61.8853C48.7222 61.397 48.9965 60.7348 48.9965 60.0443C48.9965 59.3538 48.7222 58.6916 48.2339 58.2033C47.7456 57.7151 47.0834 57.4408 46.3929 57.4408H27.4733Z" fill="white"/>
<path d="M31.8934 62.1679H27.4774C26.9131 62.1684 26.3717 61.9452 25.9718 61.5471C25.572 61.149 25.3463 60.6086 25.3442 60.0444C25.3458 59.4815 25.5699 58.942 25.9678 58.5438C26.3656 58.1456 26.9049 57.921 27.4678 57.9189H31.8838C32.4467 57.921 32.9859 58.1456 33.3838 58.5438C33.7816 58.942 34.0058 59.4815 34.0073 60.0444C34.0053 60.6053 33.7822 61.1428 33.3865 61.5403C32.9908 61.9379 32.4543 62.1634 31.8934 62.1679Z" fill="white"/>
<path d="M51.2524 35.4491L47.66 50.7553H26.229L32.2232 25.2097L47.0629 28.6907L51.2524 35.4491Z" fill="#FF725E"/>
<path opacity="0.8" d="M51.2524 35.4491L47.66 50.7553H26.229L32.2232 25.2097L47.0629 28.6907L51.2524 35.4491Z" fill="#FAFAFA"/>
<path d="M48.4571 38.2945L32.1793 34.4737C32.1237 34.4608 32.0711 34.4371 32.0246 34.4039C31.9782 34.3706 31.9388 34.3285 31.9086 34.28C31.8785 34.2315 31.8582 34.1775 31.849 34.1211C31.8397 34.0647 31.8417 34.0071 31.8548 33.9515C31.8809 33.839 31.9505 33.7415 32.0484 33.6803C32.1463 33.6191 32.2645 33.5992 32.3771 33.6251L48.6567 37.4401C48.769 37.4671 48.8661 37.5372 48.9269 37.6354C48.9877 37.7336 49.0072 37.8518 48.9812 37.9643C48.9551 38.0774 48.8854 38.1755 48.7872 38.2374C48.689 38.2993 48.5703 38.3198 48.4571 38.2945Z" fill="#FF725E"/>
<path d="M47.835 40.9441L31.5573 37.1233C31.5015 37.1102 31.4489 37.0862 31.4025 37.0528C31.356 37.0194 31.3166 36.9771 31.2865 36.9284C31.2563 36.8797 31.2361 36.8256 31.2269 36.7691C31.2177 36.7126 31.2197 36.6548 31.2328 36.5991C31.2597 36.4868 31.3299 36.3898 31.4281 36.329C31.5262 36.2682 31.6444 36.2487 31.757 36.2746L48.0347 40.0954C48.1468 40.1219 48.2439 40.1917 48.3047 40.2896C48.3655 40.3875 48.3851 40.5054 48.3592 40.6177C48.3327 40.7303 48.2627 40.8279 48.1645 40.889C48.0662 40.9502 47.9478 40.97 47.835 40.9441Z" fill="#FF725E"/>
<path d="M47.2131 43.5841L30.9353 39.7652C30.823 39.7383 30.7259 39.6681 30.6652 39.57C30.6044 39.4718 30.5849 39.3536 30.6108 39.2411C30.6382 39.1291 30.7085 39.0323 30.8065 38.9716C30.9046 38.9109 31.0225 38.8912 31.135 38.9166L47.4128 42.7355C47.4685 42.7486 47.5211 42.7725 47.5675 42.806C47.614 42.8394 47.6534 42.8817 47.6836 42.9303C47.7137 42.979 47.734 43.0332 47.7432 43.0897C47.7524 43.1462 47.7504 43.2039 47.7372 43.2596C47.7241 43.3154 47.7002 43.368 47.6667 43.4144C47.6333 43.4609 47.591 43.5003 47.5424 43.5305C47.4937 43.5606 47.4396 43.5808 47.3831 43.5901C47.3266 43.5993 47.2688 43.5972 47.2131 43.5841Z" fill="#FF725E"/>
<path d="M46.5925 46.2414L30.3129 42.4321C30.2008 42.4048 30.1041 42.3345 30.0434 42.2364C29.9827 42.1384 29.9629 42.0204 29.9884 41.908C30.0153 41.7957 30.0855 41.6986 30.1837 41.6378C30.2818 41.577 30.4 41.5575 30.5125 41.5835L46.7903 45.4024C46.9027 45.4293 46.9999 45.4994 47.061 45.5975C47.1221 45.6956 47.1421 45.8138 47.1167 45.9265C47.0881 46.0373 47.0172 46.1324 46.9191 46.1913C46.821 46.2502 46.7038 46.2682 46.5925 46.2414Z" fill="#FF725E"/>
<path d="M39.4985 47.3722L29.6931 45.0682C29.582 45.0401 29.4864 44.9693 29.4271 44.8712C29.3678 44.773 29.3495 44.6555 29.3763 44.5441C29.3892 44.4884 29.4129 44.4358 29.4462 44.3894C29.4794 44.3429 29.5215 44.3035 29.57 44.2734C29.6185 44.2432 29.6725 44.2229 29.7289 44.2137C29.7853 44.2045 29.8429 44.2065 29.8985 44.2196L39.7059 46.5236C39.7616 46.5367 39.8142 46.5606 39.8607 46.5941C39.9071 46.6275 39.9466 46.6698 39.9767 46.7184C40.0068 46.7671 40.0271 46.8212 40.0363 46.8777C40.0455 46.9342 40.0435 46.992 40.0304 47.0477C40.0173 47.1043 39.9931 47.1576 39.9592 47.2047C39.9252 47.2518 39.8822 47.2916 39.8327 47.3218C39.7831 47.352 39.7281 47.3721 39.6707 47.3807C39.6133 47.3894 39.5548 47.3865 39.4985 47.3722Z" fill="#FF725E"/>
<path d="M51.2527 35.4491L45.7788 34.1646L47.0633 28.6907L51.2527 35.4491Z" fill="#FF725E"/>
<path d="M54.9293 49.9834L50.3789 79.9181H51.2775L51.8784 75.9572H63.4714L62.8704 79.9181H63.769L68.3194 49.9834H54.9293ZM63.5923 75.1642H51.9994L52.6464 70.9172H64.2394L63.5923 75.1642ZM64.3603 70.1242H52.7655L53.4125 65.8772H65.0055L64.3603 70.1242ZM65.1283 65.0842H53.5315L54.1786 60.8372H65.7715L65.1283 65.0842ZM65.8963 60.0442H54.2995L54.9447 55.7952H66.5376L65.8963 60.0442ZM55.0656 55.0023L55.7107 50.7552H67.3037L66.6586 55.0023H55.0656Z" fill="#263238"/>
<path d="M70.1913 49.9834H56.8013L61.3517 79.9181H62.2502L61.6473 75.9572H73.2403L73.8432 79.9181H74.7418L70.1913 49.9834ZM57.817 50.7514H69.4099L70.055 54.9984H58.4621L57.817 50.7514ZM58.585 55.7914H70.176L70.8211 60.0404H59.2282L58.585 55.7914ZM59.353 60.8333H70.9459L71.5872 65.088H59.9942L59.353 60.8333ZM60.121 65.8733H71.7139L72.359 70.1204H60.7603L60.121 65.8733ZM61.5322 75.1604L60.887 70.9133H72.48L73.1251 75.1604H61.5322Z" fill="#263238"/>
<path opacity="0.4" d="M70.1913 49.9834H56.8013L61.3517 79.9181H62.2502L61.6473 75.9572H73.2403L73.8432 79.9181H74.7418L70.1913 49.9834ZM57.817 50.7514H69.4099L70.055 54.9984H58.4621L57.817 50.7514ZM58.585 55.7914H70.176L70.8211 60.0404H59.2282L58.585 55.7914ZM59.353 60.8333H70.9459L71.5872 65.088H59.9942L59.353 60.8333ZM60.121 65.8733H71.7139L72.359 70.1204H60.7603L60.121 65.8733ZM61.5322 75.1604L60.887 70.9133H72.48L73.1251 75.1604H61.5322Z" fill="white"/>
<path d="M64.4545 20.8474C64.8385 21.1431 65.1764 21.4388 65.5259 21.746C65.8753 22.0532 66.2094 22.3681 66.5396 22.6925C67.2098 23.3494 67.8358 24.0498 68.4136 24.7892L68.6286 25.0791L68.7361 25.2231C68.7969 25.308 68.8514 25.3972 68.8993 25.49C69.0538 25.8002 69.144 26.1385 69.1643 26.4845C69.1922 27.0178 69.1371 27.5522 69.0011 28.0685C68.7664 28.9953 68.4087 29.8864 67.9374 30.7181L66.9563 30.3188C67.1525 29.4902 67.2917 28.6492 67.3729 27.8017C67.4094 27.4363 67.3978 27.0677 67.3384 26.7053C67.3211 26.6019 67.2825 26.5032 67.2251 26.4154C67.2155 26.4058 67.2116 26.4058 67.2059 26.4001L67.1022 26.2829L66.8948 26.0468C66.3188 25.4247 65.7121 24.818 65.0708 24.2343C64.4296 23.6506 63.7652 23.0631 63.1201 22.5178L64.4545 20.8474Z" fill="#7F3E3B"/>
<path d="M67.3462 29.9231L66.2422 30.6911L67.5862 31.5052C67.5862 31.5052 68.2793 30.8428 67.9817 30.2284L67.3462 29.9231Z" fill="#7F3E3B"/>
<path d="M65.6929 31.9527L66.7105 32.523L67.5937 31.4958L66.242 30.6836L65.6929 31.9527Z" fill="#7F3E3B"/>
<path d="M56.9376 16.8344C56.9683 16.9592 56.928 17.0764 56.8474 17.0975C56.7667 17.1186 56.6746 17.0341 56.6419 16.9055C56.6093 16.7768 56.6515 16.6636 56.7322 16.6424C56.8128 16.6213 56.905 16.7039 56.9376 16.8344Z" fill="#263238"/>
<path d="M56.9398 17.0745C56.8892 17.4918 56.7813 17.9001 56.6191 18.2879C56.7196 18.3266 56.8272 18.3431 56.9346 18.3361C57.042 18.3292 57.1466 18.299 57.2412 18.2476L56.9398 17.0745Z" fill="#630F0F"/>
<path d="M57.2006 16.034C57.1856 16.0389 57.1695 16.0389 57.1545 16.034C57.0674 15.9971 56.9729 15.9811 56.8785 15.9874C56.7841 15.9938 56.6925 16.0222 56.6112 16.0705C56.5951 16.0793 56.5764 16.0818 56.5586 16.0777C56.5408 16.0736 56.5251 16.0631 56.5144 16.0483C56.5038 16.0334 56.499 16.0151 56.5009 15.997C56.5028 15.9788 56.5113 15.9619 56.5248 15.9496C56.6261 15.8859 56.7414 15.8476 56.8607 15.8379C56.98 15.8282 57.0999 15.8474 57.2102 15.8939C57.2249 15.8998 57.2373 15.9102 57.2457 15.9235C57.2541 15.9369 57.258 15.9526 57.257 15.9684C57.2559 15.9842 57.2499 15.9992 57.2398 16.0113C57.2296 16.0235 57.2159 16.0321 57.2006 16.036V16.034Z" fill="#263238"/>
<path d="M60.8737 17.1841C61.0523 18.3553 61.3038 20.1505 62.3329 20.6036C62.3329 20.6036 62.4328 21.8209 60.3995 22.5524C58.1646 23.3569 58.9326 21.8286 58.9326 21.8286C60.0481 21.097 59.691 20.2042 59.1726 19.4305L60.8737 17.1841Z" fill="#7F3E3B"/>
<path d="M62.5251 20.3519C62.5251 19.9852 62.1507 19.3497 61.7724 19.3919C61.3558 19.4399 59.766 20.0255 59.1862 20.5612C58.6063 21.0969 59.0172 22.0357 59.0172 22.0357L62.5251 20.3519Z" fill="#263238"/>
<path d="M74.784 64.7423C74.6842 64.846 74.5709 64.9343 74.4826 64.9209C74.4442 64.9209 74.3942 64.894 74.3693 64.8095C74.3626 64.7881 74.3607 64.7655 74.3637 64.7433C74.3667 64.7211 74.3745 64.6998 74.3866 64.6809C74.4941 64.4985 74.9626 64.4044 74.976 64.4006C74.9824 64.3993 74.9891 64.3999 74.9952 64.4022C75.0014 64.4046 75.0067 64.4087 75.0106 64.414C75.0138 64.4195 75.0155 64.4258 75.0155 64.4322C75.0155 64.4386 75.0138 64.4449 75.0106 64.4505C74.9453 64.5553 74.8694 64.6531 74.784 64.7423ZM74.4691 64.6828C74.4586 64.6923 74.4496 64.7033 74.4422 64.7154C74.4356 64.7266 74.4313 64.739 74.4296 64.7519C74.428 64.7648 74.429 64.7779 74.4326 64.7903C74.4518 64.8498 74.4806 64.8537 74.4902 64.8556C74.5882 64.8671 74.7898 64.6636 74.9107 64.485C74.7505 64.5167 74.5995 64.5844 74.4691 64.6828Z" fill="#FF725E"/>
<path d="M75.0067 64.4563C75.0031 64.4606 74.9985 64.4639 74.9933 64.4659C74.8339 64.5159 74.4173 64.5024 74.3232 64.3719C74.3097 64.3511 74.3035 64.3264 74.3056 64.3017C74.3077 64.277 74.3179 64.2537 74.3347 64.2355C74.35 64.2148 74.3696 64.1975 74.3921 64.1849C74.4146 64.1723 74.4396 64.1647 74.4653 64.1626C74.6746 64.1376 74.9914 64.3968 75.0048 64.4083C75.0093 64.412 75.0127 64.4168 75.0147 64.4222C75.0167 64.4275 75.0173 64.4334 75.0163 64.4391C75.0148 64.4456 75.0115 64.4516 75.0067 64.4563ZM74.3981 64.2643C74.3981 64.2643 74.3981 64.2643 74.3885 64.2759C74.3616 64.3104 74.3731 64.3258 74.3789 64.3335C74.4327 64.4103 74.7264 64.4448 74.9069 64.416C74.7852 64.3093 74.6338 64.2424 74.473 64.224C74.4584 64.2252 74.4442 64.2294 74.4313 64.2363C74.4184 64.2433 74.4071 64.2528 74.3981 64.2643Z" fill="#FF725E"/>
<path d="M63.1684 68.7553C62.9879 68.7553 62.8132 68.7304 62.7537 68.6497C62.7389 68.6283 62.731 68.6028 62.731 68.5768C62.731 68.5507 62.7389 68.5253 62.7537 68.5038C62.765 68.4842 62.7802 68.4671 62.7984 68.4536C62.8165 68.4401 62.8372 68.4304 62.8593 68.4251C63.0935 68.3617 63.5869 68.642 63.6081 68.6555C63.6137 68.6586 63.6183 68.6634 63.621 68.6693C63.6238 68.6752 63.6246 68.6818 63.6234 68.6881C63.6227 68.6952 63.6197 68.7018 63.6148 68.707C63.61 68.7122 63.6035 68.7157 63.5965 68.7169C63.4552 68.7418 63.3119 68.7547 63.1684 68.7553ZM62.9457 68.4827C62.924 68.4795 62.902 68.4795 62.8804 68.4827C62.8669 68.4853 62.8541 68.4908 62.8428 68.4988C62.8316 68.5067 62.8221 68.5169 62.8151 68.5288C62.7921 68.571 62.7997 68.5902 62.8151 68.6036C62.8804 68.6939 63.2356 68.6958 63.4986 68.6593C63.328 68.5655 63.1409 68.5056 62.9476 68.4827H62.9457Z" fill="#FF725E"/>
<path d="M63.5963 68.7167C63.592 68.7184 63.5872 68.7184 63.5828 68.7167C63.412 68.6419 63.076 68.3327 63.1009 68.1772C63.1009 68.1388 63.1336 68.0927 63.2257 68.0831C63.26 68.079 63.2947 68.0819 63.3278 68.0918C63.3608 68.1017 63.3914 68.1184 63.4177 68.1407C63.5469 68.2938 63.6236 68.4842 63.6366 68.6841C63.6374 68.69 63.6365 68.6959 63.6341 68.7013C63.6318 68.7067 63.628 68.7114 63.6232 68.7148C63.6191 68.717 63.6146 68.7184 63.6099 68.7187C63.6053 68.719 63.6006 68.7184 63.5963 68.7167ZM63.2526 68.1407H63.2315C63.172 68.1407 63.1681 68.1695 63.1662 68.1772C63.1508 68.2732 63.3812 68.5132 63.5502 68.6169C63.5336 68.4556 63.4664 68.3037 63.3582 68.183C63.3281 68.159 63.291 68.1456 63.2526 68.1446V68.1407Z" fill="#FF725E"/>
<path d="M65.1475 68.6841H63.7363L63.5962 65.4163H65.0074L65.1475 68.6841Z" fill="#7F3E3B"/>
<path d="M76.4508 63.8995L75.1452 64.3737L73.4863 61.4476L74.7919 60.9734L76.4508 63.8995Z" fill="#7F3E3B"/>
<path d="M74.9398 64.2451L76.0419 63.1047C76.0615 63.0851 76.087 63.0726 76.1145 63.0691C76.1419 63.0656 76.1698 63.0714 76.1936 63.0855L77.288 63.7575C77.3145 63.774 77.3368 63.7963 77.3535 63.8227C77.3701 63.8491 77.3805 63.8789 77.3841 63.9099C77.3876 63.9409 77.384 63.9723 77.3737 64.0018C77.3634 64.0312 77.3466 64.058 77.3245 64.08C76.9405 64.464 76.7235 64.6426 76.2397 65.1437C75.9402 65.4509 75.0531 66.4877 74.6422 66.9216C74.2314 67.3555 73.7552 66.9946 73.8858 66.7834C74.4714 65.8368 74.8246 64.9363 74.8458 64.4698C74.8483 64.3858 74.8818 64.3058 74.9398 64.2451Z" fill="#263238"/>
<path d="M63.7442 68.521H65.2802C65.3083 68.5208 65.3356 68.5302 65.3577 68.5476C65.3797 68.5651 65.395 68.5896 65.4012 68.617L65.6796 69.8708C65.6866 69.901 65.6866 69.9325 65.6796 69.9628C65.6726 69.9931 65.6587 70.0214 65.6391 70.0455C65.6194 70.0696 65.5945 70.0889 65.5663 70.1019C65.538 70.1148 65.5071 70.1212 65.476 70.1204C64.9212 70.1204 64.1186 70.08 63.4197 70.08C62.6037 70.08 62.2466 70.1242 61.2885 70.1242C60.7125 70.1242 60.5493 69.5386 60.7913 69.4848C61.8953 69.2429 62.4463 69.218 63.4005 68.6304C63.5027 68.5628 63.6217 68.5249 63.7442 68.521Z" fill="#263238"/>
<path d="M59.9136 23.6487C59.6967 24.1959 59.4663 24.7047 59.2282 25.2269C58.9901 25.7492 58.7367 26.256 58.4756 26.7629C57.9464 27.8058 57.3399 28.8077 56.6612 29.76C56.4826 30.002 56.2906 30.242 56.0852 30.48C55.9796 30.601 55.872 30.7124 55.7453 30.8372C55.5986 30.9757 55.4385 31.0992 55.2672 31.2058C54.9852 31.3784 54.6883 31.5255 54.3802 31.6455C54.0922 31.7626 53.8042 31.8586 53.522 31.9431C52.4095 32.2657 51.268 32.478 50.114 32.5767L49.8989 31.5399C50.9261 31.1693 51.9706 30.7834 52.9325 30.3533C53.1706 30.242 53.4048 30.1287 53.6237 30.0116C53.8261 29.9065 54.0189 29.7837 54.1997 29.6448C54.2621 29.5979 54.3194 29.5445 54.3706 29.4855C54.4378 29.4068 54.5184 29.3146 54.5914 29.2205C54.7392 29.0285 54.8852 28.825 55.0253 28.608C55.3114 28.1818 55.5764 27.7191 55.8317 27.2487C56.0871 26.7783 56.3367 26.2887 56.5748 25.8087C57.0528 24.8352 57.5156 23.8272 57.9418 22.8423L59.9136 23.6487Z" fill="#7F3E3B"/>
<path d="M63.1337 20.0045C65.1574 19.8471 66.9737 22.848 66.9737 22.848L65.5203 25.2096C64.4746 24.7962 63.5021 24.2173 62.6403 23.4951C61.2636 22.2989 61.7513 20.114 63.1337 20.0045Z" fill="#FF725E"/>
<path opacity="0.3" d="M63.0068 22.5332L65.1361 25.3998L65.0401 25.5169C65.0401 25.5169 64.3067 24.9409 63.458 24.1076L63.0068 22.5332Z" fill="black"/>
<path d="M57.5217 22.2413C57.4084 23.2301 59.0577 27.6038 59.4417 32.7917L66.9508 32.0525C66.897 31.0579 66.3479 26.8685 65.3534 22.1395C65.0788 20.8339 64.067 19.8355 62.7594 20.0909H62.723C61.6728 20.2959 60.6356 20.5619 59.6164 20.8877C59.0398 21.0976 58.4779 21.3458 57.9345 21.6307C57.8208 21.6907 57.7236 21.7777 57.6516 21.8842C57.5796 21.9908 57.535 22.1134 57.5217 22.2413Z" fill="#FF725E"/>
<path opacity="0.3" d="M58.2817 25.8739C58.4085 26.4019 58.5409 26.974 58.6657 27.5827C59.8081 27.3119 59.5873 24.7795 59.6104 24.7468L58.2817 25.8739Z" fill="black"/>
<path d="M59.9674 22.731C60.5434 24.7067 58.4122 27.339 58.4122 27.339L56.2657 25.9566C56.2657 25.9566 56.2503 24.146 56.9357 22.7329C57.8055 20.9435 59.5565 21.3217 59.9674 22.731Z" fill="#FF725E"/>
<path d="M49.9202 31.3517L49.0581 31.2346L49.0715 33.0356C49.0715 33.0356 50.2331 33.1546 50.8783 32.354L50.7515 32.0161C50.6858 31.8406 50.5738 31.6863 50.4274 31.5693C50.281 31.4524 50.1058 31.3772 49.9202 31.3517Z" fill="#7F3E3B"/>
<path d="M47.5854 31.6513L48.1365 33.1181L49.0792 33.0356L49.0658 31.2346L47.5854 31.6513Z" fill="#7F3E3B"/>
<path opacity="0.2" d="M63.5962 65.4182L63.6749 67.2537H65.0861L65.0074 65.4182H63.5962Z" fill="black"/>
<path opacity="0.2" d="M74.7919 60.9734L73.4863 61.4476L74.4041 63.0681L75.6483 62.4806L74.7919 60.9734Z" fill="black"/>
<path d="M61.0101 15.5099C61.3077 17.0593 61.5612 17.9502 60.9909 18.9313C60.1346 20.4059 58.0725 20.1889 57.3199 18.7604C56.6402 17.4721 56.2677 15.1566 57.6002 14.1678C57.8939 13.9468 58.2393 13.8049 58.6035 13.7554C58.9677 13.7059 59.3385 13.7506 59.6805 13.8852C60.0224 14.0198 60.3242 14.2399 60.557 14.5243C60.7898 14.8087 60.9458 15.148 61.0101 15.5099Z" fill="#7F3E3B"/>
<path d="M58.4006 16.5446C57.456 17.0169 57.4406 15.5078 57.5155 15.1871C57.1603 15.5289 56.6803 15.8726 55.8086 15.4963C54.7373 15.0335 55.0406 13.8239 55.8086 13.8393C55.8086 13.8393 55.2326 12.7449 56.4922 12.6297C57.0105 12.6125 57.5274 12.6919 58.0166 12.8639C58.0166 12.8639 58.4832 11.6409 59.6198 12.2342C60.2208 12.5471 60.7008 13.4726 60.7008 13.4726C60.7008 13.4726 63.1488 13.8355 61.8202 15.1142C62.1216 15.7708 61.9622 17.9078 61.1846 18.8217C60.8448 19.2211 57.936 19.1039 58.4006 16.5446Z" fill="#263238"/>
<path d="M60.2769 14.0966C60.2769 14.0966 60.7204 13.4842 60.7569 12.071C61.7917 13.1962 60.2769 14.0966 60.2769 14.0966Z" fill="#263238"/>
<path d="M58.8595 16.4581C58.8845 16.8497 58.7792 17.2386 58.56 17.564C58.272 17.9922 57.8803 17.8079 57.7536 17.3567C57.6384 16.9516 57.6499 16.2392 58.0397 15.9704C58.4295 15.7016 58.8192 15.9858 58.8595 16.4581Z" fill="#7F3E3B"/>
<path d="M62.1084 32.5305C62.1084 32.5305 64.758 43.0905 66.029 47.0323C67.4191 51.3407 73.4518 62.6361 73.4518 62.6361L75.8191 61.6051C75.8191 61.6051 71.2534 51.3215 70.278 47.0131C69.2201 42.3436 66.9545 32.0486 66.9545 32.0486L62.1084 32.5305Z" fill="#263238"/>
<path d="M72.7511 61.8566C72.7415 61.8566 73.5191 62.9683 73.5191 62.9683L76.1783 61.7933L75.6407 60.6931L72.7511 61.8566Z" fill="#FF725E"/>
<path opacity="0.3" d="M63.4924 36.2535C65.3702 36.4321 65.8502 43.3211 65.9769 46.8769C65.1993 44.4308 63.9494 39.7019 63.0815 36.3438C63.2044 36.2682 63.3492 36.2364 63.4924 36.2535Z" fill="black"/>
<path d="M59.4453 32.7916C59.4453 32.7916 59.7506 43.6434 60.3247 47.9097C60.9218 52.3468 63.1298 66.5337 63.1298 66.5337H65.5202C65.5202 66.5337 64.9672 52.2066 64.6428 47.8233C64.2895 43.0444 64.3816 32.302 64.3816 32.302L59.4453 32.7916Z" fill="#263238"/>
<path d="M62.6537 65.4182C62.6441 65.4182 62.8457 66.864 62.8457 66.864L65.7506 66.7641L65.7775 65.4201L62.6537 65.4182Z" fill="#FF725E"/>
</svg>
